<svg width="300" height="64" viewBox="0 0 300 64" fill="none" xmlns="http://www.w3.org/2000/svg">
<g clip-path="url(#clip0_7751_3932)">
<path d="M8.21875 15.7734V17H2.53125V15.7734H8.21875ZM2.82812 5.625V17H1.32031V5.625H2.82812ZM14.7109 15.5547V11.2031C14.7109 10.8698 14.6432 10.5807 14.5078 10.3359C14.3776 10.0859 14.1797 9.89323 13.9141 9.75781C13.6484 9.6224 13.3203 9.55469 12.9297 9.55469C12.5651 9.55469 12.2448 9.61719 11.9688 9.74219C11.6979 9.86719 11.4844 10.0312 11.3281 10.2344C11.1771 10.4375 11.1016 10.6562 11.1016 10.8906H9.65625C9.65625 10.5885 9.73438 10.2891 9.89062 9.99219C10.0469 9.69531 10.2708 9.42708 10.5625 9.1875C10.8594 8.94271 11.2135 8.75 11.625 8.60938C12.0417 8.46354 12.5052 8.39062 13.0156 8.39062C13.6302 8.39062 14.1719 8.49479 14.6406 8.70312C15.1146 8.91146 15.4844 9.22656 15.75 9.64844C16.0208 10.0651 16.1562 10.5885 16.1562 11.2188V15.1562C16.1562 15.4375 16.1797 15.737 16.2266 16.0547C16.2786 16.3724 16.3542 16.6458 16.4531 16.875V17H14.9453C14.8724 16.8333 14.8151 16.612 14.7734 16.3359C14.7318 16.0547 14.7109 15.7943 14.7109 15.5547ZM14.9609 11.875L14.9766 12.8906H13.5156C13.1042 12.8906 12.737 12.9245 12.4141 12.9922C12.0911 13.0547 11.8203 13.151 11.6016 13.2812C11.3828 13.4115 11.2161 13.5755 11.1016 13.7734C10.987 13.9661 10.9297 14.1927 10.9297 14.4531C10.9297 14.7188 10.9896 14.9609 11.1094 15.1797C11.2292 15.3984 11.4089 15.5729 11.6484 15.7031C11.8932 15.8281 12.1927 15.8906 12.5469 15.8906C12.9896 15.8906 13.3802 15.7969 13.7188 15.6094C14.0573 15.4219 14.3255 15.1927 14.5234 14.9219C14.7266 14.651 14.8359 14.388 14.8516 14.1328L15.4688 14.8281C15.4323 15.0469 15.3333 15.2891 15.1719 15.5547C15.0104 15.8203 14.7943 16.0755 14.5234 16.3203C14.2578 16.5599 13.9401 16.7604 13.5703 16.9219C13.2057 17.0781 12.7943 17.1562 12.3359 17.1562C11.763 17.1562 11.2604 17.0443 10.8281 16.8203C10.401 16.5964 10.0677 16.2969 9.82812 15.9219C9.59375 15.5417 9.47656 15.1172 9.47656 14.6484C9.47656 14.1953 9.5651 13.7969 9.74219 13.4531C9.91927 13.1042 10.1745 12.8151 10.5078 12.5859C10.8411 12.3516 11.2422 12.1745 11.7109 12.0547C12.1797 11.9349 12.7031 11.875 13.2812 11.875H14.9609ZM18.4219 5H19.875V15.3594L19.75 17H18.4219V5ZM25.5859 12.7031V12.8672C25.5859 13.4818 25.513 14.0521 25.3672 14.5781C25.2214 15.099 25.0078 15.5521 24.7266 15.9375C24.4453 16.3229 24.1016 16.6224 23.6953 16.8359C23.2891 17.0495 22.8229 17.1562 22.2969 17.1562C21.7604 17.1562 21.2891 17.0651 20.8828 16.8828C20.4818 16.6953 20.1432 16.4271 19.8672 16.0781C19.5911 15.7292 19.3698 15.3073 19.2031 14.8125C19.0417 14.3177 18.9297 13.7604 18.8672 13.1406V12.4219C18.9297 11.7969 19.0417 11.237 19.2031 10.7422C19.3698 10.2474 19.5911 9.82552 19.8672 9.47656C20.1432 9.1224 20.4818 8.85417 20.8828 8.67188C21.2839 8.48438 21.75 8.39062 22.2812 8.39062C22.8125 8.39062 23.2839 8.49479 23.6953 8.70312C24.1068 8.90625 24.4505 9.19792 24.7266 9.57812C25.0078 9.95833 25.2214 10.4141 25.3672 10.9453C25.513 11.4714 25.5859 12.0573 25.5859 12.7031ZM24.1328 12.8672V12.7031C24.1328 12.2812 24.0938 11.8854 24.0156 11.5156C23.9375 11.1406 23.8125 10.8125 23.6406 10.5312C23.4688 10.2448 23.2422 10.0208 22.9609 9.85938C22.6797 9.69271 22.3333 9.60938 21.9219 9.60938C21.5573 9.60938 21.2396 9.67188 20.9688 9.79688C20.7031 9.92188 20.4766 10.0911 20.2891 10.3047C20.1016 10.513 19.9479 10.7526 19.8281 11.0234C19.7135 11.2891 19.6276 11.5651 19.5703 11.8516V13.7344C19.6536 14.099 19.7891 14.4505 19.9766 14.7891C20.1693 15.1224 20.4245 15.3958 20.7422 15.6094C21.0651 15.8229 21.4635 15.9297 21.9375 15.9297C22.3281 15.9297 22.6615 15.8516 22.9375 15.6953C23.2188 15.5339 23.4453 15.3125 23.6172 15.0312C23.7943 14.75 23.9245 14.4245 24.0078 14.0547C24.0911 13.6849 24.1328 13.2891 24.1328 12.8672ZM30.9219 17.1562C30.3333 17.1562 29.7995 17.0573 29.3203 16.8594C28.8464 16.6562 28.4375 16.3724 28.0938 16.0078C27.7552 15.6432 27.4948 15.2109 27.3125 14.7109C27.1302 14.2109 27.0391 13.6641 27.0391 13.0703V12.7422C27.0391 12.0547 27.1406 11.4427 27.3438 10.9062C27.5469 10.3646 27.8229 9.90625 28.1719 9.53125C28.5208 9.15625 28.9167 8.8724 29.3594 8.67969C29.8021 8.48698 30.2604 8.39062 30.7344 8.39062C31.3385 8.39062 31.8594 8.49479 32.2969 8.70312C32.7396 8.91146 33.1016 9.20312 33.3828 9.57812C33.6641 9.94792 33.8724 10.3854 34.0078 10.8906C34.1432 11.3906 34.2109 11.9375 34.2109 12.5312V13.1797H27.8984V12H32.7656V11.8906C32.7448 11.5156 32.6667 11.151 32.5312 10.7969C32.401 10.4427 32.1927 10.151 31.9062 9.92188C31.6198 9.69271 31.2292 9.57812 30.7344 9.57812C30.4062 9.57812 30.1042 9.64844 29.8281 9.78906C29.5521 9.92448 29.3151 10.1276 29.1172 10.3984C28.9193 10.6693 28.7656 11 28.6562 11.3906C28.5469 11.7812 28.4922 12.2318 28.4922 12.7422V13.0703C28.4922 13.4714 28.5469 13.849 28.6562 14.2031C28.7708 14.5521 28.9349 14.8594 29.1484 15.125C29.3672 15.3906 29.6302 15.599 29.9375 15.75C30.25 15.901 30.6042 15.9766 31 15.9766C31.5104 15.9766 31.9427 15.8724 32.2969 15.6641C32.651 15.4557 32.9609 15.1771 33.2266 14.8281L34.1016 15.5234C33.9193 15.7995 33.6875 16.0625 33.4062 16.3125C33.125 16.5625 32.7786 16.7656 32.3672 16.9219C31.9609 17.0781 31.4792 17.1562 30.9219 17.1562ZM37.4688 5V17H36.0156V5H37.4688Z" fill="#0F172A"/>
<rect x="1" y="25" width="298" height="38" rx="7" fill="white"/>
<rect x="1" y="25" width="298" height="38" rx="7" stroke="#0F172A" stroke-width="2"/>
<path d="M17.5234 37.625V49H16.0391V37.625H17.5234ZM21.1797 37.625V38.8594H12.3906V37.625H21.1797ZM25.375 49.1562C24.7865 49.1562 24.2526 49.0573 23.7734 48.8594C23.2995 48.6562 22.8906 48.3724 22.5469 48.0078C22.2083 47.6432 21.9479 47.2109 21.7656 46.7109C21.5833 46.2109 21.4922 45.6641 21.4922 45.0703V44.7422C21.4922 44.0547 21.5938 43.4427 21.7969 42.9062C22 42.3646 22.276 41.9062 22.625 41.5312C22.974 41.1562 23.3698 40.8724 23.8125 40.6797C24.2552 40.487 24.7135 40.3906 25.1875 40.3906C25.7917 40.3906 26.3125 40.4948 26.75 40.7031C27.1927 40.9115 27.5547 41.2031 27.8359 41.5781C28.1172 41.9479 28.3255 42.3854 28.4609 42.8906C28.5964 43.3906 28.6641 43.9375 28.6641 44.5312V45.1797H22.3516V44H27.2188V43.8906C27.1979 43.5156 27.1198 43.151 26.9844 42.7969C26.8542 42.4427 26.6458 42.151 26.3594 41.9219C26.0729 41.6927 25.6823 41.5781 25.1875 41.5781C24.8594 41.5781 24.5573 41.6484 24.2812 41.7891C24.0052 41.9245 23.7682 42.1276 23.5703 42.3984C23.3724 42.6693 23.2188 43 23.1094 43.3906C23 43.7812 22.9453 44.2318 22.9453 44.7422V45.0703C22.9453 45.4714 23 45.849 23.1094 46.2031C23.224 46.5521 23.388 46.8594 23.6016 47.125C23.8203 47.3906 24.0833 47.599 24.3906 47.75C24.7031 47.901 25.0573 47.9766 25.4531 47.9766C25.9635 47.9766 26.3958 47.8724 26.75 47.6641C27.1042 47.4557 27.4141 47.1771 27.6797 46.8281L28.5547 47.5234C28.3724 47.7995 28.1406 48.0625 27.8594 48.3125C27.5781 48.5625 27.2318 48.7656 26.8203 48.9219C26.4141 49.0781 25.9323 49.1562 25.375 49.1562ZM31.3281 40.5469L33.1797 43.625L35.0547 40.5469H36.75L33.9844 44.7188L36.8359 49H35.1641L33.2109 45.8281L31.2578 49H29.5781L32.4219 44.7188L29.6641 40.5469H31.3281ZM41.8281 40.5469V41.6562H37.2578V40.5469H41.8281ZM38.8047 38.4922H40.25V46.9062C40.25 47.1927 40.2943 47.4089 40.3828 47.5547C40.4714 47.7005 40.5859 47.7969 40.7266 47.8438C40.8672 47.8906 41.0182 47.9141 41.1797 47.9141C41.2995 47.9141 41.4245 47.9036 41.5547 47.8828C41.6901 47.8568 41.7917 47.8359 41.8594 47.8203L41.8672 49C41.7526 49.0365 41.6016 49.0703 41.4141 49.1016C41.2318 49.138 41.0104 49.1562 40.75 49.1562C40.3958 49.1562 40.0703 49.0859 39.7734 48.9453C39.4766 48.8047 39.2396 48.5703 39.0625 48.2422C38.8906 47.9089 38.8047 47.4609 38.8047 46.8984V38.4922Z" fill="#0F172A"/>
</g>
<defs>
<clipPath id="clip0_7751_3932">
<rect width="300" height="64" rx="4" fill="white"/>
</clipPath>
</defs>
</svg>
