<svg width="300" height="64" viewBox="0 0 300 64" fill="none" xmlns="http://www.w3.org/2000/svg">
<g clip-path="url(#clip0_7751_3929)">
<path d="M8.21875 15.7734V17H2.53125V15.7734H8.21875ZM2.82812 5.625V17H1.32031V5.625H2.82812ZM14.7109 15.5547V11.2031C14.7109 10.8698 14.6432 10.5807 14.5078 10.3359C14.3776 10.0859 14.1797 9.89323 13.9141 9.75781C13.6484 9.6224 13.3203 9.55469 12.9297 9.55469C12.5651 9.55469 12.2448 9.61719 11.9688 9.74219C11.6979 9.86719 11.4844 10.0312 11.3281 10.2344C11.1771 10.4375 11.1016 10.6562 11.1016 10.8906H9.65625C9.65625 10.5885 9.73438 10.2891 9.89062 9.99219C10.0469 9.69531 10.2708 9.42708 10.5625 9.1875C10.8594 8.94271 11.2135 8.75 11.625 8.60938C12.0417 8.46354 12.5052 8.39062 13.0156 8.39062C13.6302 8.39062 14.1719 8.49479 14.6406 8.70312C15.1146 8.91146 15.4844 9.22656 15.75 9.64844C16.0208 10.0651 16.1562 10.5885 16.1562 11.2188V15.1562C16.1562 15.4375 16.1797 15.737 16.2266 16.0547C16.2786 16.3724 16.3542 16.6458 16.4531 16.875V17H14.9453C14.8724 16.8333 14.8151 16.612 14.7734 16.3359C14.7318 16.0547 14.7109 15.7943 14.7109 15.5547ZM14.9609 11.875L14.9766 12.8906H13.5156C13.1042 12.8906 12.737 12.9245 12.4141 12.9922C12.0911 13.0547 11.8203 13.151 11.6016 13.2812C11.3828 13.4115 11.2161 13.5755 11.1016 13.7734C10.987 13.9661 10.9297 14.1927 10.9297 14.4531C10.9297 14.7188 10.9896 14.9609 11.1094 15.1797C11.2292 15.3984 11.4089 15.5729 11.6484 15.7031C11.8932 15.8281 12.1927 15.8906 12.5469 15.8906C12.9896 15.8906 13.3802 15.7969 13.7188 15.6094C14.0573 15.4219 14.3255 15.1927 14.5234 14.9219C14.7266 14.651 14.8359 14.388 14.8516 14.1328L15.4688 14.8281C15.4323 15.0469 15.3333 15.2891 15.1719 15.5547C15.0104 15.8203 14.7943 16.0755 14.5234 16.3203C14.2578 16.5599 13.9401 16.7604 13.5703 16.9219C13.2057 17.0781 12.7943 17.1562 12.3359 17.1562C11.763 17.1562 11.2604 17.0443 10.8281 16.8203C10.401 16.5964 10.0677 16.2969 9.82812 15.9219C9.59375 15.5417 9.47656 15.1172 9.47656 14.6484C9.47656 14.1953 9.5651 13.7969 9.74219 13.4531C9.91927 13.1042 10.1745 12.8151 10.5078 12.5859C10.8411 12.3516 11.2422 12.1745 11.7109 12.0547C12.1797 11.9349 12.7031 11.875 13.2812 11.875H14.9609ZM18.4219 5H19.875V15.3594L19.75 17H18.4219V5ZM25.5859 12.7031V12.8672C25.5859 13.4818 25.513 14.0521 25.3672 14.5781C25.2214 15.099 25.0078 15.5521 24.7266 15.9375C24.4453 16.3229 24.1016 16.6224 23.6953 16.8359C23.2891 17.0495 22.8229 17.1562 22.2969 17.1562C21.7604 17.1562 21.2891 17.0651 20.8828 16.8828C20.4818 16.6953 20.1432 16.4271 19.8672 16.0781C19.5911 15.7292 19.3698 15.3073 19.2031 14.8125C19.0417 14.3177 18.9297 13.7604 18.8672 13.1406V12.4219C18.9297 11.7969 19.0417 11.237 19.2031 10.7422C19.3698 10.2474 19.5911 9.82552 19.8672 9.47656C20.1432 9.1224 20.4818 8.85417 20.8828 8.67188C21.2839 8.48438 21.75 8.39062 22.2812 8.39062C22.8125 8.39062 23.2839 8.49479 23.6953 8.70312C24.1068 8.90625 24.4505 9.19792 24.7266 9.57812C25.0078 9.95833 25.2214 10.4141 25.3672 10.9453C25.513 11.4714 25.5859 12.0573 25.5859 12.7031ZM24.1328 12.8672V12.7031C24.1328 12.2812 24.0938 11.8854 24.0156 11.5156C23.9375 11.1406 23.8125 10.8125 23.6406 10.5312C23.4688 10.2448 23.2422 10.0208 22.9609 9.85938C22.6797 9.69271 22.3333 9.60938 21.9219 9.60938C21.5573 9.60938 21.2396 9.67188 20.9688 9.79688C20.7031 9.92188 20.4766 10.0911 20.2891 10.3047C20.1016 10.513 19.9479 10.7526 19.8281 11.0234C19.7135 11.2891 19.6276 11.5651 19.5703 11.8516V13.7344C19.6536 14.099 19.7891 14.4505 19.9766 14.7891C20.1693 15.1224 20.4245 15.3958 20.7422 15.6094C21.0651 15.8229 21.4635 15.9297 21.9375 15.9297C22.3281 15.9297 22.6615 15.8516 22.9375 15.6953C23.2188 15.5339 23.4453 15.3125 23.6172 15.0312C23.7943 14.75 23.9245 14.4245 24.0078 14.0547C24.0911 13.6849 24.1328 13.2891 24.1328 12.8672ZM30.9219 17.1562C30.3333 17.1562 29.7995 17.0573 29.3203 16.8594C28.8464 16.6562 28.4375 16.3724 28.0938 16.0078C27.7552 15.6432 27.4948 15.2109 27.3125 14.7109C27.1302 14.2109 27.0391 13.6641 27.0391 13.0703V12.7422C27.0391 12.0547 27.1406 11.4427 27.3438 10.9062C27.5469 10.3646 27.8229 9.90625 28.1719 9.53125C28.5208 9.15625 28.9167 8.8724 29.3594 8.67969C29.8021 8.48698 30.2604 8.39062 30.7344 8.39062C31.3385 8.39062 31.8594 8.49479 32.2969 8.70312C32.7396 8.91146 33.1016 9.20312 33.3828 9.57812C33.6641 9.94792 33.8724 10.3854 34.0078 10.8906C34.1432 11.3906 34.2109 11.9375 34.2109 12.5312V13.1797H27.8984V12H32.7656V11.8906C32.7448 11.5156 32.6667 11.151 32.5312 10.7969C32.401 10.4427 32.1927 10.151 31.9062 9.92188C31.6198 9.69271 31.2292 9.57812 30.7344 9.57812C30.4062 9.57812 30.1042 9.64844 29.8281 9.78906C29.5521 9.92448 29.3151 10.1276 29.1172 10.3984C28.9193 10.6693 28.7656 11 28.6562 11.3906C28.5469 11.7812 28.4922 12.2318 28.4922 12.7422V13.0703C28.4922 13.4714 28.5469 13.849 28.6562 14.2031C28.7708 14.5521 28.9349 14.8594 29.1484 15.125C29.3672 15.3906 29.6302 15.599 29.9375 15.75C30.25 15.901 30.6042 15.9766 31 15.9766C31.5104 15.9766 31.9427 15.8724 32.2969 15.6641C32.651 15.4557 32.9609 15.1771 33.2266 14.8281L34.1016 15.5234C33.9193 15.7995 33.6875 16.0625 33.4062 16.3125C33.125 16.5625 32.7786 16.7656 32.3672 16.9219C31.9609 17.0781 31.4792 17.1562 30.9219 17.1562ZM37.4688 5V17H36.0156V5H37.4688Z" fill="#0F172A"/>
<rect x="1" y="25" width="298" height="38" rx="7" fill="white"/>
<rect x="1" y="25" width="298" height="38" rx="7" stroke="#0F172A" stroke-width="2"/>
<path d="M17.5156 44.5391H14.4766V43.3125H17.5156C18.1042 43.3125 18.5807 43.2188 18.9453 43.0312C19.3099 42.8438 19.5755 42.5833 19.7422 42.25C19.9141 41.9167 20 41.5365 20 41.1094C20 40.7188 19.9141 40.3516 19.7422 40.0078C19.5755 39.6641 19.3099 39.388 18.9453 39.1797C18.5807 38.9661 18.1042 38.8594 17.5156 38.8594H14.8281V49H13.3203V37.625H17.5156C18.375 37.625 19.1016 37.7734 19.6953 38.0703C20.2891 38.3672 20.7396 38.7786 21.0469 39.3047C21.3542 39.8255 21.5078 40.4219 21.5078 41.0938C21.5078 41.8229 21.3542 42.4453 21.0469 42.9609C20.7396 43.4766 20.2891 43.8698 19.6953 44.1406C19.1016 44.4062 18.375 44.5391 17.5156 44.5391ZM24.7656 37V49H23.3125V37H24.7656ZM32.0703 47.5547V43.2031C32.0703 42.8698 32.0026 42.5807 31.8672 42.3359C31.737 42.0859 31.5391 41.8932 31.2734 41.7578C31.0078 41.6224 30.6797 41.5547 30.2891 41.5547C29.9245 41.5547 29.6042 41.6172 29.3281 41.7422C29.0573 41.8672 28.8438 42.0312 28.6875 42.2344C28.5365 42.4375 28.4609 42.6562 28.4609 42.8906H27.0156C27.0156 42.5885 27.0938 42.2891 27.25 41.9922C27.4062 41.6953 27.6302 41.4271 27.9219 41.1875C28.2188 40.9427 28.5729 40.75 28.9844 40.6094C29.401 40.4635 29.8646 40.3906 30.375 40.3906C30.9896 40.3906 31.5312 40.4948 32 40.7031C32.474 40.9115 32.8438 41.2266 33.1094 41.6484C33.3802 42.0651 33.5156 42.5885 33.5156 43.2188V47.1562C33.5156 47.4375 33.5391 47.737 33.5859 48.0547C33.638 48.3724 33.7135 48.6458 33.8125 48.875V49H32.3047C32.2318 48.8333 32.1745 48.612 32.1328 48.3359C32.0911 48.0547 32.0703 47.7943 32.0703 47.5547ZM32.3203 43.875L32.3359 44.8906H30.875C30.4635 44.8906 30.0964 44.9245 29.7734 44.9922C29.4505 45.0547 29.1797 45.151 28.9609 45.2812C28.7422 45.4115 28.5755 45.5755 28.4609 45.7734C28.3464 45.9661 28.2891 46.1927 28.2891 46.4531C28.2891 46.7188 28.349 46.9609 28.4688 47.1797C28.5885 47.3984 28.7682 47.5729 29.0078 47.7031C29.2526 47.8281 29.5521 47.8906 29.9062 47.8906C30.349 47.8906 30.7396 47.7969 31.0781 47.6094C31.4167 47.4219 31.6849 47.1927 31.8828 46.9219C32.0859 46.651 32.1953 46.388 32.2109 46.1328L32.8281 46.8281C32.7917 47.0469 32.6927 47.2891 32.5312 47.5547C32.3698 47.8203 32.1536 48.0755 31.8828 48.3203C31.6172 48.5599 31.2995 48.7604 30.9297 48.9219C30.5651 49.0781 30.1536 49.1562 29.6953 49.1562C29.1224 49.1562 28.6198 49.0443 28.1875 48.8203C27.7604 48.5964 27.4271 48.2969 27.1875 47.9219C26.9531 47.5417 26.8359 47.1172 26.8359 46.6484C26.8359 46.1953 26.9245 45.7969 27.1016 45.4531C27.2786 45.1042 27.5339 44.8151 27.8672 44.5859C28.2005 44.3516 28.6016 44.1745 29.0703 44.0547C29.5391 43.9349 30.0625 43.875 30.6406 43.875H32.3203ZM39.1719 47.9688C39.5156 47.9688 39.8333 47.8984 40.125 47.7578C40.4167 47.6172 40.6562 47.4245 40.8438 47.1797C41.0312 46.9297 41.138 46.6458 41.1641 46.3281H42.5391C42.513 46.8281 42.3438 47.2943 42.0312 47.7266C41.724 48.1536 41.3203 48.5 40.8203 48.7656C40.3203 49.026 39.7708 49.1562 39.1719 49.1562C38.5365 49.1562 37.9818 49.0443 37.5078 48.8203C37.0391 48.5964 36.6484 48.2891 36.3359 47.8984C36.0286 47.5078 35.7969 47.0599 35.6406 46.5547C35.4896 46.0443 35.4141 45.5052 35.4141 44.9375V44.6094C35.4141 44.0417 35.4896 43.5052 35.6406 43C35.7969 42.4896 36.0286 42.0391 36.3359 41.6484C36.6484 41.2578 37.0391 40.9505 37.5078 40.7266C37.9818 40.5026 38.5365 40.3906 39.1719 40.3906C39.8333 40.3906 40.4115 40.526 40.9062 40.7969C41.401 41.0625 41.7891 41.4271 42.0703 41.8906C42.3568 42.349 42.513 42.8698 42.5391 43.4531H41.1641C41.138 43.1042 41.0391 42.7891 40.8672 42.5078C40.7005 42.2266 40.4714 42.0026 40.1797 41.8359C39.8932 41.6641 39.5573 41.5781 39.1719 41.5781C38.7292 41.5781 38.3568 41.6667 38.0547 41.8438C37.7578 42.0156 37.5208 42.25 37.3438 42.5469C37.1719 42.8385 37.0469 43.1641 36.9688 43.5234C36.8958 43.8776 36.8594 44.2396 36.8594 44.6094V44.9375C36.8594 45.3073 36.8958 45.6719 36.9688 46.0312C37.0417 46.3906 37.1641 46.7161 37.3359 47.0078C37.513 47.2995 37.75 47.5339 38.0469 47.7109C38.349 47.8828 38.724 47.9688 39.1719 47.9688ZM47.6719 49.1562C47.0833 49.1562 46.5495 49.0573 46.0703 48.8594C45.5964 48.6562 45.1875 48.3724 44.8438 48.0078C44.5052 47.6432 44.2448 47.2109 44.0625 46.7109C43.8802 46.2109 43.7891 45.6641 43.7891 45.0703V44.7422C43.7891 44.0547 43.8906 43.4427 44.0938 42.9062C44.2969 42.3646 44.5729 41.9062 44.9219 41.5312C45.2708 41.1562 45.6667 40.8724 46.1094 40.6797C46.5521 40.487 47.0104 40.3906 47.4844 40.3906C48.0885 40.3906 48.6094 40.4948 49.0469 40.7031C49.4896 40.9115 49.8516 41.2031 50.1328 41.5781C50.4141 41.9479 50.6224 42.3854 50.7578 42.8906C50.8932 43.3906 50.9609 43.9375 50.9609 44.5312V45.1797H44.6484V44H49.5156V43.8906C49.4948 43.5156 49.4167 43.151 49.2812 42.7969C49.151 42.4427 48.9427 42.151 48.6562 41.9219C48.3698 41.6927 47.9792 41.5781 47.4844 41.5781C47.1562 41.5781 46.8542 41.6484 46.5781 41.7891C46.3021 41.9245 46.0651 42.1276 45.8672 42.3984C45.6693 42.6693 45.5156 43 45.4062 43.3906C45.2969 43.7812 45.2422 44.2318 45.2422 44.7422V45.0703C45.2422 45.4714 45.2969 45.849 45.4062 46.2031C45.5208 46.5521 45.6849 46.8594 45.8984 47.125C46.1172 47.3906 46.3802 47.599 46.6875 47.75C47 47.901 47.3542 47.9766 47.75 47.9766C48.2604 47.9766 48.6927 47.8724 49.0469 47.6641C49.401 47.4557 49.7109 47.1771 49.9766 46.8281L50.8516 47.5234C50.6693 47.7995 50.4375 48.0625 50.1562 48.3125C49.875 48.5625 49.5286 48.7656 49.1172 48.9219C48.7109 49.0781 48.2292 49.1562 47.6719 49.1562ZM54.0938 37V49H52.6484V37H54.0938ZM53.75 44.4531L53.1484 44.4297C53.1536 43.8516 53.2396 43.3177 53.4062 42.8281C53.5729 42.3333 53.8073 41.9036 54.1094 41.5391C54.4115 41.1745 54.7708 40.8932 55.1875 40.6953C55.6094 40.4922 56.0755 40.3906 56.5859 40.3906C57.0026 40.3906 57.3776 40.4479 57.7109 40.5625C58.0443 40.6719 58.3281 40.849 58.5625 41.0938C58.8021 41.3385 58.9844 41.6562 59.1094 42.0469C59.2344 42.4323 59.2969 42.9036 59.2969 43.4609V49H57.8438V43.4453C57.8438 43.0026 57.7786 42.6484 57.6484 42.3828C57.5182 42.112 57.3281 41.9167 57.0781 41.7969C56.8281 41.6719 56.5208 41.6094 56.1562 41.6094C55.7969 41.6094 55.4688 41.6849 55.1719 41.8359C54.8802 41.987 54.6276 42.1953 54.4141 42.4609C54.2057 42.7266 54.0417 43.0312 53.9219 43.375C53.8073 43.7135 53.75 44.0729 53.75 44.4531ZM61.0781 44.8672V44.6875C61.0781 44.0781 61.1667 43.513 61.3438 42.9922C61.5208 42.4661 61.776 42.0104 62.1094 41.625C62.4427 41.2344 62.8464 40.9323 63.3203 40.7188C63.7943 40.5 64.3255 40.3906 64.9141 40.3906C65.5078 40.3906 66.0417 40.5 66.5156 40.7188C66.9948 40.9323 67.401 41.2344 67.7344 41.625C68.0729 42.0104 68.3307 42.4661 68.5078 42.9922C68.6849 43.513 68.7734 44.0781 68.7734 44.6875V44.8672C68.7734 45.4766 68.6849 46.0417 68.5078 46.5625C68.3307 47.0833 68.0729 47.5391 67.7344 47.9297C67.401 48.3151 66.9974 48.6172 66.5234 48.8359C66.0547 49.0495 65.5234 49.1562 64.9297 49.1562C64.3359 49.1562 63.8021 49.0495 63.3281 48.8359C62.8542 48.6172 62.4479 48.3151 62.1094 47.9297C61.776 47.5391 61.5208 47.0833 61.3438 46.5625C61.1667 46.0417 61.0781 45.4766 61.0781 44.8672ZM62.5234 44.6875V44.8672C62.5234 45.2891 62.5729 45.6875 62.6719 46.0625C62.7708 46.4323 62.9193 46.7604 63.1172 47.0469C63.3203 47.3333 63.5729 47.5599 63.875 47.7266C64.1771 47.888 64.5286 47.9688 64.9297 47.9688C65.3255 47.9688 65.6719 47.888 65.9688 47.7266C66.2708 47.5599 66.5208 47.3333 66.7188 47.0469C66.9167 46.7604 67.0651 46.4323 67.1641 46.0625C67.2682 45.6875 67.3203 45.2891 67.3203 44.8672V44.6875C67.3203 44.2708 67.2682 43.8776 67.1641 43.5078C67.0651 43.1328 66.9141 42.8021 66.7109 42.5156C66.513 42.224 66.263 41.9948 65.9609 41.8281C65.6641 41.6615 65.3151 41.5781 64.9141 41.5781C64.5182 41.5781 64.1693 41.6615 63.8672 41.8281C63.5703 41.9948 63.3203 42.224 63.1172 42.5156C62.9193 42.8021 62.7708 43.1328 62.6719 43.5078C62.5729 43.8776 62.5234 44.2708 62.5234 44.6875ZM72.1562 37V49H70.7031V37H72.1562ZM79.8047 47.3594V37H81.2578V49H79.9297L79.8047 47.3594ZM74.1172 44.8672V44.7031C74.1172 44.0573 74.1953 43.4714 74.3516 42.9453C74.513 42.4141 74.7396 41.9583 75.0312 41.5781C75.3281 41.1979 75.6797 40.9062 76.0859 40.7031C76.4974 40.4948 76.9557 40.3906 77.4609 40.3906C77.9922 40.3906 78.4557 40.4844 78.8516 40.6719C79.2526 40.8542 79.5911 41.1224 79.8672 41.4766C80.1484 41.8255 80.3698 42.2474 80.5312 42.7422C80.6927 43.237 80.8047 43.7969 80.8672 44.4219V45.1406C80.8099 45.7604 80.6979 46.3177 80.5312 46.8125C80.3698 47.3073 80.1484 47.7292 79.8672 48.0781C79.5911 48.4271 79.2526 48.6953 78.8516 48.8828C78.4505 49.0651 77.9818 49.1562 77.4453 49.1562C76.9505 49.1562 76.4974 49.0495 76.0859 48.8359C75.6797 48.6224 75.3281 48.3229 75.0312 47.9375C74.7396 47.5521 74.513 47.099 74.3516 46.5781C74.1953 46.0521 74.1172 45.4818 74.1172 44.8672ZM75.5703 44.7031V44.8672C75.5703 45.2891 75.612 45.6849 75.6953 46.0547C75.7839 46.4245 75.9193 46.75 76.1016 47.0312C76.2839 47.3125 76.5156 47.5339 76.7969 47.6953C77.0781 47.8516 77.4141 47.9297 77.8047 47.9297C78.2839 47.9297 78.6771 47.8281 78.9844 47.625C79.2969 47.4219 79.5469 47.1536 79.7344 46.8203C79.9219 46.487 80.0677 46.125 80.1719 45.7344V43.8516C80.1094 43.5651 80.0182 43.2891 79.8984 43.0234C79.7839 42.7526 79.6328 42.513 79.4453 42.3047C79.263 42.0911 79.0365 41.9219 78.7656 41.7969C78.5 41.6719 78.1849 41.6094 77.8203 41.6094C77.4245 41.6094 77.0833 41.6927 76.7969 41.8594C76.5156 42.0208 76.2839 42.2448 76.1016 42.5312C75.9193 42.8125 75.7839 43.1406 75.6953 43.5156C75.612 43.8854 75.5703 44.2812 75.5703 44.7031ZM87.0156 49.1562C86.4271 49.1562 85.8932 49.0573 85.4141 48.8594C84.9401 48.6562 84.5312 48.3724 84.1875 48.0078C83.849 47.6432 83.5885 47.2109 83.4062 46.7109C83.224 46.2109 83.1328 45.6641 83.1328 45.0703V44.7422C83.1328 44.0547 83.2344 43.4427 83.4375 42.9062C83.6406 42.3646 83.9167 41.9062 84.2656 41.5312C84.6146 41.1562 85.0104 40.8724 85.4531 40.6797C85.8958 40.487 86.3542 40.3906 86.8281 40.3906C87.4323 40.3906 87.9531 40.4948 88.3906 40.7031C88.8333 40.9115 89.1953 41.2031 89.4766 41.5781C89.7578 41.9479 89.9661 42.3854 90.1016 42.8906C90.237 43.3906 90.3047 43.9375 90.3047 44.5312V45.1797H83.9922V44H88.8594V43.8906C88.8385 43.5156 88.7604 43.151 88.625 42.7969C88.4948 42.4427 88.2865 42.151 88 41.9219C87.7135 41.6927 87.3229 41.5781 86.8281 41.5781C86.5 41.5781 86.1979 41.6484 85.9219 41.7891C85.6458 41.9245 85.4089 42.1276 85.2109 42.3984C85.013 42.6693 84.8594 43 84.75 43.3906C84.6406 43.7812 84.5859 44.2318 84.5859 44.7422V45.0703C84.5859 45.4714 84.6406 45.849 84.75 46.2031C84.8646 46.5521 85.0286 46.8594 85.2422 47.125C85.4609 47.3906 85.724 47.599 86.0312 47.75C86.3438 47.901 86.6979 47.9766 87.0938 47.9766C87.6042 47.9766 88.0365 47.8724 88.3906 47.6641C88.7448 47.4557 89.0547 47.1771 89.3203 46.8281L90.1953 47.5234C90.013 47.7995 89.7812 48.0625 89.5 48.3125C89.2188 48.5625 88.8724 48.7656 88.4609 48.9219C88.0547 49.0781 87.5729 49.1562 87.0156 49.1562ZM93.4375 41.875V49H91.9922V40.5469H93.3984L93.4375 41.875ZM96.0781 40.5L96.0703 41.8438C95.9505 41.8177 95.8359 41.8021 95.7266 41.7969C95.6224 41.7865 95.5026 41.7812 95.3672 41.7812C95.0339 41.7812 94.7396 41.8333 94.4844 41.9375C94.2292 42.0417 94.013 42.1875 93.8359 42.375C93.6589 42.5625 93.5182 42.7865 93.4141 43.0469C93.3151 43.3021 93.25 43.5833 93.2188 43.8906L92.8125 44.125C92.8125 43.6146 92.862 43.1354 92.9609 42.6875C93.0651 42.2396 93.224 41.8438 93.4375 41.5C93.651 41.151 93.9219 40.8802 94.25 40.6875C94.5833 40.4896 94.9792 40.3906 95.4375 40.3906C95.5417 40.3906 95.6615 40.4036 95.7969 40.4297C95.9323 40.4505 96.026 40.474 96.0781 40.5Z" fill="#94A3B8"/>
</g>
<defs>
<clipPath id="clip0_7751_3929">
<rect width="300" height="64" rx="4" fill="white"/>
</clipPath>
</defs>
</svg>
