<svg width="300" height="82" viewBox="0 0 300 82" fill="none" xmlns="http://www.w3.org/2000/svg">
<g clip-path="url(#clip0_7755_3266)">
<path d="M8.21875 15.7734V17H2.53125V15.7734H8.21875ZM2.82812 5.625V17H1.32031V5.625H2.82812ZM14.7109 15.5547V11.2031C14.7109 10.8698 14.6432 10.5807 14.5078 10.3359C14.3776 10.0859 14.1797 9.89323 13.9141 9.75781C13.6484 9.6224 13.3203 9.55469 12.9297 9.55469C12.5651 9.55469 12.2448 9.61719 11.9688 9.74219C11.6979 9.86719 11.4844 10.0312 11.3281 10.2344C11.1771 10.4375 11.1016 10.6562 11.1016 10.8906H9.65625C9.65625 10.5885 9.73438 10.2891 9.89062 9.99219C10.0469 9.69531 10.2708 9.42708 10.5625 9.1875C10.8594 8.94271 11.2135 8.75 11.625 8.60938C12.0417 8.46354 12.5052 8.39062 13.0156 8.39062C13.6302 8.39062 14.1719 8.49479 14.6406 8.70312C15.1146 8.91146 15.4844 9.22656 15.75 9.64844C16.0208 10.0651 16.1562 10.5885 16.1562 11.2188V15.1562C16.1562 15.4375 16.1797 15.737 16.2266 16.0547C16.2786 16.3724 16.3542 16.6458 16.4531 16.875V17H14.9453C14.8724 16.8333 14.8151 16.612 14.7734 16.3359C14.7318 16.0547 14.7109 15.7943 14.7109 15.5547ZM14.9609 11.875L14.9766 12.8906H13.5156C13.1042 12.8906 12.737 12.9245 12.4141 12.9922C12.0911 13.0547 11.8203 13.151 11.6016 13.2812C11.3828 13.4115 11.2161 13.5755 11.1016 13.7734C10.987 13.9661 10.9297 14.1927 10.9297 14.4531C10.9297 14.7188 10.9896 14.9609 11.1094 15.1797C11.2292 15.3984 11.4089 15.5729 11.6484 15.7031C11.8932 15.8281 12.1927 15.8906 12.5469 15.8906C12.9896 15.8906 13.3802 15.7969 13.7188 15.6094C14.0573 15.4219 14.3255 15.1927 14.5234 14.9219C14.7266 14.651 14.8359 14.388 14.8516 14.1328L15.4688 14.8281C15.4323 15.0469 15.3333 15.2891 15.1719 15.5547C15.0104 15.8203 14.7943 16.0755 14.5234 16.3203C14.2578 16.5599 13.9401 16.7604 13.5703 16.9219C13.2057 17.0781 12.7943 17.1562 12.3359 17.1562C11.763 17.1562 11.2604 17.0443 10.8281 16.8203C10.401 16.5964 10.0677 16.2969 9.82812 15.9219C9.59375 15.5417 9.47656 15.1172 9.47656 14.6484C9.47656 14.1953 9.5651 13.7969 9.74219 13.4531C9.91927 13.1042 10.1745 12.8151 10.5078 12.5859C10.8411 12.3516 11.2422 12.1745 11.7109 12.0547C12.1797 11.9349 12.7031 11.875 13.2812 11.875H14.9609ZM18.4219 5H19.875V15.3594L19.75 17H18.4219V5ZM25.5859 12.7031V12.8672C25.5859 13.4818 25.513 14.0521 25.3672 14.5781C25.2214 15.099 25.0078 15.5521 24.7266 15.9375C24.4453 16.3229 24.1016 16.6224 23.6953 16.8359C23.2891 17.0495 22.8229 17.1562 22.2969 17.1562C21.7604 17.1562 21.2891 17.0651 20.8828 16.8828C20.4818 16.6953 20.1432 16.4271 19.8672 16.0781C19.5911 15.7292 19.3698 15.3073 19.2031 14.8125C19.0417 14.3177 18.9297 13.7604 18.8672 13.1406V12.4219C18.9297 11.7969 19.0417 11.237 19.2031 10.7422C19.3698 10.2474 19.5911 9.82552 19.8672 9.47656C20.1432 9.1224 20.4818 8.85417 20.8828 8.67188C21.2839 8.48438 21.75 8.39062 22.2812 8.39062C22.8125 8.39062 23.2839 8.49479 23.6953 8.70312C24.1068 8.90625 24.4505 9.19792 24.7266 9.57812C25.0078 9.95833 25.2214 10.4141 25.3672 10.9453C25.513 11.4714 25.5859 12.0573 25.5859 12.7031ZM24.1328 12.8672V12.7031C24.1328 12.2812 24.0938 11.8854 24.0156 11.5156C23.9375 11.1406 23.8125 10.8125 23.6406 10.5312C23.4688 10.2448 23.2422 10.0208 22.9609 9.85938C22.6797 9.69271 22.3333 9.60938 21.9219 9.60938C21.5573 9.60938 21.2396 9.67188 20.9688 9.79688C20.7031 9.92188 20.4766 10.0911 20.2891 10.3047C20.1016 10.513 19.9479 10.7526 19.8281 11.0234C19.7135 11.2891 19.6276 11.5651 19.5703 11.8516V13.7344C19.6536 14.099 19.7891 14.4505 19.9766 14.7891C20.1693 15.1224 20.4245 15.3958 20.7422 15.6094C21.0651 15.8229 21.4635 15.9297 21.9375 15.9297C22.3281 15.9297 22.6615 15.8516 22.9375 15.6953C23.2188 15.5339 23.4453 15.3125 23.6172 15.0312C23.7943 14.75 23.9245 14.4245 24.0078 14.0547C24.0911 13.6849 24.1328 13.2891 24.1328 12.8672ZM30.9219 17.1562C30.3333 17.1562 29.7995 17.0573 29.3203 16.8594C28.8464 16.6562 28.4375 16.3724 28.0938 16.0078C27.7552 15.6432 27.4948 15.2109 27.3125 14.7109C27.1302 14.2109 27.0391 13.6641 27.0391 13.0703V12.7422C27.0391 12.0547 27.1406 11.4427 27.3438 10.9062C27.5469 10.3646 27.8229 9.90625 28.1719 9.53125C28.5208 9.15625 28.9167 8.8724 29.3594 8.67969C29.8021 8.48698 30.2604 8.39062 30.7344 8.39062C31.3385 8.39062 31.8594 8.49479 32.2969 8.70312C32.7396 8.91146 33.1016 9.20312 33.3828 9.57812C33.6641 9.94792 33.8724 10.3854 34.0078 10.8906C34.1432 11.3906 34.2109 11.9375 34.2109 12.5312V13.1797H27.8984V12H32.7656V11.8906C32.7448 11.5156 32.6667 11.151 32.5312 10.7969C32.401 10.4427 32.1927 10.151 31.9062 9.92188C31.6198 9.69271 31.2292 9.57812 30.7344 9.57812C30.4062 9.57812 30.1042 9.64844 29.8281 9.78906C29.5521 9.92448 29.3151 10.1276 29.1172 10.3984C28.9193 10.6693 28.7656 11 28.6562 11.3906C28.5469 11.7812 28.4922 12.2318 28.4922 12.7422V13.0703C28.4922 13.4714 28.5469 13.849 28.6562 14.2031C28.7708 14.5521 28.9349 14.8594 29.1484 15.125C29.3672 15.3906 29.6302 15.599 29.9375 15.75C30.25 15.901 30.6042 15.9766 31 15.9766C31.5104 15.9766 31.9427 15.8724 32.2969 15.6641C32.651 15.4557 32.9609 15.1771 33.2266 14.8281L34.1016 15.5234C33.9193 15.7995 33.6875 16.0625 33.4062 16.3125C33.125 16.5625 32.7786 16.7656 32.3672 16.9219C31.9609 17.0781 31.4792 17.1562 30.9219 17.1562ZM37.4688 5V17H36.0156V5H37.4688Z" fill="#0F172A"/>
<g clip-path="url(#clip1_7755_3266)">
<rect x="1" y="25" width="298" height="38" rx="7" fill="white"/>
<rect x="1" y="25" width="298" height="38" rx="7" stroke="#DC2626" stroke-width="2"/>
<path d="M276 40V44M276 48H276.01M285 44C285 45.1819 284.767 46.3522 284.315 47.4442C283.863 48.5361 283.2 49.5282 282.364 50.364C281.528 51.1997 280.536 51.8626 279.444 52.3149C278.352 52.7672 277.182 53 276 53C274.818 53 273.648 52.7672 272.556 52.3149C271.464 51.8626 270.472 51.1997 269.636 50.364C268.8 49.5282 268.137 48.5361 267.685 47.4442C267.233 46.3522 267 45.1819 267 44C267 41.6131 267.948 39.3239 269.636 37.636C271.324 35.9482 273.613 35 276 35C278.387 35 280.676 35.9482 282.364 37.636C284.052 39.3239 285 41.6131 285 44Z" stroke="#DC2626" stroke-width="2" stroke-linecap="round" stroke-linejoin="round"/>
<path d="M6.41016 76.0801V77H1.89258V76.0801H6.41016ZM2.12109 68.4688V77H0.990234V68.4688H2.12109ZM5.8125 72.1367V73.0566H1.89258V72.1367H5.8125ZM6.35156 68.4688V69.3945H1.89258V68.4688H6.35156ZM8.73047 71.6562V77H7.64648V70.6602H8.70117L8.73047 71.6562ZM10.7109 70.625L10.7051 71.6328C10.6152 71.6133 10.5293 71.6016 10.4473 71.5977C10.3691 71.5898 10.2793 71.5859 10.1777 71.5859C9.92773 71.5859 9.70703 71.625 9.51562 71.7031C9.32422 71.7812 9.16211 71.8906 9.0293 72.0312C8.89648 72.1719 8.79102 72.3398 8.71289 72.5352C8.63867 72.7266 8.58984 72.9375 8.56641 73.168L8.26172 73.3438C8.26172 72.9609 8.29883 72.6016 8.37305 72.2656C8.45117 71.9297 8.57031 71.6328 8.73047 71.375C8.89062 71.1133 9.09375 70.9102 9.33984 70.7656C9.58984 70.6172 9.88672 70.543 10.2305 70.543C10.3086 70.543 10.3984 70.5527 10.5 70.5723C10.6016 70.5879 10.6719 70.6055 10.7109 70.625ZM12.7969 71.6562V77H11.7129V70.6602H12.7676L12.7969 71.6562ZM14.7773 70.625L14.7715 71.6328C14.6816 71.6133 14.5957 71.6016 14.5137 71.5977C14.4355 71.5898 14.3457 71.5859 14.2441 71.5859C13.9941 71.5859 13.7734 71.625 13.582 71.7031C13.3906 71.7812 13.2285 71.8906 13.0957 72.0312C12.9629 72.1719 12.8574 72.3398 12.7793 72.5352C12.7051 72.7266 12.6562 72.9375 12.6328 73.168L12.3281 73.3438C12.3281 72.9609 12.3652 72.6016 12.4395 72.2656C12.5176 71.9297 12.6367 71.6328 12.7969 71.375C12.957 71.1133 13.1602 70.9102 13.4062 70.7656C13.6562 70.6172 13.9531 70.543 14.2969 70.543C14.375 70.543 14.4648 70.5527 14.5664 70.5723C14.668 70.5879 14.7383 70.6055 14.7773 70.625ZM15.375 73.9004V73.7656C15.375 73.3086 15.4414 72.8848 15.5742 72.4941C15.707 72.0996 15.8984 71.7578 16.1484 71.4688C16.3984 71.1758 16.7012 70.9492 17.0566 70.7891C17.4121 70.625 17.8105 70.543 18.252 70.543C18.6973 70.543 19.0977 70.625 19.4531 70.7891C19.8125 70.9492 20.1172 71.1758 20.3672 71.4688C20.6211 71.7578 20.8145 72.0996 20.9473 72.4941C21.0801 72.8848 21.1465 73.3086 21.1465 73.7656V73.9004C21.1465 74.3574 21.0801 74.7812 20.9473 75.1719C20.8145 75.5625 20.6211 75.9043 20.3672 76.1973C20.1172 76.4863 19.8145 76.7129 19.459 76.877C19.1074 77.0371 18.709 77.1172 18.2637 77.1172C17.8184 77.1172 17.418 77.0371 17.0625 76.877C16.707 76.7129 16.4023 76.4863 16.1484 76.1973C15.8984 75.9043 15.707 75.5625 15.5742 75.1719C15.4414 74.7812 15.375 74.3574 15.375 73.9004ZM16.459 73.7656V73.9004C16.459 74.2168 16.4961 74.5156 16.5703 74.7969C16.6445 75.0742 16.7559 75.3203 16.9043 75.5352C17.0566 75.75 17.2461 75.9199 17.4727 76.0449C17.6992 76.166 17.9629 76.2266 18.2637 76.2266C18.5605 76.2266 18.8203 76.166 19.043 76.0449C19.2695 75.9199 19.457 75.75 19.6055 75.5352C19.7539 75.3203 19.8652 75.0742 19.9395 74.7969C20.0176 74.5156 20.0566 74.2168 20.0566 73.9004V73.7656C20.0566 73.4531 20.0176 73.1582 19.9395 72.8809C19.8652 72.5996 19.752 72.3516 19.5996 72.1367C19.4512 71.918 19.2637 71.7461 19.0371 71.6211C18.8145 71.4961 18.5527 71.4336 18.252 71.4336C17.9551 71.4336 17.6934 71.4961 17.4668 71.6211C17.2441 71.7461 17.0566 71.918 16.9043 72.1367C16.7559 72.3516 16.6445 72.5996 16.5703 72.8809C16.4961 73.1582 16.459 73.4531 16.459 73.7656ZM23.5898 71.6562V77H22.5059V70.6602H23.5605L23.5898 71.6562ZM25.5703 70.625L25.5645 71.6328C25.4746 71.6133 25.3887 71.6016 25.3066 71.5977C25.2285 71.5898 25.1387 71.5859 25.0371 71.5859C24.7871 71.5859 24.5664 71.625 24.375 71.7031C24.1836 71.7812 24.0215 71.8906 23.8887 72.0312C23.7559 72.1719 23.6504 72.3398 23.5723 72.5352C23.498 72.7266 23.4492 72.9375 23.4258 73.168L23.1211 73.3438C23.1211 72.9609 23.1582 72.6016 23.2324 72.2656C23.3105 71.9297 23.4297 71.6328 23.5898 71.375C23.75 71.1133 23.9531 70.9102 24.1992 70.7656C24.4492 70.6172 24.7461 70.543 25.0898 70.543C25.168 70.543 25.2578 70.5527 25.3594 70.5723C25.4609 70.5879 25.5312 70.6055 25.5703 70.625ZM30.627 71.9199V77H29.5371V70.6602H30.5684L30.627 71.9199ZM30.4043 73.5898L29.9004 73.5723C29.9043 73.1387 29.9609 72.7383 30.0703 72.3711C30.1797 72 30.3418 71.6777 30.5566 71.4043C30.7715 71.1309 31.0391 70.9199 31.3594 70.7715C31.6797 70.6191 32.0508 70.543 32.4727 70.543C32.7695 70.543 33.043 70.5859 33.293 70.6719C33.543 70.7539 33.7598 70.8848 33.9434 71.0645C34.127 71.2441 34.2695 71.4746 34.3711 71.7559C34.4727 72.0371 34.5234 72.377 34.5234 72.7754V77H33.4395V72.8281C33.4395 72.4961 33.3828 72.2305 33.2695 72.0312C33.1602 71.832 33.0039 71.6875 32.8008 71.5977C32.5977 71.5039 32.3594 71.457 32.0859 71.457C31.7656 71.457 31.498 71.5137 31.2832 71.627C31.0684 71.7402 30.8965 71.8965 30.7676 72.0957C30.6387 72.2949 30.5449 72.5234 30.4863 72.7812C30.4316 73.0352 30.4043 73.3047 30.4043 73.5898ZM34.5117 72.9922L33.7852 73.2148C33.7891 72.8672 33.8457 72.5332 33.9551 72.2129C34.0684 71.8926 34.2305 71.6074 34.4414 71.3574C34.6562 71.1074 34.9199 70.9102 35.2324 70.7656C35.5449 70.6172 35.9023 70.543 36.3047 70.543C36.6445 70.543 36.9453 70.5879 37.207 70.6777C37.4727 70.7676 37.6953 70.9062 37.875 71.0938C38.0586 71.2773 38.1973 71.5137 38.291 71.8027C38.3848 72.0918 38.4316 72.4355 38.4316 72.834V77H37.3418V72.8223C37.3418 72.4668 37.2852 72.1914 37.1719 71.9961C37.0625 71.7969 36.9062 71.6582 36.7031 71.5801C36.5039 71.498 36.2656 71.457 35.9883 71.457C35.75 71.457 35.5391 71.498 35.3555 71.5801C35.1719 71.6621 35.0176 71.7754 34.8926 71.9199C34.7676 72.0605 34.6719 72.2227 34.6055 72.4062C34.543 72.5898 34.5117 72.7852 34.5117 72.9922ZM42.7031 77.1172C42.2617 77.1172 41.8613 77.043 41.502 76.8945C41.1465 76.7422 40.8398 76.5293 40.582 76.2559C40.3281 75.9824 40.1328 75.6582 39.9961 75.2832C39.8594 74.9082 39.791 74.498 39.791 74.0527V73.8066C39.791 73.291 39.8672 72.832 40.0195 72.4297C40.1719 72.0234 40.3789 71.6797 40.6406 71.3984C40.9023 71.1172 41.1992 70.9043 41.5312 70.7598C41.8633 70.6152 42.207 70.543 42.5625 70.543C43.0156 70.543 43.4062 70.6211 43.7344 70.7773C44.0664 70.9336 44.3379 71.1523 44.5488 71.4336C44.7598 71.7109 44.916 72.0391 45.0176 72.418C45.1191 72.793 45.1699 73.2031 45.1699 73.6484V74.1348H40.4355V73.25H44.0859V73.168C44.0703 72.8867 44.0117 72.6133 43.9102 72.3477C43.8125 72.082 43.6562 71.8633 43.4414 71.6914C43.2266 71.5195 42.9336 71.4336 42.5625 71.4336C42.3164 71.4336 42.0898 71.4863 41.8828 71.5918C41.6758 71.6934 41.498 71.8457 41.3496 72.0488C41.2012 72.252 41.0859 72.5 41.0039 72.793C40.9219 73.0859 40.8809 73.4238 40.8809 73.8066V74.0527C40.8809 74.3535 40.9219 74.6367 41.0039 74.9023C41.0898 75.1641 41.2129 75.3945 41.373 75.5938C41.5371 75.793 41.7344 75.9492 41.9648 76.0625C42.1992 76.1758 42.4648 76.2324 42.7617 76.2324C43.1445 76.2324 43.4688 76.1543 43.7344 75.998C44 75.8418 44.2324 75.6328 44.4316 75.3711L45.0879 75.8926C44.9512 76.0996 44.7773 76.2969 44.5664 76.4844C44.3555 76.6719 44.0957 76.8242 43.7871 76.9414C43.4824 77.0586 43.1211 77.1172 42.7031 77.1172ZM50.127 75.3184C50.127 75.1621 50.0918 75.0176 50.0215 74.8848C49.9551 74.748 49.8164 74.625 49.6055 74.5156C49.3984 74.4023 49.0859 74.3047 48.668 74.2227C48.3164 74.1484 47.998 74.0605 47.7129 73.959C47.4316 73.8574 47.1914 73.7344 46.9922 73.5898C46.7969 73.4453 46.6465 73.2754 46.541 73.0801C46.4355 72.8848 46.3828 72.6562 46.3828 72.3945C46.3828 72.1445 46.4375 71.9082 46.5469 71.6855C46.6602 71.4629 46.8184 71.2656 47.0215 71.0938C47.2285 70.9219 47.4766 70.7871 47.7656 70.6895C48.0547 70.5918 48.377 70.543 48.7324 70.543C49.2402 70.543 49.6738 70.6328 50.0332 70.8125C50.3926 70.9922 50.668 71.2324 50.8594 71.5332C51.0508 71.8301 51.1465 72.1602 51.1465 72.5234H50.0625C50.0625 72.3477 50.0098 72.1777 49.9043 72.0137C49.8027 71.8457 49.6523 71.707 49.4531 71.5977C49.2578 71.4883 49.0176 71.4336 48.7324 71.4336C48.4316 71.4336 48.1875 71.4805 48 71.5742C47.8164 71.6641 47.6816 71.7793 47.5957 71.9199C47.5137 72.0605 47.4727 72.209 47.4727 72.3652C47.4727 72.4824 47.4922 72.5879 47.5312 72.6816C47.5742 72.7715 47.6484 72.8555 47.7539 72.9336C47.8594 73.0078 48.0078 73.0781 48.1992 73.1445C48.3906 73.2109 48.6348 73.2773 48.9316 73.3438C49.4512 73.4609 49.8789 73.6016 50.2148 73.7656C50.5508 73.9297 50.8008 74.1309 50.9648 74.3691C51.1289 74.6074 51.2109 74.8965 51.2109 75.2363C51.2109 75.5137 51.1523 75.7676 51.0352 75.998C50.9219 76.2285 50.7559 76.4277 50.5371 76.5957C50.3223 76.7598 50.0645 76.8887 49.7637 76.9824C49.4668 77.0723 49.1328 77.1172 48.7617 77.1172C48.2031 77.1172 47.7305 77.0176 47.3438 76.8184C46.957 76.6191 46.6641 76.3613 46.4648 76.0449C46.2656 75.7285 46.166 75.3945 46.166 75.043H47.2559C47.2715 75.3398 47.3574 75.5762 47.5137 75.752C47.6699 75.9238 47.8613 76.0469 48.0879 76.1211C48.3145 76.1914 48.5391 76.2266 48.7617 76.2266C49.0586 76.2266 49.3066 76.1875 49.5059 76.1094C49.709 76.0312 49.8633 75.9238 49.9688 75.7871C50.0742 75.6504 50.127 75.4941 50.127 75.3184ZM56.3262 75.3184C56.3262 75.1621 56.291 75.0176 56.2207 74.8848C56.1543 74.748 56.0156 74.625 55.8047 74.5156C55.5977 74.4023 55.2852 74.3047 54.8672 74.2227C54.5156 74.1484 54.1973 74.0605 53.9121 73.959C53.6309 73.8574 53.3906 73.7344 53.1914 73.5898C52.9961 73.4453 52.8457 73.2754 52.7402 73.0801C52.6348 72.8848 52.582 72.6562 52.582 72.3945C52.582 72.1445 52.6367 71.9082 52.7461 71.6855C52.8594 71.4629 53.0176 71.2656 53.2207 71.0938C53.4277 70.9219 53.6758 70.7871 53.9648 70.6895C54.2539 70.5918 54.5762 70.543 54.9316 70.543C55.4395 70.543 55.873 70.6328 56.2324 70.8125C56.5918 70.9922 56.8672 71.2324 57.0586 71.5332C57.25 71.8301 57.3457 72.1602 57.3457 72.5234H56.2617C56.2617 72.3477 56.209 72.1777 56.1035 72.0137C56.002 71.8457 55.8516 71.707 55.6523 71.5977C55.457 71.4883 55.2168 71.4336 54.9316 71.4336C54.6309 71.4336 54.3867 71.4805 54.1992 71.5742C54.0156 71.6641 53.8809 71.7793 53.7949 71.9199C53.7129 72.0605 53.6719 72.209 53.6719 72.3652C53.6719 72.4824 53.6914 72.5879 53.7305 72.6816C53.7734 72.7715 53.8477 72.8555 53.9531 72.9336C54.0586 73.0078 54.207 73.0781 54.3984 73.1445C54.5898 73.2109 54.834 73.2773 55.1309 73.3438C55.6504 73.4609 56.0781 73.6016 56.4141 73.7656C56.75 73.9297 57 74.1309 57.1641 74.3691C57.3281 74.6074 57.4102 74.8965 57.4102 75.2363C57.4102 75.5137 57.3516 75.7676 57.2344 75.998C57.1211 76.2285 56.9551 76.4277 56.7363 76.5957C56.5215 76.7598 56.2637 76.8887 55.9629 76.9824C55.666 77.0723 55.332 77.1172 54.9609 77.1172C54.4023 77.1172 53.9297 77.0176 53.543 76.8184C53.1562 76.6191 52.8633 76.3613 52.6641 76.0449C52.4648 75.7285 52.3652 75.3945 52.3652 75.043H53.4551C53.4707 75.3398 53.5566 75.5762 53.7129 75.752C53.8691 75.9238 54.0605 76.0469 54.2871 76.1211C54.5137 76.1914 54.7383 76.2266 54.9609 76.2266C55.2578 76.2266 55.5059 76.1875 55.7051 76.1094C55.9082 76.0312 56.0625 75.9238 56.168 75.7871C56.2734 75.6504 56.3262 75.4941 56.3262 75.3184ZM62.5723 75.916V72.6523C62.5723 72.4023 62.5215 72.1855 62.4199 72.002C62.3223 71.8145 62.1738 71.6699 61.9746 71.5684C61.7754 71.4668 61.5293 71.416 61.2363 71.416C60.9629 71.416 60.7227 71.4629 60.5156 71.5566C60.3125 71.6504 60.1523 71.7734 60.0352 71.9258C59.9219 72.0781 59.8652 72.2422 59.8652 72.418H58.7812C58.7812 72.1914 58.8398 71.9668 58.957 71.7441C59.0742 71.5215 59.2422 71.3203 59.4609 71.1406C59.6836 70.957 59.9492 70.8125 60.2578 70.707C60.5703 70.5977 60.918 70.543 61.3008 70.543C61.7617 70.543 62.168 70.6211 62.5195 70.7773C62.875 70.9336 63.1523 71.1699 63.3516 71.4863C63.5547 71.7988 63.6562 72.1914 63.6562 72.6641V75.6172C63.6562 75.8281 63.6738 76.0527 63.709 76.291C63.748 76.5293 63.8047 76.7344 63.8789 76.9062V77H62.748C62.6934 76.875 62.6504 76.709 62.6191 76.502C62.5879 76.291 62.5723 76.0957 62.5723 75.916ZM62.7598 73.1562L62.7715 73.918H61.6758C61.3672 73.918 61.0918 73.9434 60.8496 73.9941C60.6074 74.041 60.4043 74.1133 60.2402 74.2109C60.0762 74.3086 59.9512 74.4316 59.8652 74.5801C59.7793 74.7246 59.7363 74.8945 59.7363 75.0898C59.7363 75.2891 59.7812 75.4707 59.8711 75.6348C59.9609 75.7988 60.0957 75.9297 60.2754 76.0273C60.459 76.1211 60.6836 76.168 60.9492 76.168C61.2812 76.168 61.5742 76.0977 61.8281 75.957C62.082 75.8164 62.2832 75.6445 62.4316 75.4414C62.584 75.2383 62.666 75.041 62.6777 74.8496L63.1406 75.3711C63.1133 75.5352 63.0391 75.7168 62.918 75.916C62.7969 76.1152 62.6348 76.3066 62.4316 76.4902C62.2324 76.6699 61.9941 76.8203 61.7168 76.9414C61.4434 77.0586 61.1348 77.1172 60.791 77.1172C60.3613 77.1172 59.9844 77.0332 59.6602 76.8652C59.3398 76.6973 59.0898 76.4727 58.9102 76.1914C58.7344 75.9062 58.6465 75.5879 58.6465 75.2363C58.6465 74.8965 58.7129 74.5977 58.8457 74.3398C58.9785 74.0781 59.1699 73.8613 59.4199 73.6895C59.6699 73.5137 59.9707 73.3809 60.3223 73.291C60.6738 73.2012 61.0664 73.1562 61.5 73.1562H62.7598ZM69.4688 70.6602H70.4531V76.8652C70.4531 77.4238 70.3398 77.9004 70.1133 78.2949C69.8867 78.6895 69.5703 78.9883 69.1641 79.1914C68.7617 79.3984 68.2969 79.502 67.7695 79.502C67.5508 79.502 67.293 79.4668 66.9961 79.3965C66.7031 79.3301 66.4141 79.2148 66.1289 79.0508C65.8477 78.8906 65.6113 78.6738 65.4199 78.4004L65.9883 77.7559C66.2539 78.0762 66.5312 78.2988 66.8203 78.4238C67.1133 78.5488 67.4023 78.6113 67.6875 78.6113C68.0312 78.6113 68.3281 78.5469 68.5781 78.418C68.8281 78.2891 69.0215 78.0977 69.1582 77.8438C69.2988 77.5938 69.3691 77.2852 69.3691 76.918V72.0547L69.4688 70.6602ZM65.1035 73.9004V73.7773C65.1035 73.293 65.1602 72.8535 65.2734 72.459C65.3906 72.0605 65.5566 71.7188 65.7715 71.4336C65.9902 71.1484 66.2539 70.9297 66.5625 70.7773C66.8711 70.6211 67.2188 70.543 67.6055 70.543C68.0039 70.543 68.3516 70.6133 68.6484 70.7539C68.9492 70.8906 69.2031 71.0918 69.4102 71.3574C69.6211 71.6191 69.7871 71.9355 69.9082 72.3066C70.0293 72.6777 70.1133 73.0977 70.1602 73.5664V74.1055C70.1172 74.5703 70.0332 74.9883 69.9082 75.3594C69.7871 75.7305 69.6211 76.0469 69.4102 76.3086C69.2031 76.5703 68.9492 76.7715 68.6484 76.9121C68.3477 77.0488 67.9961 77.1172 67.5938 77.1172C67.2148 77.1172 66.8711 77.0371 66.5625 76.877C66.2578 76.7168 65.9961 76.4922 65.7773 76.2031C65.5586 75.9141 65.3906 75.5742 65.2734 75.1836C65.1602 74.7891 65.1035 74.3613 65.1035 73.9004ZM66.1875 73.7773V73.9004C66.1875 74.2168 66.2188 74.5137 66.2812 74.791C66.3477 75.0684 66.4473 75.3125 66.5801 75.5234C66.7168 75.7344 66.8906 75.9004 67.1016 76.0215C67.3125 76.1387 67.5645 76.1973 67.8574 76.1973C68.2168 76.1973 68.5137 76.1211 68.748 75.9688C68.9824 75.8164 69.168 75.6152 69.3047 75.3652C69.4453 75.1152 69.5547 74.8438 69.6328 74.5508V73.1387C69.5898 72.9238 69.5234 72.7168 69.4336 72.5176C69.3477 72.3145 69.2344 72.1348 69.0938 71.9785C68.957 71.8184 68.7871 71.6914 68.584 71.5977C68.3809 71.5039 68.1426 71.457 67.8691 71.457C67.5723 71.457 67.3164 71.5195 67.1016 71.6445C66.8906 71.7656 66.7168 71.9336 66.5801 72.1484C66.4473 72.3594 66.3477 72.6055 66.2812 72.8867C66.2188 73.1641 66.1875 73.4609 66.1875 73.7773ZM74.7305 77.1172C74.2891 77.1172 73.8887 77.043 73.5293 76.8945C73.1738 76.7422 72.8672 76.5293 72.6094 76.2559C72.3555 75.9824 72.1602 75.6582 72.0234 75.2832C71.8867 74.9082 71.8184 74.498 71.8184 74.0527V73.8066C71.8184 73.291 71.8945 72.832 72.0469 72.4297C72.1992 72.0234 72.4062 71.6797 72.668 71.3984C72.9297 71.1172 73.2266 70.9043 73.5586 70.7598C73.8906 70.6152 74.2344 70.543 74.5898 70.543C75.043 70.543 75.4336 70.6211 75.7617 70.7773C76.0938 70.9336 76.3652 71.1523 76.5762 71.4336C76.7871 71.7109 76.9434 72.0391 77.0449 72.418C77.1465 72.793 77.1973 73.2031 77.1973 73.6484V74.1348H72.4629V73.25H76.1133V73.168C76.0977 72.8867 76.0391 72.6133 75.9375 72.3477C75.8398 72.082 75.6836 71.8633 75.4688 71.6914C75.2539 71.5195 74.9609 71.4336 74.5898 71.4336C74.3438 71.4336 74.1172 71.4863 73.9102 71.5918C73.7031 71.6934 73.5254 71.8457 73.377 72.0488C73.2285 72.252 73.1133 72.5 73.0312 72.793C72.9492 73.0859 72.9082 73.4238 72.9082 73.8066V74.0527C72.9082 74.3535 72.9492 74.6367 73.0312 74.9023C73.1172 75.1641 73.2402 75.3945 73.4004 75.5938C73.5645 75.793 73.7617 75.9492 73.9922 76.0625C74.2266 76.1758 74.4922 76.2324 74.7891 76.2324C75.1719 76.2324 75.4961 76.1543 75.7617 75.998C76.0273 75.8418 76.2598 75.6328 76.459 75.3711L77.1152 75.8926C76.9785 76.0996 76.8047 76.2969 76.5938 76.4844C76.3828 76.6719 76.123 76.8242 75.8145 76.9414C75.5098 77.0586 75.1484 77.1172 74.7305 77.1172Z" fill="#DC2626"/>
</g>
</g>
<defs>
<clipPath id="clip0_7755_3266">
<rect width="300" height="82" rx="4" fill="white"/>
</clipPath>
<clipPath id="clip1_7755_3266">
<rect width="300" height="58" fill="white" transform="translate(0 24)"/>
</clipPath>
</defs>
</svg>
