<svg width="48" height="48" viewBox="0 0 48 48" fill="none" xmlns="http://www.w3.org/2000/svg">
<path d="M4.86584 38.9053C4.86584 39.2768 5.14521 39.5158 5.48939 39.7146L19.5803 47.8509C19.7733 47.9489 19.9867 48 20.2032 48C20.4196 48 20.633 47.9489 20.826 47.8509L43.5645 34.7262C43.9086 34.5275 44.188 34.2711 44.188 33.8996C44.188 33.5281 43.9086 33.2962 43.5659 33.0975L29.4663 24.9626C29.2736 24.8646 29.0604 24.8135 28.8442 24.8135C28.628 24.8135 28.4148 24.8646 28.2221 24.9626L5.48939 38.0873C5.14521 38.2889 4.86584 38.5323 4.86584 38.9053Z" fill="#37474F"/>
<path d="M5.48938 38.8059L19.5803 46.9408C19.7733 47.0388 19.9867 47.0899 20.2032 47.0899C20.4196 47.0899 20.633 47.0388 20.826 46.9408L43.5645 33.8161C43.9072 33.6188 43.9072 33.2962 43.5645 33.0961L29.4663 24.9626C29.2736 24.8646 29.0604 24.8135 28.8442 24.8135C28.628 24.8135 28.4148 24.8646 28.2221 24.9626L5.48938 38.0873C5.14521 38.2889 5.14521 38.6072 5.48938 38.8059Z" fill="#455A64"/>
<path d="M20.2039 47.092V47.9992C19.9871 48.0052 19.7725 47.9556 19.5803 47.8552L5.48939 39.7146C5.14521 39.5158 4.86584 39.2826 4.86584 38.9053C4.86584 38.5553 5.11641 38.312 5.44186 38.1147C5.17401 38.3033 5.16969 38.6201 5.49083 38.8059L19.5818 46.9422C19.773 47.0443 19.9871 47.0959 20.2039 47.092Z" fill="#263238"/>
<path d="M4.59673 38.1839C4.32312 38.0572 4.24968 37.8412 4.22231 37.4639L3.00115 19.5928C3.00033 19.3831 3.05275 19.1767 3.1535 18.9928C3.25424 18.809 3.40002 18.6537 3.57717 18.5416L26.3099 5.41112C26.6526 5.2124 26.9046 5.10439 27.2229 5.32184C27.5411 5.53929 27.5469 5.65881 27.5728 6.04187L28.794 23.9144C28.7949 24.1241 28.7426 24.3306 28.6418 24.5145C28.5411 24.6983 28.3952 24.8536 28.218 24.9656L5.48668 38.0889C5.14251 38.289 4.9481 38.3452 4.59673 38.1839Z" fill="#37474F"/>
<path d="M27.5798 6.04031C27.5539 5.65869 27.2544 5.51037 26.9102 5.70765L4.1703 18.8338C3.98756 18.9439 3.83823 19.1017 3.73828 19.2903L3.15074 18.9922C3.25173 18.8044 3.40082 18.6468 3.58275 18.5357L26.3083 5.411C26.6524 5.21228 26.9059 5.10283 27.2227 5.32172C27.5395 5.54061 27.5467 5.65869 27.5798 6.04031Z" fill="#455A64"/>
<path d="M5.44043 38.1147C5.12649 38.299 4.9292 38.322 4.59655 38.1824C4.34166 38.0758 4.2495 37.8411 4.22358 37.4623L3.00097 19.5869C2.99227 19.3795 3.04218 19.1739 3.14498 18.9936L3.73828 19.2888C3.63656 19.4696 3.58673 19.6749 3.59427 19.8821L4.81688 37.7561C4.83992 38.1103 5.14665 38.2889 5.44043 38.1147Z" fill="#263238"/>
<path d="M4.56487 19.5163L26.4422 6.8957C26.6481 6.77617 26.8281 6.86546 26.844 7.09442L27.9831 23.7674C27.9837 23.8931 27.9525 24.0168 27.8923 24.1271C27.8321 24.2374 27.7449 24.3307 27.6389 24.3981L5.76156 37.0188C5.55563 37.1383 5.37562 37.049 5.35978 36.8201L4.21926 20.1442C4.21965 20.019 4.25151 19.8959 4.3119 19.7861C4.37229 19.6764 4.45927 19.5837 4.56487 19.5163Z" fill="black"/>
<path d="M4.56487 19.5163C4.45886 19.5839 4.37162 19.6772 4.3112 19.7874C4.25079 19.8977 4.21917 20.0214 4.21926 20.1471L5.34106 36.5421L26.9678 24.0597C27.0738 23.9923 27.161 23.899 27.2212 23.7887C27.2814 23.6784 27.3126 23.5546 27.312 23.429L26.1916 7.0397L4.56487 19.5163Z" fill="#DB2777"/>
<path opacity="0.8" d="M4.56487 19.5163C4.45886 19.5839 4.37162 19.6772 4.3112 19.7874C4.25079 19.8977 4.21917 20.0214 4.21926 20.1471L5.34106 36.5421L26.9678 24.0597C27.0738 23.9923 27.161 23.899 27.2212 23.7887C27.2814 23.6784 27.3126 23.5546 27.312 23.429L26.1916 7.0397L4.56487 19.5163Z" fill="white"/>
<path d="M7.41906 38.1924L28.2999 26.132C28.3909 26.0858 28.4916 26.0617 28.5936 26.0617C28.6957 26.0617 28.7964 26.0858 28.8874 26.132L29.6492 26.564C29.6844 26.5763 29.715 26.5993 29.7366 26.6297C29.7582 26.6602 29.7698 26.6966 29.7698 26.7339C29.7698 26.7712 29.7582 26.8076 29.7366 26.8381C29.715 26.8685 29.6844 26.8915 29.6492 26.9038L8.75687 38.9571C8.66583 39.0033 8.56519 39.0273 8.4631 39.0273C8.36102 39.0273 8.26037 39.0033 8.16933 38.9571L7.41186 38.5251C7.37866 38.5113 7.35038 38.4878 7.33075 38.4577C7.31111 38.4276 7.30102 38.3922 7.3018 38.3563C7.30257 38.3204 7.31418 38.2855 7.33511 38.2562C7.35603 38.227 7.38529 38.2048 7.41906 38.1924Z" fill="#263238"/>
<path d="M9.4625 39.4021L30.3534 27.3445C30.4342 27.2982 30.5248 27.2714 30.6178 27.2664C30.7109 27.2614 30.8038 27.2783 30.8891 27.3157L36.3267 30.455C36.4607 30.5328 36.4391 30.671 36.2763 30.7646L15.4099 42.8092C15.3291 42.8555 15.2386 42.8823 15.1456 42.8875C15.0527 42.8928 14.9598 42.8763 14.8742 42.8395L9.41354 39.7146C9.27817 39.6339 9.30122 39.4957 9.4625 39.4021Z" fill="#263238"/>
<path d="M27.5654 32.4077L28.2192 32.0304C28.2466 32.0131 28.2495 31.9887 28.2192 31.9743L27.5928 31.6143C27.5781 31.6068 27.5618 31.6029 27.5453 31.6029C27.5288 31.6029 27.5125 31.6068 27.4978 31.6143L26.844 31.9915C26.8166 32.0074 26.8137 32.0319 26.844 32.0463L27.4704 32.4077C27.4851 32.4152 27.5014 32.4191 27.5179 32.4191C27.5344 32.4191 27.5507 32.4152 27.5654 32.4077ZM26.6092 31.1002L25.9555 31.4789C25.9281 31.4947 25.9252 31.5192 25.9555 31.5336L26.5718 31.8951C26.5865 31.9028 26.6028 31.9068 26.6193 31.9068C26.6359 31.9068 26.6522 31.9028 26.6668 31.8951L27.3206 31.5178C27.348 31.5019 27.3509 31.4774 27.3206 31.463L26.6942 31.1016C26.6809 31.0955 26.6665 31.0922 26.6519 31.0919C26.6373 31.0917 26.6227 31.0945 26.6092 31.1002ZM24.4967 32.3213L23.3893 32.9607C23.3619 32.978 23.359 33.0025 23.3893 33.0169L24.0157 33.3769C24.0304 33.3843 24.0467 33.3882 24.0632 33.3882C24.0797 33.3882 24.096 33.3843 24.1107 33.3769L25.2182 32.7375C25.2455 32.7217 25.2484 32.6972 25.2182 32.6828L24.5932 32.3213C24.5781 32.3141 24.5616 32.3103 24.5449 32.3103C24.5282 32.3103 24.5117 32.3141 24.4967 32.3213ZM25.6487 31.6531L24.9935 32.0304C24.9661 32.0463 24.9633 32.0708 24.9935 32.0852L25.6199 32.4466C25.6347 32.4541 25.6509 32.458 25.6674 32.458C25.684 32.458 25.7002 32.4541 25.715 32.4466L26.3688 32.0679C26.3961 32.052 26.399 32.0276 26.3688 32.0131L25.7423 31.6517C25.7284 31.6458 25.7134 31.6428 25.6983 31.6431C25.6831 31.6433 25.6682 31.6468 25.6545 31.6531H25.6487ZM23.0883 33.1335L22.4331 33.5122C22.4057 33.5281 22.4028 33.5526 22.4331 33.567L23.0581 33.9284C23.0727 33.9361 23.089 33.9401 23.1056 33.9401C23.1221 33.9401 23.1385 33.9361 23.1531 33.9284L23.8069 33.5511C23.8357 33.5353 23.8371 33.5108 23.8069 33.4964L23.1819 33.135C23.1675 33.1275 23.1515 33.1235 23.1353 33.1232C23.119 33.123 23.103 33.1265 23.0883 33.1335ZM22.1321 33.6807L21.4783 34.058C21.4495 34.0739 21.4481 34.0983 21.4783 34.1127L22.1033 34.4742C22.118 34.4817 22.1343 34.4856 22.1508 34.4856C22.1673 34.4856 22.1836 34.4817 22.1984 34.4742L22.8521 34.0955C22.8809 34.0796 22.8824 34.0551 22.8521 34.0407L22.2272 33.6807C22.2124 33.6733 22.1961 33.6694 22.1796 33.6694C22.1631 33.6694 22.1468 33.6733 22.1321 33.6807ZM24.5802 35.1539L25.234 34.7766C25.2628 34.7608 25.2642 34.7363 25.234 34.7219L24.609 34.3604C24.5943 34.353 24.578 34.3491 24.5615 34.3491C24.545 34.3491 24.5287 34.353 24.514 34.3604L23.8587 34.7392C23.8314 34.755 23.8285 34.7795 23.8587 34.7939L24.4837 35.1553C24.4987 35.1647 24.5159 35.1701 24.5336 35.1708C24.5512 35.1716 24.5688 35.1677 24.5845 35.1597L24.5802 35.1539ZM23.624 35.7069L24.2778 35.3282C24.3066 35.3123 24.308 35.2878 24.2778 35.2734L23.6528 34.9134C23.6381 34.906 23.6218 34.9021 23.6053 34.9021C23.5888 34.9021 23.5725 34.906 23.5578 34.9134L22.904 35.2907C22.8752 35.3066 22.8737 35.331 22.904 35.3454L23.529 35.7069C23.5438 35.716 23.5606 35.7213 23.5779 35.7223C23.5953 35.7233 23.6126 35.72 23.6283 35.7126L23.624 35.7069ZM22.6678 36.2584L23.323 35.8811C23.3504 35.8653 23.3533 35.8408 23.323 35.8264L22.6981 35.465C22.6833 35.4575 22.667 35.4536 22.6505 35.4536C22.634 35.4536 22.6177 35.4575 22.603 35.465L21.9636 35.8509C21.9348 35.8667 21.9334 35.8912 21.9636 35.9056L22.5886 36.2671C22.602 36.2723 22.6163 36.2748 22.6307 36.2743C22.645 36.2738 22.6591 36.2704 22.6721 36.2642L22.6678 36.2584ZM21.7131 36.81L22.3668 36.4327C22.3942 36.4168 22.3971 36.3924 22.3668 36.378L21.7404 36.0165C21.7257 36.009 21.7094 36.0051 21.6929 36.0051C21.6764 36.0051 21.6601 36.009 21.6454 36.0165L20.9916 36.3952C20.9642 36.4111 20.9613 36.4356 20.9916 36.45L21.618 36.81C21.6328 36.8191 21.6496 36.8244 21.667 36.8254C21.6843 36.8264 21.7016 36.8231 21.7174 36.8157L21.7131 36.81ZM26.6092 32.9535L27.263 32.5762C27.2904 32.5604 27.2933 32.5359 27.263 32.5215L26.6366 32.16C26.6219 32.1526 26.6056 32.1487 26.5891 32.1487C26.5726 32.1487 26.5563 32.1526 26.5416 32.16L25.8878 32.5373C25.8604 32.5532 25.8575 32.5791 25.8878 32.5921L26.5142 32.9607C26.5289 32.9682 26.5452 32.9721 26.5617 32.9721C26.5782 32.9721 26.5945 32.9682 26.6092 32.9607V32.9535ZM25.5407 34.6024L27.0038 33.7657C27.0312 33.7499 27.0341 33.7254 27.0038 33.711L25.4846 32.834C25.4698 32.8265 25.4536 32.8226 25.437 32.8226C25.4205 32.8226 25.4042 32.8265 25.3895 32.834L24.6349 33.266C24.6061 33.2818 24.6047 33.3063 24.6349 33.3207L25.4385 33.7844C25.4644 33.7988 25.4615 33.8233 25.4385 33.8391L24.8337 34.1876C24.8063 34.2049 24.8034 34.2294 24.8337 34.2438L25.4601 34.6038C25.4726 34.6098 25.4861 34.6133 25.5 34.614C25.5138 34.6148 25.5277 34.6128 25.5407 34.6081V34.6024ZM21.1759 34.2323L20.5236 34.6153C20.4948 34.6312 20.4933 34.6556 20.5236 34.6701L21.1486 35.0315C21.1633 35.039 21.1796 35.0429 21.1961 35.0429C21.2126 35.0429 21.2289 35.039 21.2436 35.0315L21.8988 34.6542C21.9262 34.6384 21.9291 34.6139 21.8988 34.5995L21.2738 34.238C21.2587 34.2301 21.2419 34.2259 21.2249 34.2259C21.2078 34.2259 21.191 34.2301 21.1759 34.238V34.2323ZM20.2197 34.7838L19.5659 35.1611C19.5386 35.1784 19.5357 35.2029 19.5659 35.2173L20.1924 35.5773C20.2071 35.5848 20.2234 35.5886 20.2399 35.5886C20.2564 35.5886 20.2727 35.5848 20.2874 35.5773L20.9412 35.2C20.9685 35.1841 20.9714 35.1597 20.9412 35.1453L20.3148 34.7838C20.2996 34.7772 20.2831 34.7743 20.2666 34.7753C20.25 34.7763 20.234 34.7812 20.2197 34.7896V34.7838ZM14.9304 40.6765C14.9451 40.684 14.9614 40.6879 14.9779 40.6879C14.9944 40.6879 15.0107 40.684 15.0254 40.6765L15.6792 40.2992C15.7066 40.2834 15.7095 40.2589 15.6792 40.2445L15.0528 39.8831C15.0381 39.8756 15.0218 39.8717 15.0053 39.8717C14.9888 39.8717 14.9725 39.8756 14.9578 39.8831L14.304 40.2603C14.2766 40.2776 14.2737 40.3021 14.304 40.3151L14.9304 40.6765ZM12.5716 39.199L11.9178 39.585C11.8904 39.6008 11.8876 39.6253 11.9178 39.6397L12.5442 40.0011C12.5591 40.0082 12.5753 40.0118 12.5917 40.0118C12.6082 40.0118 12.6244 40.0082 12.6393 40.0011L13.293 39.6238C13.3204 39.608 13.3233 39.5835 13.293 39.5691L12.6666 39.2077C12.6521 39.1998 12.636 39.1954 12.6194 39.1949C12.6029 39.1944 12.5865 39.1978 12.5716 39.2048V39.199ZM13.7841 40.3064C13.7988 40.3139 13.8151 40.3178 13.8316 40.3178C13.8481 40.3178 13.8644 40.3139 13.8792 40.3064L14.5329 39.9277C14.5617 39.9119 14.5632 39.8874 14.5329 39.873L13.908 39.5115C13.8933 39.5038 13.877 39.4998 13.8604 39.4998C13.8439 39.4998 13.8276 39.5038 13.8129 39.5115L13.1591 39.8888C13.1303 39.9047 13.1289 39.9291 13.1591 39.9435L13.7841 40.3064ZM16.4223 40.8997L17.0761 40.5224C17.1034 40.5052 17.1063 40.4807 17.0761 40.4663L16.4497 40.1063C16.4349 40.0988 16.4186 40.0949 16.4021 40.0949C16.3856 40.0949 16.3693 40.0988 16.3546 40.1063L15.7008 40.4836C15.6735 40.4994 15.6706 40.5239 15.7008 40.5383L16.3272 40.8997C16.3415 40.9081 16.3576 40.913 16.3741 40.914C16.3906 40.915 16.4071 40.9121 16.4223 40.9055V40.8997ZM15.371 41.4542C15.3858 41.4616 15.4021 41.4655 15.4186 41.4655C15.4351 41.4655 15.4514 41.4616 15.4661 41.4542L16.1199 41.0769C16.1472 41.061 16.1501 41.0365 16.1199 41.0221L15.4949 40.6607C15.4802 40.6532 15.4639 40.6493 15.4474 40.6493C15.4309 40.6493 15.4146 40.6532 15.3999 40.6607L14.7446 41.038C14.7173 41.0538 14.7144 41.0783 14.7446 41.0927L15.371 41.4542ZM13.5278 38.6475L12.874 39.0248C12.8466 39.0421 12.8438 39.0665 12.874 39.0795L13.5004 39.441C13.5151 39.4484 13.5314 39.4523 13.5479 39.4523C13.5645 39.4523 13.5807 39.4484 13.5955 39.441L14.2492 39.0637C14.2766 39.0478 14.2795 39.0233 14.2492 39.0089L13.6228 38.6475C13.6076 38.6409 13.5911 38.638 13.5746 38.639C13.5581 38.64 13.542 38.6449 13.5278 38.6532V38.6475ZM18.3073 35.8883L17.6535 36.2728C17.6262 36.2887 17.6233 36.3132 17.6535 36.3276L18.28 36.689C18.2947 36.6965 18.311 36.7004 18.3275 36.7004C18.344 36.7004 18.3603 36.6965 18.375 36.689L19.0288 36.3117C19.0562 36.2944 19.059 36.27 19.0288 36.2556L18.4024 35.8955C18.3878 35.8879 18.3715 35.8837 18.355 35.8835C18.3385 35.8832 18.3222 35.8869 18.3073 35.8941V35.8883ZM14.484 38.1017L13.8302 38.479C13.8028 38.4948 13.7999 38.5193 13.8302 38.5337L14.4566 38.8952C14.4713 38.9026 14.4876 38.9065 14.5041 38.9065C14.5206 38.9065 14.5369 38.9026 14.5517 38.8952L15.2054 38.5179C15.2328 38.5006 15.2357 38.4761 15.2054 38.4617L14.579 38.1017C14.5643 38.0942 14.548 38.0903 14.5315 38.0903C14.515 38.0903 14.4987 38.0942 14.484 38.1017ZM19.2635 35.3426L18.6097 35.7199C18.5824 35.7357 18.5795 35.7602 18.6097 35.7746L19.2362 36.136C19.2508 36.1437 19.2671 36.1477 19.2837 36.1477C19.3002 36.1477 19.3165 36.1437 19.3312 36.136L19.985 35.7587C20.0123 35.7429 20.0152 35.7184 19.985 35.704L19.3586 35.3426C19.3439 35.3349 19.3276 35.3308 19.311 35.3308C19.2945 35.3308 19.2782 35.3349 19.2635 35.3426ZM17.3554 36.4456L16.7002 36.8229C16.6729 36.8388 16.67 36.8633 16.7002 36.8777L17.3252 37.2391C17.3399 37.2466 17.3562 37.2505 17.3727 37.2505C17.3892 37.2505 17.4055 37.2466 17.4202 37.2391L18.074 36.8618C18.1028 36.846 18.1043 36.8215 18.074 36.8071L17.449 36.4456C17.4345 36.4384 17.4185 36.4346 17.4022 36.4346C17.386 36.4346 17.37 36.4384 17.3554 36.4456ZM16.3964 36.9929L15.7426 37.3716C15.7138 37.3874 15.7123 37.4119 15.7426 37.4263L16.3676 37.7878C16.3824 37.7948 16.3987 37.7985 16.4151 37.7985C16.4315 37.7985 16.4478 37.7948 16.4626 37.7878L17.1164 37.4105C17.1452 37.3946 17.1466 37.3702 17.1164 37.3558L16.4914 36.9929C16.4767 36.9854 16.4604 36.9815 16.4439 36.9815C16.4274 36.9815 16.4111 36.9854 16.3964 36.9929ZM15.4402 37.5458L14.7864 37.9231C14.7576 37.939 14.7561 37.9635 14.7864 37.9779L15.4114 38.3393C15.4261 38.3468 15.4424 38.3507 15.4589 38.3507C15.4754 38.3507 15.4917 38.3468 15.5064 38.3393L16.1616 37.9606C16.189 37.9447 16.1919 37.9203 16.1616 37.9059L15.5367 37.5444C15.5213 37.5373 15.5045 37.5342 15.4877 37.5352C15.4709 37.5362 15.4545 37.5413 15.4402 37.5502V37.5458ZM19.8035 37.9203L20.4573 37.543C20.4847 37.5257 20.4876 37.5012 20.4573 37.4868L19.8309 37.1268C19.8162 37.1193 19.7999 37.1154 19.7834 37.1154C19.7669 37.1154 19.7506 37.1193 19.7359 37.1268L19.0835 37.507C19.0562 37.5228 19.0533 37.5473 19.0835 37.5617L19.7099 37.9231C19.7247 37.9299 19.7408 37.9332 19.7571 37.9327C19.7733 37.9322 19.7892 37.9279 19.8035 37.9203ZM28.7218 29.8804L28.068 30.2577C28.0392 30.275 28.0378 30.2995 28.068 30.3139L28.693 30.6739C28.7077 30.6814 28.724 30.6853 28.7405 30.6853C28.757 30.6853 28.7733 30.6814 28.7881 30.6739L29.4418 30.2966C29.4706 30.2808 29.4721 30.2563 29.4418 30.2419L28.8169 29.8804C28.8023 29.8732 28.7863 29.8694 28.7701 29.8694C28.7538 29.8694 28.7378 29.8732 28.7232 29.8804H28.7218ZM27.5698 30.5486L26.916 30.9259C26.8886 30.9432 26.8857 30.9677 26.916 30.9806L27.5424 31.3421C27.5571 31.3495 27.5734 31.3534 27.5899 31.3534C27.6064 31.3534 27.6227 31.3495 27.6374 31.3421L28.2912 30.9648C28.3186 30.9489 28.3215 30.9245 28.2912 30.9101L27.6648 30.5486C27.6495 30.5404 27.6325 30.5361 27.6151 30.5361C27.5978 30.5361 27.5807 30.5404 27.5654 30.5486H27.5698ZM29.6838 29.3289L29.0199 29.7062C28.9925 29.722 28.9897 29.7465 29.0199 29.7609L29.6449 30.1224C29.6596 30.1298 29.6759 30.1337 29.6924 30.1337C29.7089 30.1337 29.7252 30.1298 29.7399 30.1224L30.3937 29.7451C30.4225 29.7292 30.424 29.7033 30.3937 29.6903L29.7687 29.3289C29.7548 29.3223 29.7395 29.3189 29.7241 29.3189C29.7087 29.3189 29.6934 29.3223 29.6794 29.3289H29.6838ZM24.3988 34.238L25.054 33.8593C25.0813 33.8435 25.0842 33.819 25.054 33.8046L24.4276 33.4431C24.4127 33.4361 24.3965 33.4324 24.38 33.4324C24.3636 33.4324 24.3474 33.4361 24.3325 33.4431L23.6802 33.8247C23.6528 33.8406 23.6499 33.8651 23.6802 33.8795L24.3052 34.2409C24.3193 34.247 24.3347 34.2499 24.3501 34.2494C24.3656 34.2489 24.3807 34.245 24.3944 34.238H24.3988ZM30.735 28.7658C30.7202 28.7588 30.7039 28.7551 30.6875 28.7551C30.671 28.7551 30.6548 28.7588 30.64 28.7658L29.9862 29.1431C29.9588 29.159 29.9559 29.1834 29.9862 29.1978L30.6126 29.5593C30.6273 29.5668 30.6436 29.5706 30.6601 29.5706C30.6766 29.5706 30.6929 29.5668 30.7076 29.5593L31.3614 29.1806C31.3888 29.1647 31.3917 29.1402 31.3614 29.1258L30.735 28.7658ZM20.7612 37.3673L21.415 36.99C21.4423 36.9741 21.4452 36.9497 21.415 36.9353L20.7885 36.5738C20.7739 36.5661 20.7576 36.5621 20.741 36.5621C20.7245 36.5621 20.7082 36.5661 20.6935 36.5738L20.0397 36.9511C20.0123 36.9669 20.0095 36.9914 20.0397 37.0058L20.6661 37.3673C20.6808 37.375 20.6971 37.379 20.7137 37.379C20.7302 37.379 20.7465 37.375 20.7612 37.3673ZM32.4832 30.599L33.1385 30.2246C33.1658 30.2088 33.1687 30.1843 33.1385 30.1699L32.512 29.8084C32.4974 29.8007 32.4811 29.7967 32.4645 29.7967C32.448 29.7967 32.4317 29.8007 32.417 29.8084L31.7632 30.1857C31.7358 30.2016 31.733 30.226 31.7632 30.2404L32.3882 30.6019C32.4031 30.6093 32.4195 30.6129 32.4361 30.6124C32.4527 30.6119 32.4689 30.6073 32.4832 30.599ZM30.6342 30.635L31.288 30.2577C31.3154 30.2419 31.3182 30.2174 31.288 30.203L30.6616 29.8415C30.6468 29.8341 30.6306 29.8302 30.614 29.8302C30.5975 29.8302 30.5813 29.8341 30.5665 29.8415L29.9185 30.2246C29.8911 30.2404 29.8883 30.2649 29.9185 30.2793L30.5449 30.6408C30.5594 30.6461 30.5748 30.6483 30.5902 30.6473C30.6055 30.6463 30.6205 30.6421 30.6342 30.635ZM31.6235 29.29C31.6088 29.2825 31.5925 29.2786 31.576 29.2786C31.5595 29.2786 31.5432 29.2825 31.5285 29.29L30.8747 29.6673C30.8473 29.6831 30.8445 29.7091 30.8747 29.722L31.5011 30.0835C31.5158 30.0909 31.5321 30.0948 31.5486 30.0948C31.5652 30.0948 31.5814 30.0909 31.5962 30.0835L32.2499 29.7062C32.2773 29.6903 32.2802 29.6659 32.2499 29.6515L31.6235 29.29ZM31.8251 29.1734L33.3401 30.0504C33.3548 30.0578 33.3711 30.0617 33.3876 30.0617C33.4041 30.0617 33.4204 30.0578 33.4351 30.0504L34.0889 29.6731C34.1177 29.6572 34.1191 29.6327 34.0889 29.6183L32.5696 28.7413C32.5549 28.7339 32.5386 28.73 32.5221 28.73C32.5056 28.73 32.4893 28.7339 32.4746 28.7413L31.8208 29.1186C31.8035 29.1345 31.8007 29.159 31.8251 29.1734ZM29.6175 30.3974L28.9623 30.7747C28.9349 30.7905 28.9321 30.815 28.9623 30.8294L29.5887 31.1909C29.6035 31.1983 29.6197 31.2022 29.6362 31.2022C29.6528 31.2022 29.669 31.1983 29.6838 31.1909L30.3376 30.8121C30.3649 30.7963 30.3678 30.7718 30.3376 30.7574L29.7126 30.396C29.6978 30.3884 29.6814 30.3845 29.6649 30.3848C29.6483 30.385 29.632 30.3894 29.6175 30.3974ZM22.4172 34.5505L21.7635 34.9278C21.7361 34.9451 21.7332 34.9696 21.7635 34.984L22.3899 35.344C22.4046 35.3515 22.4209 35.3554 22.4374 35.3554C22.4539 35.3554 22.4702 35.3515 22.4849 35.344L23.1387 34.9667C23.1661 34.9509 23.169 34.9264 23.1387 34.912L22.5166 34.5448C22.5019 34.5373 22.4856 34.5334 22.4691 34.5334C22.4526 34.5334 22.4363 34.5373 22.4216 34.5448L22.4172 34.5505ZM31.4291 31.1549C31.4438 31.1623 31.4601 31.1662 31.4766 31.1662C31.4931 31.1662 31.5094 31.1623 31.5242 31.1549L32.1779 30.7761C32.2053 30.7603 32.2082 30.7358 32.1779 30.7214L31.5515 30.36C31.5367 30.3529 31.5204 30.3493 31.504 30.3493C31.4876 30.3493 31.4713 30.3529 31.4565 30.36L30.8027 30.7373C30.7753 30.7531 30.7724 30.7776 30.8027 30.792L31.4291 31.1549ZM23.3734 33.999L22.7197 34.3763C22.6923 34.3921 22.6894 34.4166 22.7197 34.431L23.3461 34.7925C23.3608 34.7999 23.3771 34.8038 23.3936 34.8038C23.4101 34.8038 23.4264 34.7999 23.4411 34.7925L24.0949 34.4152C24.1223 34.3993 24.1252 34.3734 24.0949 34.3604L23.4685 33.999C23.4543 33.9922 23.4388 33.9887 23.4231 33.9887C23.4074 33.9887 23.3919 33.9922 23.3778 33.999H23.3734ZM15.8851 40.1307C15.8999 40.1382 15.9162 40.1421 15.9327 40.1421C15.9492 40.1421 15.9655 40.1382 15.9802 40.1307L16.634 39.7534C16.6613 39.7362 16.6642 39.7117 16.634 39.6973L16.0076 39.3373C15.9928 39.3298 15.9765 39.3259 15.96 39.3259C15.9435 39.3259 15.9272 39.3298 15.9125 39.3373L15.2587 39.7146C15.2314 39.7304 15.2285 39.7549 15.2587 39.7693L15.8851 40.1307ZM14.7734 38.9657L14.1182 39.3445C14.0908 39.3603 14.088 39.3848 14.1182 39.3992L14.7432 39.7606C14.758 39.7677 14.7743 39.7713 14.7907 39.7713C14.8071 39.7713 14.8234 39.7677 14.8382 39.7606L15.492 39.3834C15.5208 39.3675 15.5223 39.343 15.492 39.3286L14.867 38.9672C14.8528 38.96 14.8371 38.9561 14.8211 38.9558C14.8051 38.9556 14.7893 38.959 14.7749 38.9657H14.7734ZM16.9335 39.5763L17.5887 39.1976C17.6161 39.1817 17.619 39.1573 17.5887 39.1429L16.9638 38.7814C16.9491 38.7737 16.9328 38.7697 16.9162 38.7697C16.8997 38.7697 16.8834 38.7737 16.8687 38.7814L16.2149 39.1587C16.1861 39.1745 16.1847 39.199 16.2149 39.2134L16.8399 39.5749C16.8547 39.5828 16.8712 39.5871 16.888 39.5873C16.9048 39.5876 16.9214 39.5838 16.9364 39.5763H16.9335ZM17.8897 39.0233L18.5435 38.646C18.5723 38.6302 18.5737 38.6057 18.5435 38.5913L17.9315 38.2299C17.9167 38.2224 17.9005 38.2185 17.8839 38.2185C17.8674 38.2185 17.8512 38.2224 17.8364 38.2299L17.1826 38.6086C17.1538 38.6244 17.1524 38.6489 17.1826 38.6633L17.8076 39.0248C17.8212 39.0301 17.8357 39.0328 17.8502 39.0325C17.8648 39.0323 17.8792 39.0292 17.8926 39.0233H17.8897ZM18.8459 38.4718L19.4997 38.0945C19.5285 38.0787 19.5299 38.0542 19.4997 38.0398L18.8747 37.6783C18.86 37.6709 18.8437 37.667 18.8272 37.667C18.8107 37.667 18.7944 37.6709 18.7797 37.6783L18.1244 38.0556C18.0971 38.0715 18.0942 38.0974 18.1244 38.1103L18.7494 38.4718C18.7647 38.48 18.7818 38.4843 18.7991 38.4843C18.8164 38.4843 18.8335 38.48 18.8488 38.4718H18.8459ZM15.7267 38.4142L15.073 38.7915C15.0456 38.8073 15.0427 38.8318 15.073 38.8462L15.6994 39.2077C15.7141 39.2151 15.7304 39.219 15.7469 39.219C15.7634 39.219 15.7797 39.2151 15.7944 39.2077L16.4482 38.8304C16.4756 38.8145 16.4785 38.7901 16.4482 38.7757L15.8218 38.4142C15.8074 38.4072 15.7917 38.4036 15.7757 38.4036C15.7597 38.4036 15.744 38.4072 15.7296 38.4142H15.7267ZM16.6829 37.8627L16.0292 38.2399C16.0018 38.2558 15.9989 38.2803 16.0292 38.2947L16.6556 38.6561C16.6703 38.6636 16.6866 38.6675 16.7031 38.6675C16.7196 38.6675 16.7359 38.6636 16.7506 38.6561L17.4044 38.2774C17.4318 38.2616 17.4346 38.2371 17.4044 38.2227L16.7794 37.8569C16.7649 37.8497 16.7489 37.8459 16.7326 37.8459C16.7164 37.8459 16.7004 37.8497 16.6858 37.8569L16.6829 37.8627ZM20.5077 35.655L19.8525 36.0323C19.8251 36.0482 19.8223 36.0727 19.8525 36.0871L20.4775 36.4485C20.4922 36.456 20.5085 36.4599 20.525 36.4599C20.5415 36.4599 20.5578 36.456 20.5725 36.4485L21.2263 36.0698C21.2551 36.0539 21.2566 36.0295 21.2263 36.0151L20.6013 35.6536C20.587 35.6474 20.5715 35.6444 20.5558 35.6446C20.5402 35.6449 20.5248 35.6484 20.5106 35.655H20.5077ZM19.5515 36.2066L18.8977 36.5839C18.8689 36.5997 18.8675 36.6242 18.8977 36.6386L19.5227 37.0001C19.5375 37.0075 19.5537 37.0114 19.5703 37.0114C19.5868 37.0114 19.603 37.0075 19.6178 37.0001L20.2716 36.6228C20.3004 36.6069 20.3018 36.5824 20.2716 36.568L19.6466 36.2066C19.6322 36.1996 19.6165 36.196 19.6005 36.196C19.5845 36.196 19.5688 36.1996 19.5544 36.2066H19.5515ZM21.4625 35.1021L20.8116 35.4808C20.7842 35.4966 20.7813 35.5211 20.8116 35.5355L21.438 35.897C21.4527 35.9047 21.469 35.9087 21.4855 35.9087C21.5021 35.9087 21.5184 35.9047 21.533 35.897L22.1868 35.5197C22.2142 35.5038 22.2171 35.4794 22.1868 35.465L21.5604 35.1035C21.5458 35.0958 21.5296 35.0917 21.5131 35.0914C21.4965 35.0912 21.4802 35.0948 21.4654 35.1021H21.4625ZM17.6435 37.3111L16.9897 37.6884C16.9623 37.7042 16.9594 37.7287 16.9897 37.7431L17.6161 38.1046C17.6308 38.1123 17.6471 38.1163 17.6636 38.1163C17.6802 38.1163 17.6965 38.1123 17.7111 38.1046L18.3649 37.7273C18.3923 37.7114 18.3952 37.687 18.3649 37.6726L17.7385 37.3111C17.7238 37.3034 17.7075 37.2994 17.691 37.2994C17.6744 37.2994 17.6581 37.3034 17.6435 37.3111ZM18.5997 36.7581L17.9444 37.1369C17.9156 37.1541 17.9142 37.1786 17.9444 37.193L18.5694 37.553C18.5841 37.5605 18.6004 37.5644 18.6169 37.5644C18.6334 37.5644 18.6497 37.5605 18.6645 37.553L19.3197 37.1757C19.347 37.1599 19.3499 37.1354 19.3197 37.121L18.6933 36.7596C18.6786 36.7519 18.6624 36.7477 18.6459 36.7475C18.6294 36.7472 18.6131 36.7509 18.5982 36.7581H18.5997ZM17.3799 40.3583L18.0337 39.981C18.0611 39.9651 18.064 39.9407 18.0337 39.9263L17.4073 39.5648C17.3926 39.5571 17.3763 39.5531 17.3598 39.5531C17.3432 39.5531 17.3269 39.5571 17.3122 39.5648L16.6585 39.9421C16.6311 39.9579 16.6282 39.9824 16.6585 39.9968L17.2849 40.3583C17.2998 40.3648 17.3161 40.3678 17.3324 40.3668C17.3487 40.3658 17.3645 40.3609 17.3785 40.3525L17.3799 40.3583ZM12.3397 40.1207L11.7147 39.7592C11.6999 39.7522 11.6837 39.7485 11.6672 39.7485C11.6508 39.7485 11.6346 39.7522 11.6197 39.7592L10.9645 40.1365C10.9371 40.1523 10.9342 40.1768 10.9645 40.1912L11.5895 40.5527C11.6042 40.5601 11.6205 40.564 11.637 40.564C11.6535 40.564 11.6698 40.5601 11.6845 40.5527L12.3383 40.1739C12.3599 40.161 12.3613 40.1293 12.3369 40.1149L12.3397 40.1207ZM13.5854 40.4332L12.9604 40.0731C12.9457 40.0657 12.9294 40.0618 12.9129 40.0618C12.8964 40.0618 12.8801 40.0657 12.8654 40.0731L11.8573 40.6492C11.83 40.665 11.8271 40.6895 11.8573 40.7039L12.4837 41.0653C12.4985 41.0728 12.5147 41.0767 12.5313 41.0767C12.5478 41.0767 12.5641 41.0728 12.5788 41.0653L13.5868 40.4893C13.6113 40.4663 13.6113 40.449 13.5825 40.4274L13.5854 40.4332ZM11.4066 39.4078L10.7802 39.0464C10.7654 39.0389 10.7491 39.035 10.7326 39.035C10.7161 39.035 10.6998 39.0389 10.6851 39.0464L9.88012 39.5115C9.85275 39.5274 9.84987 39.5518 9.88012 39.5662L10.5065 39.9277C10.5213 39.9352 10.5375 39.9391 10.5541 39.9391C10.5706 39.9391 10.5869 39.9352 10.6016 39.9277L11.4066 39.4626C11.4253 39.441 11.4282 39.4165 11.4037 39.4021L11.4066 39.4078ZM12.0229 39.0507C12.0376 39.0582 12.0539 39.0621 12.0704 39.0621C12.087 39.0621 12.1032 39.0582 12.118 39.0507L12.7717 38.6734C12.8005 38.6576 12.802 38.6331 12.7717 38.6187L12.1468 38.2572C12.132 38.2498 12.1158 38.2459 12.0992 38.2459C12.0827 38.2459 12.0664 38.2498 12.0517 38.2572L11.3979 38.6345C11.3691 38.6518 11.3663 38.6763 11.3979 38.6892L12.0229 39.0507ZM14.7317 40.8047L14.1052 40.4432C14.0905 40.4358 14.0742 40.4319 14.0577 40.4319C14.0412 40.4319 14.0249 40.4358 14.0102 40.4432L12.7473 41.169C12.7199 41.1849 12.717 41.2093 12.7473 41.2237L13.3737 41.5852C13.3884 41.5929 13.4047 41.5969 13.4212 41.5969C13.4378 41.5969 13.4541 41.5929 13.4687 41.5852L14.7259 40.8652C14.7504 40.8378 14.7533 40.8133 14.7288 40.7989L14.7317 40.8047ZM15.1723 41.5823L14.5473 41.2209C14.5326 41.2134 14.5163 41.2095 14.4998 41.2095C14.4833 41.2095 14.467 41.2134 14.4523 41.2209L13.6473 41.686C13.6185 41.7018 13.6171 41.7263 13.6473 41.7407L14.2723 42.1022C14.287 42.1096 14.3033 42.1135 14.3198 42.1135C14.3363 42.1135 14.3526 42.1096 14.3673 42.1022L15.1723 41.637C15.1954 41.6154 15.1954 41.591 15.1694 41.5766L15.1723 41.5823ZM19.131 34.948C19.1458 34.9554 19.162 34.9593 19.1786 34.9593C19.1951 34.9593 19.2114 34.9554 19.2261 34.948L19.8799 34.5692C19.9072 34.5534 19.9101 34.5289 19.8799 34.5145L19.2534 34.1531C19.2388 34.1454 19.2225 34.1414 19.2059 34.1414C19.1894 34.1414 19.1731 34.1454 19.1584 34.1531L18.5075 34.526C18.4801 34.5419 18.4773 34.5664 18.5075 34.5808L19.131 34.948ZM17.2114 36.0453C17.2262 36.0528 17.2425 36.0567 17.259 36.0567C17.2755 36.0567 17.2918 36.0528 17.3065 36.0453L17.9603 35.668C17.9891 35.6522 17.9905 35.6277 17.9603 35.6133L17.3353 35.2518C17.3206 35.2444 17.3043 35.2405 17.2878 35.2405C17.2713 35.2405 17.255 35.2444 17.2402 35.2518L16.5865 35.6291C16.5577 35.645 16.5548 35.6695 16.5865 35.6839L17.2114 36.0453ZM12.9719 38.4934C12.9866 38.5009 13.0029 38.5048 13.0194 38.5048C13.036 38.5048 13.0522 38.5009 13.067 38.4934L13.7207 38.1161C13.7481 38.0988 13.751 38.0743 13.7207 38.0614L13.0958 37.6999C13.081 37.6925 13.0648 37.6886 13.0482 37.6886C13.0317 37.6886 13.0154 37.6925 13.0007 37.6999L12.3455 38.0772C12.3181 38.0931 12.3153 38.1175 12.3455 38.1319L12.9719 38.4934ZM18.1676 35.4938C18.1824 35.5012 18.1986 35.5051 18.2152 35.5051C18.2317 35.5051 18.248 35.5012 18.2627 35.4938L18.9165 35.1165C18.9438 35.0992 18.9467 35.0747 18.9165 35.0603L18.2915 34.7003C18.2768 34.6928 18.2605 34.6889 18.244 34.6889C18.2274 34.6889 18.2112 34.6928 18.1964 34.7003L17.5412 35.0776C17.5139 35.0934 17.511 35.1179 17.5412 35.1323L18.1676 35.4938ZM16.2552 36.5983C16.2701 36.6053 16.2863 36.609 16.3028 36.609C16.3192 36.609 16.3354 36.6053 16.3503 36.5983L17.0041 36.221C17.0329 36.2052 17.0358 36.1807 17.0041 36.1663L16.3791 35.8048C16.3644 35.7974 16.3481 35.7935 16.3316 35.7935C16.3151 35.7935 16.2988 35.7974 16.284 35.8048L15.6303 36.1836C15.6015 36.1994 15.6 36.2239 15.6303 36.2383L16.2552 36.5983ZM15.6346 41.6154C15.6199 41.608 15.6036 41.6041 15.5871 41.6041C15.5705 41.6041 15.5543 41.608 15.5395 41.6154L14.5315 42.1915C14.5041 42.2087 14.5013 42.2332 14.5315 42.2476L15.1565 42.6076C15.1712 42.6151 15.1875 42.619 15.204 42.619C15.2205 42.619 15.2368 42.6151 15.2515 42.6076L16.2596 42.0316C16.2869 42.0158 16.2898 41.9913 16.2596 41.9769L15.6346 41.6154ZM14.8843 37.3903C14.8992 37.3974 14.9154 37.401 14.9318 37.401C14.9483 37.401 14.9645 37.3974 14.9794 37.3903L15.6331 37.013C15.6605 36.9972 15.6634 36.9727 15.6331 36.9583L15.0067 36.5968C14.992 36.5894 14.9757 36.5855 14.9592 36.5855C14.9427 36.5855 14.9264 36.5894 14.9117 36.5968L14.2579 36.9756C14.2305 36.9914 14.2276 37.0159 14.2579 37.0303L14.8843 37.3903ZM13.9281 37.9419C13.9428 37.9493 13.9591 37.9532 13.9756 37.9532C13.9921 37.9532 14.0084 37.9493 14.0232 37.9419L14.6769 37.5631C14.7043 37.5473 14.7072 37.5228 14.6769 37.5084L14.0505 37.1469C14.0358 37.1396 14.0195 37.1358 14.003 37.1358C13.9865 37.1358 13.9702 37.1396 13.9555 37.1469L13.3017 37.5242C13.2743 37.5401 13.2714 37.5646 13.3017 37.579L13.9281 37.9419ZM33.3458 31.3896C33.3312 31.3819 33.3149 31.3779 33.2983 31.3779C33.2818 31.3779 33.2654 31.3819 33.2508 31.3896L31.6408 32.3184C31.612 32.3343 31.6106 32.3588 31.6408 32.3732L32.2658 32.7346C32.2805 32.7421 32.2968 32.746 32.3133 32.746C32.3298 32.746 32.3461 32.7421 32.3608 32.7346L33.9694 31.8087C33.9982 31.7928 33.9996 31.7683 33.9694 31.7539L33.3458 31.3896ZM31.2318 32.6108C31.2171 32.6033 31.2008 32.5994 31.1843 32.5994C31.1678 32.5994 31.1515 32.6033 31.1368 32.6108L30.483 32.9881C30.4556 33.0039 30.4528 33.0284 30.483 33.0428L31.1094 33.4042C31.1242 33.4117 31.1404 33.4156 31.1569 33.4156C31.1735 33.4156 31.1897 33.4117 31.2045 33.4042L31.8583 33.0255C31.8856 33.0097 31.8885 32.9852 31.8583 32.9708L31.2318 32.6108ZM18.3289 39.801L18.9841 39.4237C19.0115 39.4078 19.0144 39.3834 18.9841 39.369L18.3635 39.0089C18.3488 39.0015 18.3325 38.9976 18.316 38.9976C18.2995 38.9976 18.2832 39.0015 18.2684 39.0089L17.6147 39.3877C17.5873 39.4035 17.5844 39.428 17.6147 39.4424L18.2411 39.8024C18.2555 39.8094 18.2713 39.8129 18.2873 39.8127C18.3033 39.8124 18.3191 39.8084 18.3332 39.801H18.3289ZM29.3209 33.7139C29.3061 33.7064 29.2899 33.7025 29.2734 33.7025C29.2568 33.7025 29.2406 33.7064 29.2258 33.7139L28.5706 34.0926C28.5432 34.1084 28.5404 34.1329 28.5706 34.1473L29.1956 34.5088C29.2104 34.5158 29.2267 34.5195 29.2431 34.5195C29.2595 34.5195 29.2758 34.5158 29.2906 34.5088L29.9444 34.1315C29.9732 34.1156 29.9747 34.0911 29.9444 34.0767L29.3209 33.7139ZM34.302 30.8337C34.2873 30.8263 34.271 30.8224 34.2545 30.8224C34.238 30.8224 34.2217 30.8263 34.207 30.8337L33.5518 31.2125C33.5244 31.2283 33.5215 31.2528 33.5518 31.2672L34.1782 31.6272C34.1929 31.6347 34.2092 31.6386 34.2257 31.6386C34.2422 31.6386 34.2585 31.6347 34.2732 31.6272L34.927 31.2499C34.9544 31.2341 34.9573 31.2096 34.927 31.1952L34.302 30.8337ZM35.8861 30.6437L34.3668 29.7652C34.3522 29.7574 34.3359 29.7533 34.3193 29.7533C34.3027 29.7533 34.2864 29.7574 34.2718 29.7652L33.6166 30.1425C33.5892 30.1584 33.5863 30.1828 33.6166 30.1972L35.1329 31.0886C35.1477 31.0961 35.1639 31.1 35.1805 31.1C35.197 31.1 35.2133 31.0961 35.228 31.0886L35.8818 30.7113C35.9091 30.6869 35.912 30.6566 35.8875 30.648L35.8861 30.6437ZM25.751 35.7717C25.7363 35.764 25.72 35.76 25.7035 35.76C25.6869 35.76 25.6706 35.764 25.6559 35.7717L24.8509 36.2354C24.8236 36.2512 24.8207 36.2757 24.8509 36.2901L25.4774 36.6516C25.4921 36.659 25.5084 36.6629 25.5249 36.6629C25.5414 36.6629 25.5577 36.659 25.5724 36.6516L26.3774 36.1864C26.4048 36.1706 26.4076 36.1461 26.3774 36.1317L25.751 35.7717ZM28.1659 34.3777C28.1512 34.3703 28.1349 34.3664 28.1184 34.3664C28.1019 34.3664 28.0856 34.3703 28.0709 34.3777L27.0629 34.9537C27.0355 34.9696 27.0326 34.9941 27.0629 35.0085L27.6893 35.3699C27.7039 35.3776 27.7203 35.3816 27.7368 35.3816C27.7534 35.3816 27.7697 35.3776 27.7843 35.3699L28.7924 34.7939C28.8197 34.7781 28.8226 34.7536 28.7924 34.7392L28.1659 34.3777ZM23.5376 37.0505C23.5229 37.043 23.5066 37.0391 23.4901 37.0391C23.4736 37.0391 23.4573 37.043 23.4426 37.0505L18.0596 40.161C18.0323 40.1783 18.0294 40.2027 18.0596 40.2171L18.6861 40.5772C18.7008 40.5846 18.7171 40.5885 18.7336 40.5885C18.7501 40.5885 18.7664 40.5846 18.7811 40.5772L24.164 37.4695C24.1928 37.4537 24.1943 37.4292 24.164 37.4148L23.5376 37.0505ZM17.8523 40.3324C17.8375 40.3249 17.8213 40.321 17.8047 40.321C17.7882 40.321 17.772 40.3249 17.7572 40.3324L16.9522 40.7975C16.9234 40.8133 16.9205 40.8378 16.9522 40.8522L17.5772 41.2137C17.5919 41.2211 17.6082 41.225 17.6247 41.225C17.6412 41.225 17.6575 41.2211 17.6723 41.2137L18.4772 40.7485C18.5046 40.7327 18.5075 40.7082 18.4772 40.6938L17.8523 40.3324ZM24.645 36.4168C24.6303 36.4094 24.614 36.4055 24.5975 36.4055C24.581 36.4055 24.5647 36.4094 24.55 36.4168L23.745 36.882C23.7176 36.8978 23.7147 36.9223 23.745 36.9367L24.3714 37.2982C24.3861 37.3056 24.4024 37.3095 24.4189 37.3095C24.4354 37.3095 24.4517 37.3056 24.4664 37.2982L25.2714 36.833C25.2988 36.8172 25.3017 36.7927 25.2714 36.7783L24.645 36.4168ZM16.7463 40.9775C16.7316 40.97 16.7153 40.9661 16.6988 40.9661C16.6823 40.9661 16.666 40.97 16.6513 40.9775L15.8463 41.4426C15.8189 41.4585 15.816 41.483 15.8463 41.4974L16.4727 41.8588C16.4874 41.8663 16.5037 41.8702 16.5202 41.8702C16.5367 41.8702 16.553 41.8663 16.5677 41.8588L17.3727 41.3937C17.4001 41.3778 17.403 41.3533 17.3727 41.3389L16.7463 40.9775ZM26.8598 35.1366C26.845 35.1296 26.8287 35.1259 26.8123 35.1259C26.7959 35.1259 26.7796 35.1296 26.7648 35.1366L25.9598 35.6003C25.931 35.6176 25.9295 35.6421 25.9598 35.6565L26.5848 36.0165C26.5995 36.024 26.6158 36.0279 26.6323 36.0279C26.6488 36.0279 26.6651 36.024 26.6798 36.0165L27.479 35.5528C27.5078 35.537 27.5093 35.5125 27.479 35.4981L26.8598 35.1366ZM30.28 33.1623C30.2652 33.1548 30.2489 33.151 30.2324 33.151C30.2159 33.151 30.1996 33.1548 30.1849 33.1623L29.5311 33.5367C29.5038 33.5526 29.5009 33.577 29.5311 33.5914L30.1575 33.9529C30.1723 33.9604 30.1886 33.9643 30.2051 33.9643C30.2216 33.9643 30.2379 33.9604 30.2526 33.9529L30.9064 33.5756C30.9337 33.5598 30.9366 33.5353 30.9064 33.5209L30.28 33.1623ZM32.4213 31.6647L33.0765 31.2874C33.1039 31.2715 33.1068 31.247 33.0765 31.2326L32.4516 30.8712C32.4368 30.8637 32.4205 30.8598 32.404 30.8598C32.3875 30.8598 32.3712 30.8637 32.3565 30.8712L31.7027 31.2485C31.6739 31.2658 31.6725 31.2902 31.7027 31.3032L32.332 31.6647C32.346 31.6712 32.3612 31.6746 32.3767 31.6746C32.3921 31.6746 32.4073 31.6712 32.4213 31.6647ZM28.5202 31.8533L29.1754 31.4746C29.2028 31.4587 29.2057 31.4342 29.1754 31.4198L28.549 31.0584C28.5343 31.0507 28.518 31.0467 28.5015 31.0467C28.4849 31.0467 28.4686 31.0507 28.454 31.0584L27.8002 31.4357C27.7714 31.4515 27.7699 31.476 27.8002 31.4904L28.4252 31.8519C28.4395 31.86 28.4556 31.8646 28.4722 31.8654C28.4887 31.8661 28.5051 31.863 28.5202 31.8562V31.8533ZM25.9814 35.3858L27.8938 34.2827C27.9211 34.2654 27.924 34.2409 27.8938 34.2265L27.2674 33.8665C27.2526 33.859 27.2363 33.8551 27.2198 33.8551C27.2033 33.8551 27.187 33.859 27.1723 33.8665L25.2671 34.9768C25.2383 34.9941 25.2369 35.0185 25.2671 35.0315L25.8921 35.393C25.9066 35.3984 25.9221 35.4006 25.9375 35.3993C25.953 35.3981 25.9679 35.3935 25.9814 35.3858ZM31.3715 32.2176C31.386 32.2251 31.402 32.229 31.4183 32.229C31.4346 32.229 31.4506 32.2251 31.4651 32.2176L32.1203 31.8403C32.1477 31.8245 32.1506 31.8 32.1203 31.7856L31.4939 31.4242C31.4792 31.4167 31.4629 31.4128 31.4464 31.4128C31.4299 31.4128 31.4136 31.4167 31.3989 31.4242L30.748 31.8087C30.7206 31.8245 30.7177 31.849 30.748 31.8634L31.3715 32.2176ZM30.5723 31.6978L31.2261 31.3205C31.2534 31.3046 31.2563 31.2802 31.2261 31.2658L30.604 30.9101C30.5892 30.9026 30.573 30.8987 30.5564 30.8987C30.5399 30.8987 30.5236 30.9026 30.5089 30.9101L29.8551 31.2874C29.8278 31.3032 29.8249 31.3277 29.8551 31.3421L30.4816 31.7035C30.4957 31.7103 30.5112 31.7138 30.5269 31.7138C30.5426 31.7138 30.5581 31.7103 30.5723 31.7035V31.6978ZM25.0252 35.9315L25.6804 35.5542C25.7078 35.5384 25.7107 35.5139 25.6804 35.4995L25.0554 35.1381C25.0407 35.1306 25.0244 35.1267 25.0079 35.1267C24.9914 35.1267 24.9751 35.1306 24.9604 35.1381L24.3066 35.5168C24.2778 35.5326 24.2764 35.5571 24.3066 35.5715L24.9316 35.933C24.9457 35.9412 24.9615 35.9459 24.9779 35.9467C24.9942 35.9474 25.0104 35.9442 25.0252 35.9373V35.9315ZM29.2575 33.4374C29.2722 33.4448 29.2885 33.4487 29.305 33.4487C29.3215 33.4487 29.3378 33.4448 29.3526 33.4374L30.0063 33.0586C30.0351 33.0428 30.0366 33.0183 30.0063 33.0039L29.3814 32.6425C29.3667 32.6346 29.3504 32.6305 29.3338 32.6305C29.3173 32.6305 29.3009 32.6346 29.2863 32.6425L28.6311 33.0197C28.6037 33.0356 28.6008 33.0601 28.6311 33.0745L29.2575 33.4374ZM20.2456 38.6921L20.8994 38.3134C20.9282 38.2976 20.9297 38.2731 20.8994 38.2587L20.2744 37.8972C20.2596 37.8902 20.2434 37.8865 20.2269 37.8865C20.2105 37.8865 20.1942 37.8902 20.1794 37.8972L19.5314 38.2889C19.5026 38.3048 19.5011 38.3292 19.5314 38.3436L20.1564 38.7051C20.1708 38.7105 20.1864 38.7127 20.2018 38.7115C20.2172 38.7102 20.2322 38.7056 20.2456 38.6979V38.6921ZM21.2018 38.1391L21.8556 37.7619C21.8844 37.746 21.8859 37.7215 21.8556 37.7071L21.2436 37.3514C21.2289 37.344 21.2126 37.3401 21.1961 37.3401C21.1796 37.3401 21.1633 37.344 21.1486 37.3514L20.4933 37.7302C20.466 37.746 20.4631 37.7705 20.4933 37.7849L21.1198 38.1463C21.1328 38.1518 21.1468 38.1545 21.1609 38.1542C21.1751 38.154 21.189 38.1508 21.2018 38.1449V38.1391ZM19.2894 39.2437L19.9447 38.8664C19.972 38.8505 19.9749 38.8261 19.9447 38.8117L19.3197 38.4502C19.305 38.4427 19.2887 38.4388 19.2722 38.4388C19.2556 38.4388 19.2394 38.4427 19.2246 38.4502L18.5709 38.8275C18.5421 38.8433 18.5406 38.8678 18.5709 38.8822L19.1958 39.2437C19.2099 39.2518 19.2257 39.2566 19.242 39.2576C19.2582 39.2586 19.2745 39.2558 19.2894 39.2494V39.2437ZM23.1157 37.0418L23.7695 36.6645C23.7968 36.6487 23.7997 36.6228 23.7695 36.6098L23.143 36.2484C23.1283 36.2409 23.112 36.237 23.0955 36.237C23.079 36.237 23.0627 36.2409 23.048 36.2484L22.3956 36.6285C22.3683 36.6444 22.3654 36.6688 22.3956 36.6832L23.0221 37.0447C23.0368 37.0515 23.053 37.0548 23.0692 37.0543C23.0854 37.0538 23.1014 37.0495 23.1157 37.0418ZM22.1595 37.5934L22.8133 37.2161C22.8406 37.2002 22.8435 37.1758 22.8133 37.1613L22.1868 36.7999C22.1721 36.7924 22.1558 36.7885 22.1393 36.7885C22.1228 36.7885 22.1065 36.7924 22.0918 36.7999L21.438 37.1772C21.4106 37.1945 21.4078 37.219 21.438 37.2334L22.0644 37.5934C22.079 37.6006 22.095 37.6044 22.1112 37.6044C22.1275 37.6044 22.1435 37.6006 22.158 37.5934H22.1595ZM24.0704 36.4903L24.7257 36.1115C24.753 36.0957 24.7559 36.0712 24.7257 36.0568L24.1035 35.6968C24.0887 35.6898 24.0725 35.6861 24.056 35.6861C24.0396 35.6861 24.0234 35.6898 24.0085 35.6968L23.3547 36.0741C23.3274 36.0899 23.3245 36.1144 23.3547 36.1288L23.9811 36.4903C23.9949 36.4968 24.0099 36.5002 24.0251 36.5002C24.0403 36.5002 24.0553 36.4968 24.069 36.4903H24.0704ZM29.2878 28.8119C29.3025 28.8194 29.3188 28.8233 29.3353 28.8233C29.3518 28.8233 29.3681 28.8194 29.3828 28.8119L30.0366 28.4332C30.0654 28.4173 30.0668 28.3928 30.0366 28.3784L29.871 28.282C29.8561 28.2749 29.8399 28.2713 29.8235 28.2713C29.807 28.2713 29.7908 28.2749 29.7759 28.282L29.1207 28.6593C29.0933 28.6751 29.0905 28.6996 29.1207 28.714L29.2878 28.8119ZM24.5356 31.8202C24.5503 31.8276 24.5666 31.8315 24.5831 31.8315C24.5996 31.8315 24.6159 31.8276 24.6306 31.8202L25.2844 31.4414C25.3118 31.4256 25.3146 31.4011 25.2844 31.3867L24.658 31.0267C24.6432 31.0192 24.627 31.0154 24.6104 31.0154C24.5939 31.0154 24.5777 31.0192 24.5629 31.0267L23.9091 31.404C23.8818 31.4198 23.8789 31.4443 23.9091 31.4587L24.5356 31.8202ZM26.4465 30.7157C26.4612 30.7231 26.4775 30.727 26.494 30.727C26.5106 30.727 26.5268 30.7231 26.5416 30.7157L27.1953 30.3384C27.2242 30.3225 27.2256 30.298 27.1953 30.2836L26.5718 29.9193C26.5571 29.9118 26.5408 29.908 26.5243 29.908C26.5078 29.908 26.4915 29.9118 26.4768 29.9193L25.823 30.2966C25.7942 30.3139 25.7927 30.3384 25.823 30.3528L26.4465 30.7157ZM23.3677 32.4941C23.3824 32.5016 23.3987 32.5055 23.4152 32.5055C23.4317 32.5055 23.448 32.5016 23.4627 32.4941L24.1165 32.1154C24.1439 32.0996 24.1468 32.0751 24.1165 32.0607L23.4915 31.6992C23.4767 31.6922 23.4604 31.6885 23.444 31.6885C23.4276 31.6885 23.4113 31.6922 23.3965 31.6992L22.7413 32.0765C22.7139 32.0923 22.711 32.1168 22.7413 32.1312L23.3677 32.4941ZM25.4903 31.2686C25.5049 31.2765 25.5213 31.2805 25.5378 31.2805C25.5544 31.2805 25.5707 31.2765 25.5854 31.2686L26.2406 30.8913C26.268 30.8755 26.2708 30.851 26.2406 30.8366L25.6156 30.4752C25.6009 30.4677 25.5846 30.4638 25.5681 30.4638C25.5516 30.4638 25.5353 30.4677 25.5206 30.4752L24.8668 30.8539C24.838 30.8697 24.8365 30.8942 24.8668 30.9086L25.4903 31.2686ZM21.4582 33.5972C21.4729 33.6047 21.4892 33.6086 21.5057 33.6086C21.5222 33.6086 21.5385 33.6047 21.5532 33.5972L22.207 33.2199C22.2358 33.2041 22.2387 33.1796 22.207 33.1652L21.582 32.8037C21.5673 32.7963 21.551 32.7924 21.5345 32.7924C21.518 32.7924 21.5017 32.7963 21.487 32.8037L20.8332 33.181C20.8044 33.1983 20.8029 33.2228 20.8332 33.2372L21.4582 33.5972ZM22.4144 33.0457C22.4291 33.0531 22.4454 33.057 22.4619 33.057C22.4784 33.057 22.4947 33.0531 22.5094 33.0457L23.1632 32.6684C23.192 32.6525 23.1934 32.6281 23.1632 32.6137L22.5396 32.2493C22.5249 32.2419 22.5086 32.238 22.4921 32.238C22.4756 32.238 22.4593 32.2419 22.4446 32.2493L21.7908 32.6266C21.762 32.6425 21.7591 32.6669 21.7908 32.6813L22.4144 33.0457ZM27.3768 29.915C27.3915 29.9225 27.4078 29.9263 27.4243 29.9263C27.4408 29.9263 27.4571 29.9225 27.4718 29.915L28.1271 29.5377C28.1544 29.5219 28.1573 29.4974 28.1271 29.483L27.96 29.3865C27.9453 29.379 27.929 29.3751 27.9125 29.3751C27.896 29.3751 27.8797 29.379 27.865 29.3865L27.2112 29.7652C27.1824 29.7811 27.1809 29.8055 27.2112 29.8199L27.3768 29.915ZM30.2454 28.2604C30.2601 28.2677 30.2764 28.2715 30.2929 28.2715C30.3094 28.2715 30.3257 28.2677 30.3404 28.2604L30.9942 27.8831C31.0216 27.8672 31.0245 27.8427 30.9942 27.8283L30.8272 27.7319C30.8125 27.7242 30.7962 27.7201 30.7796 27.7201C30.7631 27.7201 30.7468 27.7242 30.7321 27.7319L30.0783 28.1092C30.051 28.125 30.0481 28.1495 30.0783 28.1639L30.2454 28.2604ZM31.5602 29.0193C31.5748 29.027 31.5911 29.031 31.6077 29.031C31.6242 29.031 31.6405 29.027 31.6552 29.0193L32.309 28.642C32.3363 28.6261 32.3392 28.6017 32.309 28.5873L31.6826 28.2258C31.6678 28.2183 31.6516 28.2144 31.635 28.2144C31.6185 28.2144 31.6022 28.2183 31.5875 28.2258L30.9337 28.6045C30.9064 28.6204 30.9035 28.6449 30.9337 28.6593L31.5602 29.0193ZM33.3804 31.116L34.0342 30.7387C34.063 30.7214 34.0644 30.6969 34.0342 30.684L33.4092 30.3225C33.3945 30.3151 33.3782 30.3112 33.3617 30.3112C33.3452 30.3112 33.3289 30.3151 33.3141 30.3225L32.6604 30.6998C32.6316 30.7157 32.6301 30.7401 32.6604 30.7545L33.2853 31.116C33.2997 31.123 33.3155 31.1266 33.3314 31.1266C33.3474 31.1266 33.3632 31.123 33.3775 31.116H33.3804ZM28.3402 29.3634C28.3549 29.3709 28.3712 29.3748 28.3877 29.3748C28.4042 29.3748 28.4205 29.3709 28.4352 29.3634L29.089 28.9861C29.1178 28.9703 29.1193 28.9444 29.089 28.9314L28.9234 28.8349C28.9087 28.8275 28.8924 28.8236 28.8759 28.8236C28.8594 28.8236 28.8431 28.8275 28.8284 28.8349L28.1688 29.2166C28.1415 29.2324 28.1386 29.2569 28.1688 29.2713L28.3402 29.3634ZM20.5092 34.1502C20.5238 34.158 20.5401 34.1621 20.5567 34.1621C20.5733 34.1621 20.5896 34.158 20.6042 34.1502L21.2594 33.7729C21.2868 33.7571 21.2897 33.7326 21.2594 33.7182L20.633 33.3567C20.6184 33.349 20.602 33.345 20.5855 33.345C20.5689 33.345 20.5526 33.349 20.538 33.3567L19.8842 33.734C19.8568 33.7499 19.8539 33.7743 19.8842 33.7887L20.5092 34.1502Z" fill="#455A64"/>
<path d="M23.2381 39.5893L23.3806 39.6714L27.1579 41.853L33.8758 37.9735L34.0155 37.8943L30.0956 35.632L23.2381 39.5893Z" fill="#263238"/>
<path d="M33.7894 38.024L30.0956 35.8927L23.4656 39.7218L27.1579 41.8531L33.7894 38.024Z" fill="#37474F"/>
<path d="M14.5833 0.530653C13.4025 -0.242657 11.8804 -0.104411 11.0566 0.519133C9.9046 1.39469 9.4985 2.35808 9.29113 4.26328C9.00312 6.94754 8.70071 7.71941 8.38246 8.32855C8.24678 8.59617 8.05928 8.83417 7.83086 9.02872C7.60244 9.22328 7.33764 9.37051 7.05185 9.46188C7.27973 9.60122 7.53943 9.68005 7.80631 9.69089C8.0732 9.70172 8.33844 9.64421 8.57687 9.5238C8.30613 10.8199 7.92884 11.9071 8.26437 13.2766C8.49046 14.1982 8.97144 15.2423 9.68139 15.9032C10.2862 16.4663 11.1517 16.6377 11.8789 16.9559C11.3879 15.9032 11.1243 14.9096 11.4642 13.7259C11.8386 12.4198 12.7141 11.308 13.1015 9.99182C13.6401 8.17159 14.2536 6.28512 14.4077 4.38568C14.5358 2.78434 14.5963 1.63086 14.5833 0.530653Z" fill="#263238"/>
<path d="M13.9944 0.771144C13.8057 0.594017 12.9719 0.709221 12.4679 1.30972C11.9639 1.91023 11.6643 2.7829 12.2764 3.25092C12.8495 3.69014 15.0773 1.35293 13.9944 0.771144Z" fill="#DB2777"/>
<path d="M20.8332 3.40645C21.2479 3.2538 21.425 2.71954 21.3012 2.29472C21.1774 1.86991 20.8303 1.54733 20.4602 1.30396C19.613 0.757006 18.6019 0.521796 17.6003 0.638659C16.6712 0.342987 15.6813 0.29337 14.7273 0.494653C14.1067 0.638288 13.5482 0.976719 13.1337 1.46046C12.7191 1.94421 12.4702 2.54789 12.4233 3.18324C10.9443 3.53173 10.2977 5.34332 11.2107 7.2874C11.8746 8.69289 13.3708 9.66493 13.5566 10.3648L19.1642 6.00719C19.383 6.34848 20.0599 6.36432 20.3364 6.22896C20.6129 6.09359 20.7857 5.59245 20.6013 5.34476C20.8586 5.37532 21.1174 5.30244 21.3209 5.14215C21.5244 4.98187 21.6559 4.74732 21.6864 4.49009C21.717 4.23286 21.6441 3.97403 21.4838 3.77054C21.3235 3.56705 21.089 3.43556 20.8317 3.40501L20.8332 3.40645Z" fill="#263238"/>
<path d="M14.7273 0.496094C14.1168 0.657796 13.5717 1.00558 13.1678 1.49117C12.9664 1.72901 12.8049 1.99795 12.6897 2.28752C12.5771 2.57639 12.51 2.88099 12.4909 3.19044V3.23796L12.4449 3.24948C12.097 3.33085 11.7791 3.50851 11.5275 3.76214C11.2789 4.01849 11.0961 4.33126 10.9947 4.6737C10.8061 5.37268 10.8398 6.11308 11.0912 6.79202C11.3368 7.47792 11.7189 8.10693 12.2144 8.64105C12.4549 8.91754 12.7084 9.18251 12.9518 9.45756C13.0742 9.60157 13.1966 9.73261 13.306 9.88958C13.4214 10.0336 13.5084 10.1983 13.5623 10.3749C13.4983 10.2034 13.4031 10.0452 13.2815 9.9083C13.1655 9.76687 13.0425 9.63133 12.9129 9.5022C12.6551 9.24011 12.393 8.98234 12.1453 8.71017C11.8935 8.43999 11.6624 8.15116 11.4541 7.84614C11.2473 7.53577 11.0817 7.19982 10.9616 6.84674C10.8321 6.49205 10.7545 6.12052 10.7312 5.74366C10.7005 5.36801 10.7406 4.98994 10.8493 4.62905C10.9601 4.26501 11.1578 3.93338 11.4253 3.66278C11.697 3.39393 12.0388 3.20681 12.4117 3.12276L12.3613 3.1818C12.4117 2.5349 12.6727 1.92234 13.1044 1.43789C13.3176 1.19942 13.5669 0.995823 13.8431 0.834507C14.1164 0.672016 14.4154 0.557555 14.7273 0.496094Z" fill="black"/>
<path d="M35.2769 12.6286C35.5851 12.3665 35.6413 12.2988 36.056 11.9661C36.3642 11.7199 36.6104 11.5197 36.6896 11.3757C36.8452 11.0877 36.6997 10.8098 36.5701 10.8559C36.3095 10.948 36.0013 11.1683 35.4008 11.5759C34.7398 12.0295 34.2732 12.4774 34.2387 12.4054C34.4518 12.1094 34.6872 11.8302 34.9429 11.5701C35.7522 10.696 35.9106 10.5376 36.0589 10.2568C36.3728 9.67213 35.9322 9.57564 35.7392 9.69661C35.5189 9.84061 35.2798 10.0984 34.7009 10.673C34.0731 11.2965 33.5258 11.9316 33.4754 11.8941C33.425 11.8567 34.2948 10.9048 34.8161 10.2078C35.2985 9.56124 34.9846 9.28763 34.8464 9.26603C34.7081 9.24443 34.531 9.43164 34.2977 9.68221C33.8758 10.1416 32.6488 11.6479 32.3925 11.9359C32.1362 12.2239 31.9418 12.3276 31.9087 11.8625C31.877 11.4304 31.8986 10.961 31.7085 10.66C31.3902 10.1574 31.0389 10.2813 31.0374 10.6168C31.0374 11.092 30.9237 11.6248 30.8401 12.3838C30.7955 12.7798 30.8027 13.2478 30.7941 13.5272C30.7451 14.4906 29.9372 14.9888 29.2647 15.4525C28.5922 15.9162 26.7605 16.9603 26.7605 16.9603C26.7605 16.9603 23.3446 13.4422 22.3481 12.581C21.1644 11.5557 20.826 11.4837 19.1541 11.4967L21.5187 17.578C21.5187 17.578 24.7329 20.5518 25.8244 21.1868C26.916 21.8219 27.3595 21.4748 28.6858 20.2983C29.7039 19.3954 31.3802 17.326 31.7848 16.8666C32.1895 16.4073 32.3608 16.1106 32.8346 15.9378C33.4726 15.7045 33.8009 15.3834 34.2257 14.8967C34.4287 14.6648 34.7643 14.1982 35.0739 13.8886C35.4924 13.4914 35.9343 13.1197 36.3973 12.7754C36.6767 12.5407 36.7199 12.0554 36.3282 12.2109C35.5851 12.499 34.8406 13.1268 34.8161 13.0851C34.7916 13.0433 35.0681 12.8071 35.2769 12.6286Z" fill="#FFBDA7"/>
<path d="M32.1679 12.6559C32.5092 13.1585 32.5855 14.3465 32.2528 15.0536C32.9397 14.384 32.8677 13.1729 32.1679 12.6559Z" fill="#F0997A"/>
<path d="M26.7605 16.966C26.1945 17.3361 25.5191 18.4061 25.7121 19.5063C25.4658 18.6941 25.2527 17.6803 26.494 16.6694L26.7605 16.966Z" fill="#F0997A"/>
<path d="M10.4432 13.2809L11.7608 12.7538C11.7608 12.7538 13.7265 12.2441 15.361 11.8898C17.089 11.6724 18.5737 11.5096 18.5737 11.5096L19.157 11.4996C19.157 11.4996 20.453 12.6401 21.402 13.6928C22.351 14.7454 23.1848 15.6253 23.2381 16.9545C23.3086 18.7502 22.1552 19.4026 22.1552 19.4026L22.2257 21.6908L23.7248 25.9318L9.23785 34.2928C9.67851 29.1302 10.8219 28.2791 11.4685 24.7005C11.3447 22.8285 10.4129 20.2594 10.2545 18.9547C9.70155 14.4488 10.4432 13.2809 10.4432 13.2809Z" fill="#DB2777"/>
<path d="M13.5047 11.0315C13.5595 10.3994 13.6487 9.14219 13.6487 9.14219C13.4918 9.351 12.6407 9.64045 12.0647 8.8225C11.3936 7.87926 11.5002 7.20387 11.9682 6.7517C12.501 6.23616 13.4342 6.36864 13.823 7.18371C14.0664 7.75973 14.543 7.08003 14.0635 6.17567C13.9036 4.58297 15.9356 5.63853 17.2014 2.31776C18.4787 2.24576 19.2491 2.60577 19.8698 3.66854C20.1578 4.14951 20.4933 4.84218 20.4242 6.84818C20.3349 9.40284 19.9504 10.2064 19.0562 10.6341C18.6443 10.8314 18.2209 10.9063 17.4275 10.8472L17.4202 11.092C17.419 11.1488 17.4219 11.2056 17.4289 11.262C17.4327 11.3327 17.4624 11.3995 17.5123 11.4497C17.5622 11.4999 17.6289 11.53 17.6996 11.5341C17.9922 11.5456 18.2852 11.5374 18.5766 11.5096C18.5766 11.5096 19.2275 13.1455 17.0674 13.6107C15.2513 13.9977 13.3561 13.6921 11.7536 12.7538C12.075 12.589 12.3844 12.4018 12.6796 12.1937C13.3463 11.7112 13.4673 11.4276 13.5047 11.0315Z" fill="#FFBDA7"/>
<path d="M12.6767 8.70154C12.679 8.76294 12.6994 8.82228 12.7354 8.87207C12.7714 8.92187 12.8214 8.95989 12.8789 8.98134C12.9365 9.00279 12.9992 9.00671 13.059 8.9926C13.1188 8.97849 13.173 8.94698 13.215 8.90206C13.2569 8.85713 13.2846 8.8008 13.2945 8.74017C13.3044 8.67953 13.2962 8.61731 13.2708 8.56136C13.2454 8.50541 13.204 8.45822 13.1519 8.42576C13.0997 8.3933 13.0391 8.37702 12.9777 8.37896C12.9366 8.38007 12.8962 8.38933 12.8588 8.40621C12.8214 8.42308 12.7877 8.44723 12.7597 8.47724C12.7317 8.50726 12.7099 8.54255 12.6957 8.58106C12.6814 8.61956 12.675 8.66052 12.6767 8.70154Z" fill="#FAFAFA"/>
<path d="M16.7564 8.36024L18.1446 8.79225C18.1197 8.8848 18.0765 8.97145 18.0177 9.04711C17.9589 9.12277 17.8855 9.18593 17.802 9.23287C17.7184 9.27981 17.6263 9.3096 17.5311 9.32049C17.4359 9.33138 17.3394 9.32314 17.2474 9.29627C17.0604 9.23409 16.9047 9.10183 16.8131 8.92728C16.7216 8.75273 16.7012 8.54948 16.7564 8.36024Z" fill="#B16668"/>
<path d="M16.8471 8.67993C17.0319 8.67385 17.213 8.73213 17.3596 8.84481C17.5062 8.9575 17.609 9.11758 17.6507 9.29771C17.5192 9.33727 17.3789 9.33727 17.2474 9.29771C17.1152 9.25438 16.9977 9.17514 16.9079 9.06884C16.8181 8.96254 16.7597 8.83337 16.7391 8.69577C16.7747 8.68827 16.8108 8.68298 16.8471 8.67993Z" fill="#F28F8F"/>
<path d="M19.8871 4.8897L19.0129 4.68089C19.0238 4.62337 19.0462 4.56866 19.0789 4.52008C19.1116 4.47149 19.1537 4.43005 19.2029 4.39827C19.252 4.36649 19.3071 4.34502 19.3649 4.33519C19.4226 4.32535 19.4817 4.32734 19.5386 4.34104C19.6558 4.3705 19.7574 4.44382 19.8222 4.54589C19.887 4.64797 19.9102 4.77102 19.8871 4.8897Z" fill="#263238"/>
<path d="M15.6274 4.84506L16.4785 4.52393C16.4609 4.46657 16.4316 4.4135 16.3924 4.36809C16.3532 4.32268 16.3049 4.28594 16.2507 4.2602C16.1965 4.23446 16.1376 4.22029 16.0776 4.21859C16.0177 4.21689 15.958 4.22769 15.9024 4.25032C15.7895 4.29578 15.6981 4.38264 15.647 4.49316C15.5959 4.60368 15.5889 4.72955 15.6274 4.84506Z" fill="#263238"/>
<path d="M19.0288 6.02303C19.0238 6.12141 19.0564 6.21802 19.1201 6.2932C19.1837 6.36837 19.2737 6.41646 19.3715 6.42768C19.4198 6.43283 19.4687 6.4282 19.5151 6.41406C19.5616 6.39991 19.6047 6.37655 19.6419 6.34537C19.6792 6.31419 19.7097 6.27582 19.7318 6.23256C19.7539 6.1893 19.767 6.14204 19.7704 6.09359C19.7757 5.99422 19.7424 5.89666 19.6775 5.82125C19.6125 5.74585 19.521 5.69845 19.4219 5.68894C19.3741 5.6846 19.3259 5.68985 19.2801 5.70436C19.2343 5.71888 19.1919 5.74238 19.1552 5.77348C19.1186 5.80459 19.0886 5.84268 19.0669 5.88553C19.0452 5.92837 19.0322 5.97512 19.0288 6.02303Z" fill="#263238"/>
<path d="M15.9831 6.04175C15.977 6.14122 16.0098 6.23915 16.0746 6.31491C16.1393 6.39066 16.2309 6.43832 16.3301 6.44784C16.3785 6.4532 16.4274 6.44871 16.4739 6.43465C16.5205 6.42059 16.5637 6.39724 16.6009 6.36602C16.6382 6.3348 16.6688 6.29635 16.6908 6.25299C16.7128 6.20964 16.7258 6.16227 16.729 6.11375C16.7351 6.01444 16.7022 5.91667 16.6374 5.84115C16.5727 5.76562 16.481 5.71826 16.382 5.7091C16.3338 5.70394 16.2851 5.70853 16.2387 5.72259C16.1923 5.73664 16.1493 5.75987 16.112 5.79091C16.0748 5.82194 16.0442 5.86014 16.0221 5.90323C15.9999 5.94632 15.9867 5.99343 15.9831 6.04175Z" fill="#263238"/>
<path d="M17.4217 10.8487C16.5946 10.7704 15.7883 10.544 15.0413 10.1805C14.6312 9.94447 14.3065 9.58448 14.1139 9.15227C14.1233 9.40112 14.1851 9.6452 14.2953 9.86853C14.4054 10.0919 14.5615 10.2894 14.7533 10.4483C15.4733 11.0531 17.4231 11.2576 17.4231 11.2576C17.4148 11.2014 17.4119 11.1445 17.4145 11.0877L17.4217 10.8487Z" fill="#F0997A"/>
<path d="M16.392 19.7122C17.0948 19.1146 17.4519 18.8784 17.7903 18.7603C18.1288 18.6422 19.3024 18.0633 19.7575 17.9193C20.0455 17.8272 20.1895 18.2865 19.841 18.6307C19.5688 18.8957 18.8416 19.2672 18.5248 19.4674C18.208 19.6676 17.6132 20.4913 17.6132 20.4913L16.392 19.7122Z" fill="#F0997A"/>
<path d="M14.7979 24.9598C12.4938 26.2673 10.4777 27.896 8.24422 28.2316C6.06685 28.557 5.99917 26.7541 6.03805 25.4105C6.08701 23.7141 7.03745 18.3945 7.53139 16.6262C8.05557 14.744 8.39542 14.0499 10.436 13.2838C12.1208 14.3883 11.732 18.036 11.3735 19.4285C10.9918 20.8815 10.3741 23.596 10.3741 23.596C10.3741 23.596 13.0295 22.7594 13.6675 22.4224C14.3054 22.0854 15.3739 20.6511 15.7959 20.1917C16.3719 19.5667 16.6786 19.6258 16.9911 19.6531C18.0179 19.7424 18.2468 19.813 18.4701 19.9412C18.5366 19.981 18.5919 20.037 18.6309 20.104C18.67 20.171 18.6914 20.2467 18.6933 20.3242C18.9654 20.3415 19.3686 20.3069 19.4493 20.7476C19.4793 20.8632 19.4924 20.9825 19.4882 21.1018C19.5572 21.1094 19.6215 21.141 19.6696 21.1911C19.9115 21.4374 19.5818 22.3633 19.3514 22.5981C19.1886 22.7637 18.9453 22.7982 18.6213 22.7752C18.3448 22.755 18.4542 22.4685 18.4542 22.4685L18.0726 22.516C17.2834 23.1554 17.2446 24.1 16.1674 24.4255C15.6867 24.5338 15.225 24.7139 14.7979 24.9598Z" fill="#FFBDA7"/>
<path d="M18.6933 20.317L17.4707 20.1442H18.6515C18.6764 20.1986 18.6906 20.2573 18.6933 20.317Z" fill="#F0997A"/>
<path d="M19.4882 21.0947L18.087 21.0025L19.4795 20.9334C19.4883 20.9866 19.4912 21.0407 19.4882 21.0947Z" fill="#F0997A"/>
<path d="M19.3427 21.7182C19.3024 21.7922 19.2413 21.8527 19.167 21.8924C19.0941 21.9352 19.0156 21.9677 18.9337 21.9889L18.951 21.9745C18.9193 22.0494 18.8833 22.1185 18.8488 22.1963L18.8171 22.1617C18.8553 22.1522 18.895 22.1508 18.9338 22.1578C18.9725 22.1647 19.0093 22.1798 19.0418 22.2021C19.1025 22.2454 19.1487 22.3061 19.1742 22.3763C19.1384 22.3175 19.089 22.2681 19.0302 22.2323C18.9717 22.2021 18.9042 22.1939 18.8401 22.2093L18.7869 22.2237L18.8085 22.1733C18.8416 22.0984 18.8747 22.0292 18.9121 21.9515V21.94H18.9237C19.0013 21.9207 19.077 21.8942 19.1498 21.8608C19.2245 21.8293 19.2907 21.7804 19.3427 21.7182Z" fill="#F0997A"/>
<path d="M18.9856 21.9212C18.82 21.9532 18.6527 21.9754 18.4844 21.9875C18.4615 22.0936 18.4073 22.1903 18.3289 22.2654C18.2485 22.3517 18.1629 22.433 18.0726 22.5088L18.4542 22.4613C18.4542 22.4613 18.5377 22.2841 18.8776 22.1963L18.9856 21.9212Z" fill="#F0997A"/>
<path d="M10.4893 23.0906L10.3741 23.5931C9.39338 23.9128 8.35798 24.6761 8.15493 25.2363C8.2831 24.3593 8.76407 23.6695 10.4893 23.0906Z" fill="#F0997A"/>
<path d="M20.7756 5.07547L20.6316 5.05675C20.1492 5.00635 19.5069 4.99483 19.1195 5.12299C18.6184 5.29004 18.4456 5.47436 18.1532 5.48156C17.8364 5.48156 17.6276 5.30444 17.0372 5.14459C16.5562 5.01787 15.7411 5.04091 15.0931 5.10859L14.8872 5.13163C14.8166 5.15075 14.7546 5.19317 14.7112 5.252C14.6678 5.31082 14.6456 5.38259 14.6481 5.45564C14.6715 5.59806 14.739 5.72954 14.8411 5.8315C14.8722 5.87798 14.8946 5.92969 14.9074 5.98414C14.9736 6.24911 15.0125 6.76609 15.1478 7.05123C15.2119 7.19322 15.3018 7.32212 15.4128 7.4314C15.4546 7.47137 15.4999 7.50752 15.5482 7.5394L15.6274 7.58837C15.701 7.62838 15.7787 7.66025 15.8592 7.68341L15.8981 7.69349L15.9586 7.70789L16.0234 7.71797C16.0901 7.72893 16.1574 7.73519 16.225 7.73669H16.3114H16.418C17.2287 7.68341 17.5455 7.27299 17.7227 6.87266C17.8998 6.47232 17.8278 5.94382 18.1705 5.93518H18.2022C18.2122 5.93368 18.2224 5.93368 18.2324 5.93518C18.4845 5.98702 18.4787 6.47232 18.6544 6.81938C18.7216 6.95721 18.8095 7.08396 18.915 7.19523C18.9341 7.21552 18.9543 7.23474 18.9755 7.25283L19.0072 7.27875L19.0403 7.30467L19.0706 7.32628L19.1037 7.34788L19.1296 7.36228L19.1469 7.37236C19.2391 7.42307 19.3387 7.45903 19.4421 7.47892H19.468C19.5826 7.49862 19.6992 7.50346 19.8151 7.49332C20.0273 7.49045 20.2322 7.4159 20.3967 7.28178C20.5611 7.14765 20.6754 6.96185 20.7209 6.75457C20.7972 6.49536 20.7929 6.04607 20.8188 5.81134C20.8231 5.7681 20.8379 5.72657 20.862 5.69037C20.9279 5.59027 20.9634 5.47324 20.9642 5.3534C20.9556 5.21515 20.8577 5.08555 20.7756 5.07547ZM17.5124 6.51552C17.4775 6.72052 17.3902 6.913 17.259 7.07427C17.1493 7.19375 17.0157 7.28873 16.8668 7.353C16.7179 7.41728 16.5571 7.44939 16.3949 7.44724C16.2295 7.46725 16.0616 7.44393 15.9079 7.37955C15.7542 7.31518 15.6198 7.21197 15.5179 7.08003C15.5079 7.06707 15.4992 7.05267 15.4906 7.0397C15.4809 7.02743 15.4723 7.01443 15.4647 7.00082C15.4564 6.98899 15.4492 6.97646 15.4431 6.96338L15.4243 6.93026L15.4114 6.9029C15.4069 6.89503 15.4031 6.88685 15.3999 6.87842C15.3999 6.86546 15.3869 6.8525 15.3811 6.8381C15.3653 6.79778 15.3509 6.75889 15.3379 6.72001C15.3307 6.69697 15.3235 6.67249 15.3178 6.64945C15.312 6.62641 15.2962 6.57025 15.289 6.53569V6.51408C15.289 6.51408 15.289 6.50112 15.289 6.49392C15.227 6.21455 15.155 5.66877 15.3005 5.54493C15.4459 5.42108 15.816 5.29148 16.4122 5.34044H16.4756C16.5651 5.34932 16.654 5.36326 16.742 5.3822C16.7765 5.3822 16.8111 5.3966 16.8457 5.40524C16.9328 5.42537 17.0184 5.45135 17.102 5.483L17.1812 5.51325C17.2114 5.52477 17.2388 5.53917 17.2662 5.55213L17.2834 5.56077L17.3137 5.57661C17.3804 5.60866 17.4398 5.65427 17.4879 5.71053C17.5887 5.86606 17.5671 6.21023 17.5124 6.5112V6.51552ZM20.5927 6.27791C20.5725 6.47376 20.5279 6.90434 20.1909 7.11459C20.0777 7.18368 19.949 7.22329 19.8165 7.22979C19.6615 7.2528 19.5031 7.23242 19.359 7.1709C19.2149 7.10939 19.0906 7.00914 19 6.8813L18.9842 6.85826C18.9777 6.8496 18.9719 6.84045 18.9669 6.8309C18.963 6.82645 18.9597 6.82162 18.9568 6.8165L18.9337 6.77617L18.9093 6.72865C18.9093 6.72001 18.9021 6.71281 18.8992 6.70417C18.8986 6.69987 18.8986 6.69551 18.8992 6.69121C18.8957 6.68526 18.8928 6.67899 18.8905 6.67249V6.65665C18.8657 6.59375 18.845 6.52929 18.8286 6.46368C18.7566 6.17567 18.7091 5.84446 18.7998 5.68461C18.8905 5.52477 19.2635 5.35196 19.6207 5.30012C19.7027 5.2886 19.7791 5.2814 19.8511 5.27852H20.0152H20.0527L20.1146 5.28572C20.1534 5.28997 20.1919 5.2967 20.2298 5.30588H20.2557H20.2629H20.2816H20.309L20.3436 5.3174L20.3983 5.339H20.4084C20.4542 5.35918 20.4969 5.38585 20.5351 5.4182C20.6316 5.54349 20.6172 6.03167 20.5927 6.27359V6.27791Z" fill="#37474F"/>
<path d="M14.7806 5.25835L12.9345 6.46368C13.1322 6.49233 13.3173 6.57789 13.4673 6.70993L14.8843 5.74509L14.7806 5.25835Z" fill="#37474F"/>
<path d="M19.2822 7.53509L18.159 8.09815L17.871 6.31248C17.8754 6.24508 17.8935 6.17928 17.9242 6.11912C17.9549 6.05895 17.9976 6.00567 18.0496 5.96255L19.2822 7.53509Z" fill="#F0997A"/>
<path d="M35.7819 6.56216L37.4322 5.69946C37.4322 5.69946 38.479 5.96742 40.2283 5.86394C42.8154 5.71035 44.3251 4.61781 43.9406 3.08411C43.5463 1.51229 41.8165 0.894667 38.7328 1.01449C34.8756 1.16481 33.9399 3.78016 36.2427 5.32584L35.7819 6.56216Z" fill="#DB2777"/>
<path opacity="0.7" d="M35.7819 6.56216L37.4322 5.69946C37.4322 5.69946 38.479 5.96742 40.2283 5.86394C42.8154 5.71035 44.3251 4.61781 43.9406 3.08411C43.5463 1.51229 41.8165 0.894667 38.7328 1.01449C34.8756 1.16481 33.9399 3.78016 36.2427 5.32584L35.7819 6.56216Z" fill="white"/>
<path d="M37.5509 3.90761C37.7783 3.90761 37.9626 3.72326 37.9626 3.49586C37.9626 3.26846 37.7783 3.08411 37.5509 3.08411C37.3235 3.08411 37.1391 3.26846 37.1391 3.49586C37.1391 3.72326 37.3235 3.90761 37.5509 3.90761Z" fill="white"/>
<path d="M39.4854 3.90761C39.7128 3.90761 39.8972 3.72326 39.8972 3.49586C39.8972 3.26846 39.7128 3.08411 39.4854 3.08411C39.258 3.08411 39.0737 3.26846 39.0737 3.49586C39.0737 3.72326 39.258 3.90761 39.4854 3.90761Z" fill="white"/>
<path d="M41.42 3.90761C41.6474 3.90761 41.8317 3.72326 41.8317 3.49586C41.8317 3.26846 41.6474 3.08411 41.42 3.08411C41.1926 3.08411 41.0082 3.26846 41.0082 3.49586C41.0082 3.72326 41.1926 3.90761 41.42 3.90761Z" fill="white"/>
</svg>
