<svg width="98" height="98" viewBox="0 0 98 98" fill="none" xmlns="http://www.w3.org/2000/svg">
<g clip-path="url(#clip0_33_1305)">
<path d="M56.97 54.6052C63.08 56.3452 66.56 56.6852 70.53 62.6752C74.5 68.6652 79.93 76.3452 86.05 85.7452L102.11 78.2452L108.56 89.4352C108.56 89.4352 91.28 100.535 84.9 102.695C80.12 104.305 79 102.205 75.47 98.5152C71.54 94.4152 60 81.0252 60 81.0252L56.97 54.6052Z" fill="#AAAAAA"/>
<path opacity="0.4" d="M56.97 54.6052C63.08 56.3452 66.56 56.6852 70.53 62.6752C74.5 68.6652 79.93 76.3452 86.05 85.7452L102.11 78.2452L108.56 89.4352C108.56 89.4352 91.28 100.535 84.9 102.695C80.12 104.305 79 102.205 75.47 98.5152C71.54 94.4152 60 81.0252 60 81.0252L56.97 54.6052Z" fill="white"/>
<path d="M17.3101 116.385C19.1101 108.165 21.3701 98.9452 21.6201 97.1452C23.0201 86.6752 21.1601 81.3652 20.4801 76.7852C18.9901 66.7852 21.8501 58.4552 24.1701 56.4952L29.4701 55.2552C31.1157 54.8484 32.7858 54.5478 34.4701 54.3552C38.879 53.7338 43.344 53.6131 47.7801 53.9952C48.8701 54.1052 53.9901 54.9952 53.9901 54.9952C55.5401 55.3552 58.3701 55.8752 58.3801 55.8752C61.1545 58.401 63.4749 61.3843 65.2401 64.6952C67.7601 69.2152 69.2401 72.9952 69.6501 82.6952C70.2201 95.0252 70.4901 108.785 71.5701 118.465C61.3201 124.715 30.1301 127.335 17.3101 116.385Z" fill="#263238"/>
<path d="M34.3599 54.6652C41.2099 55.6652 48.2699 55.4352 55.1699 54.9652C57.9763 54.8906 60.7577 54.4158 63.4299 53.5552C62.9205 50.474 62.6497 47.358 62.6199 44.2352C63.5243 47.2973 65.3635 50 67.8799 51.9652C65.9848 48.8866 64.8216 45.4141 64.4799 41.8152C63.7799 36.0852 64.5399 30.3052 63.9399 24.5552C63.4599 19.8752 62.4399 14.6752 59.2699 11.0152C56.3999 7.70517 42.5899 1.90517 33.2699 10.4552C32.6199 11.0452 29.9199 13.8352 29.4999 17.2752C24.6899 19.1252 25.2599 26.0552 25.1899 30.1352C25.0833 37.0552 25.1399 43.9752 25.3599 50.8952V51.5152C25.3387 51.736 25.3914 51.9576 25.5099 52.1452C25.6471 52.2907 25.8248 52.3917 26.0199 52.4352C27.2301 52.8341 28.4758 53.1154 29.7399 53.2752C30.0299 51.5152 30.3299 49.7652 30.6199 48.0152C30.9499 50.0152 31.2899 52.0152 31.6199 54.0152C32.5146 54.304 33.4309 54.5213 34.3599 54.6652Z" fill="#263238"/>
<path d="M34.95 51.3152C34.95 49.6752 34.74 41.4852 34.74 41.4852C34.67 42.0952 31.74 43.7552 29.04 40.5952C26.34 37.4352 26.21 34.0652 27.81 31.9352C29.58 29.5752 34.2 29.6252 34.63 33.6252C36.92 33.5352 38.03 32.5452 37.12 28.7752C36.82 27.5052 38.78 25.5652 39.3 24.5152C39.8323 23.3974 40.1511 22.19 40.24 20.9552C40.35 19.6952 40.4 18.0752 41.37 17.1252C41.7705 16.8015 42.2314 16.5606 42.7257 16.4164C43.2201 16.2722 43.7382 16.2276 44.25 16.2852C45.3158 16.3255 46.3672 16.5453 47.36 16.9352C48.1511 17.3126 48.9623 17.6465 49.79 17.9352C50.2064 18.0679 50.6468 18.108 51.0804 18.0528C51.5139 17.9975 51.9302 17.8481 52.3 17.6152C53.06 17.0552 53.42 16.0052 54.3 15.6152C54.7315 15.5034 55.1841 15.5006 55.617 15.6071C56.0499 15.7136 56.4495 15.926 56.78 16.2252C61.91 19.9052 62.03 27.7552 61.78 33.4452C61.45 42.1452 59.88 45.4452 57.3 47.2352C55.43 48.5252 52.76 49.0052 49.51 48.7252L49.65 51.4552C49.71 52.8252 49.59 53.8452 50.92 54.2852C51.81 54.5852 53.92 54.9952 53.92 54.9952C53.92 54.9952 57.01 60.3452 48.48 60.8252C34.87 61.5852 29.43 55.2652 29.43 55.2652L32.43 54.3352C34.7 53.6352 34.93 52.9452 34.95 51.3152Z" fill="#FFBDA7"/>
<path d="M46.85 38.4152L52 40.0652C51.9062 40.4125 51.743 40.7372 51.5202 41.0196C51.2974 41.302 51.0196 41.5364 50.7037 41.7084C50.3877 41.8804 50.0401 41.9865 49.682 42.0203C49.3238 42.0541 48.9625 42.015 48.62 41.9052C47.9322 41.6634 47.3643 41.1656 47.0346 40.5154C46.7048 39.8652 46.6387 39.1129 46.85 38.4152Z" fill="#B16668"/>
<path d="M47.1798 39.6051C47.8706 39.5872 48.5463 39.8083 49.0929 40.231C49.6395 40.6537 50.0234 41.2521 50.1798 41.9251C49.6937 42.0699 49.1759 42.0699 48.6898 41.9251C48.2004 41.76 47.7664 41.4622 47.4363 41.0649C47.1061 40.6677 46.8927 40.1865 46.8198 39.6751C46.937 39.6393 47.0577 39.6158 47.1798 39.6051Z" fill="#F0997A"/>
<path d="M58.9 25.9852L55.51 24.5552C55.5946 24.3321 55.7234 24.1285 55.8887 23.9565C56.054 23.7845 56.2524 23.6477 56.4719 23.5543C56.6914 23.4609 56.9275 23.4128 57.166 23.413C57.4046 23.4131 57.6406 23.4615 57.86 23.5552C58.3084 23.7538 58.6649 24.1148 58.8579 24.5656C59.0508 25.0165 59.0659 25.5237 58.9 25.9852Z" fill="#263238"/>
<path d="M42.43 26.5752L45.61 24.5752C45.4949 24.3606 45.3371 24.1718 45.1462 24.0207C44.9553 23.8695 44.7354 23.7591 44.5001 23.6963C44.2649 23.6335 44.0192 23.6196 43.7784 23.6555C43.5375 23.6915 43.3066 23.7764 43.1 23.9052C42.6677 24.1798 42.3572 24.6098 42.2325 25.1066C42.1079 25.6033 42.1785 26.129 42.43 26.5752Z" fill="#263238"/>
<path d="M55.0099 28.6051C54.9844 29.0142 55.1179 29.4173 55.3825 29.7303C55.6471 30.0434 56.0223 30.2421 56.4299 30.2852C56.6273 30.3072 56.8271 30.2896 57.0176 30.2334C57.2081 30.1771 57.3855 30.0834 57.5392 29.9576C57.6929 29.8318 57.8199 29.6766 57.9128 29.501C58.0057 29.3254 58.0625 29.133 58.0799 28.9351C58.1109 28.5243 57.9813 28.1175 57.7183 27.8004C57.4552 27.4833 57.0794 27.2806 56.6699 27.2351C56.4699 27.2102 56.267 27.2263 56.0735 27.2826C55.88 27.3388 55.7 27.434 55.5446 27.5623C55.3891 27.6906 55.2616 27.8492 55.1696 28.0285C55.0777 28.2079 55.0233 28.4041 55.0099 28.6051Z" fill="#263238"/>
<path d="M43.7099 29.1552C43.6843 29.5627 43.8164 29.9644 44.0789 30.2772C44.3414 30.59 44.7141 30.7898 45.1199 30.8352C45.3183 30.8587 45.5195 30.8417 45.7112 30.7854C45.9029 30.7291 46.0812 30.6346 46.2353 30.5075C46.3895 30.3804 46.5164 30.2234 46.6082 30.046C46.7001 29.8686 46.7551 29.6744 46.7699 29.4752C46.8007 29.0665 46.6704 28.662 46.4069 28.3481C46.1435 28.0342 45.7677 27.8358 45.3599 27.7952C45.1618 27.7731 44.9612 27.791 44.7701 27.8479C44.579 27.9048 44.4012 27.9994 44.2473 28.1262C44.0935 28.2531 43.9666 28.4095 43.8743 28.5862C43.782 28.763 43.7261 28.9564 43.7099 29.1552Z" fill="#263238"/>
<path d="M55.6198 34.6751L50.8398 36.8651L49.0698 27.6251C51.0398 27.5051 53.3898 31.0651 55.6198 34.6751Z" fill="#F0997A"/>
<path d="M49.54 48.7152C43.69 48.1152 39.44 46.8152 36.8 41.8252C36.8 41.8252 37.5 45.6252 39.61 47.3852C43.51 50.6552 49.61 50.7852 49.61 50.7852L49.54 48.7152Z" fill="#F0997A"/>
<path opacity="0.3" d="M50.4901 32.2351C50.4151 32.3821 50.3281 32.5225 50.2301 32.6551C49.7901 33.2077 49.2049 33.6267 48.5401 33.8651C47.8921 34.1015 47.2221 34.2723 46.5401 34.3751C45.2707 34.6342 43.9742 34.735 42.6801 34.6751C41.5706 34.7383 40.4781 34.3813 39.6201 33.6751C39.1039 33.013 38.7603 32.2329 38.6201 31.4051C38.3071 30.0589 38.1826 28.6757 38.2501 27.2951C38.1227 26.4993 38.2902 25.6843 38.721 25.003C39.1518 24.3218 39.8164 23.8212 40.5901 23.5951C45.6601 21.4351 51.3501 21.2551 56.8401 21.7451C58.7101 21.9151 61.0101 22.1451 61.6001 24.2451C62.05 26.3042 62.05 28.4361 61.6001 30.4951C61.5664 31.2041 61.2747 31.8762 60.7801 32.3851C60.1613 32.7923 59.4558 33.0492 58.7201 33.1351C57.3299 33.3275 55.9141 33.2009 54.5801 32.7651C54.3802 32.5596 54.2148 32.3233 54.0901 32.0651C53.8801 31.7551 53.6601 31.4451 53.4401 31.1451C53.2201 30.8451 52.7401 30.2451 52.2301 30.2651C51.7201 30.2851 51.2901 30.8651 51.0601 31.2651C50.8301 31.6651 50.6701 31.9351 50.4901 32.2351Z" fill="white"/>
<path d="M43.42 35.1452C43.1534 35.1452 42.8834 35.1452 42.61 35.1452H42.48C41.3135 35.2022 40.1692 34.8124 39.28 34.0552C38.7011 33.3415 38.3155 32.4909 38.16 31.5852C37.8336 30.2002 37.7023 28.7765 37.77 27.3552C37.6402 26.4698 37.8322 25.5672 38.3111 24.8112C38.79 24.0553 39.524 23.4961 40.38 23.2352C44.81 21.3452 50.04 20.7452 56.84 21.3552C58.72 21.5252 61.3 21.7552 61.97 24.1652C62.4363 26.2865 62.4363 28.4838 61.97 30.6052C61.9189 31.425 61.5621 32.1958 60.97 32.7652C60.2805 33.2247 59.4927 33.5159 58.67 33.6152H58.62C57.2006 33.8064 55.7561 33.666 54.4 33.2052L54.31 33.1552C54.1151 32.978 53.9527 32.7682 53.83 32.5352C53.7993 32.4686 53.7625 32.405 53.72 32.3452C53.52 32.0318 53.31 31.7318 53.09 31.4452C52.93 31.2352 52.55 30.7352 52.25 30.7352C52.04 30.7352 51.71 31.0552 51.44 31.5152C51.34 31.6752 51.25 31.8552 51.16 32.0252C51.07 32.1952 51.01 32.3252 50.93 32.4752C50.8429 32.6343 50.746 32.7879 50.64 32.9352C50.1509 33.5533 49.5002 34.0241 48.76 34.2952C48.0683 34.5385 47.3551 34.716 46.63 34.8252C45.5714 35.0248 44.4973 35.1319 43.42 35.1452ZM52.04 21.9852C48.1698 21.8735 44.3177 22.5541 40.72 23.9852C40.0112 24.1743 39.4003 24.6252 39.0106 25.2468C38.621 25.8685 38.4814 26.6147 38.62 27.3352C38.5511 28.6788 38.6723 30.0254 38.98 31.3352C39.1025 32.0877 39.4081 32.7986 39.87 33.4052C40.616 34.0089 41.5624 34.3089 42.52 34.2452H42.65C43.9073 34.3076 45.1673 34.2102 46.4 33.9552C47.0818 33.8666 47.7523 33.7057 48.4 33.4752C48.9878 33.2611 49.5063 32.8912 49.9 32.4052C49.986 32.2879 50.0629 32.1642 50.13 32.0352C50.21 31.9052 50.28 31.7652 50.35 31.6252C50.42 31.4852 50.54 31.2452 50.65 31.0552C50.92 30.6152 51.47 29.8752 52.19 29.8552C52.91 29.8352 53.47 30.5352 53.75 30.9152C54.03 31.2952 54.21 31.5352 54.42 31.8552L54.56 32.0952C54.6204 32.2133 54.6942 32.324 54.78 32.4252C55.9935 32.7949 57.2715 32.904 58.53 32.7452H58.62C59.2673 32.6595 59.8883 32.4343 60.44 32.0852C60.8449 31.6395 61.0818 31.0666 61.11 30.4652C61.5399 28.468 61.5399 26.4023 61.11 24.4052C60.64 22.7052 58.85 22.4052 56.73 22.2252C55.09 22.0652 53.52 21.9852 52.04 21.9852Z" fill="#455A64"/>
<path d="M49.7 52.0352L56.9699 54.6051C64.0799 60.6051 68.08 66.8252 69.81 70.8152C71.89 75.6052 72.1599 80.8852 72.2899 88.4052C72.3999 94.9552 76.6499 153.125 76.6499 162.655C75.9399 165.185 70.5799 168.595 70.5799 168.595C70.2699 149.595 67.44 95.8152 65.66 78.3952C63.37 63.0552 53.7699 56.1352 51.2099 54.3952C50.1299 54.0452 49.73 53.5952 49.7 52.0352Z" fill="#AAAAAA"/>
<path opacity="0.6" d="M49.7 52.0352L56.9699 54.6051C64.0799 60.6051 68.08 66.8252 69.81 70.8152C71.89 75.6052 72.1599 80.8852 72.2899 88.4052C72.3999 94.9552 76.6499 153.125 76.6499 162.655C75.9399 165.185 70.5799 168.595 70.5799 168.595C70.2699 149.595 67.44 95.8152 65.66 78.3952C63.37 63.0552 53.7699 56.1352 51.2099 54.3952C50.1299 54.0452 49.73 53.5952 49.7 52.0352Z" fill="white"/>
<path opacity="0.65" d="M66.71 79.0352C66.71 77.9052 66.61 76.7752 66.53 75.6552C66.45 74.5352 66.32 73.4052 66.21 72.2852C65.99 70.0452 65.69 67.8052 65.37 65.5752V65.4352L65.26 65.3452C63.3867 63.7052 61.49 62.0852 59.57 60.4852L60 58.7352V58.5652L59.88 58.4652C59.07 57.8252 58.28 57.1552 57.47 56.5152C56.66 55.8752 55.84 55.2352 55.01 54.6052C55.75 55.3452 56.51 56.0452 57.26 56.7552C58.01 57.4652 58.69 58.0852 59.41 58.7552L58.87 60.5252L58.81 60.7052L58.97 60.8452C60.84 62.5252 62.72 64.1952 64.62 65.8452C64.95 68.0252 65.28 70.2052 65.62 72.3752L66.71 79.0352Z" fill="#AAAAAA"/>
<path d="M34.9399 51.7751C34.9826 52.4822 34.9625 53.1916 34.8799 53.8952C42.4499 67.4652 42.05 76.4652 42.13 86.8952C42.29 108.785 40.2499 175.125 40.2499 175.125C40.2499 175.125 19.14 178.035 12.95 169.675C12.95 169.675 13.3599 119.405 19.0499 102.085C21.4399 94.8452 17.22 76.8352 18.52 65.9452C19.06 61.3952 20.28 56.9451 23.7 55.8851C26.52 55.0051 34.9399 51.7751 34.9399 51.7751Z" fill="#AAAAAA"/>
<path opacity="0.6" d="M34.9399 51.7751C34.9826 52.4822 34.9625 53.1916 34.8799 53.8952C42.4499 67.4652 42.05 76.4652 42.13 86.8952C42.29 108.785 40.2499 175.125 40.2499 175.125C40.2499 175.125 19.14 178.035 12.95 169.675C12.95 169.675 13.3599 119.405 19.0499 102.085C21.4399 94.8452 17.22 76.8352 18.52 65.9452C19.06 61.3952 20.28 56.9451 23.7 55.8851C26.52 55.0051 34.9399 51.7751 34.9399 51.7751Z" fill="white"/>
<path opacity="0.65" d="M37.1799 82.5852C36.6999 81.0052 36.1799 79.4452 35.5899 77.8952C34.9999 76.3452 34.3899 74.8152 33.7499 73.2952C33.1099 71.7752 32.4999 70.3552 31.8099 68.9052L34.0999 62.8452L34.1799 62.6152L33.9999 62.4752L31.1999 60.2852C31.5199 59.2352 31.8499 58.1852 32.1999 57.1252C32.5499 56.0652 32.8499 54.9052 33.1499 53.7852C32.7299 54.8652 32.3299 55.9452 31.9199 57.0352C31.5099 58.1252 31.1299 59.2052 30.7399 60.2952L30.6799 60.4452L30.8199 60.5552L33.4599 62.8251L31.1099 68.8251L31.0499 68.9651L31.1199 69.1152C31.7899 70.6152 32.4899 72.1152 33.1199 73.6152C33.7499 75.1152 34.4099 76.6152 35.0399 78.1552C35.6699 79.6952 36.2799 81.2052 36.8299 82.7552C37.4185 84.2908 37.9029 85.8644 38.2799 87.4651C38.0501 85.8106 37.6822 84.1783 37.1799 82.5852Z" fill="#AAAAAA"/>
<path d="M121.18 65.5451L119.93 64.3751C119.739 64.2485 119.52 64.1697 119.292 64.1453C119.064 64.1209 118.834 64.1518 118.62 64.2351L80.1102 73.1452C79.395 73.3512 78.7331 73.71 78.1703 74.1969C77.6074 74.6838 77.157 75.2871 76.8502 75.9651L65.6202 104.605C65.4913 104.838 65.4348 105.105 65.458 105.37C65.4811 105.635 65.5828 105.888 65.7502 106.095L67.0402 107.295C67.2284 107.435 67.4477 107.527 67.6793 107.564C67.911 107.6 68.148 107.58 68.3702 107.505L106.88 98.5951C107.595 98.3891 108.257 98.0303 108.82 97.5434C109.383 97.0565 109.833 96.4532 110.14 95.7751C112.35 90.1451 119.14 72.7751 121.38 67.0951C121.62 66.3751 121.55 65.8351 121.18 65.5451Z" fill="#455A64"/>
<path d="M79.8301 75.0252C79.0799 75.5441 78.488 76.2605 78.1201 77.0952L66.8701 105.765C66.7476 105.992 66.6902 106.249 66.7043 106.506C66.7185 106.764 66.8035 107.013 66.9501 107.225L65.7401 106.105C65.5703 105.897 65.4663 105.644 65.4414 105.377C65.4165 105.109 65.4717 104.841 65.6001 104.605L76.8501 75.9252C77.1886 75.1293 77.7342 74.4387 78.4301 73.9252L79.8301 75.0252Z" fill="#263238"/>
<path d="M66.8801 105.765L78.1201 77.0852C78.4292 76.4097 78.8805 75.809 79.4431 75.324C80.0057 74.8391 80.6664 74.4813 81.3801 74.2752L119.89 65.3652C121.2 65.0652 121.89 65.8352 121.37 67.0852C119.17 72.7252 112.37 90.0852 110.13 95.7652C109.823 96.4432 109.373 97.0465 108.81 97.5334C108.247 98.0203 107.585 98.3792 106.87 98.5852L68.3601 107.495C67.0501 107.795 66.3901 107.025 66.8801 105.765Z" fill="#37474F"/>
<path d="M77.89 83.2352L80 77.8752C80.0592 77.7493 80.144 77.6371 80.249 77.5458C80.3541 77.4546 80.477 77.3862 80.61 77.3452L83.26 76.7352C83.5 76.6752 83.63 76.8252 83.54 77.0552C83.12 78.1152 81.85 81.3752 81.43 82.4252C81.3708 82.5511 81.2859 82.6633 81.1809 82.7546C81.0758 82.8458 80.9529 82.9141 80.82 82.9552L78.17 83.5652C77.93 83.5652 77.8 83.4252 77.89 83.2352Z" fill="#AAAAAA"/>
<path d="M80.0701 79.1252C80.2205 78.8113 80.4368 78.5336 80.7043 78.311C80.9718 78.0884 81.2842 77.9261 81.6201 77.8352C82.2501 77.6852 82.6201 78.0352 82.3601 78.6052C82.2108 78.9198 81.9948 79.1981 81.7272 79.4209C81.4595 79.6436 81.1466 79.8055 80.8101 79.8952C80.1801 80.0452 79.8501 79.6952 80.0701 79.1252Z" fill="#263238"/>
<path d="M79.05 81.8352C79.1993 81.5206 79.4153 81.2422 79.6829 81.0195C79.9506 80.7967 80.2635 80.6349 80.6 80.5452C81.24 80.3952 81.6 80.7352 81.34 81.3152C81.1907 81.6298 80.9747 81.9081 80.707 82.1309C80.4394 82.3536 80.1265 82.5155 79.79 82.6052C79.15 82.7552 78.82 82.4052 79.05 81.8352Z" fill="#263238"/>
<path d="M50.75 79.1651C53.66 76.9951 55.12 76.1651 56.48 75.7751C57.84 75.3851 62.6 73.4051 64.42 72.9551C65.58 72.6651 66.05 74.5051 64.58 75.7751C63.44 76.7751 60.49 78.0251 59.19 78.7751C57.89 79.5251 55.36 82.5751 55.36 82.5751L50.75 79.1651Z" fill="#F0997A"/>
<path d="M9.62004 66.8251C12.5 60.6751 15.21 60.3151 22.19 57.4551C25.62 62.0351 23.41 78.2351 23.41 78.2351L19.89 95.5051C19.89 95.5051 37.29 90.8251 39.26 89.5651C41.23 88.3051 46.52 82.6251 48.26 80.9251C50.67 78.6051 51.87 78.9251 53.09 79.1051C57.09 79.7051 57.99 80.0451 58.84 80.5851C59.0909 80.7584 59.294 80.9923 59.4303 81.265C59.5667 81.5377 59.6319 81.8405 59.62 82.1451C60.68 82.2751 62.28 82.2451 62.48 83.9951C62.5699 84.4595 62.5935 84.9342 62.55 85.4051C62.8202 85.4458 63.0659 85.5847 63.24 85.7951C64.13 86.7951 62.61 90.3851 61.64 91.2451C61.2214 91.5409 60.7427 91.7409 60.238 91.8308C59.7334 91.9206 59.2151 91.8982 58.72 91.7651C57.64 91.6151 58.15 90.5151 58.15 90.5151L56.63 90.6051C53.37 92.9251 53.2 97.5151 48.89 98.5351C47.1058 98.7018 45.3413 99.0366 43.62 99.5351C34.33 102.655 19.09 112.115 10.81 112.825C2.73004 113.525 2.96004 109.215 2.81004 104.265C2.76004 99.8351 6.72004 72.9551 9.62004 66.8251Z" fill="#FFBDA7"/>
<path d="M20.2401 93.7751L19.8901 95.4651C16.2101 96.4651 12.2401 99.0651 11.3501 101.075C12.0401 97.8851 13.7601 95.4951 20.2401 93.7751Z" fill="#F0997A"/>
<path d="M59.6201 82.1052L54.8501 81.1052L59.5201 81.4052C59.5908 81.6316 59.6245 81.868 59.6201 82.1052Z" fill="#F0997A"/>
<path d="M62.6199 85.3551L57.1299 84.6451L62.6199 84.7251C62.6449 84.9344 62.6449 85.1459 62.6199 85.3551Z" fill="#F0997A"/>
<path d="M61.85 87.7751C61.6737 88.0584 61.4157 88.2815 61.11 88.4151C60.817 88.5661 60.5038 88.6739 60.18 88.7352L60.25 88.6852C60.1 88.9752 59.95 89.2552 59.79 89.5352L59.67 89.3851C59.8239 89.359 59.9816 89.3651 60.1331 89.403C60.2845 89.4408 60.4265 89.5097 60.55 89.6051C60.7771 89.7868 60.9415 90.0351 61.02 90.3152C60.883 90.0772 60.6952 89.8723 60.47 89.7151C60.2415 89.5894 59.9775 89.5437 59.72 89.5852H59.51L59.61 89.3952C59.76 89.1152 59.91 88.8252 60.07 88.5452C60.3809 88.4925 60.6858 88.4087 60.98 88.2952C61.3098 88.1994 61.6095 88.0203 61.85 87.7751Z" fill="#F0997A"/>
<path d="M60.3999 88.4852C59.7364 88.5693 59.0687 88.616 58.3999 88.6252C58.2834 89.0353 58.0466 89.4011 57.7199 89.6752C57.3841 89.996 57.0266 90.2934 56.6499 90.5652L58.1699 90.4752C58.3753 90.2081 58.6346 89.9873 58.9309 89.8271C59.2272 89.6668 59.554 89.5708 59.8899 89.5452L60.3999 88.4852Z" fill="#F0997A"/>
<path d="M22.68 56.3452C14.41 59.3452 12.21 60.1552 9.68 65.2952C7.15 70.4352 5.8 79.8651 4.62 85.0251C3.44 90.1851 2 104.865 2 107.225C2 109.585 3.35 113.305 7.83 113.475C12.31 113.645 18.37 111.475 25.55 108.325C32.73 105.175 36.18 103.485 36.18 103.485C36.18 103.485 34.29 93.7252 36.8 90.0552L20.74 94.4852L24.28 77.1651C24.28 77.1651 26.77 61.5752 22.68 56.3452Z" fill="#AAAAAA"/>
<path opacity="0.4" d="M22.68 56.3452C14.41 59.3452 12.21 60.1552 9.68 65.2952C7.15 70.4352 5.8 79.8651 4.62 85.0251C3.44 90.1851 2 104.865 2 107.225C2 109.585 3.35 113.305 7.83 113.475C12.31 113.645 18.37 111.475 25.55 108.325C32.73 105.175 36.18 103.485 36.18 103.485C36.18 103.485 34.29 93.7252 36.8 90.0552L20.74 94.4852L24.28 77.1651C24.28 77.1651 26.77 61.5752 22.68 56.3452Z" fill="white"/>
<path opacity="0.65" d="M20.7401 94.4851C16.1285 95.808 12.1089 98.6701 9.3501 102.595C9.8501 98.2851 13.6601 94.2751 21.1601 92.3951L20.7401 94.4851Z" fill="#AAAAAA"/>
</g>
<defs>
<clipPath id="clip0_33_1305">
<rect width="98" height="98" fill="white"/>
</clipPath>
</defs>
</svg>
