<svg width="295" height="158" viewBox="0 0 295 158" fill="none" xmlns="http://www.w3.org/2000/svg">
<rect width="295" height="158" rx="16" fill="white"/>
<rect x="32" y="32" width="24" height="24" rx="4" fill="#DB2777"/>
<rect x="72" y="32" width="24" height="24" rx="4" fill="#BE185D"/>
<rect x="112" y="32" width="24" height="24" rx="4" fill="#1E293B"/>
<rect x="152" y="32" width="24" height="24" rx="4" fill="#334155"/>
<rect x="192" y="32" width="24" height="24" rx="4" fill="#475569"/>
<rect x="232" y="32" width="24" height="24" rx="4" fill="#94A3B8"/>
<rect x="32" y="72" width="24" height="24" rx="4" fill="#CBD5E1"/>
<rect x="72" y="72" width="24" height="24" rx="4" fill="#F1F5F9"/>
<rect x="112" y="72" width="24" height="24" rx="4" fill="white"/>
<rect x="152" y="72" width="24" height="24" rx="4" fill="#16A34A"/>
<rect x="192" y="72" width="24" height="24" rx="4" fill="#F64D07"/>
<rect x="232" y="72" width="24" height="24" rx="4" fill="#DC2626"/>
</svg>
