<svg width="100" height="100" viewBox="0 0 100 100" fill="none" xmlns="http://www.w3.org/2000/svg">
<g clip-path="url(#clip0_33_1304)">
<path d="M117.095 86.4378C113.035 89.8878 107.195 94.6978 102.095 97.6878C96.035 101.218 94.025 100.888 89.495 98.1077C80.995 92.8977 70.275 84.5277 66.545 80.8477C62.815 77.1677 63.395 64.9578 63.415 60.0178C71.475 60.9078 75.045 64.6277 81.155 70.0977C87.265 75.5677 95.285 82.5677 95.285 82.5677C95.285 82.5677 111.385 75.1677 116.725 70.5677C117.519 69.7479 118.034 68.6978 118.195 67.5677C118.427 65.6967 118.859 63.8561 119.485 62.0778C120.245 60.3078 121.125 58.6677 121.805 56.8677C121.922 56.5042 122.105 56.1652 122.345 55.8677C122.43 55.7641 122.537 55.6808 122.658 55.6237C122.779 55.5666 122.911 55.5372 123.045 55.5377C123.238 55.5589 123.42 55.6392 123.565 55.7678C124.895 56.7678 124.695 58.4177 124.365 59.8877C124.245 60.4577 123.685 61.8878 123.975 62.4378C124.265 62.9878 125.365 62.5978 125.805 62.2678C126.329 61.8855 126.811 61.4498 127.245 60.9678C128.915 59.0578 130.345 55.3577 131.885 53.3377C132.217 52.8681 132.655 52.4841 133.165 52.2178C133.421 52.0881 133.706 52.0282 133.992 52.044C134.278 52.0598 134.555 52.1508 134.795 52.3077C134.975 52.4277 135.135 52.6177 135.355 52.6177C135.556 52.5911 135.745 52.5039 135.895 52.3677C136.151 52.202 136.446 52.1075 136.75 52.0942C137.055 52.0808 137.357 52.149 137.627 52.2918C137.896 52.4345 138.122 52.6466 138.282 52.9061C138.441 53.1656 138.529 53.4631 138.535 53.7678C138.495 54.0262 138.495 54.2893 138.535 54.5478C138.664 54.8329 138.856 55.0857 139.095 55.2877C139.503 55.7529 139.746 56.3401 139.785 56.9577C139.785 57.3377 139.615 58.2778 139.865 58.5478C140.291 59.1215 140.533 59.8106 140.56 60.5245C140.586 61.2384 140.397 61.9437 140.015 62.5478C138.64 65.3283 137.027 67.9849 135.195 70.4877C132.455 73.9677 128.925 76.5777 124.575 80.0577C122.865 81.3177 119.205 84.6378 117.095 86.4378Z" fill="#FFBDA7"/>
<path d="M63.3351 59.4478C68.9551 59.6978 72.3351 61.5578 74.6251 63.5078C76.9151 65.4578 82.7451 70.6978 82.7451 70.6978C80.7297 73.4839 78.1376 75.8032 75.1454 77.4977C72.1532 79.1923 68.8311 80.2223 65.4051 80.5178C65.4051 80.5178 63.0351 77.0578 62.6051 70.0578C62.1751 63.0578 63.3351 59.4478 63.3351 59.4478Z" fill="#F0F0F0"/>
<path d="M24.2053 122.258C20.9853 118.438 26.6653 114.978 25.2053 104.938C24.5053 99.9379 21.6553 89.5479 21.6553 89.5479C21.6553 89.5479 29.4353 83.3278 26.7153 64.0978L44.5053 58.5479L63.2853 59.4478C67.4173 63.0162 71.1311 67.0419 74.3553 71.4478C79.5453 78.8578 80.4753 87.0178 75.1753 93.1078C74.6148 97.1359 74.3707 101.202 74.4453 105.268C74.7255 109.277 75.498 113.237 76.7453 117.058C77.2853 118.828 78.0253 121.238 76.8853 123.618C71.7753 132.058 41.5053 140.718 24.2053 122.258Z" fill="#E6E6E6"/>
<path d="M37.7852 50.9578C36.6452 48.0578 34.6452 46.4578 33.2052 45.0578C29.5852 41.5678 27.0252 39.0578 25.2052 33.0578C24.0252 29.1578 24.9752 21.5778 29.7252 19.1478C30.7252 12.2178 36.0152 8.71779 44.7252 9.01779C48.1208 9.27323 51.4912 9.79483 54.8052 10.5778C56.2815 10.9421 57.7875 11.1731 59.3052 11.2678C60.8381 11.327 62.3641 11.0328 63.7652 10.4078C64.5252 10.0878 65.4352 9.60778 66.0752 10.0478C66.2466 10.1936 66.3826 10.3765 66.4727 10.5827C66.5628 10.7889 66.6047 11.013 66.5952 11.2378C66.6187 12.1718 66.4021 13.0963 65.9661 13.9227C65.5301 14.7491 64.8894 15.4498 64.1052 15.9578C68.3252 15.1778 69.5452 19.0778 69.3552 20.6378C69.27 21.3402 69.0152 22.0113 68.6128 22.5931C68.2103 23.175 67.6723 23.6503 67.0452 23.9778C67.6141 24.5468 67.9778 25.2888 68.0792 26.087C68.1806 26.8853 68.0138 27.6946 67.6052 28.3878C66.6835 29.6526 65.4309 30.6387 63.9852 31.2378C59.6752 33.5078 55.9852 36.8378 52.2352 39.8578C48.5952 42.7078 37.7852 50.7778 37.7852 50.9578Z" fill="#37474F"/>
<path d="M57.3152 17.0578C61.5152 18.8078 64.5852 20.4978 66.1052 36.2078C67.1852 47.3978 63.1952 51.3778 61.2952 52.3178C58.7052 53.6178 57.4052 54.2378 54.4052 54.0878L54.7052 59.7678C58.0251 63.2953 60.1641 67.7691 60.8252 72.5678C45.3852 70.5678 37.4852 61.9178 37.4852 61.9178L36.7452 44.3178C36.5452 45.1178 33.9052 46.7878 31.5352 45.1178C27.5352 42.2778 27.5352 37.4378 29.4652 35.3078C29.9014 34.7534 30.4665 34.3139 31.1112 34.0276C31.756 33.7414 32.4609 33.617 33.1647 33.6653C33.8685 33.7136 34.5499 33.9331 35.1495 34.3048C35.7491 34.6765 36.2488 35.189 36.6052 35.7978C36.6052 35.7978 34.8452 25.2078 41.0652 20.3778C48.3752 14.7078 52.3952 14.9878 57.3152 17.0578Z" fill="#FFBDA7"/>
<path d="M51.0853 43.2578C50.8636 43.9514 50.9241 44.7044 51.2535 45.3539C51.5828 46.0033 52.1547 46.4969 52.8453 46.7278C53.5439 46.8936 54.2798 46.7764 54.8924 46.4017C55.505 46.027 55.9446 45.4253 56.1153 44.7278L51.0853 43.2578Z" fill="#B16668"/>
<path d="M52.8452 46.7278C52.419 46.6004 52.0329 46.3649 51.7245 46.0443C51.4161 45.7236 51.1959 45.3287 51.0852 44.8978C51.7562 44.8437 52.4294 44.9723 53.0332 45.2698C53.6371 45.5674 54.1492 46.0228 54.5152 46.5878C53.9921 46.8285 53.4011 46.878 52.8452 46.7278Z" fill="#F28F8F"/>
<path d="M54.1553 30.8678L56.0153 41.4678L61.2953 39.1378L54.1553 30.8678Z" fill="#F0997A"/>
<path d="M54.4053 54.0578C45.4053 52.9278 41.5553 51.1478 38.4053 45.9878C38.829 47.9273 39.7451 49.7251 41.0653 51.2078C45.2153 55.3778 54.4753 55.9578 54.4753 55.9578L54.4053 54.0578Z" fill="#F0997A"/>
<path d="M50.4853 29.1777L46.7253 31.4477C46.4648 30.9513 46.4037 30.3741 46.5544 29.8341C46.7051 29.2941 47.0564 28.832 47.5364 28.5422C48.0163 28.2524 48.5888 28.1569 49.1369 28.275C49.685 28.3931 50.1673 28.716 50.4853 29.1777Z" fill="#263238"/>
<path d="M63.0752 29.3377L59.0752 27.8077C59.3033 27.2775 59.7257 26.8548 60.2556 26.626C60.7856 26.3973 61.3829 26.38 61.9252 26.5777C62.1867 26.6773 62.4251 26.8291 62.6259 27.0239C62.8268 27.2186 62.9859 27.4523 63.0935 27.7105C63.2011 27.9688 63.255 28.2462 63.2518 28.526C63.2487 28.8058 63.1886 29.082 63.0752 29.3377Z" fill="#263238"/>
<path d="M59.4151 32.7878C59.3924 33.0971 59.4618 33.4062 59.6145 33.6761C59.7672 33.946 59.9965 34.1646 60.2733 34.3044C60.5502 34.4442 60.8622 34.4988 61.1701 34.4615C61.4779 34.4241 61.7678 34.2964 62.0032 34.0944C62.2386 33.8925 62.4089 33.6254 62.4926 33.3268C62.5763 33.0281 62.5697 32.7114 62.4737 32.4165C62.3776 32.1217 62.1963 31.8619 61.9528 31.6699C61.7092 31.4779 61.4143 31.3624 61.1051 31.3378C60.6891 31.3074 60.2779 31.4428 59.9613 31.7145C59.6447 31.9861 59.4483 32.372 59.4151 32.7878Z" fill="#263238"/>
<path d="M48.2552 34.0578C48.2325 34.3671 48.3018 34.6762 48.4546 34.9461C48.6073 35.216 48.8366 35.4347 49.1134 35.5744C49.3903 35.7142 49.7023 35.7688 50.0102 35.7315C50.318 35.6941 50.6079 35.5664 50.8433 35.3644C51.0787 35.1625 51.249 34.8954 51.3327 34.5968C51.4164 34.2982 51.4098 33.9814 51.3137 33.6866C51.2177 33.3917 51.0364 33.1319 50.7929 32.9399C50.5493 32.7479 50.2543 32.6324 49.9452 32.6078C49.5291 32.5775 49.1179 32.7129 48.8013 32.9845C48.4847 33.2562 48.2884 33.642 48.2552 34.0578Z" fill="#263238"/>
<path d="M53.4152 21.8878C51.5852 22.3078 49.2752 19.5077 45.8852 21.5477C42.8852 23.3477 44.0752 25.7877 41.2952 29.0477C39.4352 31.2277 41.2952 35.6978 39.0152 36.8278C38.0152 37.3278 36.6052 35.8278 36.6052 35.8278C36.6052 35.8278 34.6052 33.1177 35.0452 26.5577C35.4852 19.9977 44.5452 15.0577 51.1052 14.3677C57.6652 13.6777 63.6652 17.6378 63.6952 23.4978C63.6952 23.4978 62.0252 19.5977 58.9252 19.3377C55.8252 19.0777 55.0752 21.5078 53.4152 21.8878Z" fill="#37474F"/>
<path d="M98.4451 132.778C97.455 132.09 96.3463 131.592 95.1751 131.308C95.1751 131.308 97.6451 131.658 97.8151 130.628C97.9851 129.598 97.4451 128.788 95.5551 128.128C93.2556 127.533 91.0238 126.702 88.8951 125.648C87.9751 125.228 87.1451 124.648 86.2651 124.188C85.3072 123.729 84.3875 123.194 83.5151 122.588C83.3551 122.458 83.1851 122.288 83.2251 122.098C83.3351 121.548 85.5451 121.738 85.9651 121.698C87.0257 121.66 88.0588 121.35 88.9651 120.798C89.3568 120.548 89.6799 120.204 89.9051 119.798C90.1119 119.394 90.1753 118.932 90.0851 118.488C89.9251 117.488 88.3451 117.608 87.4351 117.638C83.8351 117.748 80.6351 116.868 77.1351 117.988C76.0151 118.348 74.1351 118.868 73.0651 118.408C66.5951 115.608 48.3451 103.798 44.2651 100.748C44.2651 100.748 40.8651 88.0278 37.9851 79.2478C34.5051 68.6678 30.9851 65.3278 27.1251 64.5978C18.4151 68.3178 17.6951 73.9678 20.5251 86.2478C22.0551 92.9378 24.9151 100.998 27.9651 109.338C29.2951 112.978 30.6951 114.578 36.3151 117.228C45.5651 121.578 55.3151 125.158 64.6851 128.898C67.3466 129.887 69.8731 131.208 72.2051 132.828C77.6124 136.555 83.9635 138.676 90.5251 138.948C94.1851 139.098 93.9251 137.518 93.9251 137.518C96.2551 137.908 97.2451 136.268 97.2451 135.588C97.6969 135.579 98.1478 135.542 98.5951 135.478C99.6851 135.248 99.4451 133.788 98.4451 132.778Z" fill="#FFBDA7"/>
<path d="M26.7652 64.0577C20.0452 67.1077 18.3752 71.0577 18.5452 76.3677C18.7152 81.6777 18.5452 85.1877 18.5452 85.1877C18.5452 85.1877 19.8152 88.5277 26.5452 90.0377C31.4992 91.0746 36.6391 90.7849 41.4452 89.1977C41.4452 89.1977 39.6652 82.2577 37.2952 76.0777C34.9252 69.8977 32.8152 65.5277 26.7652 64.0577Z" fill="#F0F0F0"/>
</g>
<defs>
<clipPath id="clip0_33_1304">
<rect width="100" height="100" fill="white"/>
</clipPath>
</defs>
</svg>
