<svg width="133" height="57" viewBox="0 0 133 57" fill="none" xmlns="http://www.w3.org/2000/svg">
<path d="M88.2991 56.5705H78.9322V46.8361H44.3402V36.0949L73.8367 0H88.2991V56.5705V56.5705ZM78.9322 6.73648H78.6575L52.0721 39.3723H78.9322V6.73648Z" fill="#222222"/>
<path d="M132.257 0H119.917C119.408 9.98277 115.269 17.6905 110.196 22.7683C104.954 17.6905 100.98 9.98277 100.474 0H88.2983C88.8078 12.6969 95.3168 22.3293 100.727 28.2852C95.0643 34.2412 88.892 43.8736 88.2983 56.5705H100.638C101.148 46.5877 105.118 38.88 110.191 33.8022C115.433 38.88 119.576 46.5877 120.081 56.5705H132.257C131.748 43.8736 124.986 34.2412 119.576 28.2852C125.243 22.3293 131.668 12.6969 132.257 0Z" fill="#FF29A8"/>
<path d="M8.83824 49.0542V7.53815H22.1193C27.8403 7.53815 30.8732 8.5539 32.6947 11.0133C34.861 13.892 35.3827 17.1121 35.3827 28.7219C35.3827 39.0566 34.7726 42.7004 32.5222 45.5834C30.7007 47.9563 26.9737 49.0585 21.1688 49.0585H41.002C41.2142 48.7041 41.422 48.341 41.6209 47.9563C43.7873 43.9754 44.309 39.316 44.309 24.5725C44.309 13.9828 43.0092 9.06826 39.0213 4.9145C35.7276 1.43934 30.8732 0 22.7294 0H0.00482103V49.0542H8.83824Z" fill="#222222"/>
<path d="M8.83342 7.5301V48.8243H22.1145C27.8354 48.8243 30.8683 47.8139 32.6898 45.3677C34.8562 42.5044 35.3779 39.3015 35.3779 27.7537C35.3779 17.4742 34.7678 13.85 32.5174 10.9824C30.6959 8.62211 26.9689 7.5258 21.164 7.5258H40.9972C41.2094 7.87834 41.4172 8.23947 41.6161 8.62211C43.7825 12.5817 44.3042 17.2163 44.3042 31.881C44.3042 42.4141 43.0043 47.3023 39.0165 51.4339C35.7227 54.8905 30.8683 56.3221 22.7246 56.3221H0V7.5301H8.83342Z" fill="#222222"/>
</svg>
