<svg xmlns:xlink="http://www.w3.org/1999/xlink" width="18" height="20" viewBox="0 0 18 20" fill="none" xmlns="http://www.w3.org/2000/svg"><path fill-rule="evenodd" clip-rule="evenodd" d="M.033 12.465a.067.067 0 000 .115l4.18 2.413a.133.133 0 01.066.116v4.825c0 .051.055.083.1.058l4.178-2.414a.133.133 0 00.067-.115V12.6a.133.133 0 00-.067-.115l-4.278-2.47-4.246 2.45zM.033 2.43a.067.067 0 000 .115l4.18 2.413a.133.133 0 01.066.116v4.94l4.345-2.509v-4.94a.133.133 0 00-.067-.116L4.345.018a.133.133 0 00-.133 0L.033 2.43z" fill="#222222"></path><path fill-rule="evenodd" clip-rule="evenodd" d="M8.624 7.505l4.279 2.471a.133.133 0 01.066.115v4.826c0 .05.056.083.1.057l4.179-2.413a.133.133 0 00.066-.115V7.582a.133.133 0 00-.066-.115l-4.212-2.432a.133.133 0 00-.133 0l-4.28 2.47z" fill="#222222"></path></svg>