<svg width="295" height="174" viewBox="0 0 295 174" fill="none" xmlns="http://www.w3.org/2000/svg">
<rect width="295" height="174" rx="16" fill="white"/>
<path d="M41 44.75L43.25 47L47 41.75M53 44C53 48.9706 48.9706 53 44 53C39.0294 53 35 48.9706 35 44C35 39.0294 39.0294 35 44 35C48.9706 35 53 39.0294 53 44Z" stroke="#222222" stroke-width="1.5" stroke-linecap="round" stroke-linejoin="round"/>
<path d="M81.75 41.75L86.25 46.25M86.25 41.75L81.75 46.25M93 44C93 48.9706 88.9706 53 84 53C79.0294 53 75 48.9706 75 44C75 39.0294 79.0294 35 84 35C88.9706 35 93 39.0294 93 44Z" stroke="#222222" stroke-width="1.5" stroke-linecap="round" stroke-linejoin="round"/>
<path d="M123.25 43.25L123.291 43.2293C123.865 42.9427 124.51 43.4603 124.355 44.082L123.645 46.918C123.49 47.5397 124.135 48.0573 124.709 47.7707L124.75 47.75M133 44C133 48.9706 128.971 53 124 53C119.029 53 115 48.9706 115 44C115 39.0294 119.029 35 124 35C128.971 35 133 39.0294 133 44ZM124 40.25H124.008V40.2575H124V40.25Z" stroke="#222222" stroke-width="1.5" stroke-linecap="round" stroke-linejoin="round"/>
<path d="M164 41V44.75M173 44C173 48.9706 168.971 53 164 53C159.029 53 155 48.9706 155 44C155 39.0294 159.029 35 164 35C168.971 35 173 39.0294 173 44ZM164 47.75H164.008V47.7575H164V47.75Z" stroke="#222222" stroke-width="1.5" stroke-linecap="round" stroke-linejoin="round"/>
<path d="M204 42.5001V46.2501M194.697 49.6257C193.831 51.1257 194.914 53.0001 196.645 53.0001H211.354C213.086 53.0001 214.168 51.1257 213.303 49.6257L205.949 36.8782C205.083 35.3774 202.917 35.3774 202.051 36.8782L194.697 49.6257ZM204 49.2501H204.007V49.2576H204V49.2501Z" stroke="#222222" stroke-width="1.5" stroke-linecap="round" stroke-linejoin="round"/>
<path d="M253 40.25C253 37.7647 250.901 35.75 248.312 35.75C246.377 35.75 244.715 36.8763 244 38.4834C243.285 36.8763 241.623 35.75 239.688 35.75C237.099 35.75 235 37.7647 235 40.25C235 47.4706 244 52.25 244 52.25C244 52.25 253 47.4706 253 40.25Z" stroke="#222222" stroke-width="1.5" stroke-linecap="round" stroke-linejoin="round"/>
<path d="M53 93L47.8033 87.8033M47.8033 87.8033C49.1605 86.4461 50 84.5711 50 82.5C50 78.3579 46.6421 75 42.5 75C38.3579 75 35 78.3579 35 82.5C35 86.6421 38.3579 90 42.5 90C44.5711 90 46.4461 89.1605 47.8033 87.8033Z" stroke="#222222" stroke-width="1.5" stroke-linecap="round" stroke-linejoin="round"/>
<path d="M87 82.5C87 84.1569 85.6569 85.5 84 85.5C82.3431 85.5 81 84.1569 81 82.5C81 80.8431 82.3431 79.5 84 79.5C85.6569 79.5 87 80.8431 87 82.5Z" stroke="#222222" stroke-width="1.5" stroke-linecap="round" stroke-linejoin="round"/>
<path d="M91.5 82.5C91.5 89.6421 84 93.75 84 93.75C84 93.75 76.5 89.6421 76.5 82.5C76.5 78.3579 79.8579 75 84 75C88.1421 75 91.5 78.3579 91.5 82.5Z" stroke="#222222" stroke-width="1.5" stroke-linecap="round" stroke-linejoin="round"/>
<path d="M126.857 89.0817C128.751 88.857 130.578 88.4116 132.311 87.7719C130.874 86.177 130 84.0656 130 81.75V81.0492C130 81.0328 130 81.0164 130 81C130 77.6863 127.314 75 124 75C120.686 75 118 77.6863 118 81L118 81.75C118 84.0656 117.125 86.177 115.688 87.7719C117.421 88.4116 119.248 88.857 121.143 89.0818M126.857 89.0817C125.92 89.1928 124.967 89.25 124 89.25C123.033 89.25 122.08 89.1929 121.143 89.0818M126.857 89.0817C126.95 89.3711 127 89.6797 127 90C127 91.6569 125.657 93 124 93C122.343 93 121 91.6569 121 90C121 89.6797 121.05 89.3712 121.143 89.0818" stroke="#222222" stroke-width="1.5" stroke-linecap="round" stroke-linejoin="round"/>
<path d="M155.75 77.9999C158.946 77.9999 161.85 76.7507 164 74.7141C166.15 76.7507 169.054 77.9999 172.25 77.9999C172.301 77.9999 172.351 77.9995 172.402 77.9989C172.79 79.179 173 80.44 173 81.7499C173 87.3414 169.176 92.0397 164 93.3719C158.824 92.0397 155 87.3414 155 81.7499C155 80.44 155.21 79.179 155.598 77.9989C155.649 77.9995 155.699 77.9999 155.75 77.9999Z" stroke="#222222" stroke-width="1.5" stroke-linecap="round" stroke-linejoin="round"/>
<path d="M208.862 76.4867L210.549 74.7992C211.281 74.0669 212.469 74.0669 213.201 74.7992C213.933 75.5314 213.933 76.7186 213.201 77.4508L202.582 88.0695C202.054 88.5981 201.401 88.9868 200.685 89.2002L198 90L198.8 87.3151C199.013 86.5986 199.402 85.9465 199.931 85.4178L208.862 76.4867ZM208.862 76.4867L211.5 79.125M210 86V90.75C210 91.9926 208.993 93 207.75 93H197.25C196.007 93 195 91.9926 195 90.75V80.25C195 79.0074 196.007 78 197.25 78H202" stroke="#222222" stroke-width="1.5" stroke-linecap="round" stroke-linejoin="round"/>
<path d="M241.813 87.9038L241 90.75L240.187 87.9038C239.76 86.4089 238.591 85.2403 237.096 84.8132L234.25 84L237.096 83.1868C238.591 82.7597 239.76 81.5911 240.187 80.0962L241 77.25L241.813 80.0962C242.24 81.5911 243.409 82.7597 244.904 83.1868L247.75 84L244.904 84.8132C243.409 85.2403 242.24 86.4089 241.813 87.9038Z" stroke="#222222" stroke-width="1.5" stroke-linecap="round" stroke-linejoin="round"/>
<path d="M250.259 80.7145L250 81.75L249.741 80.7145C249.439 79.5053 248.495 78.5612 247.285 78.2589L246.25 78L247.285 77.7411C248.495 77.4388 249.439 76.4947 249.741 75.2855L250 74.25L250.259 75.2855C250.561 76.4947 251.505 77.4388 252.715 77.7411L253.75 78L252.715 78.2589C251.505 78.5612 250.561 79.5053 250.259 80.7145Z" stroke="#222222" stroke-width="1.5" stroke-linecap="round" stroke-linejoin="round"/>
<path d="M248.894 92.5673L248.5 93.75L248.106 92.5673C247.882 91.8954 247.355 91.3682 246.683 91.1442L245.5 90.75L246.683 90.3558C247.355 90.1318 247.882 89.6046 248.106 88.9327L248.5 87.75L248.894 88.9327C249.118 89.6046 249.645 90.1318 250.317 90.3558L251.5 90.75L250.317 91.1442C249.645 91.3682 249.118 91.8954 248.894 92.5673Z" stroke="#222222" stroke-width="1.5" stroke-linecap="round" stroke-linejoin="round"/>
<path fill-rule="evenodd" clip-rule="evenodd" d="M93.3212 137L94.1861 137.823C96.3664 139.897 99.3071 141.167 102.546 141.167C102.597 141.167 102.649 141.167 102.7 141.166L103.623 141.155L103.911 142.035C104.386 143.486 104.642 145.035 104.642 146.642C104.642 153.513 99.9641 159.283 93.6347 160.919L93.3212 161L93.0076 160.919C86.6782 159.283 82 153.513 82 146.642C82 145.035 82.2565 143.486 82.7315 142.035L83.0196 141.155L83.9421 141.166C83.9935 141.167 84.0449 141.167 84.0965 141.167C87.3353 141.167 90.2759 139.897 92.4562 137.823L93.3212 137ZM84.8772 143.674C84.6413 144.623 84.5158 145.617 84.5158 146.642C84.5158 152.218 88.2362 156.924 93.3211 158.386C98.4061 156.924 102.126 152.218 102.126 146.642C102.126 145.617 102.001 144.623 101.765 143.674C98.5743 143.505 95.6522 142.313 93.3212 140.418C90.9901 142.313 88.068 143.505 84.8772 143.674Z" fill="#8B5CF6"/>
<path d="M124.199 145.415C122.72 145.415 121.571 145.97 120.909 146.969V141.286H118.06V156.825H120.909V150.831C120.909 148.9 121.947 148.079 123.338 148.079C124.619 148.079 125.524 148.856 125.524 150.365V156.825H128.373V150.01C128.373 147.058 126.54 145.415 124.199 145.415ZM132.771 152.452H141.096C141.162 152.074 141.206 151.697 141.206 151.275C141.206 148.012 138.888 145.415 135.619 145.415C132.152 145.415 129.789 147.968 129.789 151.275C129.789 154.583 132.13 157.136 135.84 157.136C137.96 157.136 139.616 156.27 140.654 154.76L138.358 153.429C137.872 154.072 136.989 154.538 135.884 154.538C134.383 154.538 133.168 153.917 132.771 152.452V152.452ZM132.726 150.232C133.058 148.811 134.096 147.99 135.619 147.99C136.812 147.99 138.004 148.634 138.358 150.232H132.726ZM145.603 147.635V145.726H142.754V156.825H145.603V151.52C145.603 149.189 147.48 148.523 148.959 148.7V145.504C147.568 145.504 146.177 146.125 145.603 147.635ZM155.03 157.136C158.276 157.136 160.882 154.583 160.882 151.275C160.882 147.968 158.276 145.415 155.03 145.415C151.784 145.415 149.2 147.968 149.2 151.275C149.2 154.583 151.784 157.136 155.03 157.136ZM155.03 154.339C153.351 154.339 152.049 153.073 152.049 151.275C152.049 149.477 153.351 148.212 155.03 148.212C156.73 148.212 158.033 149.477 158.033 151.275C158.033 153.073 156.73 154.339 155.03 154.339ZM163.858 144.394C164.829 144.394 165.624 143.595 165.624 142.64C165.624 141.686 164.829 140.864 163.858 140.864C162.908 140.864 162.113 141.686 162.113 142.64C162.118 143.104 162.303 143.547 162.629 143.875C162.955 144.203 163.396 144.389 163.858 144.394V144.394ZM162.444 156.825H165.293V145.726H162.444V156.825ZM172.714 157.136C174.879 157.136 176.756 155.981 177.705 154.25L175.232 152.829C174.79 153.739 173.841 154.294 172.692 154.294C170.992 154.294 169.733 153.029 169.733 151.275C169.733 149.499 170.992 148.234 172.692 148.234C173.819 148.234 174.768 148.811 175.21 149.721L177.661 148.279C176.756 146.569 174.879 145.415 172.714 145.415C169.358 145.415 166.885 147.968 166.885 151.275C166.885 154.583 169.358 157.136 172.714 157.136ZM183.853 157.136C187.099 157.136 189.705 154.583 189.705 151.275C189.705 147.968 187.099 145.415 183.853 145.415C180.607 145.415 178.023 147.968 178.023 151.275C178.023 154.583 180.607 157.136 183.853 157.136ZM183.853 154.339C182.175 154.339 180.872 153.073 180.872 151.275C180.872 149.477 182.175 148.212 183.853 148.212C185.554 148.212 186.856 149.477 186.856 151.275C186.856 153.073 185.554 154.339 183.853 154.339ZM197.407 145.415C195.927 145.415 194.779 145.97 194.116 146.969V145.726H191.268V156.825H194.116V150.831C194.116 148.9 195.154 148.079 196.545 148.079C197.826 148.079 198.732 148.856 198.732 150.365V156.825H201.58V150.01C201.58 147.058 199.748 145.415 197.407 145.415ZM206.199 148.878C206.199 148.279 206.773 147.968 207.48 147.968C208.297 147.968 208.915 148.39 209.246 149.1L211.676 147.768C210.814 146.236 209.269 145.415 207.48 145.415C205.205 145.415 203.284 146.68 203.284 148.945C203.284 152.851 208.981 151.963 208.981 153.584C208.981 154.228 208.363 154.538 207.458 154.538C206.354 154.538 205.603 154.006 205.294 153.096L202.82 154.494C203.615 156.203 205.249 157.136 207.458 157.136C209.821 157.136 211.896 155.981 211.896 153.584C211.896 149.499 206.199 150.521 206.199 148.878V148.878Z" fill="#0F172A"/>
</svg>
