<svg width="94" height="94" viewBox="0 0 94 94" fill="none" xmlns="http://www.w3.org/2000/svg">
<g clip-path="url(#clip0_32_534)">
<path d="M29.999 52.7245C25.2866 53.942 20.4163 55.9375 13.6521 62.7694C5.56888 70.9202 -3.70937 79.9843 -3.70937 79.9843L-36.4031 78.7667L-35.0164 91.9908C-35.0164 91.9908 -18.4554 96.286 -7.22675 97.9996C-0.124327 99.127 1.42017 99.8485 8.48878 94.6964C16.8539 88.6086 25.7826 81.867 25.7826 81.867L29.999 52.7245Z" fill="#37474F"/>
<path d="M77.6306 57.0762C77.6306 57.0762 82.8278 62.1607 80.8324 75.2833C79.1075 86.6922 78.1267 96.2974 77.7997 100.739C77.3037 107.503 78.0252 130.468 78.0252 130.468C67.7549 142.722 23.6296 139.487 18.4099 128.27C18.4099 128.27 18.5114 111.957 19.1765 96.7033C19.6613 85.5423 19.8868 74.945 21.5553 68.4288C23.81 59.6917 27.6656 55.4754 30.9575 53.0064L45.4668 49.6243L58.6345 49.5454L77.6306 57.0762Z" fill="#F5F5F5"/>
<path d="M68.4424 22.8492C68.5657 20.8031 68.3756 18.7501 67.8787 16.7614C67.4196 14.961 66.6776 13.2448 65.6804 11.677C63.1212 7.71992 58.0481 5.65685 53.5724 4.64222C48.8138 3.41858 43.7733 3.95505 39.3788 6.15289C36.38 7.79885 33.2009 11.0569 32.2764 14.3376C31.7695 16.1765 31.4781 18.0682 31.4083 19.9744C31.4083 22.5223 32.1749 23.5707 31.7353 25.6113C30.7503 29.9683 30.7157 34.4863 31.6338 38.8579C32.7612 43.559 34.114 45.6221 38.5446 46.7494C40.2138 47.0547 41.9101 47.187 43.6065 47.144L43.9672 51.4957C41.8365 59.8608 44.3618 64.0997 44.3618 64.0997C52.3661 54.0435 59.322 56.5576 61.8586 50.7629L61.9262 43.2546C62.0051 41.417 62.0502 38.5196 62.0502 38.5196C62.7237 38.7481 63.4382 38.83 64.1459 38.76C64.8536 38.69 65.5382 38.4697 66.1538 38.1138C67.09 37.54 67.8937 36.774 68.5117 35.8664C69.1297 34.9588 69.548 33.9303 69.7389 32.849C70.1109 31.079 70.528 27.5278 68.0253 25.8593C68.237 24.8674 68.3764 23.8614 68.4424 22.8492Z" fill="#B16668"/>
<path d="M67.8788 16.7614C67.4198 14.961 66.6777 13.2448 65.6805 11.677C63.1213 7.71992 58.0482 5.65685 53.5725 4.64222C48.8139 3.41858 43.7734 3.95505 39.3789 6.15289C38.6397 6.5909 37.9349 7.08461 37.2708 7.62974C37.7171 7.98107 38.0375 8.4676 38.1839 9.0164C38.2282 9.72725 38.3685 10.4288 38.601 11.102C39.7848 13.2328 44.5423 11.2599 46.2108 10.7187C48.2964 10.031 50.5737 9.43352 52.6481 10.1438C53.6812 10.5185 54.5803 11.1905 55.2323 12.0752C55.8843 12.9599 56.26 14.0177 56.312 15.1155C56.3033 16.1469 56.1164 17.1691 55.7596 18.1368C55.4069 18.8969 55.2967 19.7471 55.4439 20.5719C55.8723 21.9924 57.6987 22.4546 58.4427 23.7624C58.9275 24.6868 58.3751 28.3508 59.7505 28.4522C60.3818 28.4522 60.7088 27.742 60.9906 27.1783C61.1821 26.8184 61.4294 26.4912 61.7234 26.2088C62.6177 25.5143 63.7004 25.1052 64.8305 25.0348C65.9606 24.9644 67.0857 25.236 68.0592 25.8142C68.1268 25.5098 68.172 25.2167 68.217 24.9123C68.3399 24.2452 68.4227 23.5713 68.4651 22.8943C68.5856 20.832 68.3879 18.7635 67.8788 16.7614Z" fill="#9A4A4D"/>
<path d="M62.0728 38.4295C61.3258 38.0449 60.7417 37.4048 60.4269 36.6257C60.4169 37.2452 60.5586 37.8577 60.8396 38.4099C61.1206 38.962 61.5324 39.4371 62.039 39.7936L62.0728 38.4295Z" fill="#9A4A4D"/>
<path d="M42.637 22.2855L35.6135 30.5717L41.4308 32.5333L42.637 22.2855Z" fill="#9A4A4D"/>
<path d="M33.3814 20.6734L37.8909 19.6249C37.8358 19.3293 37.7221 19.0478 37.5566 18.7968C37.391 18.5458 37.1769 18.3305 36.9269 18.1635C36.6769 17.9964 36.396 17.8811 36.1008 17.8243C35.8056 17.7674 35.5019 17.7702 35.2078 17.8324C34.5994 17.9853 34.072 18.3641 33.7328 18.8917C33.3936 19.4194 33.268 20.0564 33.3814 20.6734Z" fill="#263238"/>
<path d="M50.7992 21.8007L46.5829 19.8954C46.6952 19.6174 46.8618 19.3646 47.073 19.1518C47.2843 18.939 47.5358 18.7704 47.813 18.656C48.0901 18.5416 48.3873 18.4836 48.6871 18.4854C48.9869 18.4872 49.2834 18.5488 49.5591 18.6666C50.1282 18.9304 50.5742 19.4027 50.805 19.986C51.0358 20.5693 51.0337 21.2189 50.7992 21.8007Z" fill="#263238"/>
<path d="M43.6063 47.0877C48.9162 46.6255 52.6929 45.8589 56.1314 42.7361C57.6301 41.2076 58.8205 39.4048 59.6375 37.4261C59.6375 37.4261 59.0964 41.9356 56.6838 44.1904C54.5982 46.0731 52.0841 48.5871 43.7529 49.0381L43.6063 47.0877Z" fill="#9A4A4D"/>
<path d="M46.2897 24.4727C46.2243 24.8746 46.3203 25.286 46.5568 25.6175C46.7933 25.9489 47.151 26.1736 47.5523 26.2426C47.8595 26.2999 48.1767 26.2641 48.4634 26.1398C48.75 26.0155 48.9929 25.8084 49.1609 25.5449C49.329 25.2815 49.4144 24.9739 49.4064 24.6616C49.3983 24.3492 49.297 24.0465 49.1155 23.7921C48.9341 23.5378 48.6807 23.3435 48.388 23.2342C48.0954 23.1249 47.7767 23.1055 47.4729 23.1787C47.1692 23.2518 46.8942 23.4141 46.6834 23.6447C46.4725 23.8753 46.3354 24.1636 46.2897 24.4727Z" fill="#263238"/>
<path d="M46.5377 34.292L40.5852 35.8139C40.8149 36.6157 41.3453 37.2978 42.0658 37.7179C42.7863 38.138 43.6412 38.2637 44.4521 38.0687C44.8375 37.9584 45.1973 37.7732 45.5109 37.5235C45.8246 37.2738 46.0858 36.9646 46.2795 36.6136C46.4733 36.2627 46.5959 35.877 46.6402 35.4786C46.6845 35.0802 46.6497 34.6769 46.5377 34.292Z" fill="#9A4A4D"/>
<path d="M44.4519 38.1251C44.9623 37.9883 45.4269 37.7176 45.7975 37.341C46.1682 36.9644 46.4314 36.4956 46.5601 35.9831C45.7577 35.8095 44.9202 35.9122 44.1835 36.2744C43.4468 36.6366 42.8541 37.2371 42.5016 37.9785C43.1191 38.2358 43.8029 38.2872 44.4519 38.1251Z" fill="#F28F8F"/>
<path d="M36.3123 22.3757C36.0008 22.3424 35.6864 22.4032 35.4098 22.5503C35.1332 22.6974 34.907 22.9241 34.7605 23.201C34.614 23.478 34.5539 23.7925 34.5879 24.1039C34.6219 24.4154 34.7484 24.7095 34.9513 24.9483C35.1541 25.1871 35.4238 25.3596 35.7257 25.4436C36.0275 25.5275 36.3476 25.5191 36.6446 25.4194C36.9416 25.3196 37.2018 25.1331 37.3918 24.884C37.5818 24.6348 37.6927 24.3345 37.7103 24.0217C37.7415 23.6184 37.6121 23.2191 37.3502 22.9108C37.0884 22.6025 36.7153 22.4102 36.3123 22.3757Z" fill="#263238"/>
<path d="M44.3617 63.9983C45.4127 63.2806 46.3873 62.4571 47.2703 61.5406C48.5668 60.1427 49.1756 59.5001 49.6829 59.9848C50.976 61.8104 52.0862 63.7589 52.9973 65.8021C53.561 67.0873 53.4483 67.0873 55.2521 65.9148C58.3423 63.8469 61.0379 61.2431 63.2113 58.2262C64.5849 56.2828 65.6567 54.1429 66.3905 51.8791C66.3905 51.8791 64.4176 49.0832 63.8313 48.0235C62.704 45.9604 63.1099 44.7203 61.9487 44.8894V46.5466C61.5766 47.8431 58.8484 50.1316 56.3118 52.2736C53.7752 54.4156 49.8069 56.4674 48.8599 57.3919C48.1496 58.0683 44.3617 63.9983 44.3617 63.9983Z" fill="#E6E6E6"/>
<path d="M64.4175 48.9816C61.3428 55.1235 59.1021 61.6485 57.7548 68.3836C55.3197 79.8489 55.5 103.253 54.8687 118.473C54.2374 133.692 54.5756 144.492 54.5756 144.492C60.8551 146.059 73.5492 145.327 80.0654 139.532C80.0654 139.532 79.0282 120.468 77.247 96.8722C78.0587 74.5616 78.5322 55.5992 78.5322 55.5992L64.4175 48.9816Z" fill="#455A64"/>
<path d="M68.7243 77.3801L61.0694 81.6528L60.7087 81.8444C61.4753 84.0992 62.2758 86.2975 63.0762 88.5185C60.9455 95.9929 58.8936 103.501 57.1913 111.066C56.6502 113.614 56.0639 116.173 55.7821 118.777C56.2781 116.207 56.9094 113.681 57.6197 111.167C58.9049 106.353 62.6252 93.5353 64.057 88.6199V88.4734C63.3355 86.4103 62.6252 84.3472 61.8811 82.2954L69.3331 78.0339L69.5473 77.9099L67.2925 52.3074L68.7243 77.3801Z" fill="#37474F"/>
<path d="M37.2708 62.6905C37.5527 63.4233 39.875 57.7188 41.0024 57.8428C41.5548 57.8428 42.5582 60.7176 43.1106 61.7773C43.663 62.837 44.0012 63.3443 44.3732 64.032C43.6968 62.3184 43.5277 57.8766 43.3924 56.7267C43.3581 54.9426 43.5552 53.1615 43.9787 51.4281L43.6179 47.0764C43.3022 47.0764 42.9753 47.0764 42.6145 47.0764C42.0334 47.6891 41.4948 48.3407 41.0024 49.0268C39.875 50.8531 37.8458 54.1563 37.4737 56.3434C37.0582 58.4336 36.9896 60.578 37.2708 62.6905Z" fill="#E6E6E6"/>
<path d="M40.4049 49.9401C40.4049 49.9401 30.7997 69.049 29.8189 82.4534C28.8381 95.8578 27.8686 141.077 27.8686 141.077C27.8686 141.077 19.5373 139.228 15.9861 133.298C15.9861 133.298 16.9894 108.496 17.8462 90.7621C18.827 70.3116 22.0062 58.4404 29.9993 52.7698L40.4049 49.9401Z" fill="#455A64"/>
<path d="M29.165 74.9901L29.3453 74.7195L29.1762 74.449L25.1853 68.3048C28.5674 63.7164 33.7308 56.7155 36.9438 52.1947C33.3362 56.5576 27.8459 63.536 24.306 67.9779L24.1256 68.2146L24.2835 68.4739L28.2067 74.6519L24.1932 80.2324C24.0692 80.4015 24.0692 80.3564 24.0918 80.5706C25.1064 91.6752 26.1661 103.231 27.5303 114.268C26.9778 103.208 26.0309 91.7203 25.1177 80.672L29.165 74.9901Z" fill="#37474F"/>
<path d="M47.8455 83.3551C44.9933 80.92 43.539 79.973 42.2087 79.4769C40.8784 78.9809 36.0758 76.6472 34.2269 76.0948C33.0995 75.7228 32.4682 77.5942 33.9 79.0034C35.592 80.266 37.3785 81.3966 39.2437 82.3855C40.6216 83.626 41.8512 85.0219 42.9076 86.5455L47.8455 83.3551Z" fill="#9A4A4D"/>
<path d="M77.8561 99.7697C75.1392 99.1948 60.7539 96.0945 58.9952 94.8093C57.0561 93.3775 51.983 87.1545 50.2694 85.283C47.9357 82.7352 46.6957 83.0283 45.4217 83.0959C41.2617 83.468 40.3373 83.1749 39.4354 83.6822C38.5335 84.1895 38.5335 85.8467 38.5335 85.8467C37.4061 85.9144 35.794 85.7791 35.4783 87.5829C35.3581 88.0579 35.305 88.5474 35.3205 89.0372C35.0397 89.0616 34.7783 89.1903 34.5877 89.3979C33.6182 90.4126 34.9484 94.1892 35.8954 95.1588C36.3046 95.4883 36.7817 95.7229 37.2925 95.8457C37.8033 95.9685 38.3349 95.9765 38.8491 95.869C39.9765 95.7788 39.5256 94.6176 39.5256 94.6176L41.0701 94.798C44.2831 97.4023 44.159 102.182 48.5332 103.501C50.3521 103.804 52.1405 104.268 53.877 104.888C60.4721 107.582 69.9082 113.727 77.8561 117.548V99.7697Z" fill="#B16668"/>
<path d="M38.5221 85.8466L43.4713 85.1476H38.5898C38.5559 85.4182 38.5334 85.6211 38.5221 85.8466Z" fill="#9A4A4D"/>
<path d="M35.3091 89.037L40.946 88.6424L35.3091 88.3718C35.2858 88.5929 35.2858 88.8159 35.3091 89.037Z" fill="#9A4A4D"/>
<path d="M40.0215 93.8172C39.7056 93.5111 39.4861 93.1192 39.3902 92.6899C39.3902 92.6899 38.1388 92.5884 37.5075 92.4531C37.2313 92.3761 36.9602 92.282 36.6958 92.1713C36.3911 92.0444 36.1208 91.8474 35.9066 91.5963C36.0718 91.8991 36.3228 92.1462 36.6281 92.3066C36.8866 92.4574 37.1631 92.5748 37.4511 92.656L37.7329 93.3888C37.5208 93.3915 37.3137 93.4541 37.1354 93.5692C36.8881 93.7465 36.6996 93.9939 36.5943 94.2795C36.7473 94.038 36.9561 93.837 37.2031 93.6932C37.44 93.5739 37.7115 93.5419 37.9697 93.603C38.5992 93.7291 39.1539 94.0976 39.5142 94.6289L41.0587 94.8093C40.693 94.5001 40.3467 94.1688 40.0215 93.8172Z" fill="#9A4A4D"/>
<path d="M78.5323 55.5994C84.4735 57.9556 87.7429 59.9848 89.4452 63.4909C92.3877 69.4773 92.9964 77.7634 93.9547 87.6054C94.913 97.4473 95.6119 109.409 95.2963 114.888C94.9806 120.367 91.8127 121.652 89.6594 122.216C87.5061 122.779 83.6167 122.373 79.0734 120.513C74.5301 118.653 58.7808 108.405 58.7808 108.405C58.7808 108.405 60.7649 106.737 61.4301 102.092C62.0952 97.4473 61.013 95.3278 61.013 95.3278L74.0566 97.9208C74.0566 97.9208 72.8278 85.5197 72.4783 77.8987C72.1288 70.2777 73.1886 58.9702 78.5323 55.5994Z" fill="#37474F"/>
</g>
<defs>
<clipPath id="clip0_32_534">
<rect width="94" height="94" fill="white"/>
</clipPath>
</defs>
</svg>
