<svg width="295" height="158" viewBox="0 0 295 158" fill="none" xmlns="http://www.w3.org/2000/svg">
<rect width="295" height="158" rx="16" fill="white"/>
<path d="M42.0923 41.2727L44.0185 44.6705L45.9616 41.2727H47.8196L45.098 45.6364L47.8423 50H45.9844L44.0185 46.7386L42.0582 50H40.1946L42.9105 45.6364L40.2287 41.2727H42.0923ZM56.1037 43.4034L54.5639 43.6761C54.4995 43.4792 54.3973 43.2917 54.2571 43.1136C54.1207 42.9356 53.9351 42.7898 53.7003 42.6761C53.4654 42.5625 53.1719 42.5057 52.8196 42.5057C52.3385 42.5057 51.937 42.6136 51.6151 42.8295C51.2931 43.0417 51.1321 43.3163 51.1321 43.6534C51.1321 43.9451 51.2401 44.1799 51.456 44.358C51.6719 44.536 52.0204 44.6818 52.5014 44.7955L53.8878 45.1136C54.6908 45.2992 55.2893 45.5852 55.6832 45.9716C56.0772 46.358 56.2741 46.8598 56.2741 47.4773C56.2741 48 56.1226 48.4659 55.8196 48.875C55.5204 49.2803 55.1018 49.5985 54.5639 49.8295C54.0298 50.0606 53.4105 50.1761 52.706 50.1761C51.7287 50.1761 50.9313 49.9678 50.3139 49.5511C49.6965 49.1307 49.3177 48.5341 49.1776 47.7614L50.8196 47.5114C50.9219 47.9394 51.1321 48.2633 51.4503 48.483C51.7685 48.6989 52.1832 48.8068 52.6946 48.8068C53.2514 48.8068 53.6965 48.6913 54.0298 48.4602C54.3632 48.2254 54.5298 47.9394 54.5298 47.6023C54.5298 47.3295 54.4276 47.1004 54.223 46.9148C54.0223 46.7292 53.7135 46.589 53.2969 46.4943L51.8196 46.1705C51.0052 45.9848 50.4029 45.6894 50.0128 45.2841C49.6264 44.8788 49.4332 44.3655 49.4332 43.7443C49.4332 43.2292 49.5772 42.7784 49.8651 42.392C50.1529 42.0057 50.5507 41.7045 51.0582 41.4886C51.5658 41.2689 52.1473 41.1591 52.8026 41.1591C53.7457 41.1591 54.4882 41.3636 55.0298 41.7727C55.5715 42.178 55.9295 42.7216 56.1037 43.4034Z" fill="#222222"/>
<rect width="2" height="169" transform="matrix(0 1 -1 0 230 43)" fill="#C0C0C0"/>
<path d="M235.119 50V48.7273L239.057 44.6477C239.477 44.2045 239.824 43.8163 240.097 43.483C240.373 43.1458 240.58 42.8258 240.716 42.5227C240.852 42.2197 240.92 41.8977 240.92 41.5568C240.92 41.1705 240.83 40.8371 240.648 40.5568C240.466 40.2727 240.218 40.0549 239.903 39.9034C239.589 39.7481 239.235 39.6705 238.841 39.6705C238.424 39.6705 238.061 39.7557 237.75 39.9261C237.439 40.0966 237.201 40.3371 237.034 40.6477C236.867 40.9583 236.784 41.322 236.784 41.7386H235.108C235.108 41.0303 235.271 40.411 235.597 39.8807C235.922 39.3504 236.369 38.9394 236.938 38.6477C237.506 38.3523 238.152 38.2045 238.875 38.2045C239.606 38.2045 240.25 38.3504 240.807 38.642C241.367 38.9299 241.805 39.3239 242.119 39.8239C242.434 40.3201 242.591 40.8807 242.591 41.5057C242.591 41.9375 242.509 42.3598 242.347 42.7727C242.188 43.1856 241.909 43.6458 241.511 44.1534C241.114 44.6572 240.561 45.2689 239.852 45.9886L237.54 48.4091V48.4943H242.778V50H235.119ZM244.955 53.2727V41.2727H246.614V42.6875H246.756C246.854 42.5057 246.996 42.2955 247.182 42.0568C247.367 41.8182 247.625 41.6098 247.955 41.4318C248.284 41.25 248.72 41.1591 249.261 41.1591C249.966 41.1591 250.595 41.3371 251.148 41.6932C251.701 42.0492 252.134 42.5625 252.449 43.233C252.767 43.9034 252.926 44.7102 252.926 45.6534C252.926 46.5966 252.769 47.4053 252.455 48.0795C252.14 48.75 251.708 49.267 251.159 49.6307C250.61 49.9905 249.983 50.1705 249.278 50.1705C248.748 50.1705 248.314 50.0814 247.977 49.9034C247.644 49.7254 247.383 49.517 247.193 49.2784C247.004 49.0398 246.858 48.8277 246.756 48.642H246.653V53.2727H244.955ZM246.619 45.6364C246.619 46.25 246.708 46.7879 246.886 47.25C247.064 47.7121 247.322 48.0739 247.659 48.3352C247.996 48.5928 248.409 48.7216 248.898 48.7216C249.405 48.7216 249.83 48.5871 250.17 48.3182C250.511 48.0455 250.769 47.6761 250.943 47.2102C251.121 46.7443 251.21 46.2197 251.21 45.6364C251.21 45.0606 251.123 44.5436 250.949 44.0852C250.778 43.6269 250.521 43.2652 250.176 43C249.835 42.7348 249.409 42.6023 248.898 42.6023C248.405 42.6023 247.989 42.7292 247.648 42.983C247.311 43.2367 247.055 43.5909 246.881 44.0455C246.706 44.5 246.619 45.0303 246.619 45.6364ZM255.827 41.2727L257.753 44.6705L259.696 41.2727H261.554L258.832 45.6364L261.577 50H259.719L257.753 46.7386L255.793 50H253.929L256.645 45.6364L253.963 41.2727H255.827Z" fill="#222222"/>
<path d="M41.9631 83.4034L40.4233 83.6761C40.3589 83.4792 40.2566 83.2917 40.1165 83.1136C39.9801 82.9356 39.7945 82.7898 39.5597 82.6761C39.3248 82.5625 39.0313 82.5057 38.679 82.5057C38.1979 82.5057 37.7964 82.6136 37.4744 82.8295C37.1525 83.0417 36.9915 83.3163 36.9915 83.6534C36.9915 83.9451 37.0994 84.1799 37.3153 84.358C37.5313 84.536 37.8797 84.6818 38.3608 84.7955L39.7472 85.1136C40.5502 85.2992 41.1487 85.5852 41.5426 85.9716C41.9366 86.358 42.1335 86.8598 42.1335 87.4773C42.1335 88 41.982 88.4659 41.679 88.875C41.3797 89.2803 40.9612 89.5985 40.4233 89.8295C39.8892 90.0606 39.2699 90.1761 38.5653 90.1761C37.5881 90.1761 36.7907 89.9678 36.1733 89.5511C35.5559 89.1307 35.1771 88.5341 35.0369 87.7614L36.679 87.5114C36.7813 87.9394 36.9915 88.2633 37.3097 88.483C37.6278 88.6989 38.0426 88.8068 38.554 88.8068C39.1108 88.8068 39.5559 88.6913 39.8892 88.4602C40.2225 88.2254 40.3892 87.9394 40.3892 87.6023C40.3892 87.3295 40.2869 87.1004 40.0824 86.9148C39.8816 86.7292 39.5729 86.589 39.1562 86.4943L37.679 86.1705C36.8646 85.9848 36.2623 85.6894 35.8722 85.2841C35.4858 84.8788 35.2926 84.3655 35.2926 83.7443C35.2926 83.2292 35.4366 82.7784 35.7244 82.392C36.0123 82.0057 36.41 81.7045 36.9176 81.4886C37.4252 81.2689 38.0066 81.1591 38.6619 81.1591C39.6051 81.1591 40.3475 81.3636 40.8892 81.7727C41.4309 82.178 41.7888 82.7216 41.9631 83.4034ZM44.0014 90V81.2727H45.6321V82.6932H45.7401C45.9219 82.2121 46.2192 81.8371 46.6321 81.5682C47.045 81.2955 47.5393 81.1591 48.1151 81.1591C48.6984 81.1591 49.187 81.2955 49.581 81.5682C49.9787 81.8409 50.2723 82.2159 50.4616 82.6932H50.5526C50.7609 82.2273 51.0923 81.8561 51.5469 81.5795C52.0014 81.2992 52.5431 81.1591 53.1719 81.1591C53.9635 81.1591 54.6094 81.4072 55.1094 81.9034C55.6132 82.3996 55.8651 83.1477 55.8651 84.1477V90H54.1662V84.3068C54.1662 83.7159 54.0052 83.2879 53.6832 83.0227C53.3613 82.7576 52.9768 82.625 52.5298 82.625C51.9768 82.625 51.5469 82.7955 51.2401 83.1364C50.9332 83.4735 50.7798 83.9072 50.7798 84.4375V90H49.0866V84.1989C49.0866 83.7254 48.9389 83.3447 48.6435 83.0568C48.348 82.7689 47.9635 82.625 47.4901 82.625C47.1681 82.625 46.8707 82.7102 46.598 82.8807C46.3291 83.0473 46.1113 83.2803 45.9446 83.5795C45.7817 83.8788 45.7003 84.2254 45.7003 84.6193V90H44.0014Z" fill="#222222"/>
<rect width="4" height="169" transform="matrix(0 1 -1 0 230 82)" fill="#C0C0C0"/>
<path d="M234.875 87.7273V86.3068L239.903 78.3636H241.023V80.4545H240.312L236.716 86.1477V86.2386H243.608V87.7273H234.875ZM240.392 90V87.2955L240.403 86.6477V78.3636H242.068V90H240.392ZM245.611 93.2727V81.2727H247.27V82.6875H247.412C247.51 82.5057 247.652 82.2955 247.838 82.0568C248.024 81.8182 248.281 81.6098 248.611 81.4318C248.94 81.25 249.376 81.1591 249.918 81.1591C250.622 81.1591 251.251 81.3371 251.804 81.6932C252.357 82.0492 252.791 82.5625 253.105 83.233C253.423 83.9034 253.582 84.7102 253.582 85.6534C253.582 86.5966 253.425 87.4053 253.111 88.0795C252.796 88.75 252.365 89.267 251.815 89.6307C251.266 89.9905 250.639 90.1705 249.935 90.1705C249.404 90.1705 248.971 90.0814 248.634 89.9034C248.3 89.7254 248.039 89.517 247.849 89.2784C247.66 89.0398 247.514 88.8277 247.412 88.642H247.31V93.2727H245.611ZM247.276 85.6364C247.276 86.25 247.365 86.7879 247.543 87.25C247.721 87.7121 247.978 88.0739 248.315 88.3352C248.652 88.5928 249.065 88.7216 249.554 88.7216C250.062 88.7216 250.486 88.5871 250.827 88.3182C251.168 88.0455 251.425 87.6761 251.599 87.2102C251.777 86.7443 251.866 86.2197 251.866 85.6364C251.866 85.0606 251.779 84.5436 251.605 84.0852C251.435 83.6269 251.177 83.2652 250.832 83C250.491 82.7348 250.065 82.6023 249.554 82.6023C249.062 82.6023 248.645 82.7292 248.304 82.983C247.967 83.2367 247.711 83.5909 247.537 84.0455C247.363 84.5 247.276 85.0303 247.276 85.6364ZM256.483 81.2727L258.409 84.6705L260.352 81.2727H262.21L259.489 85.6364L262.233 90H260.375L258.409 86.7386L256.449 90H254.585L257.301 85.6364L254.619 81.2727H256.483Z" fill="#222222"/>
</svg>
