<svg width="295" height="158" viewBox="0 0 295 158" fill="none" xmlns="http://www.w3.org/2000/svg">
<rect width="295" height="158" rx="16" fill="white"/>
<path d="M44.9023 43.8867V46.6289H35.9961V43.8867H44.9023ZM37.0391 36.9375V54H33.5234V36.9375H37.0391ZM47.4102 36.9375V54H43.9062V36.9375H47.4102ZM55.6138 54.2344C54.6294 54.2344 53.7466 54.0781 52.9653 53.7656C52.1841 53.4453 51.52 53.0039 50.9731 52.4414C50.4341 51.8789 50.02 51.2266 49.7309 50.4844C49.4419 49.7344 49.2973 48.9375 49.2973 48.0938V47.625C49.2973 46.6641 49.4341 45.7852 49.7075 44.9883C49.9809 44.1914 50.3716 43.5 50.8794 42.9141C51.395 42.3281 52.02 41.8789 52.7544 41.5664C53.4888 41.2461 54.3169 41.0859 55.2388 41.0859C56.1372 41.0859 56.9341 41.2344 57.6294 41.5312C58.3247 41.8281 58.9067 42.25 59.3755 42.7969C59.852 43.3438 60.2114 44 60.4536 44.7656C60.6958 45.5234 60.8169 46.3672 60.8169 47.2969V48.7031H50.7388V46.4531H57.5005V46.1953C57.5005 45.7266 57.4145 45.3086 57.2427 44.9414C57.0786 44.5664 56.8286 44.2695 56.4927 44.0508C56.1567 43.832 55.727 43.7227 55.2036 43.7227C54.7583 43.7227 54.3755 43.8203 54.0552 44.0156C53.7348 44.2109 53.4731 44.4844 53.27 44.8359C53.0747 45.1875 52.9263 45.6016 52.8247 46.0781C52.7309 46.5469 52.6841 47.0625 52.6841 47.625V48.0938C52.6841 48.6016 52.7544 49.0703 52.895 49.5C53.0434 49.9297 53.2505 50.3008 53.5161 50.6133C53.7895 50.9258 54.1177 51.168 54.5005 51.3398C54.8911 51.5117 55.3325 51.5977 55.8247 51.5977C56.4341 51.5977 57.0005 51.4805 57.5239 51.2461C58.0552 51.0039 58.5122 50.6406 58.895 50.1562L60.5356 51.9375C60.27 52.3203 59.9067 52.6875 59.4458 53.0391C58.9927 53.3906 58.4458 53.6797 57.8052 53.9062C57.1645 54.125 56.4341 54.2344 55.6138 54.2344ZM69.1025 51.1406V45.4922C69.1025 45.0859 69.0361 44.7383 68.9033 44.4492C68.7705 44.1523 68.5634 43.9219 68.2822 43.7578C68.0088 43.5938 67.6533 43.5117 67.2158 43.5117C66.8408 43.5117 66.5166 43.5781 66.2431 43.7109C65.9697 43.8359 65.7588 44.0195 65.6103 44.2617C65.4619 44.4961 65.3877 44.7734 65.3877 45.0938H62.0127C62.0127 44.5547 62.1377 44.043 62.3877 43.5586C62.6377 43.0742 63.0009 42.6484 63.4775 42.2812C63.9541 41.9062 64.5205 41.6133 65.1767 41.4023C65.8408 41.1914 66.583 41.0859 67.4033 41.0859C68.3877 41.0859 69.2627 41.25 70.0283 41.5781C70.7939 41.9062 71.3955 42.3984 71.833 43.0547C72.2783 43.7109 72.5009 44.5312 72.5009 45.5156V50.9414C72.5009 51.6367 72.5439 52.207 72.6298 52.6523C72.7158 53.0898 72.8408 53.4727 73.0048 53.8008V54H69.5947C69.4306 53.6562 69.3056 53.2266 69.2197 52.7109C69.1416 52.1875 69.1025 51.6641 69.1025 51.1406ZM69.5478 46.2773L69.5713 48.1875H67.6845C67.2392 48.1875 66.8525 48.2383 66.5244 48.3398C66.1963 48.4414 65.9267 48.5859 65.7158 48.7734C65.5048 48.9531 65.3486 49.1641 65.247 49.4062C65.1533 49.6484 65.1064 49.9141 65.1064 50.2031C65.1064 50.4922 65.1728 50.7539 65.3056 50.9883C65.4384 51.2148 65.6298 51.3945 65.8798 51.5273C66.1298 51.6523 66.4228 51.7148 66.7588 51.7148C67.2666 51.7148 67.708 51.6133 68.083 51.4102C68.458 51.207 68.747 50.957 68.9502 50.6602C69.1611 50.3633 69.2705 50.082 69.2783 49.8164L70.1689 51.2461C70.0439 51.5664 69.872 51.8984 69.6533 52.2422C69.4423 52.5859 69.1728 52.9102 68.8447 53.2148C68.5166 53.5117 68.122 53.7578 67.6611 53.9531C67.2002 54.1406 66.6533 54.2344 66.0205 54.2344C65.2158 54.2344 64.4853 54.0742 63.8291 53.7539C63.1806 53.4258 62.665 52.9766 62.2822 52.4062C61.9072 51.8281 61.7197 51.1719 61.7197 50.4375C61.7197 49.7734 61.8447 49.1836 62.0947 48.668C62.3447 48.1523 62.7119 47.7188 63.1963 47.3672C63.6884 47.0078 64.3017 46.7383 65.0361 46.5586C65.7705 46.3711 66.622 46.2773 67.5908 46.2773H69.5478ZM82.1108 51.2344V36H85.5092V54H82.4506L82.1108 51.2344ZM74.0952 47.8125V47.5664C74.0952 46.5977 74.2045 45.7188 74.4233 44.9297C74.642 44.1328 74.9623 43.4492 75.3842 42.8789C75.8061 42.3086 76.3256 41.8672 76.9428 41.5547C77.56 41.2422 78.2631 41.0859 79.0522 41.0859C79.7944 41.0859 80.4428 41.2422 80.9975 41.5547C81.56 41.8672 82.0366 42.3125 82.4272 42.8906C82.8256 43.4609 83.1459 44.1367 83.3881 44.918C83.6303 45.6914 83.8061 46.5391 83.9155 47.4609V48C83.8061 48.8828 83.6303 49.7031 83.3881 50.4609C83.1459 51.2188 82.8256 51.8828 82.4272 52.4531C82.0366 53.0156 81.56 53.4531 80.9975 53.7656C80.435 54.0781 79.7788 54.2344 79.0288 54.2344C78.2397 54.2344 77.5366 54.0742 76.9194 53.7539C76.31 53.4336 75.7944 52.9844 75.3725 52.4062C74.9584 51.8281 74.642 51.1484 74.4233 50.3672C74.2045 49.5859 74.0952 48.7344 74.0952 47.8125ZM77.4702 47.5664V47.8125C77.4702 48.3359 77.5092 48.8242 77.5873 49.2773C77.6733 49.7305 77.81 50.1328 77.9975 50.4844C78.1928 50.8281 78.4428 51.0977 78.7475 51.293C79.06 51.4805 79.4389 51.5742 79.8842 51.5742C80.4623 51.5742 80.9389 51.4453 81.3139 51.1875C81.6889 50.9219 81.9741 50.5586 82.1694 50.0977C82.3725 49.6367 82.4897 49.1055 82.5209 48.5039V46.9688C82.4975 46.4766 82.4272 46.0352 82.31 45.6445C82.2006 45.2461 82.0366 44.9062 81.8178 44.625C81.6069 44.3438 81.3413 44.125 81.0209 43.9688C80.7084 43.8125 80.3373 43.7344 79.9077 43.7344C79.4702 43.7344 79.0952 43.8359 78.7827 44.0391C78.4702 44.2344 78.2163 44.5039 78.0209 44.8477C77.8334 45.1914 77.6928 45.5977 77.5991 46.0664C77.5131 46.5273 77.4702 47.0273 77.4702 47.5664ZM93.5019 54.2344C92.5175 54.2344 91.6347 54.0781 90.8534 53.7656C90.0722 53.4453 89.4081 53.0039 88.8613 52.4414C88.3222 51.8789 87.9081 51.2266 87.6191 50.4844C87.33 49.7344 87.1855 48.9375 87.1855 48.0938V47.625C87.1855 46.6641 87.3222 45.7852 87.5956 44.9883C87.8691 44.1914 88.2597 43.5 88.7675 42.9141C89.2831 42.3281 89.9081 41.8789 90.6425 41.5664C91.3769 41.2461 92.205 41.0859 93.1269 41.0859C94.0253 41.0859 94.8222 41.2344 95.5175 41.5312C96.2128 41.8281 96.7948 42.25 97.2636 42.7969C97.7402 43.3438 98.0995 44 98.3417 44.7656C98.5839 45.5234 98.705 46.3672 98.705 47.2969V48.7031H88.6269V46.4531H95.3886V46.1953C95.3886 45.7266 95.3027 45.3086 95.1308 44.9414C94.9667 44.5664 94.7167 44.2695 94.3808 44.0508C94.0448 43.832 93.6152 43.7227 93.0917 43.7227C92.6464 43.7227 92.2636 43.8203 91.9433 44.0156C91.623 44.2109 91.3613 44.4844 91.1581 44.8359C90.9628 45.1875 90.8144 45.6016 90.7128 46.0781C90.6191 46.5469 90.5722 47.0625 90.5722 47.625V48.0938C90.5722 48.6016 90.6425 49.0703 90.7831 49.5C90.9316 49.9297 91.1386 50.3008 91.4042 50.6133C91.6777 50.9258 92.0058 51.168 92.3886 51.3398C92.7792 51.5117 93.2206 51.5977 93.7128 51.5977C94.3222 51.5977 94.8886 51.4805 95.412 51.2461C95.9433 51.0039 96.4003 50.6406 96.7831 50.1562L98.4238 51.9375C98.1581 52.3203 97.7948 52.6875 97.3339 53.0391C96.8808 53.3906 96.3339 53.6797 95.6933 53.9062C95.0527 54.125 94.3222 54.2344 93.5019 54.2344ZM103.522 44.0859V54H100.147V41.3203H103.323L103.522 44.0859ZM107.342 41.2383L107.284 44.3672C107.12 44.3438 106.92 44.3242 106.686 44.3086C106.459 44.2852 106.252 44.2734 106.065 44.2734C105.588 44.2734 105.174 44.3359 104.823 44.4609C104.479 44.5781 104.19 44.7539 103.955 44.9883C103.729 45.2227 103.557 45.5078 103.44 45.8438C103.33 46.1797 103.268 46.5625 103.252 46.9922L102.573 46.7812C102.573 45.9609 102.655 45.207 102.819 44.5195C102.983 43.8242 103.221 43.2188 103.534 42.7031C103.854 42.1875 104.245 41.7891 104.705 41.5078C105.166 41.2266 105.694 41.0859 106.287 41.0859C106.475 41.0859 106.666 41.1016 106.862 41.1328C107.057 41.1562 107.217 41.1914 107.342 41.2383ZM122.038 36.9023V54H118.663V40.793L114.609 42.082V39.4219L121.675 36.9023H122.038ZM138.528 45.4688V45.0234C138.528 44.2422 138.778 43.6055 139.278 43.1133C139.778 42.6133 140.45 42.3633 141.294 42.3633C142.169 42.3633 142.852 42.6133 143.345 43.1133C143.845 43.6055 144.095 44.2422 144.095 45.0234V45.4688C144.095 46.2422 143.848 46.875 143.356 47.3672C142.864 47.8594 142.184 48.1055 141.317 48.1055C140.466 48.1055 139.786 47.8594 139.278 47.3672C138.778 46.875 138.528 46.2422 138.528 45.4688ZM165.951 36.7617H166.444V39.457H166.244C165.354 39.457 164.561 39.5898 163.865 39.8555C163.17 40.1211 162.58 40.5 162.096 40.9922C161.619 41.4766 161.252 42.0625 160.994 42.75C160.744 43.4375 160.619 44.207 160.619 45.0586V47.8945C160.619 48.5039 160.678 49.043 160.795 49.5117C160.92 49.9727 161.096 50.3594 161.323 50.6719C161.557 50.9766 161.83 51.207 162.143 51.3633C162.455 51.5117 162.807 51.5859 163.198 51.5859C163.565 51.5859 163.897 51.5078 164.194 51.3516C164.498 51.1953 164.756 50.9766 164.967 50.6953C165.186 50.4062 165.35 50.0703 165.459 49.6875C165.576 49.2969 165.635 48.8711 165.635 48.4102C165.635 47.9492 165.576 47.5234 165.459 47.1328C165.35 46.7422 165.186 46.4062 164.967 46.125C164.748 45.8359 164.483 45.6133 164.17 45.457C163.858 45.3008 163.506 45.2227 163.115 45.2227C162.584 45.2227 162.115 45.3477 161.709 45.5977C161.311 45.8398 160.998 46.1523 160.772 46.5352C160.545 46.918 160.424 47.3203 160.408 47.7422L159.389 47.0859C159.412 46.4844 159.537 45.9141 159.764 45.375C159.998 44.8359 160.319 44.3594 160.725 43.9453C161.139 43.5234 161.635 43.1953 162.213 42.9609C162.791 42.7188 163.444 42.5977 164.17 42.5977C164.967 42.5977 165.666 42.75 166.268 43.0547C166.877 43.3594 167.385 43.7773 167.791 44.3086C168.198 44.8398 168.502 45.4531 168.705 46.1484C168.908 46.8438 169.01 47.5859 169.01 48.375C169.01 49.2031 168.873 49.9727 168.6 50.6836C168.334 51.3945 167.948 52.0156 167.44 52.5469C166.94 53.0781 166.338 53.4922 165.635 53.7891C164.932 54.0859 164.143 54.2344 163.268 54.2344C162.362 54.2344 161.537 54.0703 160.795 53.7422C160.061 53.4062 159.428 52.9375 158.897 52.3359C158.365 51.7344 157.955 51.0195 157.666 50.1914C157.385 49.3633 157.244 48.457 157.244 47.4727V46.1602C157.244 44.7852 157.444 43.5273 157.842 42.3867C158.248 41.2383 158.83 40.2461 159.588 39.4102C160.346 38.5664 161.26 37.9141 162.33 37.4531C163.401 36.9922 164.608 36.7617 165.951 36.7617ZM182.499 47.625V50.2734H170.206L170.042 48.2227L177.155 36.9375H179.839L176.932 41.8008L173.393 47.625H182.499ZM180.565 36.9375V54H177.19V36.9375H180.565ZM187.363 43.7578V58.875H183.988V41.3203H187.116L187.363 43.7578ZM195.39 47.5195V47.7656C195.39 48.6875 195.28 49.543 195.062 50.332C194.851 51.1211 194.538 51.8086 194.124 52.3945C193.71 52.9727 193.195 53.4258 192.577 53.7539C191.968 54.0742 191.265 54.2344 190.468 54.2344C189.695 54.2344 189.023 54.0781 188.452 53.7656C187.882 53.4531 187.402 53.0156 187.011 52.4531C186.628 51.8828 186.32 51.2227 186.085 50.4727C185.851 49.7227 185.671 48.918 185.546 48.0586V47.4141C185.671 46.4922 185.851 45.6484 186.085 44.8828C186.32 44.1094 186.628 43.4414 187.011 42.8789C187.402 42.3086 187.878 41.8672 188.441 41.5547C189.011 41.2422 189.679 41.0859 190.445 41.0859C191.249 41.0859 191.956 41.2383 192.566 41.543C193.183 41.8477 193.698 42.2852 194.113 42.8555C194.534 43.4258 194.851 44.1055 195.062 44.8945C195.28 45.6836 195.39 46.5586 195.39 47.5195ZM192.003 47.7656V47.5195C192.003 46.9805 191.956 46.4844 191.863 46.0312C191.777 45.5703 191.636 45.168 191.441 44.8242C191.253 44.4805 191.003 44.2148 190.691 44.0273C190.386 43.832 190.015 43.7344 189.577 43.7344C189.116 43.7344 188.722 43.8086 188.394 43.957C188.073 44.1055 187.812 44.3203 187.609 44.6016C187.405 44.8828 187.253 45.2188 187.152 45.6094C187.05 46 186.988 46.4414 186.964 46.9336V48.5625C187.003 49.1406 187.113 49.6602 187.292 50.1211C187.472 50.5742 187.749 50.9336 188.124 51.1992C188.499 51.4648 188.991 51.5977 189.601 51.5977C190.046 51.5977 190.421 51.5 190.726 51.3047C191.03 51.1016 191.277 50.8242 191.464 50.4727C191.659 50.1211 191.796 49.7148 191.874 49.2539C191.96 48.793 192.003 48.2969 192.003 47.7656ZM199.539 41.3203L201.636 45.1758L203.793 41.3203H207.39L203.804 47.5195L207.554 54H203.945L201.66 49.9219L199.375 54H195.765L199.515 47.5195L195.929 41.3203H199.539Z" fill="#222222"/>
<path d="M42.752 85.5723V87.8574H35.3301V85.5723H42.752ZM36.1992 79.7812V94H33.2695V79.7812H36.1992ZM44.8418 79.7812V94H41.9219V79.7812H44.8418ZM51.6781 94.1953C50.8578 94.1953 50.1221 94.0651 49.4711 93.8047C48.8201 93.5378 48.2667 93.1699 47.8109 92.7012C47.3617 92.2324 47.0167 91.6888 46.7758 91.0703C46.5349 90.4453 46.4145 89.7812 46.4145 89.0781V88.6875C46.4145 87.8867 46.5284 87.1543 46.7563 86.4902C46.9841 85.8262 47.3096 85.25 47.7328 84.7617C48.1625 84.2734 48.6833 83.8991 49.2953 83.6387C49.9073 83.3717 50.5974 83.2383 51.3656 83.2383C52.1143 83.2383 52.7784 83.362 53.3578 83.6094C53.9372 83.8568 54.4223 84.2083 54.8129 84.6641C55.21 85.1198 55.5095 85.6667 55.7113 86.3047C55.9132 86.9362 56.0141 87.6393 56.0141 88.4141V89.5859H47.6156V87.7109H53.2504V87.4961C53.2504 87.1055 53.1788 86.7572 53.0355 86.4512C52.8988 86.1387 52.6905 85.8913 52.4105 85.709C52.1306 85.5267 51.7725 85.4355 51.3363 85.4355C50.9652 85.4355 50.6462 85.5169 50.3793 85.6797C50.1124 85.8424 49.8943 86.0703 49.725 86.3633C49.5622 86.6562 49.4385 87.0013 49.3539 87.3984C49.2758 87.7891 49.2367 88.2188 49.2367 88.6875V89.0781C49.2367 89.5013 49.2953 89.8919 49.4125 90.25C49.5362 90.6081 49.7087 90.9173 49.9301 91.1777C50.1579 91.4382 50.4314 91.64 50.7504 91.7832C51.0759 91.9264 51.4438 91.998 51.8539 91.998C52.3617 91.998 52.8337 91.9004 53.2699 91.7051C53.7126 91.5033 54.0935 91.2005 54.4125 90.7969L55.7797 92.2812C55.5583 92.6003 55.2556 92.9062 54.8715 93.1992C54.4939 93.4922 54.0382 93.7331 53.5043 93.9219C52.9704 94.1042 52.3617 94.1953 51.6781 94.1953ZM62.9188 91.6172V86.9102C62.9188 86.5716 62.8634 86.2819 62.7527 86.041C62.6421 85.7936 62.4695 85.6016 62.2352 85.4648C62.0073 85.3281 61.7111 85.2598 61.3465 85.2598C61.034 85.2598 60.7638 85.3151 60.5359 85.4258C60.3081 85.5299 60.1323 85.6829 60.0086 85.8848C59.8849 86.0801 59.823 86.3112 59.823 86.5781H57.0105C57.0105 86.1289 57.1147 85.7025 57.323 85.2988C57.5314 84.8952 57.8341 84.5404 58.2313 84.2344C58.6284 83.9219 59.1004 83.6777 59.6473 83.502C60.2007 83.3262 60.8191 83.2383 61.5027 83.2383C62.323 83.2383 63.0522 83.375 63.6902 83.6484C64.3283 83.9219 64.8296 84.332 65.1941 84.8789C65.5652 85.4258 65.7508 86.1094 65.7508 86.9297V91.4512C65.7508 92.0306 65.7866 92.5059 65.8582 92.877C65.9298 93.2415 66.034 93.5605 66.1707 93.834V94H63.3289C63.1922 93.7135 63.088 93.3555 63.0164 92.9258C62.9513 92.4896 62.9188 92.0534 62.9188 91.6172ZM63.2898 87.5645L63.3094 89.1562H61.7371C61.366 89.1562 61.0438 89.1986 60.7703 89.2832C60.4969 89.3678 60.2723 89.4883 60.0965 89.6445C59.9207 89.7943 59.7905 89.9701 59.7059 90.1719C59.6277 90.3737 59.5887 90.5951 59.5887 90.8359C59.5887 91.0768 59.644 91.2949 59.7547 91.4902C59.8654 91.679 60.0249 91.8288 60.2332 91.9395C60.4415 92.0436 60.6857 92.0957 60.9656 92.0957C61.3888 92.0957 61.7566 92.0111 62.0691 91.8418C62.3816 91.6725 62.6225 91.4642 62.7918 91.2168C62.9676 90.9694 63.0587 90.735 63.0652 90.5137L63.8074 91.7051C63.7033 91.972 63.56 92.2487 63.3777 92.5352C63.202 92.8216 62.9773 93.0918 62.7039 93.3457C62.4305 93.5931 62.1017 93.7982 61.7176 93.9609C61.3335 94.1172 60.8777 94.1953 60.3504 94.1953C59.6798 94.1953 59.0711 94.0618 58.5242 93.7949C57.9839 93.5215 57.5542 93.1471 57.2352 92.6719C56.9227 92.1901 56.7664 91.6432 56.7664 91.0312C56.7664 90.4779 56.8706 89.9863 57.0789 89.5566C57.2872 89.127 57.5932 88.7656 57.9969 88.4727C58.407 88.1732 58.9181 87.9486 59.5301 87.7988C60.1421 87.6426 60.8517 87.5645 61.659 87.5645H63.2898ZM73.759 91.6953V79H76.591V94H74.0422L73.759 91.6953ZM67.0793 88.8438V88.6387C67.0793 87.8314 67.1704 87.099 67.3527 86.4414C67.535 85.7773 67.802 85.2077 68.1535 84.7324C68.5051 84.2572 68.938 83.8893 69.4523 83.6289C69.9667 83.3685 70.5526 83.2383 71.2102 83.2383C71.8286 83.2383 72.369 83.3685 72.8312 83.6289C73.3 83.8893 73.6971 84.2604 74.0227 84.7422C74.3547 85.2174 74.6216 85.7806 74.8234 86.4316C75.0253 87.0762 75.1717 87.7826 75.2629 88.5508V89C75.1717 89.7357 75.0253 90.4193 74.8234 91.0508C74.6216 91.6823 74.3547 92.2357 74.0227 92.7109C73.6971 93.1797 73.3 93.5443 72.8312 93.8047C72.3625 94.0651 71.8156 94.1953 71.1906 94.1953C70.5331 94.1953 69.9471 94.0618 69.4328 93.7949C68.925 93.528 68.4953 93.1536 68.1437 92.6719C67.7987 92.1901 67.535 91.6237 67.3527 90.9727C67.1704 90.3216 67.0793 89.612 67.0793 88.8438ZM69.8918 88.6387V88.8438C69.8918 89.2799 69.9243 89.6868 69.9895 90.0645C70.0611 90.4421 70.175 90.7773 70.3312 91.0703C70.494 91.3568 70.7023 91.5814 70.9562 91.7441C71.2167 91.9004 71.5324 91.9785 71.9035 91.9785C72.3853 91.9785 72.7824 91.8711 73.0949 91.6562C73.4074 91.4349 73.6451 91.1322 73.8078 90.748C73.9771 90.3639 74.0747 89.9212 74.1008 89.4199V88.1406C74.0812 87.7305 74.0227 87.3626 73.925 87.0371C73.8339 86.7051 73.6971 86.4219 73.5148 86.1875C73.3391 85.9531 73.1177 85.7708 72.8508 85.6406C72.5904 85.5104 72.2811 85.4453 71.923 85.4453C71.5585 85.4453 71.246 85.5299 70.9855 85.6992C70.7251 85.862 70.5135 86.0866 70.3508 86.373C70.1945 86.6595 70.0773 86.998 69.9992 87.3887C69.9276 87.7728 69.8918 88.1895 69.8918 88.6387ZM83.2516 94.1953C82.4313 94.1953 81.6956 94.0651 81.0445 93.8047C80.3935 93.5378 79.8401 93.1699 79.3844 92.7012C78.9352 92.2324 78.5901 91.6888 78.3492 91.0703C78.1083 90.4453 77.9879 89.7812 77.9879 89.0781V88.6875C77.9879 87.8867 78.1018 87.1543 78.3297 86.4902C78.5576 85.8262 78.8831 85.25 79.3063 84.7617C79.7359 84.2734 80.2568 83.8991 80.8688 83.6387C81.4807 83.3717 82.1708 83.2383 82.9391 83.2383C83.6878 83.2383 84.3518 83.362 84.9313 83.6094C85.5107 83.8568 85.9957 84.2083 86.3863 84.6641C86.7835 85.1198 87.0829 85.6667 87.2848 86.3047C87.4866 86.9362 87.5875 87.6393 87.5875 88.4141V89.5859H79.1891V87.7109H84.8238V87.4961C84.8238 87.1055 84.7522 86.7572 84.609 86.4512C84.4723 86.1387 84.2639 85.8913 83.984 85.709C83.704 85.5267 83.346 85.4355 82.9098 85.4355C82.5387 85.4355 82.2197 85.5169 81.9527 85.6797C81.6858 85.8424 81.4677 86.0703 81.2984 86.3633C81.1357 86.6562 81.012 87.0013 80.9273 87.3984C80.8492 87.7891 80.8102 88.2188 80.8102 88.6875V89.0781C80.8102 89.5013 80.8688 89.8919 80.9859 90.25C81.1096 90.6081 81.2822 90.9173 81.5035 91.1777C81.7314 91.4382 82.0048 91.64 82.3238 91.7832C82.6494 91.9264 83.0172 91.998 83.4273 91.998C83.9352 91.998 84.4072 91.9004 84.8434 91.7051C85.2861 91.5033 85.6669 91.2005 85.9859 90.7969L87.3531 92.2812C87.1318 92.6003 86.829 92.9062 86.4449 93.1992C86.0673 93.4922 85.6116 93.7331 85.0777 93.9219C84.5439 94.1042 83.9352 94.1953 83.2516 94.1953ZM91.6016 85.7383V94H88.7891V83.4336H91.4355L91.6016 85.7383ZM94.7852 83.3652L94.7363 85.9727C94.5996 85.9531 94.4336 85.9368 94.2383 85.9238C94.0495 85.9043 93.877 85.8945 93.7207 85.8945C93.3236 85.8945 92.9785 85.9466 92.6855 86.0508C92.3991 86.1484 92.1582 86.2949 91.9629 86.4902C91.7741 86.6855 91.6309 86.9232 91.5332 87.2031C91.4421 87.4831 91.39 87.8021 91.377 88.1602L90.8105 87.9844C90.8105 87.3008 90.8789 86.6725 91.0156 86.0996C91.1523 85.5202 91.3509 85.0156 91.6113 84.5859C91.8783 84.1562 92.2038 83.8242 92.5879 83.5898C92.972 83.3555 93.4115 83.2383 93.9062 83.2383C94.0625 83.2383 94.222 83.2513 94.3848 83.2773C94.5475 83.2969 94.681 83.3262 94.7852 83.3652ZM109.903 91.8027V94H100.177V92.125L104.776 87.1934C105.238 86.679 105.603 86.2266 105.87 85.8359C106.137 85.4388 106.329 85.084 106.446 84.7715C106.57 84.4525 106.632 84.1497 106.632 83.8633C106.632 83.4336 106.56 83.0658 106.417 82.7598C106.274 82.4473 106.062 82.2064 105.782 82.0371C105.509 81.8678 105.17 81.7832 104.766 81.7832C104.337 81.7832 103.966 81.8874 103.653 82.0957C103.347 82.304 103.113 82.5938 102.95 82.9648C102.794 83.3359 102.716 83.7559 102.716 84.2246H99.8934C99.8934 83.3783 100.095 82.6035 100.499 81.9004C100.902 81.1908 101.472 80.6276 102.208 80.2109C102.943 79.7878 103.816 79.5762 104.825 79.5762C105.821 79.5762 106.661 79.7389 107.345 80.0645C108.035 80.3835 108.555 80.8457 108.907 81.4512C109.265 82.0501 109.444 82.7663 109.444 83.5996C109.444 84.0684 109.369 84.5273 109.22 84.9766C109.07 85.4193 108.855 85.862 108.575 86.3047C108.302 86.7409 107.97 87.1836 107.579 87.6328C107.188 88.082 106.755 88.5475 106.28 89.0293L103.809 91.8027H109.903ZM120.773 86.8906V86.5195C120.773 85.8685 120.982 85.3379 121.398 84.9277C121.815 84.5111 122.375 84.3027 123.078 84.3027C123.807 84.3027 124.377 84.5111 124.787 84.9277C125.204 85.3379 125.412 85.8685 125.412 86.5195V86.8906C125.412 87.5352 125.207 88.0625 124.797 88.4727C124.387 88.8828 123.82 89.0879 123.098 89.0879C122.388 89.0879 121.822 88.8828 121.398 88.4727C120.982 88.0625 120.773 87.5352 120.773 86.8906ZM139.251 85.6699H140.755C141.237 85.6699 141.634 85.5885 141.946 85.4258C142.259 85.2565 142.49 85.0221 142.64 84.7227C142.796 84.4167 142.874 84.0618 142.874 83.6582C142.874 83.2936 142.803 82.9714 142.659 82.6914C142.523 82.4049 142.311 82.1836 142.025 82.0273C141.738 81.8646 141.377 81.7832 140.941 81.7832C140.596 81.7832 140.277 81.8516 139.984 81.9883C139.691 82.125 139.456 82.3171 139.28 82.5645C139.105 82.8118 139.017 83.1113 139.017 83.4629H136.195C136.195 82.6816 136.403 82.0013 136.82 81.4219C137.243 80.8424 137.809 80.39 138.519 80.0645C139.228 79.7389 140.01 79.5762 140.863 79.5762C141.826 79.5762 142.669 79.7324 143.392 80.0449C144.114 80.3509 144.678 80.8034 145.081 81.4023C145.485 82.0013 145.687 82.7435 145.687 83.6289C145.687 84.0781 145.583 84.5143 145.374 84.9375C145.166 85.3542 144.866 85.7318 144.476 86.0703C144.092 86.4023 143.623 86.6693 143.07 86.8711C142.516 87.0664 141.894 87.1641 141.204 87.1641H139.251V85.6699ZM139.251 87.8086V86.3535H141.204C141.979 86.3535 142.659 86.4414 143.245 86.6172C143.831 86.793 144.323 87.0469 144.72 87.3789C145.117 87.7044 145.417 88.0918 145.618 88.541C145.82 88.9837 145.921 89.4753 145.921 90.0156C145.921 90.6797 145.794 91.2721 145.54 91.793C145.286 92.3073 144.928 92.7435 144.466 93.1016C144.01 93.4596 143.476 93.7331 142.864 93.9219C142.252 94.1042 141.585 94.1953 140.863 94.1953C140.264 94.1953 139.674 94.1139 139.095 93.9512C138.522 93.7819 138.001 93.5312 137.532 93.1992C137.07 92.8607 136.699 92.4375 136.419 91.9297C136.146 91.4154 136.009 90.8066 136.009 90.1035H138.831C138.831 90.4681 138.922 90.7936 139.105 91.0801C139.287 91.3665 139.538 91.5911 139.857 91.7539C140.182 91.9167 140.543 91.998 140.941 91.998C141.39 91.998 141.774 91.9167 142.093 91.7539C142.418 91.5846 142.666 91.3503 142.835 91.0508C143.011 90.7448 143.099 90.39 143.099 89.9863C143.099 89.4655 143.004 89.0488 142.816 88.7363C142.627 88.4173 142.357 88.1829 142.005 88.0332C141.654 87.8835 141.237 87.8086 140.755 87.8086H139.251ZM157.181 91.8027V94H147.455V92.125L152.054 87.1934C152.517 86.679 152.881 86.2266 153.148 85.8359C153.415 85.4388 153.607 85.084 153.724 84.7715C153.848 84.4525 153.91 84.1497 153.91 83.8633C153.91 83.4336 153.838 83.0658 153.695 82.7598C153.552 82.4473 153.34 82.2064 153.06 82.0371C152.787 81.8678 152.448 81.7832 152.045 81.7832C151.615 81.7832 151.244 81.8874 150.931 82.0957C150.625 82.304 150.391 82.5938 150.228 82.9648C150.072 83.3359 149.994 83.7559 149.994 84.2246H147.171C147.171 83.3783 147.373 82.6035 147.777 81.9004C148.181 81.1908 148.75 80.6276 149.486 80.2109C150.222 79.7878 151.094 79.5762 152.103 79.5762C153.099 79.5762 153.939 79.7389 154.623 80.0645C155.313 80.3835 155.834 80.8457 156.185 81.4512C156.543 82.0501 156.722 82.7663 156.722 83.5996C156.722 84.0684 156.647 84.5273 156.498 84.9766C156.348 85.4193 156.133 85.862 155.853 86.3047C155.58 86.7409 155.248 87.1836 154.857 87.6328C154.466 88.082 154.033 88.5475 153.558 89.0293L151.088 91.8027H157.181ZM161.469 85.4648V98.0625H158.656V83.4336H161.264L161.469 85.4648ZM168.158 88.5996V88.8047C168.158 89.5729 168.067 90.2858 167.885 90.9434C167.709 91.6009 167.449 92.1738 167.104 92.6621C166.758 93.1439 166.329 93.5215 165.814 93.7949C165.307 94.0618 164.721 94.1953 164.057 94.1953C163.412 94.1953 162.852 94.0651 162.377 93.8047C161.902 93.5443 161.501 93.1797 161.176 92.7109C160.857 92.2357 160.6 91.6855 160.404 91.0605C160.209 90.4355 160.059 89.765 159.955 89.0488V88.5117C160.059 87.7435 160.209 87.0404 160.404 86.4023C160.6 85.7578 160.857 85.2012 161.176 84.7324C161.501 84.2572 161.898 83.8893 162.367 83.6289C162.842 83.3685 163.399 83.2383 164.037 83.2383C164.708 83.2383 165.297 83.3652 165.805 83.6191C166.319 83.873 166.749 84.2376 167.094 84.7129C167.445 85.1882 167.709 85.7546 167.885 86.4121C168.067 87.0697 168.158 87.7988 168.158 88.5996ZM165.336 88.8047V88.5996C165.336 88.1504 165.297 87.737 165.219 87.3594C165.147 86.9753 165.03 86.64 164.867 86.3535C164.711 86.0671 164.503 85.8457 164.242 85.6895C163.988 85.5267 163.679 85.4453 163.314 85.4453C162.93 85.4453 162.602 85.5072 162.328 85.6309C162.061 85.7546 161.843 85.9336 161.674 86.168C161.505 86.4023 161.378 86.6823 161.293 87.0078C161.208 87.3333 161.156 87.7012 161.137 88.1113V89.4688C161.169 89.9505 161.26 90.3835 161.41 90.7676C161.56 91.1452 161.791 91.4447 162.104 91.666C162.416 91.8874 162.826 91.998 163.334 91.998C163.705 91.998 164.018 91.9167 164.271 91.7539C164.525 91.5846 164.73 91.3535 164.887 91.0605C165.049 90.7676 165.163 90.429 165.229 90.0449C165.3 89.6608 165.336 89.2474 165.336 88.8047ZM171.616 83.4336L173.364 86.6465L175.161 83.4336H178.159L175.17 88.5996L178.295 94H175.288L173.383 90.6016L171.479 94H168.471L171.596 88.5996L168.608 83.4336H171.616Z" fill="#222222"/>
<path d="M40.6016 123.258V125.086H34.6641V123.258H40.6016ZM35.3594 118.625V130H33.0156V118.625H35.3594ZM42.2734 118.625V130H39.9375V118.625H42.2734ZM47.7425 130.156C47.0863 130.156 46.4977 130.052 45.9769 129.844C45.456 129.63 45.0133 129.336 44.6488 128.961C44.2894 128.586 44.0133 128.151 43.8206 127.656C43.6279 127.156 43.5316 126.625 43.5316 126.062V125.75C43.5316 125.109 43.6227 124.523 43.805 123.992C43.9873 123.461 44.2477 123 44.5863 122.609C44.93 122.219 45.3467 121.919 45.8363 121.711C46.3258 121.497 46.8779 121.391 47.4925 121.391C48.0915 121.391 48.6227 121.49 49.0863 121.688C49.5498 121.885 49.9378 122.167 50.2503 122.531C50.568 122.896 50.8076 123.333 50.9691 123.844C51.1305 124.349 51.2113 124.911 51.2113 125.531V126.469H44.4925V124.969H49.0003V124.797C49.0003 124.484 48.943 124.206 48.8284 123.961C48.7191 123.711 48.5524 123.513 48.3284 123.367C48.1045 123.221 47.818 123.148 47.4691 123.148C47.1722 123.148 46.917 123.214 46.7034 123.344C46.4899 123.474 46.3154 123.656 46.18 123.891C46.0498 124.125 45.9508 124.401 45.8831 124.719C45.8206 125.031 45.7894 125.375 45.7894 125.75V126.062C45.7894 126.401 45.8363 126.714 45.93 127C46.029 127.286 46.167 127.534 46.3441 127.742C46.5264 127.951 46.7451 128.112 47.0003 128.227C47.2607 128.341 47.555 128.398 47.8831 128.398C48.2894 128.398 48.667 128.32 49.0159 128.164C49.3701 128.003 49.6748 127.76 49.93 127.438L51.0238 128.625C50.8467 128.88 50.6045 129.125 50.2972 129.359C49.9951 129.594 49.6305 129.786 49.2034 129.938C48.7764 130.083 48.2894 130.156 47.7425 130.156ZM56.735 128.094V124.328C56.735 124.057 56.6907 123.826 56.6022 123.633C56.5136 123.435 56.3756 123.281 56.1881 123.172C56.0058 123.062 55.7689 123.008 55.4772 123.008C55.2272 123.008 55.011 123.052 54.8288 123.141C54.6465 123.224 54.5058 123.346 54.4069 123.508C54.3079 123.664 54.2584 123.849 54.2584 124.062H52.0084C52.0084 123.703 52.0918 123.362 52.2584 123.039C52.4251 122.716 52.6673 122.432 52.985 122.188C53.3027 121.938 53.6803 121.742 54.1178 121.602C54.5605 121.461 55.0553 121.391 55.6022 121.391C56.2584 121.391 56.8418 121.5 57.3522 121.719C57.8626 121.938 58.2636 122.266 58.5553 122.703C58.8522 123.141 59.0006 123.688 59.0006 124.344V127.961C59.0006 128.424 59.0293 128.805 59.0866 129.102C59.1439 129.393 59.2272 129.648 59.3366 129.867V130H57.0631C56.9538 129.771 56.8704 129.484 56.8131 129.141C56.761 128.792 56.735 128.443 56.735 128.094ZM57.0319 124.852L57.0475 126.125H55.7897C55.4928 126.125 55.235 126.159 55.0163 126.227C54.7975 126.294 54.6178 126.391 54.4772 126.516C54.3366 126.635 54.2324 126.776 54.1647 126.938C54.1022 127.099 54.0709 127.276 54.0709 127.469C54.0709 127.661 54.1152 127.836 54.2038 127.992C54.2923 128.143 54.4199 128.263 54.5866 128.352C54.7532 128.435 54.9485 128.477 55.1725 128.477C55.511 128.477 55.8053 128.409 56.0553 128.273C56.3053 128.138 56.498 127.971 56.6334 127.773C56.7741 127.576 56.847 127.388 56.8522 127.211L57.4459 128.164C57.3626 128.378 57.248 128.599 57.1022 128.828C56.9616 129.057 56.7819 129.273 56.5631 129.477C56.3444 129.674 56.0814 129.839 55.7741 129.969C55.4668 130.094 55.1022 130.156 54.6803 130.156C54.1439 130.156 53.6569 130.049 53.2194 129.836C52.7871 129.617 52.4433 129.318 52.1881 128.938C51.9381 128.552 51.8131 128.115 51.8131 127.625C51.8131 127.182 51.8965 126.789 52.0631 126.445C52.2298 126.102 52.4746 125.812 52.7975 125.578C53.1256 125.339 53.5345 125.159 54.0241 125.039C54.5136 124.914 55.0814 124.852 55.7272 124.852H57.0319ZM65.4072 128.156V118H67.6728V130H65.6338L65.4072 128.156ZM60.0634 125.875V125.711C60.0634 125.065 60.1364 124.479 60.2822 123.953C60.428 123.422 60.6416 122.966 60.9228 122.586C61.2041 122.206 61.5504 121.911 61.9619 121.703C62.3733 121.495 62.8421 121.391 63.3681 121.391C63.8629 121.391 64.2952 121.495 64.665 121.703C65.04 121.911 65.3577 122.208 65.6181 122.594C65.8838 122.974 66.0973 123.424 66.2588 123.945C66.4202 124.461 66.5374 125.026 66.6103 125.641V126C66.5374 126.589 66.4202 127.135 66.2588 127.641C66.0973 128.146 65.8838 128.589 65.6181 128.969C65.3577 129.344 65.04 129.635 64.665 129.844C64.29 130.052 63.8525 130.156 63.3525 130.156C62.8265 130.156 62.3577 130.049 61.9463 129.836C61.54 129.622 61.1963 129.323 60.915 128.938C60.639 128.552 60.428 128.099 60.2822 127.578C60.1364 127.057 60.0634 126.49 60.0634 125.875ZM62.3134 125.711V125.875C62.3134 126.224 62.3395 126.549 62.3916 126.852C62.4489 127.154 62.54 127.422 62.665 127.656C62.7952 127.885 62.9619 128.065 63.165 128.195C63.3733 128.32 63.6259 128.383 63.9228 128.383C64.3082 128.383 64.6259 128.297 64.8759 128.125C65.1259 127.948 65.316 127.706 65.4463 127.398C65.5817 127.091 65.6598 126.737 65.6806 126.336V125.312C65.665 124.984 65.6181 124.69 65.54 124.43C65.4671 124.164 65.3577 123.938 65.2119 123.75C65.0713 123.562 64.8942 123.417 64.6806 123.312C64.4723 123.208 64.2249 123.156 63.9384 123.156C63.6468 123.156 63.3968 123.224 63.1884 123.359C62.9801 123.49 62.8108 123.669 62.6806 123.898C62.5556 124.128 62.4619 124.398 62.3994 124.711C62.3421 125.018 62.3134 125.352 62.3134 125.711ZM73.0013 130.156C72.345 130.156 71.7565 130.052 71.2356 129.844C70.7148 129.63 70.2721 129.336 69.9075 128.961C69.5481 128.586 69.2721 128.151 69.0794 127.656C68.8867 127.156 68.7903 126.625 68.7903 126.062V125.75C68.7903 125.109 68.8815 124.523 69.0638 123.992C69.246 123.461 69.5065 123 69.845 122.609C70.1888 122.219 70.6054 121.919 71.095 121.711C71.5846 121.497 72.1367 121.391 72.7513 121.391C73.3502 121.391 73.8815 121.49 74.345 121.688C74.8085 121.885 75.1966 122.167 75.5091 122.531C75.8268 122.896 76.0664 123.333 76.2278 123.844C76.3893 124.349 76.47 124.911 76.47 125.531V126.469H69.7513V124.969H74.2591V124.797C74.2591 124.484 74.2018 124.206 74.0872 123.961C73.9778 123.711 73.8111 123.513 73.5872 123.367C73.3632 123.221 73.0768 123.148 72.7278 123.148C72.4309 123.148 72.1757 123.214 71.9622 123.344C71.7486 123.474 71.5742 123.656 71.4388 123.891C71.3085 124.125 71.2096 124.401 71.1419 124.719C71.0794 125.031 71.0481 125.375 71.0481 125.75V126.062C71.0481 126.401 71.095 126.714 71.1888 127C71.2877 127.286 71.4257 127.534 71.6028 127.742C71.7851 127.951 72.0039 128.112 72.2591 128.227C72.5195 128.341 72.8138 128.398 73.1419 128.398C73.5481 128.398 73.9257 128.32 74.2747 128.164C74.6289 128.003 74.9335 127.76 75.1888 127.438L76.2825 128.625C76.1054 128.88 75.8632 129.125 75.5559 129.359C75.2539 129.594 74.8893 129.786 74.4622 129.938C74.0351 130.083 73.5481 130.156 73.0013 130.156ZM79.6813 123.391V130H77.4313V121.547H79.5484L79.6813 123.391ZM82.2281 121.492L82.1891 123.578C82.0797 123.562 81.9469 123.549 81.7906 123.539C81.6396 123.523 81.5016 123.516 81.3766 123.516C81.0589 123.516 80.7828 123.557 80.5484 123.641C80.3193 123.719 80.1266 123.836 79.9703 123.992C79.8193 124.148 79.7047 124.339 79.6266 124.562C79.5536 124.786 79.512 125.042 79.5016 125.328L79.0484 125.188C79.0484 124.641 79.1031 124.138 79.2125 123.68C79.3219 123.216 79.4807 122.812 79.6891 122.469C79.9026 122.125 80.163 121.859 80.4703 121.672C80.7776 121.484 81.1292 121.391 81.525 121.391C81.65 121.391 81.7776 121.401 81.9078 121.422C82.038 121.438 82.1448 121.461 82.2281 121.492ZM88.8459 123.336H90.0491C90.4345 123.336 90.7522 123.271 91.0022 123.141C91.2522 123.005 91.4371 122.818 91.5569 122.578C91.6819 122.333 91.7444 122.049 91.7444 121.727C91.7444 121.435 91.6871 121.177 91.5725 120.953C91.4631 120.724 91.2939 120.547 91.0647 120.422C90.8355 120.292 90.5465 120.227 90.1975 120.227C89.9215 120.227 89.6662 120.281 89.4319 120.391C89.1975 120.5 89.01 120.654 88.8694 120.852C88.7287 121.049 88.6584 121.289 88.6584 121.57H86.4006C86.4006 120.945 86.5673 120.401 86.9006 119.938C87.2392 119.474 87.6923 119.112 88.26 118.852C88.8277 118.591 89.4527 118.461 90.135 118.461C90.9058 118.461 91.5803 118.586 92.1584 118.836C92.7366 119.081 93.1871 119.443 93.51 119.922C93.8329 120.401 93.9944 120.995 93.9944 121.703C93.9944 122.062 93.911 122.411 93.7444 122.75C93.5777 123.083 93.3381 123.385 93.0256 123.656C92.7183 123.922 92.3433 124.135 91.9006 124.297C91.4579 124.453 90.9605 124.531 90.4084 124.531H88.8459V123.336ZM88.8459 125.047V123.883H90.4084C91.0282 123.883 91.5725 123.953 92.0412 124.094C92.51 124.234 92.9032 124.438 93.2209 124.703C93.5386 124.964 93.7782 125.273 93.9397 125.633C94.1011 125.987 94.1819 126.38 94.1819 126.812C94.1819 127.344 94.0803 127.818 93.8772 128.234C93.6741 128.646 93.3876 128.995 93.0178 129.281C92.6532 129.568 92.2261 129.786 91.7366 129.938C91.247 130.083 90.7131 130.156 90.135 130.156C89.6558 130.156 89.1845 130.091 88.7209 129.961C88.2626 129.826 87.8459 129.625 87.4709 129.359C87.1011 129.089 86.8043 128.75 86.5803 128.344C86.3616 127.932 86.2522 127.445 86.2522 126.883H88.51C88.51 127.174 88.5829 127.435 88.7287 127.664C88.8746 127.893 89.0751 128.073 89.3303 128.203C89.5907 128.333 89.8798 128.398 90.1975 128.398C90.5569 128.398 90.8642 128.333 91.1194 128.203C91.3798 128.068 91.5777 127.88 91.7131 127.641C91.8537 127.396 91.9241 127.112 91.9241 126.789C91.9241 126.372 91.8485 126.039 91.6975 125.789C91.5465 125.534 91.3303 125.346 91.0491 125.227C90.7678 125.107 90.4345 125.047 90.0491 125.047H88.8459ZM103.019 124.312V124.016C103.019 123.495 103.185 123.07 103.519 122.742C103.852 122.409 104.3 122.242 104.863 122.242C105.446 122.242 105.902 122.409 106.23 122.742C106.563 123.07 106.73 123.495 106.73 124.016V124.312C106.73 124.828 106.566 125.25 106.238 125.578C105.909 125.906 105.456 126.07 104.878 126.07C104.31 126.07 103.857 125.906 103.519 125.578C103.185 125.25 103.019 124.828 103.019 124.312ZM123.277 128.242V130H115.496V128.5L119.176 124.555C119.546 124.143 119.837 123.781 120.051 123.469C120.264 123.151 120.418 122.867 120.512 122.617C120.611 122.362 120.66 122.12 120.66 121.891C120.66 121.547 120.603 121.253 120.488 121.008C120.374 120.758 120.205 120.565 119.981 120.43C119.762 120.294 119.491 120.227 119.168 120.227C118.824 120.227 118.527 120.31 118.277 120.477C118.033 120.643 117.845 120.875 117.715 121.172C117.59 121.469 117.527 121.805 117.527 122.18H115.27C115.27 121.503 115.431 120.883 115.754 120.32C116.077 119.753 116.533 119.302 117.121 118.969C117.71 118.63 118.408 118.461 119.215 118.461C120.012 118.461 120.684 118.591 121.231 118.852C121.783 119.107 122.199 119.477 122.481 119.961C122.767 120.44 122.91 121.013 122.91 121.68C122.91 122.055 122.85 122.422 122.731 122.781C122.611 123.135 122.439 123.49 122.215 123.844C121.996 124.193 121.731 124.547 121.418 124.906C121.106 125.266 120.759 125.638 120.379 126.023L118.402 128.242H123.277ZM132.332 125.75V127.516H124.137L124.028 126.148L128.77 118.625H130.559L128.622 121.867L126.262 125.75H132.332ZM131.043 118.625V130H128.793V118.625H131.043ZM135.575 123.172V133.25H133.325V121.547H135.411L135.575 123.172ZM140.927 125.68V125.844C140.927 126.458 140.854 127.029 140.708 127.555C140.567 128.081 140.359 128.539 140.083 128.93C139.807 129.315 139.463 129.617 139.052 129.836C138.645 130.049 138.177 130.156 137.645 130.156C137.13 130.156 136.682 130.052 136.302 129.844C135.921 129.635 135.601 129.344 135.341 128.969C135.085 128.589 134.88 128.148 134.723 127.648C134.567 127.148 134.447 126.612 134.364 126.039V125.609C134.447 124.995 134.567 124.432 134.723 123.922C134.88 123.406 135.085 122.961 135.341 122.586C135.601 122.206 135.919 121.911 136.294 121.703C136.674 121.495 137.119 121.391 137.63 121.391C138.166 121.391 138.637 121.492 139.044 121.695C139.455 121.898 139.799 122.19 140.075 122.57C140.356 122.951 140.567 123.404 140.708 123.93C140.854 124.456 140.927 125.039 140.927 125.68ZM138.669 125.844V125.68C138.669 125.32 138.637 124.99 138.575 124.688C138.518 124.38 138.424 124.112 138.294 123.883C138.169 123.654 138.002 123.477 137.794 123.352C137.591 123.221 137.343 123.156 137.052 123.156C136.744 123.156 136.481 123.206 136.262 123.305C136.049 123.404 135.874 123.547 135.739 123.734C135.604 123.922 135.502 124.146 135.434 124.406C135.367 124.667 135.325 124.961 135.309 125.289V126.375C135.335 126.76 135.408 127.107 135.528 127.414C135.648 127.716 135.833 127.956 136.083 128.133C136.333 128.31 136.661 128.398 137.067 128.398C137.364 128.398 137.614 128.333 137.817 128.203C138.02 128.068 138.184 127.883 138.309 127.648C138.44 127.414 138.531 127.143 138.583 126.836C138.64 126.529 138.669 126.198 138.669 125.844ZM143.692 121.547L145.091 124.117L146.528 121.547H148.927L146.536 125.68L149.036 130H146.63L145.107 127.281L143.583 130H141.177L143.677 125.68L141.286 121.547H143.692Z" fill="#222222"/>
</svg>
