<svg width="201" height="32" viewBox="0 0 201 32" fill="none" xmlns="http://www.w3.org/2000/svg">
<path d="M6.0245 18.6963C6.0245 22.8671 9.26038 26.3187 13.2872 26.6782V31.568H0.919009C0.271834 31.568 -0.159609 31.0646 0.0561178 30.4893L8.82892 4.3866H15.7321C16.1636 4.3866 16.6669 4.4586 17.0265 4.74619C17.3141 4.96192 17.6017 5.53724 17.6737 5.82484C17.6737 5.75297 18.8961 9.42024 20.3343 13.6628C18.8961 11.7933 16.595 10.6426 14.0783 10.6426C9.61992 10.6426 6.0245 14.238 6.0245 18.6963ZM30.4014 28.9073L29.898 30.4893C29.7543 31.0646 29.0352 31.568 28.388 31.568H14.8692V26.6782C18.8961 26.3187 22.06 23.0109 22.132 18.9121C23.4982 22.9389 24.6487 26.4625 24.6487 26.4625C24.7926 26.7501 25.2239 27.7568 25.8711 28.1883C26.734 28.9073 27.7408 28.9792 28.1723 28.9073H30.4014Z" fill="#C0C0C0"/>
<path d="M14.9408 18.697C14.9408 20.7823 16.5946 22.4363 18.68 22.4363V23.9462C17.2418 23.9462 15.8756 23.3711 14.9408 22.3643V23.8744H13.2149V22.3643C12.2802 23.2991 10.9139 23.9462 9.47571 23.9462V22.4363C11.5611 22.4363 13.2149 20.7823 13.2149 18.697C13.2149 16.6117 11.5611 14.9577 9.47571 14.9577V13.4476C10.9139 13.4476 12.2802 14.023 13.2149 15.0296V13.5196H14.9408V15.0296C15.8756 14.023 17.2418 13.4476 18.68 13.4476V14.9577C16.5946 14.9577 14.9408 16.6117 14.9408 18.697Z" fill="#C0C0C0"/>
<path d="M21.7002 12.6559C20.334 8.62908 19.1835 5.32128 19.1835 5.32128C19.1116 4.96182 18.6802 4.0269 18.033 3.52358C17.1701 2.80453 16.1634 2.80453 15.7319 2.80453H13.4308L13.9342 1.29446C14.078 0.647285 14.7972 0.143921 15.4442 0.143921H28.963V5.03368C25.008 5.39328 21.8441 8.62908 21.7002 12.6559ZM43.7761 1.29446L35.0033 27.3253H28.1001C27.7405 27.3971 27.2372 27.2533 26.8057 26.9657C26.59 26.75 26.2306 26.1748 26.1586 25.959C26.1586 25.959 25.008 22.3636 23.5699 18.1929C25.008 19.9906 27.2372 21.0693 29.754 21.0693C34.2123 21.0693 37.8077 17.4739 37.8077 13.0155C37.8077 8.84482 34.5719 5.39328 30.4731 5.03368V0.143921H42.9132C43.5604 0.143921 43.9918 0.647285 43.7761 1.29446Z" fill="#C0C0C0"/>
<path d="M32.5582 9.49186V12.2962H31.1919V9.49186C31.1919 8.70081 30.5447 8.12562 29.7538 8.12562C28.9628 8.12562 28.3156 8.70081 28.3156 9.49186V9.85132H26.9493V9.49186C26.9493 7.98175 28.1717 6.68738 29.7538 6.68738C31.2638 6.68738 32.5582 7.98175 32.5582 9.49186Z" fill="#C0C0C0"/>
<path d="M32.8464 10.1392H33.2059C34.5003 10.1392 35.6508 11.0739 35.9384 12.2965H34.4284C34.2127 11.865 33.7092 11.5773 33.2059 11.5773H32.8464V10.1392Z" fill="#C0C0C0"/>
<path d="M31.1921 14.0939V13.6625H32.5584V14.0939H31.1921Z" fill="#C0C0C0"/>
<path d="M32.5582 16.1076V16.4672C32.5582 18.0491 31.2638 19.2715 29.7538 19.2715C28.1717 19.2715 26.9493 18.0491 26.9493 16.4672V11.865H28.3156V16.4672C28.3156 17.2581 28.9628 17.9053 29.7538 17.9053C30.5447 17.9053 31.1919 17.2581 31.1919 16.4672V16.1076H32.5582Z" fill="#C0C0C0"/>
<path d="M35.9383 13.6625C35.6507 14.8849 34.5002 15.8196 33.2058 15.8196H28.6036V14.3815H33.2058C33.781 14.3815 34.2125 14.0939 34.4282 13.6625H35.9383Z" fill="#C0C0C0"/>
<path d="M26.59 15.8199H26.2305C24.7204 15.8199 23.426 14.5256 23.426 13.0155C23.426 11.4335 24.7204 10.1392 26.2305 10.1392H30.8326V11.5773H26.2305C25.5115 11.5773 24.8643 12.2245 24.8643 13.0155C24.8643 13.8064 25.5115 14.3818 26.2305 14.3818H26.59V15.8199Z" fill="#C0C0C0"/>
<path d="M72.3948 25.672C72.6824 27.6854 75.1993 29.1955 77.1407 29.1955C78.1475 29.1955 80.0891 29.1955 80.0891 27.6854C80.0891 24.8091 69.3027 26.5349 69.3027 20.207C69.3027 16.0363 73.6173 14.7419 77.0689 14.7419C78.9384 14.7419 80.88 15.2454 82.462 16.1802L82.8934 15.1015H85.2664V20.3508H82.6058C82.2462 19.3441 81.671 18.6969 80.88 18.1936C80.0891 17.6903 79.1542 17.4746 78.1475 17.4746C77.2846 17.4746 75.415 17.6903 75.415 18.8408C75.415 21.8609 86.2012 19.5599 86.2012 26.3192C86.2012 30.5618 82.3182 32 78.7947 32C76.6374 32 74.4801 31.7123 72.6824 30.4181L72.1072 31.6404H69.5185V25.672H72.3948Z" fill="#C0C0C0"/>
<path d="M89.5807 25.672C89.8683 27.6854 92.3851 29.1955 94.3266 29.1955C95.3333 29.1955 97.2748 29.1955 97.2748 27.6854C97.2748 24.8091 86.4886 26.5349 86.4886 20.207C86.4886 16.0363 90.8031 14.7419 94.2548 14.7419C96.1243 14.7419 98.0659 15.2454 99.6479 16.1802L100.079 15.1015H102.452V20.3508H99.8636C99.504 19.3441 98.8568 18.6969 98.0659 18.1936C97.2748 17.6903 96.3401 17.4746 95.3333 17.4746C94.5424 17.4746 92.6727 17.6903 92.6727 18.8408C92.6727 21.8609 103.387 19.5599 103.387 26.3192C103.387 30.5618 99.5759 32 95.9805 32C93.8233 32 91.666 31.7123 89.8683 30.4181L89.365 31.6404H86.7762V25.672H89.5807Z" fill="#C0C0C0"/>
<path d="M112.16 27.1821C112.16 28.1887 112.448 28.6922 113.454 28.6922H114.893V31.4965H103.675V28.6922H105.185C106.192 28.6922 106.407 28.1887 106.407 27.1821V19.4878C106.407 18.553 106.192 17.9779 105.185 17.9779H103.603V15.2452H112.16V27.1821ZM112.16 10.7869C112.16 12.4409 110.866 13.8071 109.14 13.8071C107.486 13.8071 106.12 12.4409 106.12 10.7869C106.12 9.06122 107.486 7.76685 109.14 7.76685C110.866 7.76685 112.16 9.06122 112.16 10.7869Z" fill="#C0C0C0"/>
<path d="M122.874 15.2454V17.9779H122.946C124.24 15.8206 126.038 14.7419 128.627 14.7419C130.856 14.7419 132.582 15.7487 133.372 17.834C134.595 15.8926 136.536 14.7419 138.837 14.7419C142.433 14.7419 144.087 16.5396 144.087 19.8474V27.1821C144.087 28.1889 144.375 28.6922 145.381 28.6922H146.532V31.4966H136.608V28.6922H137.112C138.119 28.6922 138.335 28.1889 138.335 27.1821V20.7822C138.335 19.6317 137.759 17.834 136.177 17.834C134.308 17.834 133.66 18.9127 133.66 20.4228V27.9012C133.66 28.5484 133.876 28.6922 134.955 28.6922H135.387V31.4966H126.182V28.6922H126.685C127.692 28.6922 127.908 28.2608 127.908 27.1821V20.7822C127.908 19.0565 127.692 17.834 125.75 17.834C123.881 17.834 123.234 19.3441 123.234 20.9261V27.9012C123.234 28.4046 123.449 28.6922 124.456 28.6922H125.031V31.4966H114.749V28.6922H116.187C117.193 28.6922 117.481 28.1889 117.481 27.1821V19.488C117.481 18.5531 117.193 17.9779 116.187 17.9779H114.82V15.2454H122.874Z" fill="#C0C0C0"/>
<path fill-rule="evenodd" clip-rule="evenodd" d="M164.221 23.371C164.221 28.9079 160.41 32 155.233 32C150.056 32 146.316 28.9079 146.316 23.371C146.316 17.834 150.056 14.7419 155.233 14.7419C160.41 14.7419 164.221 17.834 164.221 23.371ZM152.428 23.371C152.428 27.4697 153.148 29.1955 155.233 29.1955C157.319 29.1955 158.037 27.4697 158.037 23.371C158.037 19.2723 157.319 17.4746 155.233 17.4746C153.148 17.4746 152.428 19.2723 152.428 23.371Z" fill="#C0C0C0"/>
<path d="M181.121 25.8159C180.977 30.2742 177.813 32 173.929 32C168.752 32 165.301 29.1237 165.301 23.371C165.301 17.5464 169.472 14.7419 173.929 14.7419C177.669 14.7419 181.121 16.5396 181.121 20.3508C181.121 22.1486 179.97 23.7306 178.029 23.7306C176.374 23.7306 174.936 23.0114 174.936 21.2137C174.936 19.6317 176.086 18.6969 177.669 18.6969C177.021 17.906 175.942 17.4746 174.865 17.4746C173.066 17.4746 171.485 19.2723 171.485 23.2271C171.485 27.254 172.492 28.9798 174.865 28.9798C176.662 28.9798 177.525 27.4697 177.669 25.8159H181.121Z" fill="#C0C0C0"/>
<path fill-rule="evenodd" clip-rule="evenodd" d="M200.607 23.371C200.607 28.9079 196.868 32 191.691 32C186.514 32 182.702 28.9079 182.702 23.371C182.702 17.834 186.514 14.7419 191.691 14.7419C196.868 14.7419 200.607 17.834 200.607 23.371ZM188.886 23.371C188.886 27.4697 189.606 29.1955 191.691 29.1955C193.776 29.1955 194.495 27.4697 194.495 23.371C194.495 19.2723 193.776 17.4746 191.691 17.4746C189.606 17.4746 188.886 19.2723 188.886 23.371Z" fill="#C0C0C0"/>
<path fill-rule="evenodd" clip-rule="evenodd" d="M68.2965 31.6397H61.3215L58.1575 21.5726H48.5218L45.1422 31.6397H39.8209L50.3914 0.143921H59.8834L68.2965 25.4556V31.6397ZM56.7194 17.4739L53.3397 7.26284H53.1959L49.8881 17.4739H56.7194Z" fill="#C0C0C0"/>
<path d="M73.1145 1.29435C72.6112 0.93481 72.1079 0.790986 71.245 0.790986C69.7349 0.790986 68.7281 1.94152 68.7281 3.37967C68.7281 4.96164 69.8787 6.04029 71.245 6.04029C71.8922 6.04029 72.0359 5.96842 72.3236 5.89643V3.883H70.8854V3.09208H73.2584V6.54361C72.8988 6.68748 72.2516 6.83134 71.245 6.83134C69.0877 6.83134 67.7214 5.46497 67.7214 3.37967C67.7214 1.36625 69.2315 0 71.245 0C72.1798 0 72.6112 0.14381 73.1864 0.287634L73.1145 1.29435Z" fill="#C0C0C0"/>
<path d="M74.8405 1.8694H75.7034V2.66039C75.9191 2.15704 76.4226 1.79749 76.9977 1.79749C77.2135 1.79749 77.3573 1.79749 77.5731 1.79749V2.66039C77.3573 2.58848 77.2135 2.51658 77.0696 2.51658C76.2787 2.51658 75.7034 3.30754 75.7034 4.53005V6.75921H74.8405V1.8694Z" fill="#C0C0C0"/>
<path d="M82.8223 6.75947H81.9594V5.96856C81.6716 6.54374 81.0246 6.83147 80.3774 6.83147C79.083 6.83147 78.5077 6.04042 78.5077 4.74604V1.86975H79.4426V4.38658C79.4426 5.5371 79.6582 6.04042 80.4493 6.11229C81.456 6.11229 81.9594 5.32137 81.9594 4.09886V1.86975H82.8223V6.75947Z" fill="#C0C0C0"/>
<path fill-rule="evenodd" clip-rule="evenodd" d="M84.3318 1.8694H85.1947V2.58848C85.4823 2.22894 85.9856 1.79749 86.8485 1.79749C88.2868 1.79749 88.934 2.94808 88.934 4.24232C88.934 5.5367 88.3587 6.83107 86.8485 6.83107C86.0576 6.83107 85.5542 6.54348 85.2666 6.04002V8.70064H84.3318V1.8694ZM86.7048 2.51658C85.698 2.51658 85.2666 3.4514 85.2666 4.31432C85.2666 5.10524 85.698 6.11202 86.7048 6.11202C87.6396 6.11202 88.0711 5.03337 87.9991 4.31432C88.0711 3.4514 87.6396 2.51658 86.7048 2.51658Z" fill="#C0C0C0"/>
<path fill-rule="evenodd" clip-rule="evenodd" d="M90.1565 1.8694H91.0193V2.58848C91.307 2.22894 91.8103 1.79749 92.6733 1.79749C94.1114 1.79749 94.7585 2.94808 94.7585 4.24232C94.7585 5.5367 94.1834 6.83107 92.6733 6.83107C91.8103 6.83107 91.3789 6.54348 91.0913 6.04002V8.70064H90.1565V1.8694ZM92.5294 2.51658C91.5227 2.51658 91.0913 3.4514 91.0913 4.31432C91.0913 5.10524 91.4507 6.11202 92.4575 6.11202C93.4642 6.11202 93.8238 5.03337 93.8238 4.31432C93.8238 3.4514 93.4642 2.51658 92.5294 2.51658Z" fill="#C0C0C0"/>
<path fill-rule="evenodd" clip-rule="evenodd" d="M98.1387 1.79749C99.5768 1.79749 100.584 2.80421 100.584 4.31432C100.584 5.68056 99.5768 6.83107 98.1387 6.83107C96.6286 6.83107 95.6219 5.68056 95.6219 4.31432C95.6219 2.80421 96.6286 1.79749 98.1387 1.79749ZM98.1387 6.11202C99.1454 6.11202 99.6488 5.17724 99.6488 4.31432C99.6488 3.37954 99.0735 2.51658 98.1387 2.51658C97.1319 2.51658 96.6286 3.37954 96.6286 4.31432C96.6286 5.17724 97.0601 6.11202 98.1387 6.11202Z" fill="#C0C0C0"/>
</svg>
