<svg width="74" height="32" viewBox="0 0 74 32" fill="none" xmlns="http://www.w3.org/2000/svg">
<g clip-path="url(#clip0_27_988)">
<path d="M27.2558 30.3487C27.1245 30.5018 26.9613 30.6244 26.7777 30.7079C26.594 30.7913 26.3944 30.8337 26.1926 30.8319C25.806 30.8319 25.5161 30.6386 25.5161 30.252C25.5161 29.5755 26.096 29.2855 27.0625 29.2855H27.2558L27.2558 30.3487ZM28.8022 30.1554V28.1257C28.8022 26.6759 28.029 26.096 26.5792 26.096C25.7403 26.0807 24.9216 26.3536 24.2596 26.8692L24.9362 27.8357C25.3365 27.4891 25.8578 27.3154 26.386 27.3524C27.0625 27.3524 27.2558 27.6424 27.2558 28.1257V28.4156H27.0625C25.6127 28.4156 24.0663 28.8989 24.0663 30.4453C24.0697 30.6642 24.1185 30.8799 24.2097 31.0789C24.3009 31.2779 24.4324 31.4557 24.596 31.6012C24.7596 31.7466 24.9517 31.8564 25.16 31.9236C25.3683 31.9909 25.5883 32.014 25.806 31.9917C26.1072 31.9978 26.4052 31.9305 26.6746 31.7959C26.944 31.6612 27.1766 31.463 27.3524 31.2185C27.3524 31.4118 27.3524 31.7018 27.4491 31.7984H28.9955C28.8031 31.2735 28.7369 30.7107 28.8022 30.1554ZM21.7466 30.8319C20.7801 30.8319 20.2969 30.0587 20.2969 28.9956C20.2969 27.9324 20.7801 27.2558 21.65 27.2558C22.0527 27.2697 22.4479 27.3685 22.8098 27.5458L23.2931 26.4826C22.7808 26.1374 22.1703 25.9678 21.5533 25.9993C21.152 25.9685 20.7487 26.0248 20.3712 26.1645C19.9937 26.3042 19.6509 26.5238 19.3662 26.8085C19.0816 27.0931 18.8619 27.4359 18.7223 27.8134C18.5826 28.191 18.5263 28.5942 18.5571 28.9956C18.5255 29.3843 18.5788 29.7754 18.7134 30.1415C18.8479 30.5076 19.0605 30.8401 19.3363 31.1159C19.6121 31.3918 19.9446 31.6043 20.3107 31.7388C20.6769 31.8734 21.0679 31.9267 21.4567 31.8951C22.1051 31.9388 22.7501 31.769 23.2931 31.4118L22.8098 30.3487C22.687 30.5115 22.5254 30.6411 22.3397 30.7255C22.154 30.8099 21.9501 30.8465 21.7466 30.8319ZM15.8509 26.096C15.5016 26.1079 15.1585 26.1912 14.8426 26.3408C14.5268 26.4904 14.245 26.7031 14.0145 26.9659V26.2893H12.4681V31.8951H14.0145V28.029C14.1466 27.8383 14.3189 27.6788 14.5193 27.5619C14.7197 27.445 14.9433 27.3735 15.1743 27.3525C15.7543 27.3525 15.9475 27.6424 15.9475 28.2223V31.7985H17.494V27.8357C17.5906 26.8692 17.1074 26.096 15.8509 26.096ZM9.56853 30.3487C9.43722 30.5018 9.27403 30.6244 9.09039 30.7079C8.90674 30.7913 8.70708 30.8337 8.50536 30.8319C8.11876 30.8319 7.8288 30.6386 7.8288 30.252C7.8288 29.5755 8.40871 29.2855 9.37521 29.2855H9.56851L9.56853 30.3487ZM11.1149 28.1257C11.1149 26.6759 10.3417 26.096 8.89195 26.096C8.05305 26.0807 7.2343 26.3537 6.57234 26.8692L7.2489 27.8357C7.64918 27.4891 8.17051 27.3154 8.69868 27.3525C9.37524 27.3525 9.56853 27.6424 9.56853 28.1257V28.4157H9.37522C7.92545 28.4157 6.37901 28.8989 6.37901 30.4454C6.38236 30.6642 6.43119 30.88 6.52238 31.079C6.61358 31.278 6.74515 31.4558 6.90875 31.6012C7.07235 31.7466 7.26439 31.8564 7.4727 31.9237C7.681 31.9909 7.90101 32.0141 8.11875 31.9918C8.41987 31.9978 8.71794 31.9306 8.98732 31.7959C9.25671 31.6612 9.48932 31.4631 9.66516 31.2186C9.66516 31.4119 9.66516 31.7018 9.76181 31.7985H11.3082C11.1719 31.2617 11.1069 30.7092 11.1149 30.1554L11.1149 28.1257ZM2.41626 30.6386H1.54644V28.5123H2.51295C3.47947 28.5123 3.86607 28.8989 3.86607 29.5755C3.86607 30.3487 3.38278 30.6386 2.41626 30.6386ZM1.54644 25.4194H2.31964C3.09284 25.4194 3.57612 25.7094 3.57612 26.386C3.57612 27.0625 3.18951 27.3525 2.31964 27.3525H1.54644V25.4194ZM3.86605 27.8357C4.2638 27.7583 4.62003 27.5394 4.86881 27.2196C5.11758 26.8997 5.24205 26.5006 5.21917 26.096C5.21917 24.6462 3.96269 24.163 2.60957 24.163H0V31.7984H2.51295C4.25269 31.7984 5.50916 31.2185 5.50916 29.6721C5.50276 29.2193 5.33295 28.7841 5.03101 28.4467C4.72907 28.1092 4.31533 27.8922 3.86605 27.8357Z" fill="#C0C0C0"/>
<path d="M58.1844 8.21542H54.8016V3.57614H58.2811C59.8275 3.57614 60.3107 4.15605 60.3107 5.60583C60.3107 7.15224 59.7308 8.21542 58.1844 8.21542ZM64.66 5.60582C64.66 1.83641 62.6304 1.5812e-05 58.4743 1.5812e-05H50.6455V18.2672H54.8016V11.5982H57.8944L61.2772 18.2672H66.1098L61.6638 10.825C62.5787 10.2961 63.3377 9.53485 63.8638 8.61835C64.3899 7.70184 64.6646 6.6626 64.66 5.60582ZM24.9362 0H17.494V18.2672H21.7467V3.57614H25.0328C26.5792 3.57614 27.1592 4.15605 27.1592 5.89575C27.1592 7.82879 25.806 8.9886 23.4864 8.9886H22.6165L23.2931 12.2748H24.0663C28.7056 12.2748 31.4118 9.66517 31.4118 6.08905C31.6051 2.12635 29.9621 0 24.9362 0ZM68.7194 11.0183C67.9462 11.7915 67.9462 14.2078 68.7194 14.981C69.4926 15.7542 71.8123 15.7542 72.5855 14.981C73.3587 14.2078 73.3587 11.7915 72.5855 11.0183C71.9089 10.2451 69.4926 10.2451 68.7194 11.0183ZM72.6821 7.53884C73.4553 6.76563 73.4553 4.34933 72.6821 3.57611C71.9089 2.8029 69.5893 2.80291 68.8161 3.57611C68.0429 4.34931 68.0429 6.76562 68.8161 7.53884C69.4926 8.31204 71.9089 8.31204 72.6821 7.53884ZM7.8288 14.5944H4.15603V10.4384H8.0221C9.47188 10.4384 10.1484 11.0183 10.1484 12.3714C10.1484 14.0145 9.27856 14.5944 7.8288 14.5944ZM4.15603 3.57614H7.8288C9.27858 3.57614 9.66518 3.96274 9.66518 5.41252C9.66518 6.66899 8.98862 7.34555 7.8288 7.34555H4.15603V3.57614ZM11.5016 8.60202C12.8547 8.02211 13.8212 6.37903 13.8212 4.6393C13.8212 1.93304 12.2748 5.27065e-06 8.40868 5.27065e-06H0V18.2672H8.602C12.3714 18.2672 14.5944 16.3341 14.5944 12.9513C14.5944 10.6317 13.5312 9.08531 11.5016 8.60202ZM38.3708 10.6317H45.4264V7.15224H38.3708V3.67277H46.7795V0H34.2148V18.2672H47.1661V14.4978H38.3708L38.3708 10.6317Z" fill="#C0C0C0"/>
</g>
<defs>
<clipPath id="clip0_27_988">
<rect width="73.262" height="32" fill="white"/>
</clipPath>
</defs>
</svg>
