<svg width="234" height="32" viewBox="0 0 234 32" fill="none" xmlns="http://www.w3.org/2000/svg">
<g clip-path="url(#clip0_27_963)">
<path d="M90.8034 15.0974V2.46154C98.4615 2.46154 101.251 2.07864 102.564 11.7607H103.385V0.984619H82.5982V2.46154H86.2085V30.2496H82.2153V31.7265H103.658V20.3487H102.564C101.525 28.9368 99.3914 30.2496 93.4837 30.2496H90.7487V16.7385H92.335C94.9606 16.7932 96.4923 18.3795 97.0393 23.1385H98.0239V9.18975C98.0239 9.24445 97.094 9.18975 97.094 9.18975C97.094 9.24445 96.9299 15.2068 92.2803 15.0974H90.8034Z" fill="#C0C0C0"/>
<path d="M82.3248 15.6444H70.5641V17.0119H74.5573V27.0222C73.9009 29.5384 70.2906 30.6324 69.1966 30.6324C61.7026 30.6324 62.2496 19.2546 62.2496 16.2461C62.2496 13.4564 61.9761 1.80508 69.1966 1.80508C74.2838 1.80508 76.9641 7.05636 78.0582 11.7606H78.8787C78.8787 9.7914 78.9334 0.546955 78.8787 0.601656C78.8787 0.546955 75.3778 3.2273 75.3778 3.1726C75.4325 3.1726 73.7915 0.711058 69.1966 0.711058C60.3351 0.711058 57.1077 9.8461 57.1624 16.2461C57.2171 22.0991 59.7881 32.0546 69.1966 32.0546C72.1505 32.0546 74.2291 30.4683 75.3778 28.7179C75.3778 28.6632 79.0975 31.7811 79.1522 31.7811V17.0119H82.3248V15.6444Z" fill="#C0C0C0"/>
<path d="M184.779 20.6222L189.046 7.3299L193.586 20.6222H184.779ZM168.205 15.3162H163.391V2.46153H169.518C173.128 3.00853 173.292 7.3299 173.292 8.75212C173.292 12.0342 171.925 15.3162 168.205 15.3162ZM219.405 20.3487C218.366 28.9367 216.232 30.2496 210.325 30.2496H209.997V2.46153H213.716V0.929901H201.409V2.40682H205.183V30.1949H202.229L191.289 0.0546875H189.703C189.757 0.0546875 180.622 27.4051 180.567 27.4598C180.567 27.4051 179.856 29.812 178.379 30.0855C177.012 30.1402 177.121 29.429 177.121 29.1555V23.9043C177.121 22.5367 177.012 19.3641 175.644 17.9419C174.113 16.3008 171.432 16.1914 171.487 16.1367C171.487 16.1367 178.215 14.7145 178.215 8.04101C178.215 3.39144 175.097 1.094 169.901 0.8752H155.132V2.35212H158.906V30.1402H155.132V31.7265H167.275V30.2496H163.501V16.9026H168.533C177.285 17.6684 167.002 31.7812 178.489 31.7265H185.709V30.2496C185.326 30.2496 182.646 30.3043 182.482 28.3897C182.373 27.0222 184.232 22.0444 184.232 22.0444H194.079C194.079 22.0444 197.142 30.2496 197.197 30.2496H193.641V31.7265H220.444V20.3487H219.405Z" fill="#C0C0C0"/>
<path d="M140.417 2.46154C148.075 2.46154 150.865 2.07864 152.178 11.8154H152.998V0.984619H122.694V2.46154H123.46C124.554 2.46154 127.07 2.57094 127.234 4.86838V22.5915L113.067 0.984619H105.354V2.46154H106.667C108.198 2.46154 110.332 2.51624 110.441 4.86838V27.5692C110.441 29.812 107.214 30.6325 105.901 30.6325V31.7265H116.349V30.6325C115.036 30.6325 111.809 29.812 111.809 27.5692L111.863 7.54872C117.333 15.8633 127.945 31.7265 128.055 31.7265H128.602V4.81368C128.766 2.51624 131.282 2.40684 132.376 2.40684H135.877V30.1949H131.829V31.7265H153.272V20.3487H152.178C151.139 28.9368 149.005 30.2496 143.097 30.2496H140.362V16.7385H141.949C144.574 16.7932 146.106 18.3795 146.653 23.1385H147.638V9.18975C147.638 9.24445 146.708 9.18975 146.708 9.18975C146.708 9.24445 146.489 15.2068 141.894 15.0974H140.417V2.46154Z" fill="#C0C0C0"/>
<path d="M233.956 2.46156V0.929932H221.867V2.46156H225.641V30.1949H221.867V31.7265H233.956V30.1949H230.127V2.46156H233.956Z" fill="#C0C0C0"/>
<path d="M6.67346 20.2393L10.0649 21.1692V20.1299L6.67346 19.2V20.2393Z" fill="#C0C0C0"/>
<path d="M2.1333 20.1299V21.1692L5.52475 20.2393V19.2L2.1333 20.1299Z" fill="#C0C0C0"/>
<path d="M6.67346 22.5914L10.0649 23.4667V22.482L6.67346 21.5521V22.5914Z" fill="#C0C0C0"/>
<path d="M2.1333 22.482V23.4667L5.52475 22.5914V21.5521L2.1333 22.482Z" fill="#C0C0C0"/>
<path d="M6.67346 24.8889L10.0649 25.8188V24.7795L6.67346 23.8496V24.8889Z" fill="#C0C0C0"/>
<path d="M2.1333 24.7795V25.8188L5.52475 24.8889V23.8496L2.1333 24.7795Z" fill="#C0C0C0"/>
<path d="M39.6581 28.9915C39.1658 28.335 39.0017 27.5692 39.2205 27.0769C39.3299 26.8034 39.5487 26.5846 39.8769 26.5299L42.7214 25.8735L42.4479 23.2479V23.1932C42.3385 22.5915 42.065 21.8256 40.8615 21.7162C35.665 21.2786 34.5162 20.4581 33.2581 19.6376C33.2581 19.6376 33.2581 19.6376 33.2581 19.5829L33.2034 19.5282C31.8359 18.5983 30.4684 18.653 30.4684 18.653C28.9915 18.653 27.1863 19.2547 27.0222 19.3094C26.5846 19.4188 26.147 19.5829 25.7641 19.6923C24.1231 20.2393 22.7556 20.6769 20.4034 20.6222H20.0205L19.9111 21.0051C19.8017 21.3333 19.1453 24.0684 19.8017 25.7641C19.1453 26.2564 19.1453 26.8034 19.1453 26.8581C19.1453 27.4051 19.0359 27.5692 18.9812 27.6786C18.7077 28.0068 17.8325 28.0068 17.012 28.0068H16.7932L16.6291 28.2256C16.1368 28.9368 15.0974 29.1009 14.441 28.8821C14.1675 27.9521 14.1128 27.241 14.441 26.8034C14.7692 26.3111 15.4803 26.2564 15.7538 26.2564H15.8632C16.5197 26.2564 17.0667 25.7094 17.0667 24.9983V20.2393C17.2855 19.9111 17.4496 19.4735 17.6137 19.0359C18.7077 18.8718 19.5829 17.8872 19.5829 16.7385C19.5829 16.2462 19.4188 15.8085 19.2 15.4256C20.2393 14.9333 21.1692 13.8393 21.1692 12.4718C21.1692 11.1043 20.4581 10.4479 19.8564 10.065C20.0205 9.51795 20.3487 8.58803 20.5675 7.60342L21.4427 4.26666C21.8803 2.89914 22.9197 2.07863 24.1778 2.07863H40.2051C39.494 3.17265 38.5094 3.66496 37.1419 3.66496H27.9521H27.4598C27.4051 3.66496 27.241 4.10256 27.241 4.15726C27.241 4.21196 27.0769 4.64957 27.0222 4.64957H27.9521H35.7197C35.0086 5.85299 34.0239 6.4 32.547 6.4H26.8034H26.2564C26.2017 6.4 26.0376 6.83761 26.0376 6.89231C26.0376 6.94701 25.8735 7.38461 25.8188 7.38461H26.8034H31.453C30.7419 8.53333 29.7573 9.08034 28.2803 9.08034H25.3265H24.8342C24.7795 9.08034 24.6154 9.51795 24.6154 9.57265C24.6154 9.62735 24.4513 10.065 24.3966 10.065H25.3265H27.9521C27.9521 10.065 28.1162 10.2291 28.1162 10.7761C28.1162 11.5419 27.5145 12.1436 26.7487 12.1436C26.4205 12.1436 26.147 12.0342 25.4906 11.7607H25.4359L24.7248 12.4171L25.1624 12.6359C25.8735 12.9641 26.2564 13.1282 26.8034 13.1282C27.4598 13.1282 28.0615 12.8547 28.4444 12.4171C29.0462 12.4718 30.0308 12.5265 30.9607 12.6359C32.1094 12.7453 33.3128 12.8547 33.8598 12.8547C34.1333 12.8547 34.4068 12.9094 34.6256 12.9094C35.0632 12.9094 35.5009 12.9641 35.9385 12.9641C38.1265 16.6838 39.2205 17.1214 43.4872 17.6684C43.7607 18.2154 44.0342 18.7624 44.253 19.3094V26.5846V26.6393C44.253 27.0222 44.253 27.1316 44.1983 27.1863C44.0342 27.4051 43.5419 27.6239 43.159 27.788L39.6581 28.9915ZM38.5094 29.0462H31.3983L34.4068 25.7094C35.0085 25.053 35.1727 24.3419 34.9538 23.5761C34.7897 23.0838 34.3521 22.1538 33.9145 21.2786C35.118 21.8803 36.8684 22.4273 40.6974 22.7556C41.1897 22.8103 41.2991 22.9744 41.4085 23.412L41.5727 25.1077L39.6034 25.5453C39.0017 25.6547 38.5094 26.0923 38.2359 26.694C38.0171 27.4051 38.1265 28.2256 38.5094 29.0462ZM25.7641 29.0462C25.5453 28.2256 25.6547 27.6239 26.0376 27.1863C26.3658 26.7487 26.9128 26.6393 27.2957 26.694L29.3197 27.0769H29.3744H29.6479L31.0701 25.4906C31.5077 24.9983 31.9453 24.1778 31.2889 23.1932L29.3197 19.8017C29.6479 19.747 30.0308 19.6923 30.359 19.6923C30.359 19.6923 31.3436 19.6923 32.4376 20.3487C32.6017 20.6769 32.7658 21.0598 32.9846 21.5521C33.3675 22.4274 33.9145 23.4667 34.0239 23.9043C34.1333 24.2872 34.0239 24.6701 33.6957 25.053L30.0855 29.0462H25.7641ZM25.2718 26.5299C24.8889 26.9675 24.506 27.788 24.7795 29.0462H17.8325L17.8872 28.9915C18.7077 28.9368 19.3094 28.7726 19.6923 28.3897C20.1299 27.9521 20.1299 27.2957 20.1299 26.8581C20.1299 26.8034 20.1846 26.6393 20.5675 26.4752L21.0598 26.2564L20.7316 25.7094C20.1299 24.7795 20.4034 22.7556 20.6222 21.6615C22.9197 21.6615 24.3966 21.1692 25.9282 20.6769C26.3111 20.5675 26.7487 20.4034 27.1863 20.294C27.1863 20.294 27.6786 20.1299 28.2803 19.9658L30.4684 23.6855C30.7419 24.0684 30.6872 24.2872 30.3043 24.7795L29.2103 26.0376L27.4598 25.7094C26.6393 25.6 25.8188 25.8735 25.2718 26.5299ZM13.5658 26.2564C13.1282 26.9128 13.0735 27.8427 13.4017 29.0462H12.1436V19.9658C12.5812 19.9111 13.0735 19.747 13.5111 19.5282C13.5111 19.9658 13.4564 20.3487 13.347 20.7863C13.347 20.8957 13.2923 21.0051 13.2923 21.1145L13.1829 21.7162H13.7299C14.7145 21.7162 15.4256 21.5521 16.0274 21.2239V25.1077C16.0274 25.2171 15.9179 25.3265 15.8085 25.3265H15.6444C14.7692 25.2718 14.0034 25.6547 13.5658 26.2564ZM11.2137 28.1709L6.0718 26.8034L0.929915 28.1709V18.5983L6.0718 17.2308L11.2137 18.5983V28.1709ZM1.47692 29.0462L6.1265 27.788L10.7761 29.0462H1.47692ZM3.39145 15.0974C3.61026 14.7692 4.10256 14.441 4.75897 14.5504L5.14188 14.6051L5.30598 14.2222C5.36068 14.1128 5.41538 14.0034 5.47009 13.894C5.63419 13.7299 5.79829 13.6752 6.0718 13.6752C6.72821 13.6752 7.54872 14.1675 8.25983 14.9333C8.75214 15.4803 9.13504 16.1368 9.40855 16.7385L10.0103 15.8632C9.79145 15.4803 9.62735 15.2068 9.35385 14.8239L10.8308 12.4171C11.0496 12.4718 11.2684 12.5265 11.4325 12.5265C11.4872 12.5265 11.706 12.5265 11.8154 12.5265C13.6752 12.4718 15.5897 11.3778 15.6444 9.40855V9.35384C15.6444 8.80684 15.535 8.31453 15.4256 7.87692C15.3709 7.60342 15.3162 7.32991 15.3162 7.22051C15.3162 6.94701 15.6444 6.6735 16.0821 6.6735H16.6291L16.4103 4.97778C17.3402 4.26667 17.9419 3.06325 17.8325 1.96923C18.8718 2.73504 19.5829 4.15726 19.747 5.63419C19.8017 6.07179 19.6923 6.6735 19.5829 7.27521L19.5282 7.54872C19.3094 8.53333 18.9812 9.57265 18.7624 10.065L18.5983 10.4479L18.9812 10.6667C19.747 11.1043 20.1846 11.4325 20.1846 12.4718C20.1846 13.6205 19.2 14.5504 18.2154 14.7145L17.0667 14.9333L18.0513 15.5897C18.4342 15.8632 18.653 16.2462 18.653 16.6838C18.653 17.4496 18.0513 18.0513 17.2855 18.0513H16.9026L16.7932 18.3795C16.3556 19.8017 15.9179 20.4581 14.441 20.6222C14.4957 20.1846 14.5504 19.747 14.5504 19.2C14.5504 19.0906 14.5504 18.7077 14.5504 18.5983L14.4957 17.4496L13.6752 18.2701C13.347 18.5983 12.8 18.8718 12.1983 18.9812V17.8325L6.1265 16.1915L3.93846 16.7932C3.33675 16.2462 3.28205 15.3162 3.39145 15.0974ZM10.0103 11.0496C10.0103 10.9402 10.065 10.8308 10.2838 10.8855C10.3385 10.8855 10.3385 10.8855 10.3385 10.8855H10.3932C10.3932 10.8855 10.6667 10.8855 11.1043 10.8855L11.5419 10.8308C12.5812 10.7214 13.4564 10.0103 13.4564 9.08034C13.4564 8.75214 13.2923 8.31453 13.0188 8.04102C12.8 7.76752 12.4718 7.60342 12.1436 7.60342C11.706 7.60342 11.2684 7.93162 10.7761 8.25983C10.3932 8.53333 10.1197 8.69743 9.90086 8.69743C9.73675 8.69743 9.57265 8.58803 9.57265 8.47863V8.42393L10.1744 7.60342L9.68205 7.32991C9.57265 7.27521 9.35385 7.11111 9.35385 6.94701C9.35385 6.89231 9.35385 6.83761 9.46325 6.7282C9.73675 6.4 10.0103 6.01709 10.2838 5.52478C10.3932 5.41538 10.5026 5.36068 10.612 5.36068C10.8308 5.36068 11.0496 5.57949 11.0496 5.85299C11.0496 6.01709 11.2137 6.18119 11.4325 6.18119C11.6513 6.18119 11.7607 6.01709 11.8701 5.85299C11.8701 5.85299 12.4171 5.36068 12.1436 5.08718C11.9248 4.92308 10.7214 5.41538 10.9402 4.37607L11.0496 4.10256C11.2137 3.88376 11.8154 3.39145 13.1282 3.39145C13.347 3.39145 13.6205 3.39145 13.894 3.44615H14.0581L16.7932 1.69572C16.8479 1.80513 16.8479 1.85983 16.8479 1.85983C17.012 2.73504 16.465 3.77436 15.6444 4.26666L15.3709 4.43077L15.5897 5.68889C14.8786 5.90769 14.3863 6.4547 14.3863 7.11111C14.3863 7.32991 14.441 7.60342 14.4957 7.98632C14.5504 8.36923 14.6598 8.86154 14.6598 9.29914C14.6598 10.1197 13.7299 11.3231 11.8154 11.4872C11.1043 11.5419 10.3385 11.3778 10.1197 11.2137C10.065 11.2684 10.0103 11.159 10.0103 11.0496ZM12.253 2.29743C12.4171 2.07863 12.6906 1.80513 13.0188 1.58632C13.347 1.36752 13.6752 1.20342 14.0034 1.09401C14.6051 0.929912 15.2615 0.929912 15.9727 1.09401L13.894 2.40684C13.6752 2.40684 13.4017 2.35213 13.1829 2.35213C12.8 2.35213 12.4718 2.40684 12.1436 2.46154C12.1436 2.40684 12.1983 2.35213 12.253 2.29743ZM41.2991 1.96923H48.6291C47.918 3.06325 46.9333 3.55555 45.5658 3.55555H40.0957C40.5333 3.11795 40.9709 2.62564 41.2991 1.96923ZM40.9709 6.2906H35.5009C36.0479 5.85299 36.4855 5.25128 36.8137 4.54017H44.1436C43.4325 5.74359 42.4479 6.2906 40.9709 6.2906ZM36.759 9.02564H31.2889C31.7812 8.58803 32.2188 8.04102 32.547 7.32991H39.8769C39.2205 8.47863 38.1812 9.02564 36.759 9.02564ZM38.0171 13.0735C39.7128 13.347 41.0803 14.1675 42.1197 15.4256C42.3932 15.7538 42.612 16.082 42.8308 16.4103C39.7675 16.0273 38.7829 15.5897 37.1419 12.9094C37.4701 12.9641 37.7436 13.0188 38.0171 13.0735ZM49.3402 25.1624C49.4496 25.3265 49.559 25.4906 49.6137 25.6547C49.7231 25.8735 49.8325 26.0923 49.9966 26.3111C49.0667 26.3111 48.4103 25.8188 47.7539 24.7795C48.3556 24.6154 49.0667 24.7248 49.3402 25.1624ZM42.3385 29.0462L43.5419 28.5538C45.0735 27.8974 45.2923 27.5145 45.2376 26.4205V21.5521C46.4957 24.9436 47.5897 27.3504 49.9966 27.3504C50.3248 27.3504 50.653 27.2957 50.9812 27.241L51.8017 27.0769L51.2547 26.4205C50.8718 25.9829 50.653 25.6 50.4342 25.2171C50.3248 25.053 50.2701 24.8889 50.1607 24.6701C49.6137 23.7949 48.3556 23.4667 47.3162 23.959C46.8239 22.9744 46.3316 21.6615 45.7846 20.0752L45.6752 19.8017C45.2376 18.7624 44.7453 17.6137 44.1983 16.6291C43.7607 15.9179 43.3231 15.3162 42.8855 14.7692C41.6821 13.2923 40.0957 12.4171 38.1812 12.0889C36.8684 11.8701 35.8838 11.8154 34.6803 11.7607C34.4068 11.7607 34.188 11.7607 33.9145 11.706C33.3675 11.6513 32.1641 11.5966 31.0701 11.4872C30.3043 11.4325 29.5932 11.3778 28.9915 11.3231C29.0462 11.159 29.0462 10.9402 29.0462 10.7214C29.0462 10.4479 28.9915 10.2291 28.9915 10.0103H36.759C38.7282 10.0103 40.1504 9.08034 41.0256 7.32991C42.9949 7.32991 44.4171 6.4 45.2923 4.54017H45.6205C47.6444 4.54017 49.1214 3.55555 49.9419 1.69572L50.2701 0.984613H24.1778C22.4821 0.984613 21.0598 2.13333 20.5128 3.88376L20.4581 4.15726C20.0205 2.78974 19.1453 1.64102 18.106 0.984613C16.6838 0.109399 15.0427 -0.218806 13.7299 0.1641C13.2923 0.273502 12.8547 0.492305 12.5265 0.711109C12.253 0.929912 11.8154 1.25812 11.4872 1.64102C11.159 2.07863 10.8308 2.68034 10.5573 3.17265C10.3932 3.28205 10.2838 3.44615 10.2291 3.55555L9.90086 4.15726V4.21196C9.51795 5.08718 9.08034 5.68889 8.69744 6.12649C8.36923 6.5094 8.36923 6.89231 8.36923 7.16581C8.42393 7.43931 8.58803 7.71282 8.75214 7.87692L8.69744 7.93162C8.58803 8.09572 8.53333 8.31453 8.53333 8.53333C8.53333 9.18974 9.08034 9.73675 9.79145 9.73675C10.2838 9.73675 10.7214 9.51795 11.2137 9.18974C11.3778 9.08034 11.9248 8.69743 12.0889 8.69743C12.1983 8.69743 12.253 8.69743 12.3077 8.75214C12.4718 8.80684 12.5265 8.97094 12.5265 9.13504C12.5265 9.62735 12.0342 10.065 11.2684 10.1197L10.3385 10.2291C9.29915 10.2838 9.13504 10.8308 9.08034 10.9402C8.97094 11.3231 9.18974 11.6513 9.46325 11.8701L9.51795 11.9248C9.62735 12.0342 9.68205 12.0889 9.68205 12.0889L8.47863 14.0581C7.65812 13.2923 6.72821 12.8 5.90769 12.7453C5.36068 12.7453 4.92308 12.9094 4.59487 13.2376C4.48547 13.347 4.37607 13.4564 4.32137 13.5658C3.44615 13.5658 2.73504 14.0581 2.35214 14.6051C1.96923 15.2068 2.13333 16.3009 2.62564 17.0667L0 17.8325V31.7265H51.9658V29.0462H42.3385Z" fill="#C0C0C0"/>
<path d="M90.8034 15.0974V2.46154C98.4615 2.46154 101.251 2.07864 102.564 11.7607H103.385V0.984619H82.5982V2.46154H86.2085V30.2496H82.2153V31.7265H103.658V20.3487H102.564C101.525 28.9368 99.3914 30.2496 93.4837 30.2496H90.7487V16.7385H92.335C94.9606 16.7932 96.4923 18.3795 97.0393 23.1385H98.0239V9.18975C98.0239 9.24445 97.094 9.18975 97.094 9.18975C97.094 9.24445 96.9299 15.2068 92.2803 15.0974H90.8034Z" fill="#C0C0C0"/>
<path d="M82.3248 15.6444H70.5641V17.0119H74.5573V27.0222C73.9009 29.5384 70.2906 30.6324 69.1966 30.6324C61.7026 30.6324 62.2496 19.2546 62.2496 16.2461C62.2496 13.4564 61.9761 1.80508 69.1966 1.80508C74.2838 1.80508 76.9641 7.05636 78.0582 11.7606H78.8787C78.8787 9.7914 78.9334 0.546955 78.8787 0.601656C78.8787 0.546955 75.3778 3.2273 75.3778 3.1726C75.4325 3.1726 73.7915 0.711058 69.1966 0.711058C60.3351 0.711058 57.1077 9.8461 57.1624 16.2461C57.2171 22.0991 59.7881 32.0546 69.1966 32.0546C72.1505 32.0546 74.2291 30.4683 75.3778 28.7179C75.3778 28.6632 79.0975 31.7811 79.1522 31.7811V17.0119H82.3248V15.6444Z" fill="#C0C0C0"/>
<path d="M184.779 20.6222L189.046 7.3299L193.586 20.6222H184.779ZM168.205 15.3162H163.391V2.46153H169.518C173.128 3.00853 173.292 7.3299 173.292 8.75212C173.292 12.0342 171.925 15.3162 168.205 15.3162ZM219.405 20.3487C218.366 28.9367 216.232 30.2496 210.325 30.2496H209.997V2.46153H213.716V0.929901H201.409V2.40682H205.183V30.1949H202.229L191.289 0.0546875H189.703C189.757 0.0546875 180.622 27.4051 180.567 27.4598C180.567 27.4051 179.856 29.812 178.379 30.0855C177.012 30.1402 177.121 29.429 177.121 29.1555V23.9043C177.121 22.5367 177.012 19.3641 175.644 17.9419C174.113 16.3008 171.432 16.1914 171.487 16.1367C171.487 16.1367 178.215 14.7145 178.215 8.04101C178.215 3.39144 175.097 1.094 169.901 0.8752H155.132V2.35212H158.906V30.1402H155.132V31.7265H167.275V30.2496H163.501V16.9026H168.533C177.285 17.6684 167.002 31.7812 178.489 31.7265H185.709V30.2496C185.326 30.2496 182.646 30.3043 182.482 28.3897C182.373 27.0222 184.232 22.0444 184.232 22.0444H194.079C194.079 22.0444 197.142 30.2496 197.197 30.2496H193.641V31.7265H220.444V20.3487H219.405Z" fill="#C0C0C0"/>
<path d="M140.417 2.46154C148.075 2.46154 150.865 2.07864 152.178 11.8154H152.998V0.984619H122.694V2.46154H123.46C124.554 2.46154 127.07 2.57094 127.234 4.86838V22.5915L113.067 0.984619H105.354V2.46154H106.667C108.198 2.46154 110.332 2.51624 110.441 4.86838V27.5692C110.441 29.812 107.214 30.6325 105.901 30.6325V31.7265H116.349V30.6325C115.036 30.6325 111.809 29.812 111.809 27.5692L111.863 7.54872C117.333 15.8633 127.945 31.7265 128.055 31.7265H128.602V4.81368C128.766 2.51624 131.282 2.40684 132.376 2.40684H135.877V30.1949H131.829V31.7265H153.272V20.3487H152.178C151.139 28.9368 149.005 30.2496 143.097 30.2496H140.362V16.7385H141.949C144.574 16.7932 146.106 18.3795 146.653 23.1385H147.638V9.18975C147.638 9.24445 146.708 9.18975 146.708 9.18975C146.708 9.24445 146.489 15.2068 141.894 15.0974H140.417V2.46154Z" fill="#C0C0C0"/>
<path d="M233.956 2.46156V0.929932H221.867V2.46156H225.641V30.1949H221.867V31.7265H233.956V30.1949H230.127V2.46156H233.956Z" fill="#C0C0C0"/>
<path d="M6.67346 20.2393L10.0649 21.1692V20.1299L6.67346 19.2V20.2393Z" fill="#C0C0C0"/>
<path d="M2.1333 20.1299V21.1692L5.52475 20.2393V19.2L2.1333 20.1299Z" fill="#C0C0C0"/>
<path d="M6.67346 22.5914L10.0649 23.4667V22.482L6.67346 21.5521V22.5914Z" fill="#C0C0C0"/>
<path d="M2.1333 22.482V23.4667L5.52475 22.5914V21.5521L2.1333 22.482Z" fill="#C0C0C0"/>
<path d="M6.67346 24.8889L10.0649 25.8188V24.7795L6.67346 23.8496V24.8889Z" fill="#C0C0C0"/>
<path d="M2.1333 24.7795V25.8188L5.52475 24.8889V23.8496L2.1333 24.7795Z" fill="#C0C0C0"/>
<path d="M39.6581 28.9915C39.1658 28.335 39.0017 27.5692 39.2205 27.0769C39.3299 26.8034 39.5487 26.5846 39.8769 26.5299L42.7214 25.8735L42.4479 23.2479V23.1932C42.3385 22.5915 42.065 21.8256 40.8615 21.7162C35.665 21.2786 34.5162 20.4581 33.2581 19.6376C33.2581 19.6376 33.2581 19.6376 33.2581 19.5829L33.2034 19.5282C31.8359 18.5983 30.4684 18.653 30.4684 18.653C28.9915 18.653 27.1863 19.2547 27.0222 19.3094C26.5846 19.4188 26.147 19.5829 25.7641 19.6923C24.1231 20.2393 22.7556 20.6769 20.4034 20.6222H20.0205L19.9111 21.0051C19.8017 21.3333 19.1453 24.0684 19.8017 25.7641C19.1453 26.2564 19.1453 26.8034 19.1453 26.8581C19.1453 27.4051 19.0359 27.5692 18.9812 27.6786C18.7077 28.0068 17.8325 28.0068 17.012 28.0068H16.7932L16.6291 28.2256C16.1368 28.9368 15.0974 29.1009 14.441 28.8821C14.1675 27.9521 14.1128 27.241 14.441 26.8034C14.7692 26.3111 15.4803 26.2564 15.7538 26.2564H15.8632C16.5197 26.2564 17.0667 25.7094 17.0667 24.9983V20.2393C17.2855 19.9111 17.4496 19.4735 17.6137 19.0359C18.7077 18.8718 19.5829 17.8872 19.5829 16.7385C19.5829 16.2462 19.4188 15.8085 19.2 15.4256C20.2393 14.9333 21.1692 13.8393 21.1692 12.4718C21.1692 11.1043 20.4581 10.4479 19.8564 10.065C20.0205 9.51795 20.3487 8.58803 20.5675 7.60342L21.4427 4.26666C21.8803 2.89914 22.9197 2.07863 24.1778 2.07863H40.2051C39.494 3.17265 38.5094 3.66496 37.1419 3.66496H27.9521H27.4598C27.4051 3.66496 27.241 4.10256 27.241 4.15726C27.241 4.21196 27.0769 4.64957 27.0222 4.64957H27.9521H35.7197C35.0086 5.85299 34.0239 6.4 32.547 6.4H26.8034H26.2564C26.2017 6.4 26.0376 6.83761 26.0376 6.89231C26.0376 6.94701 25.8735 7.38461 25.8188 7.38461H26.8034H31.453C30.7419 8.53333 29.7573 9.08034 28.2803 9.08034H25.3265H24.8342C24.7795 9.08034 24.6154 9.51795 24.6154 9.57265C24.6154 9.62735 24.4513 10.065 24.3966 10.065H25.3265H27.9521C27.9521 10.065 28.1162 10.2291 28.1162 10.7761C28.1162 11.5419 27.5145 12.1436 26.7487 12.1436C26.4205 12.1436 26.147 12.0342 25.4906 11.7607H25.4359L24.7248 12.4171L25.1624 12.6359C25.8735 12.9641 26.2564 13.1282 26.8034 13.1282C27.4598 13.1282 28.0615 12.8547 28.4444 12.4171C29.0462 12.4718 30.0308 12.5265 30.9607 12.6359C32.1094 12.7453 33.3128 12.8547 33.8598 12.8547C34.1333 12.8547 34.4068 12.9094 34.6256 12.9094C35.0632 12.9094 35.5009 12.9641 35.9385 12.9641C38.1265 16.6838 39.2205 17.1214 43.4872 17.6684C43.7607 18.2154 44.0342 18.7624 44.253 19.3094V26.5846V26.6393C44.253 27.0222 44.253 27.1316 44.1983 27.1863C44.0342 27.4051 43.5419 27.6239 43.159 27.788L39.6581 28.9915ZM38.5094 29.0462H31.3983L34.4068 25.7094C35.0085 25.053 35.1727 24.3419 34.9538 23.5761C34.7897 23.0838 34.3521 22.1538 33.9145 21.2786C35.118 21.8803 36.8684 22.4273 40.6974 22.7556C41.1897 22.8103 41.2991 22.9744 41.4085 23.412L41.5727 25.1077L39.6034 25.5453C39.0017 25.6547 38.5094 26.0923 38.2359 26.694C38.0171 27.4051 38.1265 28.2256 38.5094 29.0462ZM25.7641 29.0462C25.5453 28.2256 25.6547 27.6239 26.0376 27.1863C26.3658 26.7487 26.9128 26.6393 27.2957 26.694L29.3197 27.0769H29.3744H29.6479L31.0701 25.4906C31.5077 24.9983 31.9453 24.1778 31.2889 23.1932L29.3197 19.8017C29.6479 19.747 30.0308 19.6923 30.359 19.6923C30.359 19.6923 31.3436 19.6923 32.4376 20.3487C32.6017 20.6769 32.7658 21.0598 32.9846 21.5521C33.3675 22.4274 33.9145 23.4667 34.0239 23.9043C34.1333 24.2872 34.0239 24.6701 33.6957 25.053L30.0855 29.0462H25.7641ZM25.2718 26.5299C24.8889 26.9675 24.506 27.788 24.7795 29.0462H17.8325L17.8872 28.9915C18.7077 28.9368 19.3094 28.7726 19.6923 28.3897C20.1299 27.9521 20.1299 27.2957 20.1299 26.8581C20.1299 26.8034 20.1846 26.6393 20.5675 26.4752L21.0598 26.2564L20.7316 25.7094C20.1299 24.7795 20.4034 22.7556 20.6222 21.6615C22.9197 21.6615 24.3966 21.1692 25.9282 20.6769C26.3111 20.5675 26.7487 20.4034 27.1863 20.294C27.1863 20.294 27.6786 20.1299 28.2803 19.9658L30.4684 23.6855C30.7419 24.0684 30.6872 24.2872 30.3043 24.7795L29.2103 26.0376L27.4598 25.7094C26.6393 25.6 25.8188 25.8735 25.2718 26.5299ZM13.5658 26.2564C13.1282 26.9128 13.0735 27.8427 13.4017 29.0462H12.1436V19.9658C12.5812 19.9111 13.0735 19.747 13.5111 19.5282C13.5111 19.9658 13.4564 20.3487 13.347 20.7863C13.347 20.8957 13.2923 21.0051 13.2923 21.1145L13.1829 21.7162H13.7299C14.7145 21.7162 15.4256 21.5521 16.0274 21.2239V25.1077C16.0274 25.2171 15.9179 25.3265 15.8085 25.3265H15.6444C14.7692 25.2718 14.0034 25.6547 13.5658 26.2564ZM11.2137 28.1709L6.0718 26.8034L0.929915 28.1709V18.5983L6.0718 17.2308L11.2137 18.5983V28.1709ZM1.47692 29.0462L6.1265 27.788L10.7761 29.0462H1.47692ZM3.39145 15.0974C3.61026 14.7692 4.10256 14.441 4.75897 14.5504L5.14188 14.6051L5.30598 14.2222C5.36068 14.1128 5.41538 14.0034 5.47009 13.894C5.63419 13.7299 5.79829 13.6752 6.0718 13.6752C6.72821 13.6752 7.54872 14.1675 8.25983 14.9333C8.75214 15.4803 9.13504 16.1368 9.40855 16.7385L10.0103 15.8632C9.79145 15.4803 9.62735 15.2068 9.35385 14.8239L10.8308 12.4171C11.0496 12.4718 11.2684 12.5265 11.4325 12.5265C11.4872 12.5265 11.706 12.5265 11.8154 12.5265C13.6752 12.4718 15.5897 11.3778 15.6444 9.40855V9.35384C15.6444 8.80684 15.535 8.31453 15.4256 7.87692C15.3709 7.60342 15.3162 7.32991 15.3162 7.22051C15.3162 6.94701 15.6444 6.6735 16.0821 6.6735H16.6291L16.4103 4.97778C17.3402 4.26667 17.9419 3.06325 17.8325 1.96923C18.8718 2.73504 19.5829 4.15726 19.747 5.63419C19.8017 6.07179 19.6923 6.6735 19.5829 7.27521L19.5282 7.54872C19.3094 8.53333 18.9812 9.57265 18.7624 10.065L18.5983 10.4479L18.9812 10.6667C19.747 11.1043 20.1846 11.4325 20.1846 12.4718C20.1846 13.6205 19.2 14.5504 18.2154 14.7145L17.0667 14.9333L18.0513 15.5897C18.4342 15.8632 18.653 16.2462 18.653 16.6838C18.653 17.4496 18.0513 18.0513 17.2855 18.0513H16.9026L16.7932 18.3795C16.3556 19.8017 15.9179 20.4581 14.441 20.6222C14.4957 20.1846 14.5504 19.747 14.5504 19.2C14.5504 19.0906 14.5504 18.7077 14.5504 18.5983L14.4957 17.4496L13.6752 18.2701C13.347 18.5983 12.8 18.8718 12.1983 18.9812V17.8325L6.1265 16.1915L3.93846 16.7932C3.33675 16.2462 3.28205 15.3162 3.39145 15.0974ZM10.0103 11.0496C10.0103 10.9402 10.065 10.8308 10.2838 10.8855C10.3385 10.8855 10.3385 10.8855 10.3385 10.8855H10.3932C10.3932 10.8855 10.6667 10.8855 11.1043 10.8855L11.5419 10.8308C12.5812 10.7214 13.4564 10.0103 13.4564 9.08034C13.4564 8.75214 13.2923 8.31453 13.0188 8.04102C12.8 7.76752 12.4718 7.60342 12.1436 7.60342C11.706 7.60342 11.2684 7.93162 10.7761 8.25983C10.3932 8.53333 10.1197 8.69743 9.90086 8.69743C9.73675 8.69743 9.57265 8.58803 9.57265 8.47863V8.42393L10.1744 7.60342L9.68205 7.32991C9.57265 7.27521 9.35385 7.11111 9.35385 6.94701C9.35385 6.89231 9.35385 6.83761 9.46325 6.7282C9.73675 6.4 10.0103 6.01709 10.2838 5.52478C10.3932 5.41538 10.5026 5.36068 10.612 5.36068C10.8308 5.36068 11.0496 5.57949 11.0496 5.85299C11.0496 6.01709 11.2137 6.18119 11.4325 6.18119C11.6513 6.18119 11.7607 6.01709 11.8701 5.85299C11.8701 5.85299 12.4171 5.36068 12.1436 5.08718C11.9248 4.92308 10.7214 5.41538 10.9402 4.37607L11.0496 4.10256C11.2137 3.88376 11.8154 3.39145 13.1282 3.39145C13.347 3.39145 13.6205 3.39145 13.894 3.44615H14.0581L16.7932 1.69572C16.8479 1.80513 16.8479 1.85983 16.8479 1.85983C17.012 2.73504 16.465 3.77436 15.6444 4.26666L15.3709 4.43077L15.5897 5.68889C14.8786 5.90769 14.3863 6.4547 14.3863 7.11111C14.3863 7.32991 14.441 7.60342 14.4957 7.98632C14.5504 8.36923 14.6598 8.86154 14.6598 9.29914C14.6598 10.1197 13.7299 11.3231 11.8154 11.4872C11.1043 11.5419 10.3385 11.3778 10.1197 11.2137C10.065 11.2684 10.0103 11.159 10.0103 11.0496ZM12.253 2.29743C12.4171 2.07863 12.6906 1.80513 13.0188 1.58632C13.347 1.36752 13.6752 1.20342 14.0034 1.09401C14.6051 0.929912 15.2615 0.929912 15.9727 1.09401L13.894 2.40684C13.6752 2.40684 13.4017 2.35213 13.1829 2.35213C12.8 2.35213 12.4718 2.40684 12.1436 2.46154C12.1436 2.40684 12.1983 2.35213 12.253 2.29743ZM41.2991 1.96923H48.6291C47.918 3.06325 46.9333 3.55555 45.5658 3.55555H40.0957C40.5333 3.11795 40.9709 2.62564 41.2991 1.96923ZM40.9709 6.2906H35.5009C36.0479 5.85299 36.4855 5.25128 36.8137 4.54017H44.1436C43.4325 5.74359 42.4479 6.2906 40.9709 6.2906ZM36.759 9.02564H31.2889C31.7812 8.58803 32.2188 8.04102 32.547 7.32991H39.8769C39.2205 8.47863 38.1812 9.02564 36.759 9.02564ZM38.0171 13.0735C39.7128 13.347 41.0803 14.1675 42.1197 15.4256C42.3932 15.7538 42.612 16.082 42.8308 16.4103C39.7675 16.0273 38.7829 15.5897 37.1419 12.9094C37.4701 12.9641 37.7436 13.0188 38.0171 13.0735ZM49.3402 25.1624C49.4496 25.3265 49.559 25.4906 49.6137 25.6547C49.7231 25.8735 49.8325 26.0923 49.9966 26.3111C49.0667 26.3111 48.4103 25.8188 47.7539 24.7795C48.3556 24.6154 49.0667 24.7248 49.3402 25.1624ZM42.3385 29.0462L43.5419 28.5538C45.0735 27.8974 45.2923 27.5145 45.2376 26.4205V21.5521C46.4957 24.9436 47.5897 27.3504 49.9966 27.3504C50.3248 27.3504 50.653 27.2957 50.9812 27.241L51.8017 27.0769L51.2547 26.4205C50.8718 25.9829 50.653 25.6 50.4342 25.2171C50.3248 25.053 50.2701 24.8889 50.1607 24.6701C49.6137 23.7949 48.3556 23.4667 47.3162 23.959C46.8239 22.9744 46.3316 21.6615 45.7846 20.0752L45.6752 19.8017C45.2376 18.7624 44.7453 17.6137 44.1983 16.6291C43.7607 15.9179 43.3231 15.3162 42.8855 14.7692C41.6821 13.2923 40.0957 12.4171 38.1812 12.0889C36.8684 11.8701 35.8838 11.8154 34.6803 11.7607C34.4068 11.7607 34.188 11.7607 33.9145 11.706C33.3675 11.6513 32.1641 11.5966 31.0701 11.4872C30.3043 11.4325 29.5932 11.3778 28.9915 11.3231C29.0462 11.159 29.0462 10.9402 29.0462 10.7214C29.0462 10.4479 28.9915 10.2291 28.9915 10.0103H36.759C38.7282 10.0103 40.1504 9.08034 41.0256 7.32991C42.9949 7.32991 44.4171 6.4 45.2923 4.54017H45.6205C47.6444 4.54017 49.1214 3.55555 49.9419 1.69572L50.2701 0.984613H24.1778C22.4821 0.984613 21.0598 2.13333 20.5128 3.88376L20.4581 4.15726C20.0205 2.78974 19.1453 1.64102 18.106 0.984613C16.6838 0.109399 15.0427 -0.218806 13.7299 0.1641C13.2923 0.273502 12.8547 0.492305 12.5265 0.711109C12.253 0.929912 11.8154 1.25812 11.4872 1.64102C11.159 2.07863 10.8308 2.68034 10.5573 3.17265C10.3932 3.28205 10.2838 3.44615 10.2291 3.55555L9.90086 4.15726V4.21196C9.51795 5.08718 9.08034 5.68889 8.69744 6.12649C8.36923 6.5094 8.36923 6.89231 8.36923 7.16581C8.42393 7.43931 8.58803 7.71282 8.75214 7.87692L8.69744 7.93162C8.58803 8.09572 8.53333 8.31453 8.53333 8.53333C8.53333 9.18974 9.08034 9.73675 9.79145 9.73675C10.2838 9.73675 10.7214 9.51795 11.2137 9.18974C11.3778 9.08034 11.9248 8.69743 12.0889 8.69743C12.1983 8.69743 12.253 8.69743 12.3077 8.75214C12.4718 8.80684 12.5265 8.97094 12.5265 9.13504C12.5265 9.62735 12.0342 10.065 11.2684 10.1197L10.3385 10.2291C9.29915 10.2838 9.13504 10.8308 9.08034 10.9402C8.97094 11.3231 9.18974 11.6513 9.46325 11.8701L9.51795 11.9248C9.62735 12.0342 9.68205 12.0889 9.68205 12.0889L8.47863 14.0581C7.65812 13.2923 6.72821 12.8 5.90769 12.7453C5.36068 12.7453 4.92308 12.9094 4.59487 13.2376C4.48547 13.347 4.37607 13.4564 4.32137 13.5658C3.44615 13.5658 2.73504 14.0581 2.35214 14.6051C1.96923 15.2068 2.13333 16.3009 2.62564 17.0667L0 17.8325V31.7265H51.9658V29.0462H42.3385Z" fill="#C0C0C0"/>
</g>
<defs>
<clipPath id="clip0_27_963">
<rect width="233.956" height="32" fill="white"/>
</clipPath>
</defs>
</svg>
