<svg width="113" height="32" viewBox="0 0 113 32" fill="none" xmlns="http://www.w3.org/2000/svg">
<path d="M9.6479 31.8101C6.57266 31.7015 2.9425 31.1702 1.43956 30.6102L1.21411 30.5302V27.6277L1.71702 27.9534C4.02923 29.4389 6.99465 30.2388 10.9659 30.416C11.5035 30.416 16.8794 30.4559 25.2265 30.4559H38.6257V31.8501H24.5559C16.8157 31.8501 10.1046 31.8501 9.6479 31.8158V31.8101Z" fill="#C0C0C0"/>
<path d="M12.8038 28.9817C11.1291 28.8366 9.48819 28.4297 7.94245 27.7762C4.83217 26.4691 2.16184 24.3152 0.242783 21.5654L0 21.2226V15.5089L0.2081 16.0803C0.766143 17.6213 1.50533 19.0921 2.41048 20.4627C3.97824 22.9174 6.2031 24.895 8.83843 26.1763C10.6129 27.0207 12.5374 27.5138 14.5033 27.6276C14.8386 27.6276 19.2838 27.6676 26.8216 27.6676H38.614V29.0617H25.8967C18.9139 29.0617 13.0119 29.0617 12.7749 29.0274L12.8038 28.9817Z" fill="#C0C0C0"/>
<path d="M15.5035 20.7942C12.6653 20.7942 11.2837 19.4629 11.2837 16.7318V2.75613C11.2837 2.22361 11.0701 1.71293 10.6898 1.33594C10.3094 0.958941 9.79335 0.746381 9.25471 0.744873H7.61304V2.75613V17.0403C7.61304 19.8571 8.70556 21.5712 10.1102 22.6111C11.0004 22.8225 16.5555 23.9481 18.9833 19.4686C18.3071 20.3485 17.1509 20.7942 15.5035 20.7942Z" fill="#C0C0C0"/>
<path d="M91.0202 0.647912C89.422 0.19267 87.7641 -0.0249296 86.101 0.00226743C83.2686 0.00226743 81.1297 0.710762 79.7425 2.11063C79.3956 2.46488 79.5401 3.56762 79.5864 4.03043C79.6865 4.90164 79.9658 5.74338 80.4071 6.50387C80.8485 7.26436 81.4426 7.9276 82.1529 8.4528C81.8754 7.96794 81.743 7.41509 81.7714 6.85869C81.7714 4.75606 83.3437 3.6876 86.2686 3.6876C87.7592 3.66349 89.2453 3.85604 90.6792 4.25897C91.2406 4.4257 91.7893 4.63185 92.3209 4.87605V1.14502C92.3209 1.14502 91.4481 0.767899 91.0087 0.630771L91.0202 0.647912Z" fill="#C0C0C0"/>
<path d="M64.7073 9.10388C58.9556 9.10388 58.2158 13.1034 58.2158 16.6288C58.2158 20.1541 58.9556 24.1537 64.7073 24.1537C70.4589 24.1537 71.193 20.1541 71.193 16.6288C71.193 13.1034 70.4589 9.10388 64.7073 9.10388ZM64.7073 21.0226C62.3199 21.0226 61.9153 19.6627 61.9153 16.6288C61.9153 13.5948 62.3199 12.2407 64.7073 12.2407C67.0946 12.2407 67.4936 13.5948 67.4936 16.6288C67.4936 19.6627 67.0889 21.0226 64.7073 21.0226Z" fill="#C0C0C0"/>
<path d="M32.082 9.10396C30.8388 9.11093 29.6141 9.40233 28.5039 9.95529C28.375 9.54505 28.1171 9.18589 27.7679 8.93015C27.4188 8.67429 26.9962 8.53511 26.5615 8.53259H24.9142V23.8224H28.5906V12.9664C29.5032 12.4951 30.5207 12.2574 31.5501 12.275C32.9143 12.275 33.4925 12.8064 33.4925 14.0577V23.8281H37.1689V13.772C37.1689 10.6752 35.4578 9.10396 32.082 9.10396Z" fill="#C0C0C0"/>
<path d="M51.0479 9.10396C49.8024 9.0875 48.5711 9.3677 47.4583 9.92101C47.3255 9.51797 47.0673 9.16681 46.7205 8.91746C46.3738 8.66812 45.9563 8.53339 45.5275 8.53259H43.8859V31.9586H47.5392V23.2681C48.6051 23.8379 49.7957 24.142 51.0075 24.1538C54.9613 24.1538 56.8805 21.6912 56.8805 16.6289C56.8805 11.5665 55.0018 9.10396 51.0479 9.10396ZM50.3196 20.9941C49.3478 21.0006 48.3904 20.7606 47.5392 20.297V12.9607C48.3863 12.5031 49.3369 12.2652 50.3023 12.2693C52.7185 12.2693 53.1925 13.9377 53.1925 16.6289C53.1925 19.32 52.707 20.9941 50.3023 20.9941H50.3196Z" fill="#C0C0C0"/>
<path d="M38.6893 21.8112C38.6909 22.3441 38.9058 22.8548 39.287 23.2316C39.6683 23.6084 40.1849 23.8209 40.7241 23.8224H42.3658V8.53259H38.6893V21.8112Z" fill="#C0C0C0"/>
<path d="M40.5274 2.75586C40.0701 2.75586 39.623 2.8899 39.2429 3.14107C38.8626 3.39213 38.5662 3.74912 38.3912 4.16679C38.2162 4.58435 38.1704 5.04384 38.2597 5.48722C38.3489 5.9306 38.5691 6.33776 38.8924 6.65738C39.2158 6.977 39.6278 7.19469 40.0764 7.28291C40.5249 7.37113 40.9898 7.32588 41.4122 7.15287C41.8348 6.97986 42.1959 6.68698 42.4499 6.31113C42.704 5.93529 42.8396 5.49339 42.8396 5.04133C42.8396 4.43522 42.596 3.85391 42.1624 3.42527C41.7288 2.99663 41.1407 2.75586 40.5274 2.75586Z" fill="#C0C0C0"/>
<path d="M74.1299 0.744873H72.4883V21.8112C72.4898 22.3441 72.7047 22.8547 73.0859 23.2316C73.4671 23.6085 73.9839 23.8208 74.523 23.8224H76.1647V2.75042C76.1632 2.2179 75.9481 1.7079 75.5667 1.33194C75.1852 0.955981 74.6686 0.744862 74.1299 0.744873Z" fill="#C0C0C0"/>
<path d="M19.7234 2.75613V16.7318C19.7234 18.223 19.7234 20.2342 17.6944 22.0169C14.9198 24.4509 11.2665 23.251 11.174 23.2225C12.5306 23.8424 14.0091 24.1585 15.5037 24.1481C17.3534 24.1481 23.3998 23.6339 23.3998 17.0117V0.744873H21.7523C21.2137 0.746381 20.6976 0.958941 20.3173 1.33594C19.937 1.71293 19.7234 2.22361 19.7234 2.75613Z" fill="#C0C0C0"/>
<path d="M91.4367 11.6182C90.0494 10.5898 87.9684 10.1898 85.9568 9.90414C85.0467 9.81946 84.1501 9.62771 83.2862 9.33277C82.0281 9.01532 80.9006 8.32008 80.0589 7.34282C79.2173 6.36555 78.7028 5.15448 78.5866 3.87622C78.1958 4.81269 77.9992 5.81715 78.0085 6.83019C78.0085 8.99566 78.5866 10.4755 79.8236 11.4811C81.0606 12.4867 82.8122 13.0352 85.7139 13.4066C88.6158 13.778 89.6852 14.3151 89.6852 16.6977C89.6852 19.0803 87.9163 20.2916 84.5926 20.2916C82.4344 20.3163 80.2965 19.8777 78.3265 19.006L78.0085 18.8632V22.5828L78.1357 22.6513C79.6097 23.4284 82.4133 23.9997 84.8064 23.9997C87.6967 23.9997 89.928 23.3027 91.3962 21.9257C92.7605 20.6458 93.4541 18.8232 93.4541 16.5034C93.4541 14.1837 92.8125 12.641 91.4367 11.6182Z" fill="#C0C0C0"/>
<path d="M100.766 8.39584C99.0889 8.35447 97.4174 8.60793 95.8297 9.14433L95.691 9.20718V12.4411L96.0032 12.3211C97.4502 11.7882 98.9853 11.5266 100.529 11.5498C102.784 11.5498 103.2 12.1554 103.2 13.3553V13.8638L100.096 14.1095C96.3789 14.3952 94.4077 15.9893 94.4077 18.8347C94.4077 21.9715 96.4772 23.7999 99.6102 23.7999C100.97 23.7544 102.27 23.2364 103.281 22.3372C103.415 22.7554 103.68 23.1211 104.037 23.3819C104.394 23.6425 104.825 23.7848 105.269 23.7885H106.952V13.7153C106.963 11.0755 106.229 8.39584 100.766 8.39584ZM103.2 19.2518C102.828 19.6591 102.376 19.9864 101.87 20.2134C101.365 20.4405 100.818 20.5624 100.263 20.5717C98.8877 20.5717 98.2171 20.0003 98.2171 18.7147C98.2171 17.4291 98.7951 16.9149 100.35 16.7321L103.2 16.4178V19.2747V19.2518Z" fill="#C0C0C0"/>
<path d="M108.478 21.8112C108.479 22.3441 108.694 22.8548 109.075 23.2316C109.457 23.6084 109.973 23.8209 110.512 23.8224H112.154V8.53259H108.478V21.8112Z" fill="#C0C0C0"/>
<path d="M110.316 7.32112C110.773 7.32112 111.22 7.18708 111.6 6.93602C111.98 6.68485 112.277 6.32797 112.452 5.9103C112.627 5.49275 112.673 5.03314 112.583 4.58987C112.494 4.14649 112.274 3.73923 111.951 3.4196C111.627 3.09998 111.215 2.88229 110.767 2.79418C110.318 2.70597 109.853 2.75122 109.431 2.92423C109.008 3.09724 108.647 3.39012 108.393 3.76596C108.139 4.14181 108.003 4.5837 108.003 5.03566C108.003 5.64188 108.247 6.22318 108.68 6.65182C109.114 7.08035 109.702 7.32112 110.316 7.32112Z" fill="#C0C0C0"/>
<path d="M52.4353 27.6565L51.0826 31.936H51.9901L52.2792 30.959H53.389L53.678 31.936H54.5856L53.2272 27.6565H52.4353ZM52.4757 30.2334L52.8341 29.0106L53.1868 30.2334H52.4757Z" fill="#C0C0C0"/>
<path d="M58.3429 29.376C57.7648 29.3017 57.6665 29.2274 57.6665 28.9189C57.6665 28.7989 57.6665 28.4389 58.389 28.4389C58.7383 28.4385 59.084 28.5065 59.4064 28.6389L59.5741 28.7132V27.879L59.5047 27.8447C59.1413 27.6865 58.745 27.616 58.3486 27.639C56.9439 27.639 56.7937 28.5303 56.7937 28.9132C56.7937 29.7931 57.3312 30.0273 58.2677 30.1473C58.8169 30.2159 58.8978 30.313 58.8978 30.6444C58.8978 30.9758 58.7995 31.2158 58.0711 31.2158C57.6889 31.2133 57.3119 31.1274 56.9671 30.9644L56.7878 30.8558V31.7071H56.8515C57.2487 31.8714 57.6753 31.9549 58.1059 31.9528C59.5451 31.9528 59.7591 31.0786 59.7591 30.5587C59.7591 29.5988 59.0828 29.416 58.3255 29.3303L58.3429 29.376Z" fill="#C0C0C0"/>
<path d="M63.5341 29.3762C62.956 29.3019 62.8577 29.2276 62.8577 28.9191C62.8577 28.7991 62.8577 28.4391 63.5861 28.4391C63.9333 28.4391 64.2771 28.5071 64.5976 28.6391L64.7652 28.7134V27.8792L64.6959 27.8449C64.3327 27.6861 63.9363 27.6156 63.5398 27.6392C62.1351 27.6392 61.9849 28.5306 61.9849 28.9134C61.9849 29.7933 62.5282 30.0275 63.4589 30.1475C64.0081 30.2161 64.089 30.3132 64.089 30.6446C64.089 30.976 63.9964 31.216 63.2623 31.216C62.8784 31.2124 62.4998 31.1266 62.1525 30.9646L61.9906 30.856V31.7074H62.0599C62.4551 31.8719 62.8798 31.9556 63.3086 31.9531C64.748 31.9531 64.9618 31.0789 64.9618 30.5589C64.9618 29.599 64.2855 29.4162 63.5282 29.3305L63.5341 29.3762Z" fill="#C0C0C0"/>
<path d="M68.0369 27.7024H67.193V31.9362H68.0369V27.7024Z" fill="#C0C0C0"/>
<path d="M72.043 27.6397C70.8408 27.6397 70.257 28.3539 70.257 29.8166C70.257 31.2793 70.835 31.9992 72.043 31.9992C72.3832 32.008 72.7217 31.9478 73.0373 31.8221L73.1067 31.7878V30.965L72.9449 31.0279C72.6738 31.1465 72.3799 31.205 72.0836 31.1993C71.4131 31.1993 71.1182 30.7765 71.1182 29.8166C71.1182 28.8567 71.4131 28.4339 72.0836 28.4339C72.3803 28.4299 72.6743 28.4903 72.9449 28.611L73.1067 28.6738V27.8511L73.0373 27.8168C72.7217 27.6911 72.3832 27.6307 72.043 27.6397Z" fill="#C0C0C0"/>
<path d="M77.6554 30.5078C77.6554 30.9992 77.43 31.2163 76.9155 31.2163C76.401 31.2163 76.1756 30.9992 76.1756 30.5078V27.7024H75.3317V30.5592C75.3656 30.9513 75.5471 31.3166 75.8404 31.5828C76.1337 31.8489 76.5174 31.9966 76.9155 31.9966C77.3136 31.9966 77.6973 31.8489 77.9906 31.5828C78.2839 31.3166 78.4655 30.9513 78.4993 30.5592V27.7024H77.6554V30.5078Z" fill="#C0C0C0"/>
<path d="M83.6559 29.0108C83.6559 28.1309 83.1645 27.7024 82.1587 27.7024H80.7251V31.9362H81.5633V30.3135H82.2223L82.9506 31.9362H83.9275L83.0547 30.1364C83.2608 30.0339 83.4295 29.8704 83.5373 29.6686C83.645 29.4669 83.6865 29.237 83.6559 29.0108ZM82.2454 29.5308H81.5633V28.4909H82.2223C82.6557 28.4909 82.7368 28.6737 82.7368 29.0108C82.7368 29.3479 82.65 29.5308 82.2223 29.5308H82.2454Z" fill="#C0C0C0"/>
<path d="M87.4941 27.6565L86.1357 31.936H87.049L87.3323 30.959H88.4479L88.7311 31.936H89.6445L88.286 27.6565H87.4941ZM87.5346 30.2334L87.8872 29.0106L88.2456 30.2334H87.5346Z" fill="#C0C0C0"/>
<path d="M95.0669 31.1192L93.0206 31.1306L94.986 28.2566V27.7024H91.9974V28.5194L93.8241 28.5023L91.8645 31.3763V31.9362H95.0669V31.1192Z" fill="#C0C0C0"/>
<path d="M98.1303 27.7024H97.2864V31.9362H98.1303V27.7024Z" fill="#C0C0C0"/>
<path d="M102.032 27.6393C100.547 27.6393 100.35 28.782 100.35 29.8219C100.35 30.8618 100.547 31.9988 102.032 31.9988C103.518 31.9988 103.709 30.8561 103.709 29.8219C103.709 28.7877 103.518 27.6393 102.032 27.6393ZM102.032 31.216C101.425 31.216 101.211 30.8504 101.211 29.8219C101.211 28.7934 101.425 28.4221 102.032 28.4221C102.639 28.4221 102.847 28.7877 102.847 29.8219C102.847 30.8561 102.633 31.216 102.032 31.216Z" fill="#C0C0C0"/>
<path d="M109.055 27.7024H108.217L108.229 30.2335L106.668 27.7024H105.928V31.9362H106.766L106.755 29.4051L108.316 31.9362H109.055V27.7024Z" fill="#C0C0C0"/>
<path d="M112.125 27.7024H111.281V31.9362H112.125V27.7024Z" fill="#C0C0C0"/>
</svg>
