<svg width="147" height="32" viewBox="0 0 147 32" fill="none" xmlns="http://www.w3.org/2000/svg">
<path d="M19.0644 0.022617C18.7038 0.0216212 18.3466 0.0919326 18.0133 0.229477C17.68 0.367021 17.377 0.569083 17.122 0.824073C16.867 1.07906 16.665 1.38194 16.5274 1.71538C16.3899 2.04868 16.3196 2.40597 16.3205 2.76658V21.8307C16.3205 23.8584 16.3205 26.6023 13.5767 29.022C9.80757 32.354 4.91528 30.7107 4.79468 30.6654C6.6291 31.5092 8.62512 31.9439 10.6443 31.9393C13.1395 31.9393 21.2883 31.2233 21.2883 22.1925V0H19.0644V0.022617Z" fill="#C0C0C0"/>
<path d="M15.3176 25.5243C14.413 26.7756 12.8451 27.356 10.6213 27.356C6.79945 27.356 4.94505 25.547 4.94505 21.8306V2.76648H0V22.1999C0 26.0444 1.46995 28.3964 3.37712 29.791C4.57568 30.1075 12.0611 31.6529 15.3176 25.5319" fill="#C0C0C0"/>
<path d="M0.685978 0.022617H0V21.8307H4.94505V2.74394C4.93915 2.01805 4.64816 1.32351 4.13485 0.810206C3.62155 0.29689 2.92705 0.00591458 2.20116 0H0.693512L0.685978 0.022617Z" fill="#C0C0C0"/>
<path d="M67.1964 15.4913C65.3645 14.1194 62.6734 13.5841 59.9822 13.2298C56.1604 12.7173 54.4944 12.2046 54.4944 9.16674C54.4944 6.37769 56.575 4.96045 60.4195 4.96045C63.0037 4.90085 65.5717 5.38353 67.9577 6.37769L68.3722 6.57368V1.62852L68.1988 1.56078C66.3898 0.603383 63.4574 0.0531006 60.1782 0.0531006C56.4092 0.0531006 53.6426 1.01043 51.8032 2.87239C50.252 4.58913 49.4395 6.84784 49.5418 9.1592C49.5418 12.0463 50.2956 14.0063 51.9164 15.3481C53.5372 16.6899 55.8588 17.406 59.6732 17.9187C63.4875 18.4312 64.8897 19.1173 64.8897 22.2983C64.8897 25.4795 62.5604 27.1001 58.1806 27.1001C55.3393 27.1342 52.5249 26.5476 49.9338 25.3814L49.5192 25.193V30.1305L49.6925 30.2285C51.6072 31.2462 55.3236 32 58.4369 32C62.2587 32 65.1685 31.0727 67.0983 29.2335C68.8849 27.5449 69.8196 25.1025 69.8196 22.0119C69.8196 18.9213 69.013 16.8783 67.1964 15.5064" fill="#C0C0C0"/>
<path d="M138.582 11.4812C132.552 11.4812 129.65 14.8281 129.65 21.7106C129.65 28.5929 132.665 31.9399 138.778 31.9399C141.15 31.9719 143.507 31.5629 145.729 30.7338L145.925 30.6659V26.3841L145.51 26.55C143.586 27.3379 141.52 27.7228 139.442 27.6808C135.499 27.6808 134.768 25.7435 134.67 23.5649H146.731V23.301C146.784 22.713 146.806 22.0724 146.806 21.4165C146.806 16.2755 145.804 11.4812 138.582 11.4812ZM138.582 15.7628C141.492 15.7628 141.786 17.4515 141.809 20.0445H134.64C134.889 17.0293 136.034 15.7628 138.582 15.7628Z" fill="#C0C0C0"/>
<path d="M104.201 31.9992C105.992 31.9582 107.706 31.2607 109.018 30.0393C109.191 30.5997 109.539 31.0899 110.011 31.4384C110.483 31.787 111.054 31.9756 111.641 31.9766H113.842V11.4274H108.897V25.9158C108.394 26.4715 107.778 26.9136 107.09 27.2127C106.402 27.5116 105.659 27.6605 104.909 27.6496C103.07 27.6496 102.294 26.142 102.294 24.4233V11.4274H97.3484V24.8153C97.3484 29.0216 99.6475 31.9615 104.201 31.9615" fill="#C0C0C0"/>
<path d="M90.1802 0.0220947V29.1949C90.1791 29.5549 90.2491 29.9116 90.3863 30.2445C90.5233 30.5773 90.7247 30.8798 90.979 31.1347C91.2332 31.3897 91.5351 31.5918 91.8677 31.7299C92.2 31.8678 92.5566 31.9389 92.9164 31.9389H95.1177V2.76596C95.1187 2.40596 95.0486 2.04942 94.9116 1.71658C94.7744 1.38367 94.5731 1.08112 94.3189 0.82622C94.0646 0.571335 93.7627 0.369093 93.4302 0.231111C93.0976 0.0931297 92.7413 0.0220947 92.3813 0.0220947H90.1802Z" fill="#C0C0C0"/>
<path d="M124.094 17.4512V15.7098H128.987V11.4281H124.094V8.12636C124.095 7.76651 124.025 7.40982 123.888 7.07697C123.751 6.74413 123.55 6.44161 123.296 6.18662C123.041 5.93178 122.739 5.7296 122.407 5.59154C122.074 5.45363 121.718 5.38257 121.358 5.38257H119.149V11.4132H115.629V15.6948H119.172V25.5548C119.172 29.7159 121.644 31.9245 126.318 31.9245C127.149 31.9079 127.976 31.8171 128.791 31.6531L129.009 31.6005V27.477L128.67 27.5298C128.12 27.6282 127.563 27.6762 127.004 27.673C124.976 27.673 124.117 26.9192 124.117 25.11V17.4512H124.094Z" fill="#C0C0C0"/>
<path d="M32.9876 11.4275C31.3122 11.4355 29.6611 11.8302 28.1631 12.5809C27.9931 12.0198 27.6469 11.5285 27.1757 11.1795C26.7047 10.8305 26.1337 10.6427 25.5474 10.6436H23.3462V31.4943H28.2914V16.6893C29.5161 16.0322 30.8895 15.7025 32.279 15.7319C34.1109 15.7319 34.8947 16.4857 34.8947 18.1818V31.4943H39.8399V17.7898C39.8399 13.5533 37.5785 11.4275 32.9876 11.4275Z" fill="#C0C0C0"/>
<path d="M46.8649 31.4943V10.6436H41.9199V28.7352C41.919 29.0952 41.989 29.4519 42.126 29.7848C42.2632 30.1176 42.4646 30.4201 42.7187 30.675C42.9729 30.93 43.275 31.1321 43.6074 31.27C43.9399 31.4081 44.2963 31.4792 44.6563 31.4792L46.8649 31.4943Z" fill="#C0C0C0"/>
<path d="M44.3927 9.00841C45.0076 9.00389 45.6072 8.81755 46.1163 8.47278C46.6252 8.12787 47.0207 7.64022 47.2529 7.07094C47.4851 6.50166 47.5435 5.8764 47.4208 5.27393C47.2981 4.67161 46.9998 4.11893 46.5636 3.68574C46.1273 3.25271 45.5725 2.95834 44.9693 2.84005C44.366 2.72176 43.7411 2.78468 43.1736 3.02096C42.606 3.25724 42.1212 3.65632 41.7801 4.16781C41.4389 4.6793 41.257 5.28027 41.257 5.89511C41.2568 6.30581 41.3381 6.71259 41.496 7.09176C41.6539 7.47092 41.8852 7.81509 42.1767 8.10448C42.4682 8.39387 42.8141 8.62276 43.1944 8.77787C43.5748 8.93297 43.982 9.01128 44.3927 9.00841Z" fill="#C0C0C0"/>
<path d="M79.9739 11.4283C77.7695 11.3883 75.5754 11.7352 73.491 12.4535L73.3176 12.529V16.8407L73.7322 16.69C75.6362 15.9903 77.6515 15.6429 79.6798 15.6647C82.6424 15.6647 83.1776 16.4714 83.1776 18.062V18.7479L79.0919 19.0646C74.1995 19.4566 71.6064 21.5597 71.6064 25.3514C71.6064 29.5124 74.3202 31.9624 78.4586 31.9624C80.2479 31.9104 81.9583 31.2145 83.2755 30.0025C83.4502 30.5622 83.7986 31.0519 84.2703 31.4002C84.7421 31.7485 85.3124 31.9375 85.8989 31.9398H88.1226V18.4766C88.1226 15.0015 87.1426 11.4283 79.9739 11.4283ZM83.2153 25.9167C82.724 26.4555 82.1273 26.8875 81.4621 27.1858C80.7967 27.4841 80.0773 27.6422 79.3482 27.6505C77.539 27.6505 76.6571 26.8967 76.6571 25.1856C76.6571 23.4744 77.4109 22.7808 79.4688 22.5397L83.2379 22.1251L83.2153 25.9167Z" fill="#C0C0C0"/>
</svg>
