<svg width="139" height="32" viewBox="0 0 139 32" fill="none" xmlns="http://www.w3.org/2000/svg">
<path d="M15.9977 0C7.16407 0 0.00185143 7.16034 0 15.9958V16.004C0.000902857 19.6506 1.22249 23.0096 3.27672 25.6991L16.5759 8.22297L15.1443 8.22571L13.7246 8.22297C12.2071 8.22297 10.7847 8.33063 9.75566 8.53063C9.1331 8.6528 8.5784 8.87634 8.12594 9.19669C7.59566 9.56857 6.93147 10.3576 6.49712 11.1331C6.44735 11.2237 6.37315 11.3558 6.28086 11.5485L5.50354 11.3711L6.8084 6.35257H23.4665L10.2287 24.0513C11.0893 23.9753 11.4341 23.9554 12.1327 23.9554C12.6693 23.9554 13.4846 23.9906 14.5741 24.0541L16.9257 24.1997C17.7718 24.2477 18.4885 24.273 19.0333 24.273C20.2458 24.273 21.0339 24.1779 21.8184 23.9382C22.4247 23.7518 23.0002 23.4721 23.5304 23.1138C24.4598 22.4696 25.3638 21.4407 25.9039 20.4072C25.9565 20.3031 26.0424 20.143 26.1401 19.9312L26.8487 20.1113C26.6179 20.989 26.4967 21.3248 26.1455 22.1083C25.4343 23.6974 24.6307 24.7615 23.5277 25.5769C22.3929 26.4176 21.1379 26.8293 19.6528 26.8537L19.4265 26.8555C18.3271 26.8555 17.4774 26.7642 14.8442 26.3624C12.1666 25.9498 10.8031 25.8086 9.45742 25.8086C8.55705 25.8086 7.71912 25.8774 6.85133 26.0203C5.70213 26.2014 5.25149 26.3362 4.20911 26.8121C7.13 29.9974 11.3325 32 15.9971 32C24.8317 32 31.9955 24.8359 31.9955 15.9998C31.9955 7.16274 24.832 0 15.9977 0Z" fill="#C0C0C0"/>
<path d="M98.3685 11.1095C98.372 10.068 98.3992 9.78204 98.5313 9.35941C98.5856 9.19107 98.6616 9.0273 98.7558 8.87438C98.915 8.61015 99.029 8.48341 99.3402 8.22375H94.337C94.661 8.50421 94.7678 8.61827 94.9171 8.83998C95.0175 9.00284 95.1017 9.17118 95.1578 9.34856C95.2727 9.72501 95.3117 10.1006 95.3207 11.0263C95.3207 11.5012 95.3234 11.8144 95.3234 11.9673V21.2985C95.3234 21.8468 95.2257 22.4287 95.0782 22.8079C95.0158 22.9652 94.9306 23.12 94.8294 23.262C94.7126 23.4331 94.6285 23.5272 94.3534 23.8113H99.3002C99.0568 23.6014 98.969 23.5036 98.8207 23.262C98.7166 23.1091 98.6325 22.9454 98.5728 22.7862C98.4398 22.4323 98.3629 21.9102 98.3629 21.4188V12.0242L98.3685 11.1095Z" fill="#C0C0C0"/>
<path d="M131.673 11.1027C131.673 10.4105 131.727 9.88292 131.845 9.45127C131.901 9.25218 131.985 9.05858 132.093 8.87664C132.255 8.61058 132.376 8.48304 132.707 8.22327H127.622C127.915 8.46944 128.018 8.58075 128.192 8.85767C128.303 9.03687 128.39 9.22235 128.45 9.40064C128.569 9.76795 128.617 10.2241 128.617 11.0394V14.8254H121.633V11.9832C121.633 11.1208 121.639 10.5579 121.675 10.1336C121.695 9.8811 121.736 9.65389 121.801 9.45664C121.906 9.12178 122.192 8.65675 122.445 8.39161C122.48 8.35355 122.544 8.29481 122.617 8.22327H117.622C117.921 8.53092 118.002 8.62509 118.135 8.82418C118.243 8.98338 118.338 9.16075 118.406 9.35172C118.535 9.74624 118.56 9.96247 118.574 11.0013L118.591 11.9876V20.5236C118.591 21.3877 118.574 21.7678 118.528 22.165C118.499 22.3659 118.446 22.5722 118.374 22.784C118.243 23.1197 118.065 23.383 117.771 23.6554C117.735 23.6916 117.679 23.7413 117.6 23.811H122.537C122.321 23.5884 122.247 23.4944 122.118 23.297C122.027 23.1486 121.939 22.9876 121.867 22.813C121.711 22.4003 121.661 22.1072 121.639 21.4457C121.634 21.1136 121.633 20.8068 121.633 20.5154V16.7384H128.617V20.5426C128.617 21.3822 128.608 21.689 128.546 22.1261C128.521 22.3622 128.467 22.5902 128.379 22.8002C128.266 23.0916 128.088 23.3577 127.819 23.6164C127.773 23.6572 127.707 23.7268 127.605 23.811H132.584C132.379 23.6074 132.302 23.5196 132.168 23.3286C132.045 23.1568 131.95 22.9876 131.879 22.8174C131.727 22.4482 131.691 22.1768 131.673 21.4067C131.664 20.9489 131.662 20.6819 131.662 20.5996L131.673 12.0238V11.1027Z" fill="#C0C0C0"/>
<path d="M85.8987 15.0892C85.3431 15.416 84.7721 15.6015 83.9369 15.7209C83.6193 15.7698 83.3424 15.7951 83.1216 15.7951C83.0428 15.7951 82.9886 15.7932 82.8691 15.7833V10.0138C83.0682 10.0084 83.1424 10.0084 83.2763 10.0084C84.0401 10.0084 84.7875 10.0979 85.3721 10.2654C85.7648 10.3776 86.1313 10.573 86.4326 10.8291C86.9583 11.2788 87.2352 11.9313 87.2352 12.7439C87.2352 13.4515 87.0298 14.0514 86.6254 14.5048C86.4362 14.721 86.1891 14.9146 85.8987 15.0892ZM91.851 22.731C91.3026 22.2089 90.8122 21.713 90.0856 20.9203C89.6223 20.4235 89.2431 19.9955 88.9481 19.6526L86.5266 16.802C86.8252 16.7143 86.9483 16.6718 87.2171 16.5641C88.0043 16.2537 88.6016 15.9081 89.14 15.4529C89.7571 14.9335 90.1362 14.3779 90.3661 13.6747C90.4992 13.2802 90.5579 12.8776 90.5579 12.474C90.5579 11.5158 90.2032 10.6462 89.5056 9.9177C88.864 9.24535 87.9736 8.74947 86.9718 8.51153C86.2731 8.3505 85.5483 8.2753 84.3087 8.24181C83.8409 8.23004 83.3559 8.22375 82.8626 8.22375H78.8404C79.1111 8.4753 79.2115 8.58661 79.3608 8.81107C79.4775 8.99015 79.577 9.18295 79.6368 9.3793C79.7417 9.73038 79.7851 10.2136 79.7851 11.0398V21.2676C79.7851 22.0043 79.7382 22.4323 79.6123 22.777C79.5418 22.9516 79.454 23.1163 79.3436 23.2694C79.1979 23.4539 79.1074 23.548 78.8169 23.8113H83.7731C83.5479 23.5715 83.48 23.4946 83.3424 23.3046C83.2329 23.1553 83.1424 22.9932 83.0782 22.8286C82.9442 22.4839 82.8818 22.1111 82.8809 21.388C82.8728 21.1545 82.8691 20.8912 82.8691 20.608V17.1015L85.7576 20.5635C85.8924 20.7282 86.1105 20.9779 86.401 21.3191C86.7403 21.6974 86.9919 21.9806 87.1674 22.157C87.724 22.7307 88.2534 23.1534 88.7754 23.4366C89.2279 23.6763 89.6496 23.7777 90.321 23.8012C90.5762 23.8084 90.8486 23.8112 91.1336 23.8112H93.089C92.8303 23.6048 92.7199 23.5171 92.5199 23.3424C92.3081 23.1569 92.0826 22.9571 91.851 22.731Z" fill="#C0C0C0"/>
<path d="M113.325 21.5598C112.387 21.9552 111.529 22.137 110.603 22.137C108.991 22.137 107.612 21.5624 106.589 20.4602C105.577 19.3681 105.037 17.8542 105.037 16.1412C105.037 14.5087 105.542 12.992 106.443 11.9352C106.833 11.4737 107.309 11.0864 107.854 10.7806C108.737 10.2884 109.762 10.0313 110.872 10.0313C111.822 10.0313 112.742 10.2177 113.671 10.5942C114.248 10.8295 114.458 10.9462 114.953 11.2982V8.36733C114.57 8.24253 114.417 8.20001 114.007 8.11121C113.105 7.92218 112.242 7.83533 111.262 7.83533C109.587 7.83533 108.139 8.10493 106.821 8.66321C106.033 8.99441 105.315 9.42241 104.678 9.93373C102.757 11.481 101.712 13.7208 101.712 16.3041C101.712 18.8106 102.72 20.9761 104.558 22.4311C106.077 23.6292 108.032 24.2327 110.38 24.2327C111.847 24.2327 113.218 24.0146 114.755 23.5351C114.815 23.5178 114.898 23.4898 115.01 23.4545V20.6231C114.634 20.871 114.507 20.9516 114.283 21.0837C113.981 21.2565 113.665 21.4185 113.325 21.5598Z" fill="#C0C0C0"/>
<path d="M71.8812 8.8282C71.9789 8.99472 72.0604 9.173 72.111 9.35849C72.2205 9.73494 72.2486 10.1149 72.2486 10.99V16.9161C72.2486 18.1892 72.2124 18.9431 72.1165 19.5639C72.0567 19.9784 71.9165 20.3629 71.7165 20.7067C71.3374 21.3411 70.6333 21.8289 69.8008 22.0415C69.4624 22.1239 69.0932 22.1682 68.6933 22.1682C67.3567 22.1682 66.2084 21.6677 65.6501 20.848C65.2212 20.2117 65.1026 19.6064 65.0827 18.004L65.0727 16.7189V12.0189C65.0727 11.1087 65.0764 10.6752 65.1099 10.2111C65.1244 9.93232 65.1651 9.69072 65.2238 9.49529C65.3325 9.13689 65.5977 8.65917 65.8474 8.36592C65.8827 8.33334 65.9197 8.29083 65.9795 8.22752H60.913C61.2252 8.48626 61.3247 8.6058 61.4776 8.85826C61.5763 9.02923 61.6541 9.21106 61.6984 9.4002C61.7599 9.63552 61.7971 9.87712 61.8052 10.1187C61.8061 10.2707 61.8098 10.5947 61.8107 11.0851L61.8179 11.9873V16.452C61.8179 18.1097 61.8242 18.5296 61.8803 19.1947C61.9708 20.3339 62.3138 21.2434 62.9725 22.0685C64.1525 23.5525 66.05 24.3299 68.4696 24.3299C69.6261 24.3299 70.7463 24.1544 71.6006 23.8368C72.4991 23.5028 73.3281 22.9473 73.9218 22.2893C74.6421 21.4813 75.0565 20.4877 75.1778 19.2608C75.2574 18.5477 75.2863 17.698 75.2863 16.4772V11.9943L75.2737 11.1039V10.9283C75.2737 10.2587 75.3108 9.86774 75.4067 9.5058C75.4628 9.28409 75.5524 9.07152 75.6764 8.87597C75.8411 8.61094 75.9587 8.48786 76.2871 8.22717H71.3175C71.6197 8.46614 71.7246 8.57837 71.8812 8.8282Z" fill="#C0C0C0"/>
<path d="M54.7907 21.6196C54.0984 21.7462 53.3148 21.8168 52.3431 21.8404C52.0154 21.8494 51.6056 21.8494 51.0961 21.8494H48.708L58.1578 8.22266H45.8992L44.3944 11.5499C44.8975 11.2821 45.0984 11.1879 45.5328 11.0124C46.2313 10.7364 46.9986 10.5165 47.737 10.3889C48.3813 10.2785 48.974 10.2279 49.9351 10.1989C50.3667 10.1853 50.7721 10.1772 51.1458 10.1772H52.9592L43.4225 23.8104H56.9026L58.4591 20.255C57.9179 20.5663 57.726 20.6659 57.3135 20.854C56.5261 21.2133 55.6767 21.472 54.7907 21.6196Z" fill="#C0C0C0"/>
<path d="M136.823 5.62045C135.997 5.62045 135.345 5.01062 135.345 4.11382C135.345 3.20799 135.997 2.60274 136.823 2.60274C137.663 2.60274 138.296 3.20811 138.296 4.11382C138.296 5.01062 137.663 5.62045 136.823 5.62045ZM136.823 2.34937C135.847 2.34937 135.058 3.06776 135.058 4.11382C135.058 5.16536 135.847 5.87394 136.823 5.87394C137.793 5.87394 138.583 5.16536 138.583 4.11382C138.583 3.06776 137.793 2.34937 136.823 2.34937Z" fill="#C0C0C0"/>
<path d="M136.855 3.99624H136.433V3.40082H136.833C137.109 3.40082 137.306 3.45693 137.306 3.6967C137.306 3.89842 137.17 3.99624 136.855 3.99624ZM137.602 3.69122C137.602 3.20802 137.269 3.1239 136.725 3.1239H136.161V4.99156H136.433V4.26402H136.921C136.941 4.26402 136.959 4.26402 136.973 4.25956L137.363 4.99156H137.677L137.25 4.19887C137.489 4.10024 137.602 3.90299 137.602 3.69122Z" fill="#C0C0C0"/>
</svg>
